<svg id="Group_666" data-name="Group 666" xmlns="http://www.w3.org/2000/svg" width="62.885" height="67.529" viewBox="0 0 62.885 67.529">
  <g id="Group_324" data-name="Group 324" transform="translate(0 0)">
    <g id="Group_316" data-name="Group 316" transform="translate(47.296 20.098)">
      <path id="Path_663" data-name="Path 663" d="M77.621,364.893a.2.2,0,0,1,.06-.274h0c.385-.244,1.34-.7,1.754-.96h0a.2.2,0,0,1,.272.064h0a.2.2,0,0,1-.064.272h0c-.445.273-1.406.738-1.748.958h0a.2.2,0,0,1-.106.031h0a.2.2,0,0,1-.167-.091Z" transform="translate(-77.589 -363.629)" fill="#7b7a7a"/>
      <path id="Path_664" data-name="Path 664" d="M77.62,366.141a.2.2,0,0,1,.061-.274h0c.385-.244,1.341-.7,1.754-.96h0a.2.2,0,0,1,.272.066h0a.2.2,0,0,1-.064.272h0c-.446.272-1.406.738-1.749.958h0a.2.2,0,0,1-.106.03h0a.2.2,0,0,1-.169-.092Z" transform="translate(-77.589 -363.985)" fill="#7b7a7a"/>
      <path id="Path_665" data-name="Path 665" d="M77.62,367.389a.2.2,0,0,1,.061-.274h0c.386-.244,1.341-.7,1.753-.958h0a.2.2,0,0,1,.272.066h0a.2.2,0,0,1-.066.272h0c-.444.272-1.4.737-1.747.955h0a.2.2,0,0,1-.106.031h0a.2.2,0,0,1-.169-.092Z" transform="translate(-77.589 -364.342)" fill="#7b7a7a"/>
      <path id="Path_666" data-name="Path 666" d="M77.62,368.637a.2.2,0,0,1,.063-.274h0c.384-.242,1.339-.7,1.752-.96h0a.2.2,0,0,1,.274.064h0a.2.2,0,0,1-.066.274h0c-.444.272-1.4.737-1.749.956h0a.2.2,0,0,1-.105.031h0a.2.2,0,0,1-.169-.093Z" transform="translate(-77.589 -364.698)" fill="#7b7a7a"/>
    </g>
    <path id="Path_667" data-name="Path 667" d="M76.477,384.572c.717-.337,3.276-.214,4.1-.965a16.029,16.029,0,0,0,1.832-2.326l1.2.968a14.259,14.259,0,0,1-1.977,2.821c-.495.337-3.413,2.563-3.995,2.2S76.477,384.572,76.477,384.572Z" transform="translate(-29.975 -348.568)" fill="#7b7a7a"/>
    <path id="Path_668" data-name="Path 668" d="M86.012,381.187a4.005,4.005,0,0,1-1.473-1.05h0l.1-.03.073-.022-.073.022-.1.03a.19.19,0,0,1-.009-.052h0c.026-.242.365-.627.35-.787h0a.078.078,0,0,0,0-.021h0a6.2,6.2,0,0,1-.231-1.37h0a.96.96,0,0,1-.033-.274h0c.03-.29,0-.66.3-.739h0a.225.225,0,0,1,.177.1h0a1.1,1.1,0,0,1,.186.406h0a1.587,1.587,0,0,1,.4-.514h0l0,0h0a.1.1,0,0,1,.076-.031h0c.2.056.34.312.6.627h0a2.559,2.559,0,0,1,.465.786h0a.084.084,0,0,1,0,.018h-.091l.091.012a1.257,1.257,0,0,1-.567,1.165h0a.842.842,0,0,0-.063.28h0c-.018.177-.021.4-.021.615h0v.339h0a2.123,2.123,0,0,1-.02.387h0a.153.153,0,0,1-.139.106h-.009ZM84.776,380.1c.031.031.076.072.129.119h0c.109.094.254.21.407.324h0a3.888,3.888,0,0,0,.647.412h0c0-.062.006-.158.006-.264h0v-.339h0c.018-.446-.03-.888.182-1.077h0a1.04,1.04,0,0,0,.475-.952h0a.242.242,0,0,1-.009-.042h0a5.811,5.811,0,0,0-.854-1.2h0a.184.184,0,0,0-.022.024h0a1.989,1.989,0,0,0-.129.17h0c-.093.135-.187.287-.242.372h0a.141.141,0,0,1-.121.071h0c-.212-.086-.116-.167-.177-.274h0a.851.851,0,0,0-.144-.323h0l0-.006h0a.468.468,0,0,0-.045.119h0a1.555,1.555,0,0,0-.048.392h0a.748.748,0,0,0,.023.21h0a6.787,6.787,0,0,0,.224,1.352h0a.255.255,0,0,1,.019.1h0c-.014.278-.332.676-.349.772h0a.352.352,0,0,0,.03.033Z" transform="translate(-32.274 -347.305)" fill="#7b7a7a"/>
    <g id="Group_318" data-name="Group 318" transform="translate(31.772 5.637)">
      <g id="Group_317" data-name="Group 317" transform="translate(0.375 2.379)">
        <rect id="Rectangle_409" data-name="Rectangle 409" width="2.888" height="54.893" fill="#7b7a7a"/>
      </g>
      <path id="Path_669" data-name="Path 669" d="M63.195,347.261a.432.432,0,0,1-.384.47H61.785a.434.434,0,0,1-.387-.47v-2.829a.436.436,0,0,1,.387-.472H62.81a.435.435,0,0,1,.384.472Z" transform="translate(-57.444 -343.556)" fill="#7b7a7a"/>
      <path id="Path_670" data-name="Path 670" d="M62.121,346.067a.441.441,0,0,1-.4.47H56.269a.441.441,0,0,1-.4-.47v-2.2a.442.442,0,0,1,.4-.472h5.448a.442.442,0,0,1,.4.472Z" transform="translate(-55.865 -343.394)" fill="#7b7a7a"/>
    </g>
    <rect id="Rectangle_410" data-name="Rectangle 410" width="23.856" height="1.901" transform="translate(17.387 28.516)" fill="#7b7a7a"/>
    <path id="Path_671" data-name="Path 671" d="M72.95,359.373a28.744,28.744,0,0,1-3.889-.415c-1.488-.367-2.454-.956-1.409-1.251a14.427,14.427,0,0,1,3.715.072c-2.586-.958-13.574-3.5-13.574-3.5l-11.475-6.131c-10.071-3.047-21.07-.695-22.859.169-.869.418-6.492,4.7-8.48,6.292a2.675,2.675,0,0,0-1.7,1.147c.036,0,.07-.006.109,0,.706.049.467.015,1.3.049l1.481.049c.835.035.917.361.182.725l-3.713,1.8c-.1.048-.18.087-.253.119-.182,1.221-.388,2.26-.855,4.4-.794,3.643,2.386,3.578,2.386,3.578l1.669.016a6.555,6.555,0,0,1-.08-1.012,6.46,6.46,0,0,1,12.919,0,6.541,6.541,0,0,1-.1,1.143c8.9-.034,15.609,0,25.061.066a4.879,4.879,0,0,1-.1-1.208,6.46,6.46,0,1,1,12.753,1.454c3.565,0,5.084-.014,5.4-.063a3.574,3.574,0,0,0,2.816-3.082A6.264,6.264,0,0,0,72.95,359.373Zm-52.011-4.089s3.116-4.346,4.095-4.968c2.158-1.375,9.54-1.256,9.54-1.256l1.276,6.246Zm16.865.021s-1.063-4.228-1.515-6.314a33.921,33.921,0,0,1,8.411.919A12.756,12.756,0,0,1,48.857,352c4.645,2.854,4.7,3.268,4.7,3.268Z" transform="translate(-11.407 -338.681)" fill="#7b7a7a"/>
    <g id="Group_320" data-name="Group 320" transform="translate(23.142 0)">
      <g id="Group_319" data-name="Group 319" transform="translate(0.414 3.082)">
        <rect id="Rectangle_411" data-name="Rectangle 411" width="3.515" height="63.027" fill="#7b7a7a"/>
      </g>
      <path id="Path_672" data-name="Path 672" d="M52.487,341.511a.536.536,0,0,1-.472.58H50.754a.536.536,0,0,1-.473-.58v-3.472a.535.535,0,0,1,.473-.579h1.261a.535.535,0,0,1,.472.579Z" transform="translate(-45.642 -336.064)" fill="#7b7a7a"/>
      <path id="Path_673" data-name="Path 673" d="M51.47,338.785a.54.54,0,0,1-.5.578H44.286a.541.541,0,0,1-.5-.578v-2.7a.542.542,0,0,1,.5-.578h6.689a.541.541,0,0,1,.5.578Z" transform="translate(-43.79 -335.506)" fill="#7b7a7a"/>
    </g>
    <path id="Path_674" data-name="Path 674" d="M77.491,380.423a.746.746,0,0,0,.046-.188,1.73,1.73,0,0,0-.111-.783c-.014-.045-.024-.086-.039-.133.153-.174.357-.333.242-.449l0,0c0-.005,0-.011-.006-.017a4.949,4.949,0,0,1-.636-.5l-.011-.017a10.545,10.545,0,0,0-.615-1.118c-.587.612-2.037,2.03-2.037,2.03a4.366,4.366,0,0,1-.094,1.828,2.058,2.058,0,0,0,.333.108l0-.006.057.033a2.077,2.077,0,0,1,.356,1.125l0,.677,1.534-.353,0,.06,1.149.38s-.615-1.6-.727-2.08C77.293,380.773,77.368,380.716,77.491,380.423Z" transform="translate(-29.332 -347.407)" fill="#7b7a7a"/>
    <g id="Group_322" data-name="Group 322" transform="translate(42.548 28.906)">
      <g id="Group_321" data-name="Group 321" transform="translate(0)">
        <path id="Path_675" data-name="Path 675" d="M75.333,376.665c-.217.272-2.144,2.156-2.144,2.156a3.918,3.918,0,0,1-.108,1.777c-.29.482-1.163,1.543-1.226,1.111.033-.635.042-1.469.042-1.469a2.649,2.649,0,0,1-.953-1.712,2.92,2.92,0,0,1,.712-1.555,2.567,2.567,0,0,1,1.965-1.01A3.384,3.384,0,0,1,75.333,376.665Z" transform="translate(-70.944 -375.955)" fill="#7b7a7a"/>
      </g>
    </g>
    <path id="Path_676" data-name="Path 676" d="M78.217,408.51c.725-4.769,1.464-6.769,1.295-10.244l-4.406-.78a10.059,10.059,0,0,0-.671,3.888,45.518,45.518,0,0,1,.169,6.4,48.583,48.583,0,0,0-1.374,10.6,2.46,2.46,0,0,0-.049.835c.034.269.5.43.888.563.159.056.683.5.962.632a1.858,1.858,0,0,0,1.756.166c.211-.1.3-.384-.124-.878-.364-.423-.919-.691-1.04-1.066a.788.788,0,0,1-.015-.083h.022S77.961,410.2,78.217,408.51Z" transform="translate(-29.03 -353.193)" fill="#7b7a7a"/>
    <path id="Path_677" data-name="Path 677" d="M80.108,421.578a3.982,3.982,0,0,1-1.209-.819l.12.321s.6-5.231,1-8.539c.02-.163.139-1.558.254-3.23a11.133,11.133,0,0,0-.562,2.87c-.257,1.684-2.364,9.815-2.364,9.815l.022.2c.81.159,2.764.286,2.764.286S81.477,422.234,80.108,421.578Z" transform="translate(-30.223 -356.566)" fill="#7b7a7a"/>
    <path id="Path_678" data-name="Path 678" d="M77.99,387.915c-.445-1.654-1.9-2.809-2.666-2.562-.776.25-.605,2.187-.283,3.23.009.014.019.026.027.041l0-.018C76.753,390.731,78,389.164,77.99,387.915Zm-3.466,1.5c-.6-2.709-.039-4.617,1.52-4.351,1.384.235,2.122,1.792,2.448,2.742.214-.011.333.194.528.051-.562-1.465-1.455-3.086-1.8-3.024a14.719,14.719,0,0,1-2.373-.463,6.042,6.042,0,0,0-1.038,3.269,15.323,15.323,0,0,0,.294,1.734A.392.392,0,0,0,74.524,389.416Z" transform="translate(-29.212 -349.45)" fill="#7b7a7a"/>
    <path id="Path_679" data-name="Path 679" d="M80.482,370.891a2.313,2.313,0,1,1-2.313-2.314A2.312,2.312,0,0,1,80.482,370.891Z" transform="translate(-29.798 -344.943)" fill="#7b7a7a"/>
    <path id="Path_680" data-name="Path 680" d="M76.127,385.105a2.385,2.385,0,0,0,1.354-.111,8.507,8.507,0,0,0,2.864-2.393,9.132,9.132,0,0,0,1.295-4.038c.052-.312-1.467-1.113-1.467-1.113a38.7,38.7,0,0,1-1.526,3.684c-.271.3-2.757,1.932-3.072,2.4A.948.948,0,0,0,76.127,385.105Z" transform="translate(-29.652 -347.475)" fill="#7b7a7a"/>
    <g id="Group_323" data-name="Group 323" transform="translate(49.825 27.258)">
      <path id="Path_681" data-name="Path 681" d="M81.585,377.03c-.018-.034.345-.85.3-.9-.411-.473-.325-.766-.59-1.03-.211-.212-.307-.708.223-.3.249.191.289.056.289.056s.128-.014.257-.7c.064-.342.384-.717.4-.211.037-.358.369-.429.384.006.075-.256.285-.2.3.162.052-.138.155-.069.2.141a1.5,1.5,0,0,1,.037,1.023,10.264,10.264,0,0,0,.02,2.272Z" transform="translate(-81.128 -373.649)" fill="#7b7a7a"/>
    </g>
    <path id="Path_682" data-name="Path 682" d="M22.949,370.99c0-.345-.911-.636-2.17-.738a3.113,3.113,0,0,0,0,1.475C22.038,371.625,22.949,371.334,22.949,370.99Zm.289.7c-.244-.244-1.093.2-2.054,1.012a3.266,3.266,0,0,0,1.043,1.043C23.043,372.782,23.482,371.932,23.239,371.689Zm.7-1.689c.345,0,.635-.911.738-2.169a3.117,3.117,0,0,0-1.476,0C23.3,369.089,23.594,370,23.938,370Zm-.7.29c.244-.244-.2-1.093-1.011-2.053a3.26,3.26,0,0,0-1.043,1.041C22.145,370.094,22.995,370.534,23.239,370.29Zm.7,1.689c-.344,0-.635.911-.738,2.169a3.141,3.141,0,0,0,1.476,0C24.574,372.89,24.283,371.979,23.938,371.979Zm.7-.29c-.244.244.2,1.093,1.012,2.055a3.263,3.263,0,0,0,1.042-1.043C25.731,371.886,24.882,371.446,24.638,371.689Zm-.7-6.151a5.451,5.451,0,1,0,5.451,5.452A5.451,5.451,0,0,0,23.938,365.538Zm0,9.272a3.82,3.82,0,1,1,3.82-3.82A3.821,3.821,0,0,1,23.938,374.81Zm1.712-6.572c-.816.96-1.256,1.81-1.012,2.053s1.093-.2,2.053-1.012A3.256,3.256,0,0,0,25.65,368.237Zm-.722,2.753c0,.344.911.635,2.168.738a3.113,3.113,0,0,0,0-1.475C25.839,370.355,24.928,370.645,24.928,370.99Z" transform="translate(-13.427 -344.076)" fill="#7b7a7a"/>
    <path id="Path_683" data-name="Path 683" d="M73.75,390.182c0,.4,1.206,3.037,1.34,5.315l4.645.67s-.67-6.655-.759-7.057-.506-.06-.506-.06-.268,1.653-1.236,2.115c-.988.471-2.263-.61-2.442-1.012S73.75,390.182,73.75,390.182Z" transform="translate(-29.197 -350.747)" fill="#7b7a7a"/>
    <path id="Path_684" data-name="Path 684" d="M86.077,376.995a.212.212,0,0,1,.329.234.249.249,0,0,1,.267.335c.149-.049.394.175.346.344a.415.415,0,0,1,.077.482c-.1.2-.359.494-.532.464s.172-.56.172-.56-.2.393-.4.4c0,0-.188.051-.139-.1s.252-.657.252-.657-.349.582-.419.556c-.126-.047-.24-.076.18-.888-.282.5-.371.59-.512.528S86.077,376.995,86.077,376.995Z" transform="translate(-32.601 -347.334)" fill="#7b7a7a"/>
    <path id="Path_685" data-name="Path 685" d="M86.525,377.844a1.354,1.354,0,0,0-.2-.567c-.218-.388-.858-.386-1.053-.381a.874.874,0,0,1-.522,1.05c0,.019-.045.069-.044.089.012.2-.061.356.36.562a1.319,1.319,0,0,0,.747.172.165.165,0,0,0,.08-.04c.065-.066-.384-.081-.547-.437a.124.124,0,0,1,.005-.054l.006-.019a.673.673,0,0,1,.036-.1l0,0a1.015,1.015,0,0,1,.207-.293.777.777,0,0,1,.413-.217c.059-.011.505.432.512.392A.505.505,0,0,0,86.525,377.844Zm-5.473-5.779a1.236,1.236,0,0,0-.685,0,.871.871,0,0,0-.174.093,2.247,2.247,0,0,1,.532.272c.227.191.226.467-.036.735a.456.456,0,0,1-.745,0,1.885,1.885,0,0,1-.269-.485l-.073.084a1.118,1.118,0,0,0-.009.8.674.674,0,0,0,.764.6.757.757,0,0,1,.725-.089c.238.164.361-.573.45-.736a1.064,1.064,0,0,1,.183-.22c-.02-.1-.037-.226-.053-.394A.668.668,0,0,0,81.051,372.065Zm2.117,2.776c-.044.342-.076.92-.091,1.3.238.212.633.415.841.6a6.247,6.247,0,0,1,.29-.838C83.937,375.622,83.445,375.125,83.168,374.841Z" transform="translate(-30.846 -345.925)" fill="#7b7a7a"/>
  </g>
</svg>
