<svg id="Group_668" data-name="Group 668" xmlns="http://www.w3.org/2000/svg" width="75.158" height="56.189" viewBox="0 0 75.158 56.189">
  <g id="Group_664" data-name="Group 664" transform="translate(0 0)">
    <path id="Path_582" data-name="Path 582" d="M302.309,284.577l.013-.649c.942.02,1.869.031,2.765.031h0a64.154,64.154,0,0,0,8.993-.48h0c.158-.023.3-.053.424-.083h0a4.132,4.132,0,0,0-.648-.045h0c-.557,0-1.208.068-1.835.068h0a3.185,3.185,0,0,1-1.7-.362h0a1.857,1.857,0,0,1-.8-1.7h0a5.425,5.425,0,0,1,.144-1.158h0c.786-3.575,2.183-6.262,4.381-17.521h0a19.309,19.309,0,0,0,.289-3.544h0c.015-3.093-.576-6.523-1.388-7.54h0l.514-.4c1.006,1.35,1.507,4.744,1.521,7.936h0a19.9,19.9,0,0,1-.3,3.667h0c-2.2,11.283-3.623,14.065-4.383,17.537h0a4.778,4.778,0,0,0-.129,1.019h0c.009.676.2.96.494,1.153h0a2.6,2.6,0,0,0,1.35.264h0c.581,0,1.228-.069,1.835-.069h0a3.343,3.343,0,0,1,1.238.185h0c.186.092.416.143.463.507h0c-.039.336-.251.4-.4.477h0a3.448,3.448,0,0,1-.648.186h0a19.923,19.923,0,0,1-2.2.288h0c-1.842.162-4.384.261-7.227.261h0c-.9,0-1.832-.01-2.779-.029Z" transform="translate(-252.39 -231.147)" fill="#7b7a7a"/>
    <g id="Group_304" data-name="Group 304" transform="translate(56.568 11.513)">
      <path id="Path_583" data-name="Path 583" d="M315.917,239.647h-2.9a.181.181,0,0,0-.195.165v3.974a.154.154,0,0,0,.064.121,2.853,2.853,0,0,0,1.577.3,3.071,3.071,0,0,0,1.554-.283.159.159,0,0,0,.1-.141v-3.974A.181.181,0,0,0,315.917,239.647Z" transform="translate(-312.43 -238.845)" fill="#7b7a7a"/>
      <rect id="Rectangle_408" data-name="Rectangle 408" width="0.774" height="0.806" transform="translate(1.649 5.1)" fill="#7b7a7a"/>
      <g id="Group_302" data-name="Group 302" transform="translate(0.076)">
        <path id="Path_584" data-name="Path 584" d="M312.352,238.835v1.033h0a7.43,7.43,0,0,0,3.915,0h0v-1.033Z" transform="translate(-312.352 -238.577)" fill="#7b7a7a"/>
        <path id="Path_585" data-name="Path 585" d="M316.272,238.719c0,.147-.878.268-1.96.268s-1.96-.121-1.96-.268.876-.269,1.96-.269S316.272,238.57,316.272,238.719Z" transform="translate(-312.352 -238.45)" fill="#7b7a7a"/>
        <path id="Path_586" data-name="Path 586" d="M315.95,238.73c0,.094-.595.171-1.326.171s-1.328-.077-1.328-.171.595-.171,1.328-.171S315.95,238.635,315.95,238.73Z" transform="translate(-312.664 -238.486)" fill="#7b7a7a"/>
      </g>
      <g id="Group_303" data-name="Group 303" transform="translate(0 5.631)">
        <path id="Path_587" data-name="Path 587" d="M312.238,247.778l1.838-.92,1.258.242.436.822-1.331.774s-.412-.557-.508-.725l-1.283.581Z" transform="translate(-312.238 -246.858)" fill="#7b7a7a"/>
        <path id="Path_588" data-name="Path 588" d="M316.132,248.824a.593.593,0,1,1-.592-.593A.592.592,0,0,1,316.132,248.824Z" transform="translate(-313.133 -247.311)" fill="#7b7a7a"/>
      </g>
    </g>
    <path id="Path_589" data-name="Path 589" d="M333.3,278.95s-.049,2.866.078,5.533.881,5.859-.4,7.534a1.092,1.092,0,0,0-.155.779c.027.1.05.183.071.271.211-.01.407-.017.573-.017,1.59,0,2.3-.495,1.848-1.761-.207-.576-.35-1.053-.451-1.441.725-2.232.033-12.913.033-12.913-.113-.67-.034-1.8-.146-3.556A47.922,47.922,0,0,0,333.3,278.95Z" transform="translate(-262.459 -238.472)" fill="#7b7a7a"/>
    <path id="Path_590" data-name="Path 590" d="M319.583,248.26s-.673.1-.817.1l.145-.024c-.562,0-2.246-.476-2.635-.433a10.339,10.339,0,0,0-1.728.648c-.3.13-.863.735-.733.95s.258.216.432.043a2.144,2.144,0,0,1,.324-.227c-.228.2-.478.443-.454.573a.254.254,0,0,0,.411.2c.193-.109.82-.368.82-.368s-.13.5-.021.6a1.278,1.278,0,0,0,.516.151s.023.324.454.3.713-.042.843-.065a4.222,4.222,0,0,1,1.468-.216,6.988,6.988,0,0,1,1.058.822Z" transform="translate(-256.184 -230.058)" fill="#7b7a7a"/>
    <g id="Group_305" data-name="Group 305" transform="translate(0 16.621)">
      <path id="Path_591" data-name="Path 591" d="M239.986,294.688a1.423,1.423,0,0,1-1.4,1.446H231.34a1.424,1.424,0,0,1-1.4-1.446v-13a1.424,1.424,0,0,1,1.4-1.441h7.247a1.422,1.422,0,0,1,1.4,1.441Z" transform="translate(-228.49 -257.362)" fill="#7b7a7a"/>
      <path id="Path_592" data-name="Path 592" d="M302.079,294.688a1.426,1.426,0,0,1-1.4,1.446h-7.244a1.426,1.426,0,0,1-1.4-1.446v-13a1.424,1.424,0,0,1,1.4-1.441h7.244a1.423,1.423,0,0,1,1.4,1.441Z" transform="translate(-248.997 -257.362)" fill="#7b7a7a"/>
      <path id="Path_593" data-name="Path 593" d="M277.988,258.626l2.4-.165a1.477,1.477,0,0,0,1.409-1.445v-.563a1.667,1.667,0,0,0-1.409-1.583l-2.4-.4a1.856,1.856,0,0,0-2.336,1.461,1.035,1.035,0,0,1-.469.622l-.107.023c-1.268-3.2-3.146-7.7-4.505-8.236-3.538-1.383-12.438-2.149-14.929-2.262h-1.036c-2.49.114-11.542.879-15.081,2.262-1.374.537-3.277,5.136-4.548,8.342l-.591-.129a1.045,1.045,0,0,1-.469-.622,1.859,1.859,0,0,0-2.34-1.461l-2.391.4a1.665,1.665,0,0,0-1.41,1.583v.563a1.476,1.476,0,0,0,1.41,1.445l2.391.165c.774.052,1.406.069,1.84-.427l.855.186a11.485,11.485,0,0,0-2.743,1.027c-1.015.8-3.393,2.567-2.751,8.107.387,3.347,1.853,11.473,1.853,11.473h48.751s1.524-7.486,1.943-11.473c.587-5.658-1.739-7.3-2.755-8.107a11.557,11.557,0,0,0-2.781-1.037c-.008-.021-.017-.046-.026-.066l.542-.119C276.738,258.686,277.216,258.678,277.988,258.626Zm-37.548,6.987c0,.906-1.576.795-2.455.795h-5.376a1.617,1.617,0,0,1-1.593-1.639v-.549c0-.9.515-1.145,1.56-1.5l4.553-.822c1.942-.025,3.311,2.266,3.311,3.173Zm14.578-9.765a76.169,76.169,0,0,0-18.025,1.838c1.139-2.881,2.873-7.1,4.121-7.585,3.176-1.242,11.309-1.9,13.545-2h.877c2.232.1,10.212.762,13.386,2,1.247.488,2.978,4.692,4.117,7.572a76.528,76.528,0,0,0-15.339-1.83Q256.377,255.822,255.018,255.849Zm22.762,6.868c1.044.358,1.559.6,1.559,1.5v.549a1.617,1.617,0,0,1-1.592,1.639h-5.376c-.879,0-2.453.111-2.453-.795v-.546c0-.906,1.367-3.2,3.31-3.173Z" transform="translate(-227.775 -246.077)" fill="#7b7a7a"/>
    </g>
    <g id="Group_306" data-name="Group 306" transform="translate(43.98 18.412)">
      <path id="Path_594" data-name="Path 594" d="M305.44,248.752l-12,2.7.487,1.08Z" transform="translate(-293.442 -248.752)" fill="#7b7a7a"/>
      <path id="Path_595" data-name="Path 595" d="M306.939,249.557l-10.483,6.594-.109-.757Z" transform="translate(-294.402 -249.018)" fill="#7b7a7a"/>
      <path id="Path_596" data-name="Path 596" d="M307.1,248.913l-9.943,3.945.216.486Z" transform="translate(-294.669 -248.805)" fill="#7b7a7a"/>
    </g>
    <path id="Path_597" data-name="Path 597" d="M328.758,232.69c-1.346-1.572-3.425-2.91-4.1-2.91s-.809.376-.754,1.668c.05,1.144-.111,2.751,1.236,3.087S328.758,232.69,328.758,232.69Z" transform="translate(-259.519 -224.074)" fill="#7b7a7a"/>
    <path id="Path_598" data-name="Path 598" d="M327.739,222.855l1.369-.4a3.288,3.288,0,0,0-3.529-1.058l1.688,1.364Zm-1.425,2.738a4.7,4.7,0,0,1,1.387,2.518l3.351-1.336a14.488,14.488,0,0,0-1.538-3.748l-2.007.624Zm-3.636.378a1.769,1.769,0,0,0,.379.81.963.963,0,0,1,.49-.107,3.148,3.148,0,0,1,1.28.49l.775-1.46a2.547,2.547,0,0,0-.636-.265A3.949,3.949,0,0,0,322.678,225.97Zm5.065,3.567c-.062-.486-.322-1.132-.518-1.893a3.211,3.211,0,0,0-1.169-1.632L325.2,227.4A13.158,13.158,0,0,1,327.743,229.537Zm-2.9-4.475a2.3,2.3,0,0,1,.988.216l1-1.889a4.714,4.714,0,0,0-1.82-1.81,4.594,4.594,0,0,0-1.4.853c-.828.776-2.678,1.836-1.068,3.383A3.855,3.855,0,0,1,324.839,225.063Zm7.087,17.567c.127-2.159,2.44-6.019,1.667-10.53-.356-2.076-1.53-2.974-2.293-4.715l-3.258,1.708.02.448c.046.893-.667,1.579-2.01,3.815a12.057,12.057,0,0,0-1.884,5.356,4.788,4.788,0,0,0,2.855-.948,17.419,17.419,0,0,1,.864-4.923,3.586,3.586,0,0,1,3.023-2.418c.69,0,1.32.914,1.32.914.664,1,.207,3.112-.457,5.147a24.3,24.3,0,0,1-1.951,5.065c-.651,1.039-.51,1.571-3.232,1.571-.838,0-1.737.034-2.544.032-.03.68-.058,1.23-.058,1.7,0,1.015-1.029,14.249-1.029,14.249-.183,1.368.428,8.818.788,12.907.1,1.565.178,2.624.178,2.624l.06.022,0,.043s.064.023.157.054a1.287,1.287,0,0,1-.692.591c-2.019.644-2.363,1.159-2.363,1.761,0,.693,3.888.129,5.455.129,1.591,0,2.3-.5,1.848-1.761-.117-.324-.209-.611-.29-.876.042-.019.085-.035.127-.056,1.777-.89.848-4.715.721-7.381s-.078-5.533-.078-5.533a61.771,61.771,0,0,1,1.651-6.094c1.648-5,1.906-5.116,1.906-6.934C332.433,246.063,331.8,244.789,331.926,242.63Z" transform="translate(-258.594 -221.26)" fill="#7b7a7a"/>
  </g>
</svg>
