<svg id="Group_660" data-name="Group 660" xmlns="http://www.w3.org/2000/svg" width="68.744" height="51.611" viewBox="0 0 68.744 51.611">
  <path id="Path_599" data-name="Path 599" d="M357.659,153.946a2.33,2.33,0,0,0-.579.076h0l-.074-.3a2.645,2.645,0,0,1,.653-.083h0a1.75,1.75,0,0,1,1.207.42h0v0l-.208.223a1.455,1.455,0,0,0-1-.343Z" transform="translate(-341.4 -136.019)" fill="#7b7a7a"/>
  <path id="Path_600" data-name="Path 600" d="M355.75,154.509c-.1-.237-.138-1.457-.294-1.52a9.75,9.75,0,0,0-3.983,1.36,6.151,6.151,0,0,0-1.582.964l.563.918a10.305,10.305,0,0,1,2.52-1.487,4.2,4.2,0,0,1,2.33-.046C355.439,154.815,355.75,154.509,355.75,154.509Z" transform="translate(-339.228 -135.82)" fill="#7b7a7a"/>
  <path id="Path_601" data-name="Path 601" d="M354.356,184.176a.6.6,0,1,1-.6-.6A.6.6,0,0,1,354.356,184.176Z" transform="translate(-340.222 -145.154)" fill="#7b7a7a"/>
  <path id="Path_602" data-name="Path 602" d="M350.194,184.176a.6.6,0,1,1-.6-.6A.6.6,0,0,1,350.194,184.176Z" transform="translate(-338.951 -145.154)" fill="#7b7a7a"/>
  <path id="Path_603" data-name="Path 603" d="M343.116,134.056c-.113-.25-.149-.589-.474-.464s-1.063,1.108-.756,1.638S343.116,134.056,343.116,134.056Z" transform="translate(-336.763 -129.891)" fill="#7b7a7a"/>
  <g id="Group_308" data-name="Group 308" transform="translate(6.855 0.386)">
    <path id="Path_604" data-name="Path 604" d="M345.426,131.822c.574-.359.88-.051,1.182-.012a2.147,2.147,0,0,1,.707.3,2.266,2.266,0,0,0,.15-1.4,2.49,2.49,0,0,0-1.729-1.872c-.46-.192-1.111,1.8-1.326,3.726.376-.039.245.015.245.015A2.74,2.74,0,0,1,345.426,131.822Z" transform="translate(-344.41 -128.832)" fill="#7b7a7a"/>
  </g>
  <path id="Path_605" data-name="Path 605" d="M349.239,186.5a.143.143,0,1,1,0,.286h-1.6c-.007.1-.015.191-.023.286h1.624a.143.143,0,1,1,0,.286h-1.647c-.008.1-.016.19-.023.286h1.67a.143.143,0,1,1,0,.286h-1.695c-.007.1-.015.191-.023.286h1.717a.142.142,0,1,1,0,.285H347.5c-.008.1-.015.192-.024.286h1.765a.143.143,0,1,1,0,.286h-1.79c-.008.1-.016.19-.024.285h1.814a.143.143,0,1,1,0,.286H347.4c-.008.1-.016.192-.024.285h1.863a.143.143,0,1,1,0,.286H347.35c-.008.1-.016.194-.024.286h1.913a.143.143,0,1,1,0,.286h-1.933c-.031.471-.059.889-.082,1.228h6.5V180.131h-5.658c-.047,1.568-.218,4.014-.4,6.366Zm2.706-4.235a.863.863,0,1,1-.863.863A.865.865,0,0,1,351.944,182.263Zm-1.411,4.235h2.113a.143.143,0,0,1,0,.286h-2.113a.143.143,0,0,1,0-.286Zm0,.571h2.113a.143.143,0,0,1,0,.286h-2.113a.143.143,0,0,1,0-.286Zm0,.571h2.113a.143.143,0,0,1,0,.286h-2.113a.143.143,0,0,1,0-.286Zm0,.571h2.113a.142.142,0,0,1,0,.285h-2.113a.142.142,0,1,1,0-.285Zm0,.571h2.113a.143.143,0,0,1,0,.286h-2.113a.143.143,0,0,1,0-.286Zm0,.57h2.113a.143.143,0,0,1,0,.286h-2.113a.143.143,0,0,1,0-.286Zm0,.571h2.113a.143.143,0,0,1,0,.286h-2.113a.143.143,0,0,1,0-.286Zm0,.571h2.113a.143.143,0,0,1,0,.286h-2.113a.143.143,0,0,1,0-.286Zm-1.481-8.232a.863.863,0,1,1-.864.863A.863.863,0,0,1,349.052,182.263Z" transform="translate(-338.414 -144.104)" fill="#7b7a7a"/>
  <path id="Path_606" data-name="Path 606" d="M338.243,184.686a46.94,46.94,0,0,0,.072-5.106s-.466-2.253-1.288-4.888a38.776,38.776,0,0,1,.042,4.794s-.821,9.607,0,11.014h.018c-.083.284-.186.607-.317.973-.42,1.169.238,1.626,1.7,1.626l.167,0a8.223,8.223,0,0,0,.131-1.377C338.571,191.089,337.673,191.841,338.243,184.686Z" transform="translate(-335.185 -142.444)" fill="#7b7a7a"/>
  <path id="Path_607" data-name="Path 607" d="M336.094,142c-.614.919.236,2.529.848,4.408a7.823,7.823,0,0,0,2.566,3.869c.887.7,3.659,2.061,5.719,1.3a1.365,1.365,0,0,0,.907-.864l-.163-1.649s-.113-.263-2.132-.655c-1.843-.359-2.019-1.08-2.019-1.08A45.879,45.879,0,0,1,339.611,143c-.717-1.754-1.707-1.78-2.345-1.78S336.094,142,336.094,142Z" transform="translate(-334.952 -132.227)" fill="#7b7a7a"/>
  <path id="Path_608" data-name="Path 608" d="M350.026,152.5l.718.3c.5.151,1.722.19,2.054.331a9.511,9.511,0,0,1,1.352,1.037c.231.2.566.88.393,1.037s-.287.122-.393-.079a1.936,1.936,0,0,0-.225-.288c.15.236.3.52.247.628a.233.233,0,0,1-.414.063c-.142-.147-.627-.545-.627-.545s-.017.473-.142.539a1.19,1.19,0,0,1-.5,0s-.1.28-.481.145-.618-.229-.727-.283a4.385,4.385,0,0,0-1.233-.2c-.3.033-.859.164-.859.164Z" transform="translate(-339.014 -135.671)" fill="#7b7a7a"/>
  <path id="Path_609" data-name="Path 609" d="M354.082,186.446c-.091,0-.184,0-.279,0h0a15.814,15.814,0,0,1-3.17-.347h0c-.689-.208-1.149-.306-1.241-.862h0c.069-.494.462-.586.94-.73h0a9.59,9.59,0,0,1,2.148-.192h0a5.087,5.087,0,0,0,2.289-.477h0c.537-.273.76-.616.746-.8h0c.023-.19-.257-.568-1.306-.748h0a.306.306,0,0,1-.249-.352h0a.305.305,0,0,1,.352-.249h0c1.119.19,1.79.645,1.813,1.349h0c-.081,1.1-1.561,1.853-3.644,1.883h0a6.408,6.408,0,0,0-2.42.318h0l.039.024h0a2.787,2.787,0,0,0,.68.242h0a15.3,15.3,0,0,0,3.042.329h0c.085,0,.174,0,.261,0h0c3.453-.032,4.89-1.966,4.924-4.868h0a11.275,11.275,0,0,0-.668-3.617h0c-1.62-4.752-6.949-8.722-8.7-12.181h0a10.75,10.75,0,0,1-1.1-4.778h0a6.6,6.6,0,0,1,1.081-4.051h0a.3.3,0,0,1,.428-.029h0a.3.3,0,0,1,.029.43h0a6.1,6.1,0,0,0-.931,3.648h0a10.146,10.146,0,0,0,1.037,4.5h0c1.6,3.242,7,7.264,8.734,12.257h0a11.909,11.909,0,0,1,.7,3.814h0a5.594,5.594,0,0,1-1.349,3.925h0a5.489,5.489,0,0,1-4.169,1.551h-.015Z" transform="translate(-338.814 -136.812)" fill="#7b7a7a"/>
  <g id="Group_310" data-name="Group 310" transform="translate(16.633 8.068)">
    <path id="Path_610" data-name="Path 610" d="M362.893,169.021h8.133c1.071,0,1.654-.733,1.335-1.55l-.151-.389H361.651l-.139.389C361.219,168.288,361.824,169.021,362.893,169.021Z" transform="translate(-359.386 -148.189)" fill="#7b7a7a"/>
    <path id="Path_611" data-name="Path 611" d="M364.113,163.78a2.051,2.051,0,0,0-1.913,1.333l-.174.575h4.864l-.309-1.909Z" transform="translate(-359.565 -147.181)" fill="#7b7a7a"/>
    <path id="Path_612" data-name="Path 612" d="M374.566,165.689l-.19-.575a2.121,2.121,0,0,0-1.95-1.333h-2.712c.031.561.181,1.467.256,1.909Z" transform="translate(-361.911 -147.181)" fill="#7b7a7a"/>
    <path id="Path_613" data-name="Path 613" d="M416.192,169.021h8.134c1.07,0,1.652-.733,1.334-1.55l-.153-.389H414.948l-.137.389C414.517,168.288,415.122,169.021,416.192,169.021Z" transform="translate(-375.654 -148.189)" fill="#7b7a7a"/>
    <path id="Path_614" data-name="Path 614" d="M417.411,163.78a2.05,2.05,0,0,0-1.913,1.333l-.175.575h4.864l-.306-1.909Z" transform="translate(-375.832 -147.181)" fill="#7b7a7a"/>
    <path id="Path_615" data-name="Path 615" d="M427.864,165.689l-.19-.575a2.123,2.123,0,0,0-1.95-1.333h-2.713c.03.561.179,1.467.256,1.909Z" transform="translate(-378.179 -147.181)" fill="#7b7a7a"/>
    <g id="Group_309" data-name="Group 309">
      <path id="Path_616" data-name="Path 616" d="M369.621,188.58a1.449,1.449,0,0,1-1.362,1.522H361.21a1.45,1.45,0,0,1-1.363-1.522V174.885a1.449,1.449,0,0,1,1.363-1.519h7.049a1.447,1.447,0,0,1,1.362,1.519Z" transform="translate(-358.9 -150.107)" fill="#7b7a7a"/>
      <path id="Path_617" data-name="Path 617" d="M427.861,188.58A1.449,1.449,0,0,1,426.5,190.1h-7.046a1.45,1.45,0,0,1-1.363-1.522V174.885a1.448,1.448,0,0,1,1.363-1.519H426.5a1.447,1.447,0,0,1,1.364,1.519Z" transform="translate(-376.676 -150.107)" fill="#7b7a7a"/>
      <path id="Path_618" data-name="Path 618" d="M406.7,152.137c-.022-.013-.044-.025-.066-.035-.065-.036-.132-.075-.2-.106-1.135-3.083-4.989-9.893-6.593-10.57-3.443-1.456-12.1-1.418-14.524-1.537h-1.009c-2.422.119-11.23.081-14.674,1.537-1.6.677-5.455,7.487-6.591,10.57-1.488.465-4.49,3.8-3.868,9.632.377,3.525,1.8,12.086,1.8,12.086h47.434s1.483-7.884,1.889-12.086C410.853,155.949,408.486,153.149,406.7,152.137Zm-35.844,9.193h-9.213a1.663,1.663,0,0,1-1.564-2.268l.355-1.285a2.342,2.342,0,0,1,2.166-1.66h7.169a2.419,2.419,0,0,1,2.208,1.66l.386,1.285A1.623,1.623,0,0,1,370.855,161.329Zm-5.2-10.056c1.108-3.033,4.311-7.476,5.526-7.989,3.09-1.309,11-1.16,13.179-1.266h.853c2.173.106,9.936-.043,13.024,1.266,1.215.513,4.42,4.957,5.526,7.989-.2,0-.444.01-.714.013-3.991-.015-8.808-.03-13.857.033C379.542,151.306,368.394,151.262,365.659,151.273Zm42.226,10.056h-9.213a1.663,1.663,0,0,1-1.563-2.268l.354-1.285a2.345,2.345,0,0,1,2.167-1.66H406.8a2.42,2.42,0,0,1,2.209,1.66l.386,1.285A1.623,1.623,0,0,1,407.885,161.329Z" transform="translate(-358.671 -139.889)" fill="#7b7a7a"/>
      <path id="Path_619" data-name="Path 619" d="M410.6,179.768a.8.8,0,0,1-.757.846h-50.6a.8.8,0,0,1-.758-.846v-3.805a.8.8,0,0,1,.758-.844h50.6a.8.8,0,0,1,.757.844Z" transform="translate(-358.484 -150.642)" fill="#7b7a7a"/>
    </g>
  </g>
  <g id="Group_311" data-name="Group 311" transform="translate(12.02 8.391)">
    <path id="Path_620" data-name="Path 620" d="M359.269,154.176a.329.329,0,0,0,.03.374c.117.123,1.4,1.019,1.4,1.019l.293-.274s-1.022-1.04-1.18-1.21a.3.3,0,0,0-.422-.057A.869.869,0,0,0,359.269,154.176Z" transform="translate(-354.097 -144.508)" fill="#7b7a7a"/>
    <path id="Path_621" data-name="Path 621" d="M363.605,152.486l6.34-7.5h0l.2.173-6.11,7.224,5.075,3.87L369,156.5l-5.4-4.018Z" transform="translate(-355.434 -141.769)" fill="#7b7a7a"/>
    <path id="Path_622" data-name="Path 622" d="M351.868,156.462l7.98-5.573-1.01-10.486.267-.031,1.187,10.75-8.448,5.427Zm6.97-16.06h0Z" transform="translate(-351.844 -140.36)" fill="#7b7a7a"/>
    <path id="Path_623" data-name="Path 623" d="M353.811,165.487c.463-1.262,7.529-9.967,7.235-9.967-.935,0-.505-.295-.505-.295Z" transform="translate(-352.444 -144.893)" fill="#7b7a7a"/>
    <path id="Path_624" data-name="Path 624" d="M363.074,151.121l4.654-10.767-4.15,11.005Z" transform="translate(-355.272 -140.354)" fill="#7b7a7a"/>
    <path id="Path_625" data-name="Path 625" d="M363.9,155.154a.1.1,0,0,1,.063-.128h0l7.234-1.786a.1.1,0,0,1,.129.063h0a.1.1,0,0,1-.063.128h0l-7.233,1.786a.116.116,0,0,1-.034.006h0a.1.1,0,0,1-.095-.068Z" transform="translate(-355.522 -144.285)" fill="#7b7a7a"/>
    <path id="Path_626" data-name="Path 626" d="M371.717,153.529l-10.356-.218-.361.036-5.79-5.74c-.065-.056-.233-.276-.17-.22l.307.2,6.074,5.422,10.3.218a.151.151,0,0,1,.148.156h0a.152.152,0,0,1-.152.149h0Z" transform="translate(-352.815 -142.498)" fill="#7b7a7a"/>
    <path id="Path_627" data-name="Path 627" d="M355.668,149.917c.991.926,5.3,4.608,5.528,4.465a1.323,1.323,0,0,0,.347-.3Z" transform="translate(-353.011 -143.273)" fill="#7b7a7a"/>
    <path id="Path_628" data-name="Path 628" d="M363.386,155.4l3.7,4.371-3.926-3.918Z" transform="translate(-355.299 -144.945)" fill="#7b7a7a"/>
    <path id="Path_629" data-name="Path 629" d="M364.582,162.081l-1.229-6.709a.091.091,0,0,1,.073-.107h0a.092.092,0,0,1,.107.074h0l1.23,6.709a.092.092,0,0,1-.073.106h-.017a.092.092,0,0,1-.091-.074Z" transform="translate(-355.356 -144.905)" fill="#7b7a7a"/>
    <path id="Path_630" data-name="Path 630" d="M363.851,151.944a.147.147,0,0,1-.066-.123h0l-.084-7.739a.151.151,0,0,1,.15-.153h0a.152.152,0,0,1,.154.15h0l.012,7.737,11.531-3.763a.153.153,0,0,1,.2.09h0a.151.151,0,0,1-.09.195h0l-11.593,3.8c-.017.006-.106-.171-.123-.171h0a.151.151,0,0,1-.087-.027Z" transform="translate(-355.463 -141.445)" fill="#7b7a7a"/>
    <path id="Path_631" data-name="Path 631" d="M359.222,162.939a.125.125,0,0,1-.092-.153h0l1.672-6.757-5.689.781h0a.125.125,0,0,1-.142-.107h0a.125.125,0,0,1,.108-.142h0l5.872-.8a.12.12,0,0,1,.108.04h0a.121.121,0,0,1,.028.114h0l-1.716,6.936a.127.127,0,0,1-.137.1h0l-.015,0Z" transform="translate(-352.799 -145.055)" fill="#7b7a7a"/>
    <path id="Path_632" data-name="Path 632" d="M362.054,152.533l-3.756-7.883,4.25,7.776Z" transform="translate(-353.814 -141.665)" fill="#7b7a7a"/>
  </g>
  <path id="Path_633" data-name="Path 633" d="M346.544,129.889a12.653,12.653,0,0,0-2.292-1.558,12.137,12.137,0,0,0-1.8,2.177c-1.107.024-3.262.238-3.262.238l-.217.982,2.792-.179a9.235,9.235,0,0,0-1.194,2.364c-.092.818,2.419,5.6,2.419,5.6l2.9-3.04-.456-.858a24.882,24.882,0,0,0,1.922-3.845A2.269,2.269,0,0,0,346.544,129.889Z" transform="translate(-335.895 -128.294)" fill="#7b7a7a"/>
  <path id="Path_634" data-name="Path 634" d="M339.854,131.819l-2.127.2c0,.766.11,1.825.138,2.069a7.533,7.533,0,0,1-.915,1.349l-.028-.021c-.812.863-2.047,1.609-2.283,3.559-.406,3.35.624,6.788.741,8.779s-.469,3.17-.469,5.509c0,1.678.238,1.784,1.761,6.4a57.052,57.052,0,0,1,1.524,5.626s.044,2.644-.072,5.106-.975,5.992.666,6.812c.04.02.08.028.119.046-.074.247-.16.513-.269.815-.419,1.168.238,1.626,1.706,1.626,1.447,0,5.036.52,5.036-.119,0-.555-.318-1.031-2.181-1.626a1.187,1.187,0,0,1-.64-.545l.144-.049,0-.038.056-.021s.071-.988.166-2.446c.332-3.778.893-10.629.726-11.891,0,0-1.289-12.786-1.289-13.723,0-.433-.032-.757-.067-1.189a8.434,8.434,0,0,1-3.5-1.453,7.818,7.818,0,0,1-2.565-3.869c-.612-1.879-1.542-3.865-1.009-4.669a2.163,2.163,0,0,1,1.465-1.194c.78-.119,2.019.217,2.866,2.128.768,1.733,2.366,4.581,2.366,4.581l.138.031a15.049,15.049,0,0,0-1.365-4.874,5.653,5.653,0,0,0-1.237-1.461,5.182,5.182,0,0,1,.428-.631,7.127,7.127,0,0,1-.969-2.38A4.813,4.813,0,0,1,339.854,131.819Zm2.469-3.325a2.94,2.94,0,0,0-2.555.133,3.428,3.428,0,0,0-1.674,1.765c.654-.06,2.082-.186,2.917-.2A16.939,16.939,0,0,1,342.323,128.494Z" transform="translate(-334.544 -128.277)" fill="#7b7a7a"/>
</svg>
