<svg id="Group_662" data-name="Group 662" xmlns="http://www.w3.org/2000/svg" width="71.353" height="67.34" viewBox="0 0 71.353 67.34">
  <path id="Path_1344" data-name="Path 1344" d="M165.067,308.158l-5.086,1.092-2.892-1-3.532-4.086.338-.973,5.321,1.849a.7.7,0,0,0,.884-.427l1.353-3.894a.7.7,0,0,0-.428-.884l-5.322-1.849.338-.973,5.3-1.016L164.238,297l3.252,3.937,4.329,1.505a7.905,7.905,0,0,0-.17,4.914,26.972,26.972,0,0,0,1.105,3.476c-2.631-.915-5.216-1.813-7.685-2.673Zm12.525,55.175c.389-.031.415-2.42-.228-2.714l-.682-.247,2-15.852.36.007-.346,16.581c.029.9.084,2.226.436,2.226l8.1-.023c.533-.029.571-2.42-.314-2.713l-2.131-.613.415-10.71c.334-8.6,1.022-14.77,1.059-23.816.02-.638.022-1.27,0-1.89l2.841,1.213a3.122,3.122,0,0,0,3.254-.389l4.31-4.41-5.546-1.926-1.162,1.088c-.963-.5-4.566-2.576-5.45-2.628-.218-.013-.275.139-.185.316a14.09,14.09,0,0,1,1.513,7.156h-8.659l-.7,4.018-3.4.495-.248,1.38.051,7.284a5.044,5.044,0,0,1,.677.34c.574.362.495.892.473,1.536-.028.83-.137,1.881-.178,2.252a1.633,1.633,0,0,1-1.835,1.4c-.176,0-.373,0-.584-.011l-.871,18.422c-.008.9-.147,2.226.206,2.226Zm23.156-42.778-18.223-6.328-.34-.466a6.2,6.2,0,0,0,2.347-2.5,11.762,11.762,0,0,0,.748-4.143l10.413,3.617a7.64,7.64,0,0,0-1.038,2.45c-.072.314.67.515.742.2a7.235,7.235,0,0,1,1.34-2.815,1.245,1.245,0,0,1,.666-.413,6,6,0,0,1,3.793,1.618,1.591,1.591,0,0,1,.2.937l1.932.671,4.992-1.073,2.892,1,3.532,4.086-.338.973-5.322-1.849a.7.7,0,0,0-.883.429l-1.353,3.893a.7.7,0,0,0,.428.883l5.321,1.849-.338.974-5.305,1.016-2.891-1-3.313-4.011ZM187.22,305.463c.435-.05.669-.123.805-.362.275-.48.575-1.309-.1-1.319l-3.323-.044a.271.271,0,0,1-.233-.1c-.888-1.229-.779-2.513-2.074-3.309-1.843-1.133-5.06-.812-6.911.19-2.182,1.183-3.163,3.411-2.379,6.491l14.214-1.547Zm-13.879,2.429a9.686,9.686,0,0,0,.884,2.764,6.333,6.333,0,0,0,3.807,2.623,4.352,4.352,0,0,0,1.737,0,5.4,5.4,0,0,0,3.5-2.623,11.583,11.583,0,0,0,.622-3.921q-5.273.581-10.549,1.157Zm8.6,7.912a12.578,12.578,0,0,1,2.4,7.017h-4.383a11.754,11.754,0,0,0-4.706-8.551c2.076.6,5.081,3,6.689,1.534Zm-9.2-1.327a10.312,10.312,0,0,1,5.7,8.344H176.2l-.727,4.154-2.175.317.683-3.8-.859-.153-1.161,6.465.056,7.956c.3.118.611.233.905.369.212.115.263.191.251.476-.013.861-.09,1.73-.185,2.586-.058.533-.541.628-1.006.63a17.383,17.383,0,0,1-2.4-.2c-.4-.06-.734-.1-.919-.123a1.224,1.224,0,0,1-.724-.994c-.19-3.885-.314-6.976-.526-10.861.5-3.991.2-10.285,2.724-13.294a6.174,6.174,0,0,1,2.6-1.877Zm7.334,10.793v1.239h-1.74V325.27Zm5.01,0v1.239h-1.74V325.27Z" transform="translate(-153.557 -295.993)" fill="#7b7a7a" fill-rule="evenodd"/>
  <g id="Group_645" data-name="Group 645" transform="translate(35.797 37.548)">
    <path id="Path_1345" data-name="Path 1345" d="M238.715,360.355l-3.885.469a.97.97,0,0,0-.9.914v.705a.245.245,0,0,0,.259.242l3.884-.141A1.07,1.07,0,0,0,239.1,361.5v-.781a.358.358,0,0,0-.387-.364Zm-22.959,0,3.886.469a.97.97,0,0,1,.9.914v.705a.246.246,0,0,1-.258.242l-3.885-.141a1.071,1.071,0,0,1-1.034-1.045v-.781a.358.358,0,0,1,.387-.364Zm4.689-7.505a92.264,92.264,0,0,1,13.581,0,1.405,1.405,0,0,1,.939.511l2.424,2.9H240.2a.813.813,0,0,1,.738.566l.257.93c.034.124-.054.175-.17.227l-1.6.71.652.779a2.935,2.935,0,0,1,.577,1.961v7.8a.59.59,0,0,1-.6.58H235.7a.59.59,0,0,1-.6-.58v-1.524H219.369v1.524a.59.59,0,0,1-.6.58h-4.359a.591.591,0,0,1-.595-.58v-7.8a2.928,2.928,0,0,1,.578-1.961l.651-.779-1.6-.71c-.116-.052-.2-.1-.17-.227l.256-.93a.816.816,0,0,1,.738-.566h2.814l2.424-2.9A1.4,1.4,0,0,1,220.445,352.85Z" transform="translate(-209.458 -352.6)" fill="#7b7a7a" fill-rule="evenodd"/>
    <rect id="Rectangle_683" data-name="Rectangle 683" width="35.556" height="1.308" transform="translate(0 17.106)" fill="#7b7a7a"/>
  </g>
</svg>
