<svg xmlns="http://www.w3.org/2000/svg" width="85.397" height="57.139" viewBox="0 0 85.397 57.139">
  <g id="Group_663" data-name="Group 663" transform="translate(0)">
    <g id="Group_647" data-name="Group 647" transform="translate(0 0)">
      <path id="Path_1346" data-name="Path 1346" d="M326.187,249.719a2.236,2.236,0,0,0,2.24,2.237H332.9a2.237,2.237,0,0,0,2.24-2.237v-4.737h35.82v4.737a2.236,2.236,0,0,0,2.238,2.237h4.476a2.237,2.237,0,0,0,2.24-2.237v-4.737h2.238v-6.458H323.948v6.458h2.239Z" transform="translate(-296.757 -194.817)" fill="#7b7a7a"/>
      <path id="Path_1347" data-name="Path 1347" d="M382.154,115.526s-.844-.28-2.352-.7l-7.2-19.2s-14.946-2.487-19.552-2.487S333.5,95.621,333.5,95.621l-7.2,19.2c-1.51.42-2.354.7-2.354.7v11.4h58.206Zm-49.631,8.91a3.773,3.773,0,1,1,3.772-3.772A3.772,3.772,0,0,1,332.524,124.436Zm-.873-11.155,5.132-13.662c3.427-.551,12.814-2,16.272-2s12.844,1.452,16.268,2l5.122,13.666s-13.575-2.23-21.393-2.23S331.651,113.28,331.651,113.28Zm41.928,11.155a3.773,3.773,0,1,1,3.773-3.772A3.772,3.772,0,0,1,373.579,124.436Z" transform="translate(-296.757 -84.463)" fill="#7b7a7a"/>
      <path id="Path_1348" data-name="Path 1348" d="M211.35,120.565h0A3.782,3.782,0,0,0,212.46,122a7.7,7.7,0,0,0,1.7,1.026c.227.1.458.2.691.295a31.042,31.042,0,0,0,5.529,1.454,1.928,1.928,0,0,0,.614-3.806s-.083-.013-.256-.045a29.772,29.772,0,0,1-3.6-.88,12.477,12.477,0,0,1-1.453-.56c-.132-.062-.253-.124-.359-.184s-.208-.124-.284-.177a22.48,22.48,0,0,1,.724-2.878l1.211,3.236c.1.035.2.07.309.1.187.061.377.119.567.174l-1.546-4.132,8.08-3.023.93,2.486h3.363v.723h-3.092l3.02,8.072-8.08,3.023-.648-1.732c-.721-.131-1.711-.335-2.778-.622V149.64a2.98,2.98,0,0,0,5.959,0V127.886h1.117V149.64a2.98,2.98,0,0,0,5.959,0V122.7c-.353.1-.72.191-1.1.261l-.172-.459a13.971,13.971,0,0,0,4.079-1.487c.134-.072.262-.143.387-.214a17.382,17.382,0,0,0,2.1-1.385l.012-.011c.033-.027.064-.055.094-.084s.035-.031.051-.047.048-.051.072-.078.04-.043.059-.066.032-.042.048-.064.045-.058.065-.089.022-.036.033-.054c.022-.035.043-.069.063-.105s.023-.048.035-.072.031-.061.044-.093.034-.09.05-.136c0-.012.009-.023.012-.034a1.9,1.9,0,0,0,.075-.358v0c.006-.05.008-.1.01-.151,0-.013,0-.025,0-.038,0-.039,0-.078,0-.117s0-.051,0-.076-.008-.06-.012-.09-.009-.069-.016-.1c0-.007,0-.014,0-.021a23.037,23.037,0,0,0-1.525-4.586,12.118,12.118,0,0,0-2.241-3.4,5.8,5.8,0,0,0-4.142-1.876,1.9,1.9,0,0,0-.236.016h-3.453l-.6,3.472h-.6l-.6-3.472h-3.454a1.922,1.922,0,0,0-.352-.012,6.045,6.045,0,0,0-3.6,1.842c-1.668,1.6-3.306,4.451-4.153,9.422a2.877,2.877,0,0,0-.042.492,2.935,2.935,0,0,0,.218,1.1C211.34,120.538,211.344,120.552,211.35,120.565Zm5.752-6.008-.8.3a10.22,10.22,0,0,1,.8-1.49Zm14.924,2.534c-.127.08-.263.163-.408.248-.189.111-.392.225-.606.337a9.021,9.021,0,0,1-3.538,1.111l-.176-.472a7.425,7.425,0,0,0,2.84-.748v-4.68a12.823,12.823,0,0,1,1.511,3.043C231.8,116.35,231.925,116.747,232.026,117.092Z" transform="translate(-211.117 -95.492)" fill="#7b7a7a"/>
      <path id="Path_1349" data-name="Path 1349" d="M246.569,67.93a5.421,5.421,0,0,0,6.052-3.773,14.972,14.972,0,0,1-1.49-.4c-2.672-.87-4.611-2.286-4.4-3.2.229.882,2.248,1.858,4.819,2.274a9.635,9.635,0,0,0,4.638-.163c.435-.178.7-.419.753-.714.153-.942-2.014-2.076-4.839-2.533-.1-.016-.191-.028-.287-.041a5.422,5.422,0,1,0-5.245,8.549Z" transform="translate(-234.567 -57.154)" fill="#7b7a7a"/>
    </g>
  </g>
</svg>
