<svg xmlns="http://www.w3.org/2000/svg" width="115.576" height="43.851" viewBox="0 0 115.576 43.851">
  <g id="Group_667" data-name="Group 667" transform="translate(0 0)">
    <g id="Group_659" data-name="Group 659" transform="translate(0 0)">
      <path id="Path_635" data-name="Path 635" d="M172.765,139.779l.6-.148,2.641,10.823-.6.147-2.641-10.823Z" transform="translate(-140.263 -133.871)" fill="#7B7A7A"/>
      <path id="Path_636" data-name="Path 636" d="M176,185.353c0-.444-1.174-.818-2.793-.95a4.021,4.021,0,0,0,0,1.9C174.827,186.171,176,185.8,176,185.353Zm.373.9c-.314-.314-1.407.252-2.645,1.3a4.2,4.2,0,0,0,1.342,1.342C176.122,187.661,176.688,186.567,176.374,186.254Zm.9-2.174c.445,0,.818-1.174.951-2.793a4.005,4.005,0,0,0-1.9,0C176.457,182.906,176.832,184.079,177.275,184.079Zm-.9.373c.314-.314-.252-1.406-1.3-2.644a4.2,4.2,0,0,0-1.342,1.342C174.967,184.2,176.06,184.767,176.374,184.452Zm.9,2.175c-.443,0-.817,1.173-.95,2.792a4.027,4.027,0,0,0,1.9,0C178.093,187.8,177.72,186.627,177.275,186.627Zm.9-.373c-.313.314.254,1.408,1.3,2.645a4.192,4.192,0,0,0,1.342-1.342C179.583,186.507,178.489,185.94,178.175,186.254Zm-.9-7.92a7.019,7.019,0,1,0,7.02,7.019A7.018,7.018,0,0,0,177.275,178.334Zm0,11.938a4.919,4.919,0,1,1,4.918-4.919A4.921,4.921,0,0,1,177.275,190.272Zm2.2-8.464c-1.051,1.238-1.617,2.331-1.3,2.644s1.408-.252,2.645-1.3A4.209,4.209,0,0,0,179.479,181.808Zm-.93,3.545c0,.444,1.173.817,2.792.95a4.022,4.022,0,0,0,0-1.9C179.723,184.536,178.549,184.91,178.549,185.353Z" transform="translate(-139.313 -148.521)" fill="#7B7A7A"/>
      <path id="Path_637" data-name="Path 637" d="M255.5,185.353c0-.444-1.174-.818-2.793-.95a4.011,4.011,0,0,0,0,1.9C254.328,186.171,255.5,185.8,255.5,185.353Zm.373.9c-.314-.314-1.407.252-2.645,1.3a4.2,4.2,0,0,0,1.342,1.342C255.622,187.661,256.189,186.567,255.875,186.254Zm.9-2.174c.445,0,.818-1.174.95-2.793a4,4,0,0,0-1.9,0C255.958,182.906,256.332,184.079,256.775,184.079Zm-.9.373c.314-.314-.253-1.406-1.3-2.644a4.206,4.206,0,0,0-1.342,1.342C254.467,184.2,255.56,184.767,255.875,184.452Zm.9,2.175c-.443,0-.817,1.173-.95,2.792a4.024,4.024,0,0,0,1.9,0C257.593,187.8,257.22,186.627,256.775,186.627Zm.9-.373c-.314.314.253,1.408,1.3,2.645a4.192,4.192,0,0,0,1.342-1.342C259.083,186.507,257.99,185.94,257.676,186.254Zm-.9-7.92a7.019,7.019,0,1,0,7.019,7.019A7.019,7.019,0,0,0,256.775,178.334Zm0,11.938a4.919,4.919,0,1,1,4.919-4.919A4.921,4.921,0,0,1,256.775,190.272Zm2.2-8.464c-1.051,1.238-1.617,2.331-1.3,2.644s1.408-.252,2.645-1.3A4.209,4.209,0,0,0,258.98,181.808Zm-.93,3.545c0,.444,1.173.817,2.792.95a4.042,4.042,0,0,0,0-1.9C259.223,184.536,258.05,184.91,258.05,185.353Z" transform="translate(-169.408 -148.521)" fill="#7B7A7A"/>
      <path id="Path_638" data-name="Path 638" d="M273.618,165.225l-17.605-1.34-.178-.072a2.137,2.137,0,0,1-.737-1.489h0a1.739,1.739,0,0,1,.444-1.129h0a.307.307,0,0,1,.284-.108h0L271.35,163.4l-.045.308-.143.275.143-.275.045-.308.1.031,2.337,1.212a.308.308,0,0,1,.155.36h0a.311.311,0,0,1-.3.226h-.024Zm-1.473-.736-.938-.487-15.29-2.273a1.031,1.031,0,0,0-.2.6h0a1.267,1.267,0,0,0,.257.717h0a1.832,1.832,0,0,0,.192.232h0l15.976,1.216Z" transform="translate(-171.43 -141.991)" fill="#7B7A7A"/>
      <path id="Path_639" data-name="Path 639" d="M253.661,149.126l12.606-18.572s2.117-.771,1.731.769S254.913,152.3,254.913,152.3Z" transform="translate(-170.886 -130.362)" fill="#7B7A7A"/>
      <path id="Path_640" data-name="Path 640" d="M175.318,142.99c-2.962-4.374-8.526-9.353-16.621-8.334-.175.52.854,1.616,1.336,1.669a25.085,25.085,0,0,1,5.525,1.031c3.487,1.167,5.712,4.121,7.3,7.977A17.54,17.54,0,0,0,175.318,142.99Z" transform="translate(-134.93 -131.936)" fill="#7B7A7A"/>
      <path id="Path_641" data-name="Path 641" d="M298.6,191.294a4.966,4.966,0,0,0,.026,2.117c.085.834.281,1.463-.557,1.654a35.4,35.4,0,0,1-3.955.208s-1.669-.376.07-1.127c1.349-.584,2.35-1.316,2.234-2.9C296.394,190.935,298.6,191.294,298.6,191.294Z" transform="translate(-185.926 -153.361)" fill="#7B7A7A"/>
      <path id="Path_642" data-name="Path 642" d="M295.047,159.194c.073,3.081.339,11.664.393,12.1.5,4.131.991,9.823.991,9.823l2.541-.062s1-7.119.078-10.078c-.278-.9,1.049-9.71,1.049-9.71Z" transform="translate(-186.552 -141.276)" fill="#7B7A7A"/>
      <path id="Path_643" data-name="Path 643" d="M302.937,193.8a7,7,0,0,1,.236,2.583c-.077.329-.682.47-1.175.587-.2.049-.912.528-1.275.664a2.321,2.321,0,0,1-2.2-.017c-.25-.15-.326-.517.265-1.075.505-.479,1.229-.741,1.427-1.192a6.43,6.43,0,0,0,.094-1.856Z" transform="translate(-187.797 -154.26)" fill="#7B7A7A"/>
      <g id="Group_313" data-name="Group 313" transform="translate(108.752 15.781)">
        <path id="Path_644" data-name="Path 644" d="M295.461,157.361c.072,3.081.657,6.577,1.878,12.872.406,2.089,1.6,11.089,1.6,11.089l3.289.094a49.769,49.769,0,0,0-.7-11.131c-.118-.577.132-5.651.43-9.617a10.158,10.158,0,0,0-1.3-4.913Z" transform="translate(-295.461 -155.755)" fill="#7B7A7A"/>
      </g>
      <path id="Path_645" data-name="Path 645" d="M267.784,159.872c.208.177,1.247-.164,1.956-.4.294-.1,2.623.089,2.735.034.182-.092-.624-1.171-.624-1.171a12.668,12.668,0,0,1-2.273.011,10.528,10.528,0,0,1-1.343-.4,14.546,14.546,0,0,0-1.459.574Z" transform="translate(-175.851 -140.803)" fill="#7B7A7A"/>
      <path id="Path_646" data-name="Path 646" d="M272.119,157.207c-.569-.017-2.339.678-2.651.465a2.234,2.234,0,0,0-1.149-.309c-.441-.044-.682-.73-.781-.61s-.169.144.024.481a2.336,2.336,0,0,0,.381.484s1.5.449,1.632.479,2.543-.311,2.647-.289S272.119,157.207,272.119,157.207Z" transform="translate(-176.102 -140.347)" fill="#7B7A7A"/>
      <path id="Path_647" data-name="Path 647" d="M279.415,149.386c-.795.607-2.111,3.712-3.431,4.2-1.23.454-4.282,1.251-4.282,1.251l1.107,1.828s1.459-.071,2.391-.213a8.4,8.4,0,0,0,2.728-.858c.663-.359,3.693-2.817,3.618-3.684S279.415,149.386,279.415,149.386Z" transform="translate(-177.715 -137.563)" fill="#7B7A7A"/>
      <path id="Path_648" data-name="Path 648" d="M279.54,144.014l-.923-.118a2.852,2.852,0,0,1-1.465-.682c-.011-.03-.025-.062-.037-.092h.006a3.88,3.88,0,0,0-.584-1.628,3.2,3.2,0,0,0-1.6-1.867,3.236,3.236,0,0,0-2.72-.066,3.532,3.532,0,0,0-1.669,1.62,3.327,3.327,0,0,0-.139,2.706,7.563,7.563,0,0,0-.881,1.557.741.741,0,0,0-.081.173v0h0c-.108.353.172.6.67.6.639-.008.687-.325.971-.774.12-.191.226-.378.318-.551a15.536,15.536,0,0,0,1.37.986l.047.035a6.713,6.713,0,0,1,.57.96.154.154,0,0,0,.065.05c.142.1.374-.116.618-.279.022.011.042.017.063.028a2.134,2.134,0,0,0,1.3.329.868.868,0,0,0,.127-.014c.419-.114.511-.206.9-.67.635.241,2.225,1.081,2.225,1.081l.171-1.347-.084,0Z" transform="translate(-176.853 -133.738)" fill="#7B7A7A"/>
      <path id="Path_649" data-name="Path 649" d="M281.384,150.956l-.16.705,1.187.99.388-1.349Z" transform="translate(-181.32 -138.158)" fill="#7B7A7A"/>
      <path id="Path_650" data-name="Path 650" d="M283.165,146.727a8.981,8.981,0,0,1,6.49,1.326c2.886,1.732,6.768,3.3,6.9,6.094.042.918-3.368,3.144-5.453,3.273-.855.052-2.06-1.151-2.951-2.053s-4.234-2.342-5.357-5.068C282.33,149.177,283.165,146.727,283.165,146.727Z" transform="translate(-181.86 -136.505)" fill="#7B7A7A"/>
      <path id="Path_651" data-name="Path 651" d="M282.62,146.063c0,.531-.726,3.618-.726,3.618l1.7,1.189.616-4.419Z" transform="translate(-181.573 -136.305)" fill="#7B7A7A"/>
      <path id="Path_652" data-name="Path 652" d="M269.97,161.023l-4.318-6.7a.6.6,0,0,0,.13-.365c0-.028,0-.057-.006-.087l-.085.011.085-.012a.6.6,0,0,0-.592-.511.621.621,0,0,0-.09.006.6.6,0,0,0-.511.592.48.48,0,0,0,.008.09.6.6,0,0,0,.592.51.718.718,0,0,0,.088,0,.572.572,0,0,0,.058-.02l4.317,6.7Zm-4.725-6.646a.52.52,0,0,1-.063,0,.426.426,0,0,1-.423-.365.411.411,0,0,1-.006-.064.427.427,0,0,1,.366-.422.326.326,0,0,1,.064-.006.43.43,0,0,1,.422.366h0a.525.525,0,0,1,0,.063A.43.43,0,0,1,265.245,154.377Z" transform="translate(-175.02 -139.065)" fill="#7B7A7A"/>
      <path id="Path_653" data-name="Path 653" d="M266.7,158.617c-.182.227-.144.511.112.5-.085.214.124.568.352.513-.093.175.116.375.337.352.068.178.19.221.386.16.27-.081.784-.232.784-.454s-.733.09-.733.09.533-.162.587-.4c0,0,.108-.222-.1-.2s-.873.166-.873.166.8-.3.783-.4c-.029-.167-.04-.315-1.142.027.682-.24.816-.33.769-.52S266.7,158.617,266.7,158.617Z" transform="translate(-175.78 -140.975)" fill="#7B7A7A"/>
      <path id="Path_654" data-name="Path 654" d="M267.957,164.1a8.8,8.8,0,0,1,1.435-.554c.057-.028.519-.258.877-.462-.4-.09-.979-.282-.8-.385a6.588,6.588,0,0,1,1.65.132l2.055.015c-.82,1.011.185.785-.5,1.26-.137.1-2.273.636-2.468.664s-1.386.291-1.505.11c-.046-.07.607-.178.875-.219-.339.048-1.334.183-1.3.048s1.252-.419,1.252-.419a10.229,10.229,0,0,1-1.182.2c-.385.012-.388-.111-.135-.17.209-.047,1.213-.356,1.213-.356s-.454.112-.895.2C268.04,164.267,267.877,164.233,267.957,164.1Z" transform="translate(-176.29 -142.595)" fill="#7B7A7A"/>
      <path id="Path_655" data-name="Path 655" d="M282.929,147.983a3.838,3.838,0,0,1,.322,1.815c-.313,2.091-1.564,5.362-2.43,6.133a14.745,14.745,0,0,1-5.507,2.813c-.812.21-1.127-1.67-1.127-1.67a58.041,58.041,0,0,0,4.565-3.6c.77-1.3,1.252-4.718,1.668-5.331A1.593,1.593,0,0,1,282.929,147.983Z" transform="translate(-178.656 -136.829)" fill="#7B7A7A"/>
      <path id="Path_656" data-name="Path 656" d="M145.943,155.687a6.814,6.814,0,0,0-.03-2.211l.06.016v-.008l.024.007a2.169,2.169,0,0,0-.259-1.328c-.559-.7-.831-.987-1.509-1.135a4.656,4.656,0,0,0-.794-.137,2.721,2.721,0,0,0-2.412.85,2.443,2.443,0,0,0-1.068,2.771,8.486,8.486,0,0,0,.882,2.247l-.548.334c-.043-.048-.267,0-.267,0-1.021.4-5.515,1.631-6.322,11.2l1.621-5.059a9.337,9.337,0,0,1,3.03-4.738,2.3,2.3,0,0,1,3.406.725,10.459,10.459,0,0,0,.952-.907c.091.032.149.045.149.045.112,0,1.063-.007,1.155-.008l0,0a2.429,2.429,0,0,0,.829-.189,2.031,2.031,0,0,0,.852-1.307c.306-.067.633-.179.6-.4A5.8,5.8,0,0,1,145.943,155.687Zm-4.8,8.26.436-.139a6.747,6.747,0,0,0,.181-3.406,3.726,3.726,0,0,0-.088-.47A6.318,6.318,0,0,1,141.142,163.947Z" transform="translate(-125.476 -138.126)" fill="#7B7A7A"/>
      <path id="Path_657" data-name="Path 657" d="M144.2,178.071c.695-2.161.371-3.284-1.631-3.729-2.062-.458-4.35-1.01-4.35-1.01l2.424-3.922s-3.644.506-3.978-2.914l-1.049-.388-.738-.233c-.334.667-3.69,7.456-3.69,9.208s1.552,2.312,3.638,2.263c2.2-.052,5.335.026,5.335.026s-1.684,2.926-3.03,5.671a1.6,1.6,0,0,0,.042,1.8c-.224.9-.372,1.8.276,1.843a6.6,6.6,0,0,1,1.946.167c1.047.272,3.613.525,3.836.011.309-.71-.393-1.118-.944-1.234a3.039,3.039,0,0,1-1.367-.82h.366A31.95,31.95,0,0,0,144.2,178.071Z" transform="translate(-124.524 -143.805)" fill="#7B7A7A"/>
      <path id="Path_658" data-name="Path 658" d="M149.251,188.442a2.216,2.216,0,0,1-1.062-.408.391.391,0,0,0,.138-.234,20.937,20.937,0,0,1,.984-4.195c.725-2.486.958-3.366.155-4.35-.759-.932-4.777-1.69-7.561-2.317l-.155.854s3.065.59,5.127,1.048c2,.445,2.326,1.568,1.631,3.729-1.4,4.35-2.505,6.972-2.505,6.972a.124.124,0,0,0,.116.136c1.076.113,4.306.614,4.249-.157A1.074,1.074,0,0,0,149.251,188.442Z" transform="translate(-128.523 -147.993)" fill="#7B7A7A"/>
      <g id="Group_314" data-name="Group 314" transform="translate(24.569 22.842)">
        <path id="Path_659" data-name="Path 659" d="M160.311,168.793a13.292,13.292,0,0,1,2.043-1.674c.229.035.111.319-.033.642s-.019.226-.019.226a6.426,6.426,0,0,1,1.595-.08c.493.029.841.43.057.487.395.083.717.425.121.575.339.1.453.408-.046.541.2.033.288.241.039.433a2.684,2.684,0,0,1-1.717.518c-1.019,0-2.35.08-2.35.08Z" transform="translate(-160 -167.118)" fill="#7B7A7A"/>
      </g>
      <path id="Path_660" data-name="Path 660" d="M237.5,158.29l-17.881-1.478a1.571,1.571,0,0,1-.385-2l-13.985-8.518c-13.172-3.986-27.56-.908-29.9.219-1.136.548-6.384,6.092-8.983,8.172a8,8,0,0,0-3.928,1.944,1.16,1.16,0,0,1,.124,0c.845.065.561.019,1.56.065l1.773.063c1,.046,1.1.471.216.947l-2.376,1.209a1.781,1.781,0,0,1,.427.088c.563.165.592.631.33.777.262.068.217.453-.016.582.168.078.24.5-.042.583.247.039.176.389-.127.621a3.28,3.28,0,0,1-2.058.621c-.6.053-1.163.045-1.534.058a60.3,60.3,0,0,1-.964,6.417c-1.04,4.766,3.12,4.68,3.12,4.68l2.184.024a8.617,8.617,0,0,1-.1-1.325,8.449,8.449,0,1,1,16.763,1.5c11.639-.043,20.419,0,32.782.087a6.354,6.354,0,0,1-.13-1.582,8.45,8.45,0,1,1,16.682,1.9c4.662,0,6.65-.017,7.063-.081a4.678,4.678,0,0,0,3.683-4.031C242.286,164.255,238.2,159.122,237.5,158.29Zm-65.449-2.66s4.077-5.686,5.357-6.5c2.823-1.8,12.479-1.642,12.479-1.642l1.669,8.169Zm22.06.027s-1.39-5.53-1.981-8.26a44.422,44.422,0,0,1,11,1.2,16.689,16.689,0,0,1,5.438,2.733c6.075,3.732,6.142,4.275,6.142,4.275Zm39.845,4.907c-1.78-.481-2.935-1.251-1.684-1.635s5.2.192,5.2.192l1.78,2.02A38.384,38.384,0,0,1,233.959,160.564Z" transform="translate(-135.275 -135.642)" fill="#7B7A7A"/>
      <path id="Path_661" data-name="Path 661" d="M140.5,164.528a3.076,3.076,0,0,0,.621,2.02c1.321,1.554,3.908,2.314,5.529,2.928s6.356.257,6.356.257l.233-2.991s-4.947-.278-6.287-.978-2.625-2.168-3.462-2.518C141.936,162.6,140.539,163.554,140.5,164.528Z" transform="translate(-128.048 -142.73)" fill="#7B7A7A"/>
      <path id="Path_662" data-name="Path 662" d="M133.243,187.463c.1-.226.564-1.065.664-1.3a36.209,36.209,0,0,0-5.768-.952c-2.953-.05-9.2.564-6.389,1.593a28.073,28.073,0,0,0,6.678.917A31.649,31.649,0,0,0,133.243,187.463Zm-4.986-1.593a38.03,38.03,0,0,1,5.565.463c.621-1.268,1.443-2.744,1.528-2.926-.139,0-4.249.106-6.054-.035-.32,0-.645,0-.979-.007-3.663-.065-6.64-.49-6.648-.95s2.955-.781,6.619-.718a25.665,25.665,0,0,1,6.234.658l.969-.142c-.909-.521-3.8-.943-7.234-1-3.962-.068-7.2.369-7.475.99a.941.941,0,0,0-.316.735l.047,2.684a1.057,1.057,0,0,0,.684.933C122.226,186.1,124.993,185.814,128.257,185.87Zm-5.25-3.365c0,.318,2.381.616,5.308.667.2,0,2.685-.025,2.879-.024l2.181-.625a21.838,21.838,0,0,0-5.082-.5C125.369,181.974,123,182.189,123.007,182.505Zm9.288,7.142a14.933,14.933,0,0,1,.684-1.781,39.833,39.833,0,0,1-4.661.16c-3.663-.065-6.64-.49-6.648-.95,0-.089.112-.173.318-.25a7.533,7.533,0,0,1-.777-.268l-.014-.007a.781.781,0,0,0-.414.309.941.941,0,0,0-.316.735l.047,2.684a1.061,1.061,0,0,0,.7.94,23.094,23.094,0,0,0,7.218,1.165,31.555,31.555,0,0,0,3.839-.163A7.243,7.243,0,0,1,132.295,189.648Z" transform="translate(-120.466 -149.607)" fill="#7B7A7A"/>
    </g>
  </g>
</svg>
