<svg id="Group_661" data-name="Group 661" xmlns="http://www.w3.org/2000/svg" width="61.565" height="59.375" viewBox="0 0 61.565 59.375">
  <path id="Path_1339" data-name="Path 1339" d="M364.068,79.789h15.854a1.052,1.052,0,0,1,.846.4,6.248,6.248,0,0,1,.618,3.1c0,.767-.058,2.784-.842,3.342a1.755,1.755,0,0,1-1.11.19H364.064a1.271,1.271,0,0,1-1.145-.969,9.93,9.93,0,0,1,.048-5.231,1.185,1.185,0,0,1,1.1-.838Zm-11.4,12.783a1.157,1.157,0,0,0,.5.924,8.7,8.7,0,0,0,4.5,1.252,1.152,1.152,0,0,0,1.105-.784l3.274-12.219.35-1.307a1.618,1.618,0,0,0,.1-1.02c-.3-.819-2.023-1.337-2.685-1.514a5.488,5.488,0,0,0-2.826-.173.965.965,0,0,0-.546.651l-3.738,13.951a1.175,1.175,0,0,0-.039.239Zm12.053-24.68a8.754,8.754,0,0,0-.791,1.5.39.39,0,0,1-.2.552,8.709,8.709,0,0,0-.374,1.653.39.39,0,0,1-.053.585,8.7,8.7,0,0,0,.068,1.694.392.392,0,0,1,.1.577,8.728,8.728,0,0,0,.5,1.62.39.39,0,0,1,.245.533,8.7,8.7,0,0,0,.9,1.434.39.39,0,0,1,.376.452q.186.209.389.408h12.262a8.664,8.664,0,0,0,.822-.939.392.392,0,0,1,.339-.478,8.775,8.775,0,0,0,.791-1.5.39.39,0,0,1,.2-.552,8.65,8.65,0,0,0,.373-1.653.391.391,0,0,1,.053-.585,8.8,8.8,0,0,0-.067-1.694.391.391,0,0,1-.1-.577,8.778,8.778,0,0,0-.5-1.62.391.391,0,0,1-.246-.533,8.605,8.605,0,0,0-.9-1.434.39.39,0,0,1-.376-.453,8.712,8.712,0,0,0-1.246-1.149.391.391,0,0,1-.478-.338,8.777,8.777,0,0,0-1.5-.792.39.39,0,0,1-.552-.2,8.7,8.7,0,0,0-1.653-.374.39.39,0,0,1-.585-.053,8.8,8.8,0,0,0-1.694.068.391.391,0,0,1-.577.1,8.826,8.826,0,0,0-1.62.5.39.39,0,0,1-.533.246,8.644,8.644,0,0,0-1.434.9.391.391,0,0,1-.453.377,8.718,8.718,0,0,0-1.149,1.246.391.391,0,0,1-.338.478Zm3.485,8.328a.312.312,0,0,1,.145-.353c.655-.438,1.408-.788,2.14-1.18a1.882,1.882,0,0,1,.552-.263.512.512,0,0,1,.412.128,1.891,1.891,0,0,1,.306.529c.38.737.8,1.453,1.094,2.185a.309.309,0,0,1-.08.372c-1.162.849-4.1-.059-4.569-1.418Zm-.812-5.97a.311.311,0,0,1,.38.03c.619.486,1.184,1.094,1.783,1.669a1.877,1.877,0,0,1,.42.443.5.5,0,0,1,.006.432,1.883,1.883,0,0,1-.408.454c-.584.591-1.133,1.214-1.739,1.716a.31.31,0,0,1-.379.04c-1.168-.84-1.207-3.912-.062-4.784Zm.78-1.1c.442-1.378,3.341-2.362,4.531-1.538a.309.309,0,0,1,.089.37c-.271.739-.675,1.464-1.036,2.211a1.881,1.881,0,0,1-.293.538.506.506,0,0,1-.408.138,1.9,1.9,0,0,1-.559-.247c-.742-.374-1.5-.7-2.169-1.124a.31.31,0,0,1-.155-.348Zm5.9-1.227c1.438-.007,3.274,2.457,2.862,3.833a.309.309,0,0,1-.325.2c-.788-.029-1.6-.19-2.424-.3a1.887,1.887,0,0,1-.6-.112.507.507,0,0,1-.258-.346,1.881,1.881,0,0,1,.064-.608c.126-.82.2-1.648.4-2.411a.311.311,0,0,1,.284-.254Zm3.048,5.448c.45,1.367-1.323,3.876-2.761,3.908a.309.309,0,0,1-.29-.247c-.215-.757-.314-1.582-.462-2.4a1.9,1.9,0,0,1-.08-.606.514.514,0,0,1,.25-.353,1.918,1.918,0,0,1,.6-.127c.82-.133,1.63-.315,2.416-.366a.311.311,0,0,1,.33.19Zm-9.945-4.1a5.924,5.924,0,1,1,1.419,8.256,5.935,5.935,0,0,1-1.419-8.256Zm-3.108,18.45h15.854a1.052,1.052,0,0,1,.846.4,6.248,6.248,0,0,1,.618,3.1c0,.767-.058,2.784-.842,3.342a1.755,1.755,0,0,1-1.11.191H364.064a1.272,1.272,0,0,1-1.145-.969,9.932,9.932,0,0,1,.048-5.232A1.185,1.185,0,0,1,364.068,87.717Z" transform="translate(-319.821 -35.402)" fill="#7b7a7a" fill-rule="evenodd"/>
  <path id="Path_1340" data-name="Path 1340" d="M317.815,76.7c.362-.028.386-2.255-.212-2.529l-.636-.231,1.868-14.77.335.006-.322,15.45c.027.84.078,2.074.407,2.074l7.549-.021c.5-.028.532-2.255-.293-2.528l-1.986-.571.386-9.979c.295-7.593.885-13.15.977-20.879l.159-.021.308,2.7,8.965,3.819c.925,0,2.754-3.632,1.748-3.934l-8.739-4.63a49.584,49.584,0,0,0-4.249-7.3,13.121,13.121,0,0,1,1.42,6.69h-8.068l-.655,3.743-3.165.461-.232,1.287.048,6.786a4.644,4.644,0,0,1,.63.318c.535.337.461.831.441,1.431-.026.773-.128,1.753-.166,2.1a1.522,1.522,0,0,1-1.711,1.306c-.164,0-.349,0-.544-.01l-.811,17.166c-.007.84-.137,2.074.192,2.074Zm8.972-53.923c.4-.047.622-.115.75-.337.256-.447.535-1.22-.093-1.229l-3.1-.041a.249.249,0,0,1-.217-.094c-.827-1.145-.726-2.341-1.932-3.083-1.718-1.056-4.716-.757-6.44.178-2.033,1.1-2.948,3.178-2.217,6.047l13.246-1.441Zm-12.933,2.263q4.915-.529,9.829-1.078a10.789,10.789,0,0,1-.579,3.653,5.029,5.029,0,0,1-3.261,2.444,4.024,4.024,0,0,1-1.619,0,5.894,5.894,0,0,1-3.547-2.444,9.066,9.066,0,0,1-.824-2.576Zm8.012,7.373a11.716,11.716,0,0,1,2.235,6.538h-4.083a10.952,10.952,0,0,0-4.386-7.968c1.934.555,4.735,2.793,6.233,1.43Zm-8.573-1.236a9.61,9.61,0,0,1,5.309,7.775h-2.083l-.678,3.87-2.026.3.636-3.538-.8-.143-1.083,6.025.053,7.413c.282.11.569.217.843.344.2.107.245.178.234.443-.013.8-.084,1.612-.173,2.409-.054.5-.5.585-.936.587a16.189,16.189,0,0,1-2.235-.183c-.373-.056-.683-.093-.856-.115a1.141,1.141,0,0,1-.674-.926c-.178-3.62-.293-6.5-.49-10.12.465-3.719.186-9.585,2.538-12.388a5.749,5.749,0,0,1,2.423-1.749Zm6.833,10.056v1.155H318.5V41.234Zm4.668,0v1.155h-1.622V41.234Z" transform="translate(-302.636 -17.326)" fill="#7b7a7a" fill-rule="evenodd"/>
  <path id="Path_1341" data-name="Path 1341" d="M350.3,53.353l6.124,3.257a.575.575,0,0,1,.237.775l-1.455,2.735a.575.575,0,0,1-.775.237l-2.884-1.534-3.6,4.632a.5.5,0,0,1-.644.066l-1.642-.873c-.261-.138-.409-.4-.3-.571l2.5-4.187c.124-.321.187-.863-.1-1.1a.528.528,0,0,1-.137-.707l1.915-2.491a.615.615,0,0,1,.775-.236Zm8.448,6.153-1.986-1.056-.594,1.116,1.986,1.056.213.624,2.514,1.337,1.018-1.913-2.514-1.337Z" transform="translate(-316.973 -31.267)" fill="#7b7a7a" fill-rule="evenodd"/>
  <path id="Path_1342" data-name="Path 1342" d="M329.881,67.574a11.559,11.559,0,0,0-1.459,3.341c-.6,2.429-.319,5.64-.05,8.674.148,1.67.293,3.289.287,4.73-.023,6.465-5.549,7.409-9.211,3.224-4.326-4.945.911-11.488-8.071-12.668a20.437,20.437,0,0,0-5.953.05c-4.4.8-4.742,4.262-4.877,8.036l-1.518-.026c.163-4.577.9-8.557,6.151-9.506a22.081,22.081,0,0,1,6.418-.064c10.267,1.349,5.046,8.644,9,13.163,2.778,3.176,6.526,2.781,6.543-2.182,0-1.381-.135-2.965-.281-4.6-.28-3.162-.579-6.508.085-9.174a13.331,13.331,0,0,1,1.679-3.834Z" transform="translate(-299.03 -36.48)" fill="#7b7a7a" fill-rule="evenodd"/>
  <path id="Path_1343" data-name="Path 1343" d="M328.566,93.284a8.4,8.4,0,0,1-1.877-1.617c-4.326-4.945.911-11.488-8.071-12.668-.295-.039-.6-.073-.91-.1l.119-1.519q.519.045,1.012.11c10.267,1.35,5.046,8.644,9,13.163a7.856,7.856,0,0,0,.8.794Z" transform="translate(-306.27 -40.604)" fill="#7b7a7a" fill-rule="evenodd"/>
</svg>
