<svg xmlns="http://www.w3.org/2000/svg" width="65.361" height="61.214" viewBox="0 0 65.361 61.214">
  <g id="Group_669" data-name="Group 669" transform="translate(-1613.713 -177.623)">
    <g id="Group_665" data-name="Group 665" transform="translate(1613.713 177.623)">
      <path id="Path_1350" data-name="Path 1350" d="M317.258,220.653c.374-.029.4-2.324-.219-2.607l-.655-.238,1.926-15.228.345.006-.332,15.929c.028.865.081,2.138.419,2.138l7.784-.021c.512-.028.549-2.325-.3-2.607l-2.047-.588.4-10.288c.32-8.265.982-14.189,1.017-22.88l.527,4.6,8.348-.592c.146,0,.285-.118.409-.316l1.308.411a.934.934,0,0,0,.369.039l2.714-.219a1.217,1.217,0,0,0,.781-.721l.236-4.189c.03-.239-.455-.726-.7-.69l-1.588.128q-.224,0-.182-.215a2.7,2.7,0,0,0-.231-2.067c-.3-.417-.937-.549-1.124-.064l-.589,2a.976.976,0,0,1-.129.217,9.781,9.781,0,0,1-.833.94.643.643,0,0,0-.441-.163l-6.368.114a50.961,50.961,0,0,0-4.382-7.526,13.531,13.531,0,0,1,1.465,6.9h-8.318l-.675,3.859-3.263.476-.239,1.326.05,7a4.848,4.848,0,0,1,.649.327c.551.348.476.857.455,1.475-.027.8-.131,1.808-.172,2.164a1.568,1.568,0,0,1-1.763,1.346c-.169,0-.359,0-.56-.011l-.837,17.7c-.007.865-.14,2.138.2,2.138Zm9.249-55.593c.418-.047.643-.119.774-.347.264-.461.552-1.259-.1-1.267l-3.193-.043a.257.257,0,0,1-.224-.1c-.853-1.181-.748-2.414-1.992-3.179-1.771-1.088-4.861-.781-6.639.183-2.1,1.136-3.038,3.277-2.286,6.234l13.655-1.485Zm-13.332,2.333q5.068-.546,10.134-1.112a11.15,11.15,0,0,1-.6,3.767,5.188,5.188,0,0,1-3.362,2.521,4.166,4.166,0,0,1-1.668,0,6.081,6.081,0,0,1-3.657-2.521,9.314,9.314,0,0,1-.849-2.655Zm8.26,7.6a12.087,12.087,0,0,1,2.305,6.741h-4.21a11.288,11.288,0,0,0-4.521-8.215c1.995.572,4.881,2.88,6.426,1.474ZM312.6,173.72a9.906,9.906,0,0,1,5.472,8.015h-2.146l-.7,3.991-2.089.3.655-3.647-.825-.148-1.117,6.211.054,7.643c.291.114.587.224.87.354.2.111.253.184.241.458-.013.827-.087,1.662-.178,2.483-.056.513-.519.6-.966.606a16.874,16.874,0,0,1-2.3-.189c-.384-.057-.7-.1-.882-.119a1.179,1.179,0,0,1-.7-.955c-.183-3.733-.3-6.7-.5-10.433.479-3.834.191-9.882,2.617-12.772a5.923,5.923,0,0,1,2.5-1.8Zm7.045,10.368v1.191h-1.671v-1.191Zm4.813,0v1.191h-1.671v-1.191Z" transform="translate(-302.285 -159.439)" fill="#7b7a7a" fill-rule="evenodd"/>
      <g id="Group_650" data-name="Group 650" transform="translate(0 35.845)">
        <path id="Path_1351" data-name="Path 1351" d="M309.308,220.362l-6.209-.553-1.231.725-1.461-.131-1.154-.937.028-.316,1.751.156a.215.215,0,0,0,.232-.193l.133-1.495a.216.216,0,0,0-.194-.231l-1.751-.156.028-.316,1.3-.719,1.461.13,1.059.915,6.2.553Z" transform="translate(-299.253 -216.196)" fill="#7b7a7a" fill-rule="evenodd"/>
        <path id="Path_1352" data-name="Path 1352" d="M318.812,218.748l1.2-.713,1.461.13,1.155.938-.028.316-1.751-.156a.214.214,0,0,0-.231.194l-.133,1.494a.215.215,0,0,0,.193.232l1.752.156-.028.316-1.3.718-1.461-.13-1.084-.931-2.467-.22.2-2.569Z" transform="translate(-305.457 -216.874)" fill="#7b7a7a" fill-rule="evenodd"/>
      </g>
      <g id="Group_651" data-name="Group 651" transform="translate(24.482 33.325)">
        <path id="Path_1353" data-name="Path 1353" d="M374.209,221.122l-4.466.539a1.115,1.115,0,0,0-1.039,1.051v.81a.281.281,0,0,0,.3.279l4.466-.162a1.23,1.23,0,0,0,1.187-1.2v-.9a.411.411,0,0,0-.445-.417Zm-26.395,0,4.467.539a1.114,1.114,0,0,1,1.039,1.051v.81a.283.283,0,0,1-.3.279l-4.466-.162a1.231,1.231,0,0,1-1.188-1.2v-.9a.411.411,0,0,1,.445-.417Zm2.129-2.454c-.287.039-.321-.155-.215-.3l3.405-4.128a.789.789,0,0,1,.553-.306,95.4,95.4,0,0,1,14.65,0,.789.789,0,0,1,.553.306l3.406,4.128c.107.146.071.34-.215.3a182.818,182.818,0,0,0-22.137,0Zm3.261-6.175a106.234,106.234,0,0,1,15.615,0,1.614,1.614,0,0,1,1.08.589l2.787,3.335h3.236a.935.935,0,0,1,.848.651l.295,1.07c.039.143-.063.2-.2.26l-1.842.817.749.9a3.368,3.368,0,0,1,.664,2.255v8.969a.678.678,0,0,1-.685.666h-5.012a.678.678,0,0,1-.685-.666v-1.752h-18.09v1.752a.678.678,0,0,1-.685.666H346.27a.679.679,0,0,1-.685-.666v-8.969a3.368,3.368,0,0,1,.664-2.255l.748-.9-1.842-.817c-.134-.059-.235-.119-.2-.26l.294-1.07a.938.938,0,0,1,.848-.651h3.235l2.788-3.335A1.614,1.614,0,0,1,353.2,212.492Z" transform="translate(-340.572 -212.205)" fill="#7b7a7a" fill-rule="evenodd"/>
        <rect id="Rectangle_684" data-name="Rectangle 684" width="40.879" height="1.504" transform="translate(0 19.667)" fill="#7b7a7a"/>
      </g>
    </g>
  </g>
</svg>
