<svg xmlns="http://www.w3.org/2000/svg" width="145.928" height="109.098" viewBox="0 0 145.928 109.098">
  <g id="Group_307" data-name="Group 307" transform="translate(-227.775 -221.26)">
    <path id="Path_582" data-name="Path 582" d="M302.309,316.008l.026-1.26c1.828.039,3.629.06,5.369.06h0a124.56,124.56,0,0,0,17.46-.931h0c.307-.046.585-.1.823-.161h0a8.026,8.026,0,0,0-1.259-.087h0c-1.082,0-2.346.133-3.563.133h0a6.186,6.186,0,0,1-3.291-.7h0a3.605,3.605,0,0,1-1.547-3.3h0a10.537,10.537,0,0,1,.28-2.248h0c1.527-6.941,4.239-12.159,8.506-34.019h0a37.487,37.487,0,0,0,.562-6.88h0c.029-6.005-1.118-12.664-2.7-14.64h0l0,0,1-.771c1.953,2.622,2.926,9.211,2.953,15.408h0a38.639,38.639,0,0,1-.586,7.12h0c-4.272,21.908-7.035,27.309-8.51,34.051h0a9.27,9.27,0,0,0-.251,1.978h0c.018,1.313.391,1.865.96,2.238h0a5.052,5.052,0,0,0,2.62.512h0c1.129,0,2.385-.134,3.563-.134h0a6.492,6.492,0,0,1,2.4.359h0c.361.179.808.277.9.984h0c-.077.653-.488.77-.775.926h0A6.7,6.7,0,0,1,326,315h0a38.729,38.729,0,0,1-4.263.559h0c-3.576.315-8.512.506-14.032.506h0c-1.748,0-3.557-.019-5.4-.057Z" transform="translate(22.389 8.993)" fill="#ed1f26"/>
    <g id="Group_304" data-name="Group 304" transform="translate(337.61 243.614)">
      <path id="Path_583" data-name="Path 583" d="M318.833,239.647H313.2a.351.351,0,0,0-.378.321v7.717a.3.3,0,0,0,.124.235,5.538,5.538,0,0,0,3.061.589,5.963,5.963,0,0,0,3.017-.55.31.31,0,0,0,.189-.274v-7.717A.35.35,0,0,0,318.833,239.647Z" transform="translate(-312.063 -238.09)" fill="#ed1f26"/>
      <rect id="Rectangle_408" data-name="Rectangle 408" width="1.502" height="1.565" transform="translate(3.202 9.903)" fill="#ed1f26"/>
      <g id="Group_302" data-name="Group 302" transform="translate(0.148)">
        <path id="Path_584" data-name="Path 584" d="M312.352,238.835v2.007h0c.048.283,1.728.51,3.8.51s3.753-.226,3.8-.51h.006v-2.007Z" transform="translate(-312.352 -238.334)" fill="#ed1f26"/>
        <path id="Path_585" data-name="Path 585" d="M319.963,238.973c0,.286-1.7.52-3.8.52s-3.806-.234-3.806-.52,1.7-.523,3.806-.523S319.963,238.683,319.963,238.973Z" transform="translate(-312.352 -238.45)" fill="#ed1f26"/>
        <path id="Path_586" data-name="Path 586" d="M318.449,238.892c0,.183-1.155.333-2.575.333s-2.579-.15-2.579-.333,1.155-.333,2.579-.333S318.449,238.707,318.449,238.892Z" transform="translate(-312.068 -238.417)" fill="#ed1f26"/>
      </g>
      <g id="Group_303" data-name="Group 303" transform="translate(0 10.934)">
        <path id="Path_587" data-name="Path 587" d="M312.238,248.643l3.57-1.785,2.443.471.847,1.6-2.584,1.5s-.8-1.081-.986-1.408l-2.492,1.129Z" transform="translate(-312.238 -246.858)" fill="#ed1f26"/>
        <path id="Path_588" data-name="Path 588" d="M317.249,249.382a1.151,1.151,0,1,1-1.15-1.151A1.15,1.15,0,0,1,317.249,249.382Z" transform="translate(-311.424 -246.446)" fill="#ed1f26"/>
      </g>
    </g>
    <path id="Path_589" data-name="Path 589" d="M333.774,284.2s-.095,5.564.151,10.743,1.71,11.377-.782,14.628a2.12,2.12,0,0,0-.3,1.512c.052.2.1.355.138.525.41-.02.791-.034,1.112-.034,3.087,0,4.469-.961,3.588-3.42-.4-1.118-.679-2.046-.876-2.8,1.407-4.333.064-25.073.064-25.073-.218-1.3-.066-3.492-.283-6.905A93.053,93.053,0,0,0,333.774,284.2Z" transform="translate(31.547 15.655)" fill="#ed1f26"/>
    <path id="Path_590" data-name="Path 590" d="M325.033,248.6s-1.307.185-1.586.19l.282-.047c-1.091,0-4.362-.923-5.116-.84a20.075,20.075,0,0,0-3.355,1.259c-.585.252-1.676,1.427-1.424,1.845s.5.42.839.083a4.165,4.165,0,0,1,.628-.441c-.443.381-.928.861-.882,1.112a.494.494,0,0,0,.8.38c.374-.212,1.593-.714,1.593-.714s-.252.964-.042,1.173a2.48,2.48,0,0,0,1,.294s.044.628.882.586,1.385-.082,1.637-.126,2.264-.671,2.85-.419a13.564,13.564,0,0,1,2.055,1.6Z" transform="translate(25.84 8.002)" fill="#ed1f26"/>
    <g id="Group_305" data-name="Group 305" transform="translate(227.775 253.532)">
      <path id="Path_591" data-name="Path 591" d="M249.446,308.288a2.763,2.763,0,0,1-2.717,2.808h-14.07a2.766,2.766,0,0,1-2.72-2.808V283.044a2.764,2.764,0,0,1,2.72-2.8h14.07a2.762,2.762,0,0,1,2.717,2.8Z" transform="translate(-227.125 -235.813)" fill="#ed1f26"/>
      <path id="Path_592" data-name="Path 592" d="M311.539,308.288a2.768,2.768,0,0,1-2.72,2.808H294.753a2.769,2.769,0,0,1-2.72-2.808V283.044a2.764,2.764,0,0,1,2.72-2.8h14.065a2.763,2.763,0,0,1,2.72,2.8Z" transform="translate(-208.473 -235.813)" fill="#ed1f26"/>
      <path id="Path_593" data-name="Path 593" d="M325.27,270.442l4.65-.32a2.867,2.867,0,0,0,2.736-2.806v-1.092a3.236,3.236,0,0,0-2.736-3.074l-4.65-.778c-2.3-.381-4.411.863-4.536,2.836a2.011,2.011,0,0,1-.912,1.208l-.207.044c-2.463-6.215-6.109-14.96-8.748-15.991-6.87-2.685-24.15-4.172-28.987-4.393H279.87c-4.835.221-22.411,1.707-29.282,4.393-2.667,1.043-6.363,9.971-8.831,16.2l-1.148-.251a2.029,2.029,0,0,1-.91-1.208c-.126-1.973-2.233-3.217-4.544-2.836l-4.642.778a3.234,3.234,0,0,0-2.737,3.074v1.092a2.865,2.865,0,0,0,2.737,2.806l4.642.32c1.5.1,2.729.134,3.573-.83l1.659.36a22.3,22.3,0,0,0-5.326,1.995c-1.97,1.558-6.588,4.984-5.342,15.74.752,6.5,3.6,22.277,3.6,22.277h94.655s2.96-14.534,3.772-22.277c1.14-10.986-3.377-14.182-5.348-15.74a22.444,22.444,0,0,0-5.4-2.014c-.016-.04-.034-.088-.051-.127l1.053-.231C322.843,270.559,323.771,270.544,325.27,270.442Zm-72.9,13.567c0,1.759-3.06,1.544-4.766,1.544H237.161a3.14,3.14,0,0,1-3.094-3.183V281.3c0-1.756,1-2.224,3.029-2.919l8.84-1.6c3.771-.048,6.429,4.4,6.429,6.16Zm28.306-18.96a147.887,147.887,0,0,0-35,3.57c2.212-5.593,5.579-13.78,8-14.728,6.166-2.412,21.957-3.694,26.3-3.892h1.7c4.334.2,19.828,1.48,25.991,3.892,2.421.948,5.783,9.109,7.993,14.7a148.588,148.588,0,0,0-29.783-3.553Q283.309,265,280.671,265.05Zm44.2,13.335c2.027.7,3.026,1.164,3.026,2.919v1.065a3.14,3.14,0,0,1-3.091,3.183H314.364c-1.706,0-4.763.216-4.763-1.544v-1.06c0-1.759,2.654-6.208,6.427-6.16Z" transform="translate(-227.775 -246.077)" fill="#ed1f26"/>
    </g>
    <g id="Group_306" data-name="Group 306" transform="translate(313.168 257.01)">
      <path id="Path_594" data-name="Path 594" d="M316.738,248.752,293.442,254l.945,2.1Z" transform="translate(-293.442 -248.752)" fill="#ed1f26"/>
      <path id="Path_595" data-name="Path 595" d="M316.913,249.557l-20.354,12.8-.212-1.469Z" transform="translate(-292.57 -248.51)" fill="#ed1f26"/>
      <path id="Path_596" data-name="Path 596" d="M316.462,248.913l-19.306,7.659.419.944Z" transform="translate(-292.327 -248.704)" fill="#ed1f26"/>
    </g>
    <path id="Path_597" data-name="Path 597" d="M333.338,235.43c-2.614-3.052-6.65-5.65-7.958-5.65s-1.571.731-1.464,3.238c.1,2.221-.216,5.341,2.4,5.993S333.338,235.43,333.338,235.43Z" transform="translate(28.873 2.559)" fill="#ed1f26"/>
    <path id="Path_598" data-name="Path 598" d="M334,224.356l2.658-.776a6.384,6.384,0,0,0-6.852-2.055l3.278,2.648Zm-2.766,5.316a9.117,9.117,0,0,1,2.693,4.888l6.507-2.594c-.982-2.642-.978-4.06-2.986-7.277l-3.9,1.211Zm-7.06.733a3.437,3.437,0,0,0,.736,1.572,1.871,1.871,0,0,1,.951-.207,6.113,6.113,0,0,1,2.485.952l1.5-2.835a4.944,4.944,0,0,0-1.235-.514C327.229,229.04,325.343,229.84,324.171,230.406Zm9.835,6.926c-.12-.944-.626-2.2-1.005-3.676a6.234,6.234,0,0,0-2.27-3.169l-1.654,2.689A25.546,25.546,0,0,1,334.006,237.331Zm-5.638-8.688a4.471,4.471,0,0,1,1.918.419l1.947-3.667c-.772-1.174-2.192-3.073-3.534-3.514a8.921,8.921,0,0,0-2.727,1.657c-1.609,1.507-5.2,3.566-2.073,6.568A7.485,7.485,0,0,1,328.368,228.644Zm13.761,34.109c.246-4.191,4.739-11.687,3.237-20.446-.692-4.03-2.971-5.775-4.452-9.155l-6.325,3.317.039.87c.09,1.735-1.3,3.065-3.9,7.407a23.408,23.408,0,0,0-3.658,10.4,9.3,9.3,0,0,0,5.542-1.84s.168-5.867,1.678-9.559,4.529-4.694,5.87-4.694,2.563,1.775,2.563,1.775c1.29,1.932.4,6.043-.887,9.993-1.121,3.434-2.113,7.15-3.788,9.835-1.264,2.018-.991,3.049-6.274,3.049-1.627,0-3.372.066-4.939.062-.059,1.32-.112,2.389-.112,3.3,0,1.971-2,27.667-2,27.667-.355,2.657.831,17.122,1.529,25.06.2,3.039.346,5.095.346,5.095l.117.043.008.083s.124.046.3.105a2.5,2.5,0,0,1-1.345,1.147c-3.921,1.251-4.588,2.251-4.588,3.419,0,1.345,7.549.251,10.592.251,3.088,0,4.469-.962,3.589-3.42-.226-.629-.406-1.186-.563-1.7.082-.038.165-.068.247-.108,3.451-1.728,1.646-9.155,1.4-14.332s-.151-10.742-.151-10.742a119.939,119.939,0,0,1,3.205-11.832c3.2-9.711,3.7-9.934,3.7-13.463C343.111,269.419,341.881,266.944,342.128,262.753Z" transform="translate(28.031 0)" fill="#ed1f26"/>
  </g>
</svg>
