<svg xmlns="http://www.w3.org/2000/svg" width="122.001" height="91.594" viewBox="0 0 122.001 91.594">
  <g id="Group_312" data-name="Group 312" transform="translate(-334.544 -128.277)">
    <path id="Path_599" data-name="Path 599" d="M358.165,154.181a4.134,4.134,0,0,0-1.027.134h0l-.132-.525a4.694,4.694,0,0,1,1.159-.147h0a3.106,3.106,0,0,1,2.142.746h0l0,0-.369.4a2.582,2.582,0,0,0-1.776-.608Z" transform="translate(5.234 5.911)" fill="#ed1f26"/>
    <path id="Path_600" data-name="Path 600" d="M360.289,155.687c-.176-.42-.245-2.586-.522-2.7,0,0-2.8.07-7.069,2.414a10.917,10.917,0,0,0-2.808,1.711l1,1.63a18.289,18.289,0,0,1,4.472-2.639,7.452,7.452,0,0,1,4.136-.081C359.737,156.229,360.289,155.687,360.289,155.687Z" transform="translate(3.576 5.759)" fill="#ed1f26"/>
    <path id="Path_601" data-name="Path 601" d="M355.292,184.643a1.073,1.073,0,1,1-1.072-1.071A1.071,1.071,0,0,1,355.292,184.643Z" transform="translate(4.335 12.885)" fill="#ed1f26"/>
    <path id="Path_602" data-name="Path 602" d="M351.131,184.643a1.073,1.073,0,1,1-1.073-1.071A1.072,1.072,0,0,1,351.131,184.643Z" transform="translate(3.365 12.885)" fill="#ed1f26"/>
    <path id="Path_603" data-name="Path 603" d="M344.125,134.437c-.2-.444-.264-1.046-.841-.824s-1.887,1.967-1.342,2.906S344.125,134.437,344.125,134.437Z" transform="translate(1.694 1.232)" fill="#ed1f26"/>
    <g id="Group_308" data-name="Group 308" transform="translate(346.709 128.962)">
      <path id="Path_604" data-name="Path 604" d="M346.213,134.138c1.018-.637,1.562-.091,2.1-.021a3.812,3.812,0,0,1,1.255.54,4.021,4.021,0,0,0,.266-2.48c-.76-1.928-1.044-2.47-3.069-3.322-.816-.342-1.972,3.189-2.354,6.613.667-.069.434.027.434.027A4.863,4.863,0,0,1,346.213,134.138Z" transform="translate(-344.41 -128.832)" fill="#ed1f26"/>
    </g>
    <path id="Path_605" data-name="Path 605" d="M350.8,191.429a.253.253,0,1,1,0,.507h-2.842c-.012.169-.027.339-.041.507H350.8a.253.253,0,1,1,0,.507h-2.924c-.014.171-.028.337-.041.507H350.8a.253.253,0,1,1,0,.507h-3.007c-.012.169-.027.339-.041.507H350.8a.253.253,0,1,1,0,.506h-3.091c-.015.171-.027.34-.042.508H350.8a.253.253,0,1,1,0,.507h-3.176c-.015.173-.028.337-.043.506H350.8a.254.254,0,1,1,0,.508h-3.264c-.014.17-.028.34-.043.506H350.8a.253.253,0,1,1,0,.507h-3.351c-.015.169-.028.344-.043.507H350.8a.253.253,0,1,1,0,.507h-3.43c-.056.836-.1,1.577-.146,2.18h11.531V180.131H348.714c-.084,2.783-.386,7.123-.715,11.3Zm4.8-7.515a1.531,1.531,0,1,1-1.531,1.531A1.534,1.534,0,0,1,355.6,183.914Zm-2.5,7.515h3.75a.253.253,0,0,1,0,.507H353.1a.253.253,0,0,1,0-.507Zm0,1.014h3.75a.253.253,0,0,1,0,.507H353.1a.253.253,0,0,1,0-.507Zm0,1.014h3.75a.253.253,0,0,1,0,.507H353.1a.253.253,0,0,1,0-.507Zm0,1.014h3.75a.253.253,0,0,1,0,.506H353.1a.253.253,0,0,1,0-.506Zm0,1.014h3.75a.253.253,0,0,1,0,.507H353.1a.253.253,0,0,1,0-.507Zm0,1.012h3.75a.254.254,0,0,1,0,.508H353.1a.254.254,0,0,1,0-.508Zm0,1.014h3.75a.253.253,0,0,1,0,.507H353.1a.253.253,0,0,1,0-.507Zm0,1.014h3.75a.253.253,0,0,1,0,.507H353.1a.253.253,0,0,1,0-.507Zm-2.629-14.609a1.531,1.531,0,1,1-1.533,1.531A1.531,1.531,0,0,1,350.468,183.914Z" transform="translate(2.955 12.083)" fill="#ed1f26"/>
    <path id="Path_606" data-name="Path 606" d="M339.481,192.429a83.316,83.316,0,0,0,.128-9.062s-.826-4-2.286-8.676a68.819,68.819,0,0,1,.074,8.508s-1.457,17.049,0,19.546l.032,0c-.148.5-.33,1.078-.563,1.726-.745,2.074.422,2.885,3.026,2.885.091,0,.2,0,.3,0a14.591,14.591,0,0,0,.233-2.444C340.063,203.792,338.47,205.127,339.481,192.429Z" transform="translate(0.489 10.816)" fill="#ed1f26"/>
    <path id="Path_607" data-name="Path 607" d="M336.258,142.606c-1.089,1.631.418,4.488,1.5,7.822a13.883,13.883,0,0,0,4.554,6.866c1.573,1.25,6.493,3.658,10.15,2.314a2.423,2.423,0,0,0,1.609-1.533l-.289-2.927s-.2-.466-3.783-1.163c-3.27-.636-3.583-1.916-3.583-1.916a81.434,81.434,0,0,1-3.92-7.692c-1.272-3.112-3.03-3.159-4.161-3.159S336.258,142.606,336.258,142.606Z" transform="translate(0.312 3.016)" fill="#ed1f26"/>
    <path id="Path_608" data-name="Path 608" d="M350.674,152.5l1.275.529c.88.268,3.055.337,3.645.588a16.878,16.878,0,0,1,2.4,1.84c.411.346,1,1.562.7,1.84s-.509.216-.7-.139a3.437,3.437,0,0,0-.4-.512c.266.418.538.924.439,1.115a.414.414,0,0,1-.735.111c-.253-.261-1.113-.967-1.113-.967s-.031.84-.253.957a2.111,2.111,0,0,1-.884-.009s-.186.5-.853.256-1.1-.406-1.291-.5a7.783,7.783,0,0,0-2.189-.363c-.534.059-1.524.291-1.524.291Z" transform="translate(3.413 5.645)" fill="#ed1f26"/>
    <path id="Path_609" data-name="Path 609" d="M358.38,209.846c-.162,0-.327,0-.494-.006h0a28.063,28.063,0,0,1-5.625-.615h0c-1.222-.369-2.039-.544-2.2-1.529h0c.122-.877.82-1.041,1.668-1.295h0a17.02,17.02,0,0,1,3.811-.342h0a9.028,9.028,0,0,0,4.063-.846h0c.953-.485,1.349-1.094,1.324-1.415h0c.041-.338-.456-1.007-2.318-1.328h0a.543.543,0,0,1-.443-.624h0a.542.542,0,0,1,.624-.443h0c1.985.338,3.176,1.144,3.217,2.395h0c-.144,1.957-2.771,3.289-6.467,3.342h0a11.373,11.373,0,0,0-4.295.564h0l.069.042h0a4.946,4.946,0,0,0,1.207.43h0a27.144,27.144,0,0,0,5.4.584h0c.152.006.308.006.462.006h0c6.128-.057,8.678-3.488,8.738-8.639h0a20.009,20.009,0,0,0-1.185-6.419h0c-2.874-8.434-12.332-15.479-15.444-21.617h0a19.078,19.078,0,0,1-1.954-8.48h0c.014-3.165.746-5.82,1.919-7.189h0l0,0a.537.537,0,0,1,.76-.052h0a.541.541,0,0,1,.052.763h0c-.882.977-1.663,3.5-1.652,6.475h0a18.006,18.006,0,0,0,1.841,7.995h0c2.835,5.753,12.424,12.891,15.5,21.752h0a21.134,21.134,0,0,1,1.242,6.769h0a9.927,9.927,0,0,1-2.393,6.965h0c-1.639,1.751-4.123,2.753-7.4,2.753h-.026Z" transform="translate(3.26 6.516)" fill="#ed1f26"/>
    <g id="Group_310" data-name="Group 310" transform="translate(364.063 142.595)">
      <path id="Path_610" data-name="Path 610" d="M364.02,170.523h14.434c1.9,0,2.935-1.3,2.369-2.751l-.269-.69H361.816l-.247.69C361.048,169.223,362.122,170.523,364.02,170.523Z" transform="translate(-357.796 -133.552)" fill="#ed1f26"/>
      <path id="Path_611" data-name="Path 611" d="M365.73,163.78a3.639,3.639,0,0,0-3.4,2.366l-.309,1.021h8.632l-.549-3.387Z" transform="translate(-357.659 -134.322)" fill="#ed1f26"/>
      <path id="Path_612" data-name="Path 612" d="M378.326,167.167l-.338-1.021a3.765,3.765,0,0,0-3.461-2.366h-4.814c.055,1,.321,2.6.455,3.387Z" transform="translate(-355.867 -134.322)" fill="#ed1f26"/>
      <path id="Path_613" data-name="Path 613" d="M417.319,170.523h14.435c1.9,0,2.932-1.3,2.367-2.751l-.271-.69H415.112l-.243.69C414.346,169.223,415.42,170.523,417.319,170.523Z" transform="translate(-345.375 -133.552)" fill="#ed1f26"/>
      <path id="Path_614" data-name="Path 614" d="M419.028,163.78a3.639,3.639,0,0,0-3.394,2.366l-.311,1.021h8.633l-.544-3.387Z" transform="translate(-345.239 -134.322)" fill="#ed1f26"/>
      <path id="Path_615" data-name="Path 615" d="M431.623,167.167l-.337-1.021a3.768,3.768,0,0,0-3.46-2.366h-4.815c.053,1,.318,2.6.454,3.387Z" transform="translate(-343.447 -134.322)" fill="#ed1f26"/>
      <g id="Group_309" data-name="Group 309">
        <path id="Path_616" data-name="Path 616" d="M377.193,200.366a2.571,2.571,0,0,1-2.417,2.7h-12.51a2.573,2.573,0,0,1-2.419-2.7v-24.3a2.571,2.571,0,0,1,2.419-2.7h12.51a2.568,2.568,0,0,1,2.417,2.7Z" transform="translate(-358.166 -132.088)" fill="#ed1f26"/>
        <path id="Path_617" data-name="Path 617" d="M435.432,200.366a2.572,2.572,0,0,1-2.42,2.7h-12.5a2.573,2.573,0,0,1-2.419-2.7v-24.3a2.57,2.57,0,0,1,2.419-2.7h12.5a2.569,2.569,0,0,1,2.42,2.7Z" transform="translate(-344.594 -132.088)" fill="#ed1f26"/>
        <path id="Path_618" data-name="Path 618" d="M443.578,161.625c-.039-.022-.078-.044-.117-.063-.116-.064-.234-.133-.346-.187-2.015-5.471-8.854-17.557-11.7-18.758-6.11-2.584-21.474-2.517-25.776-2.727h-1.79c-4.3.211-19.931.143-26.043,2.727-2.837,1.2-9.682,13.287-11.7,18.758-2.64.825-7.969,6.742-6.864,17.095.67,6.256,3.2,21.449,3.2,21.449h84.181s2.632-13.992,3.353-21.449C450.949,168.39,446.749,163.421,443.578,161.625Zm-63.613,16.314h-16.35c-2.148,0-3.366-1.9-2.776-4.026l.63-2.28a4.157,4.157,0,0,1,3.843-2.946h12.724a4.293,4.293,0,0,1,3.919,2.946l.686,2.281C383.282,176.036,382.114,177.939,379.965,177.939Zm-9.221-17.847c1.965-5.382,7.651-13.267,9.806-14.179,5.485-2.323,19.53-2.059,23.389-2.247h1.514c3.856.187,17.634-.076,23.114,2.247,2.157.911,7.845,8.8,9.807,14.179-.35.009-.788.017-1.266.023-7.083-.027-15.631-.053-24.593.059C395.383,160.151,375.6,160.072,370.745,160.092Zm74.939,17.847H429.332c-2.149,0-3.362-1.9-2.774-4.026l.628-2.28a4.162,4.162,0,0,1,3.846-2.946h12.722a4.3,4.3,0,0,1,3.921,2.946l.686,2.281C449,176.036,447.831,177.939,445.683,177.939Z" transform="translate(-358.342 -139.889)" fill="#ed1f26"/>
        <path id="Path_619" data-name="Path 619" d="M450.966,183.37a1.424,1.424,0,0,1-1.343,1.5H359.829a1.425,1.425,0,0,1-1.345-1.5v-6.753a1.425,1.425,0,0,1,1.345-1.5h89.794a1.424,1.424,0,0,1,1.343,1.5Z" transform="translate(-358.484 -131.679)" fill="#ed1f26"/>
      </g>
    </g>
    <g id="Group_311" data-name="Group 311" transform="translate(355.875 143.168)">
      <path id="Path_620" data-name="Path 620" d="M359.3,154.339a.584.584,0,0,0,.053.665c.207.218,2.483,1.809,2.483,1.809l.52-.486s-1.814-1.846-2.095-2.147a.525.525,0,0,0-.748-.1A1.542,1.542,0,0,0,359.3,154.339Z" transform="translate(-350.124 -137.182)" fill="#ed1f26"/>
      <path id="Path_621" data-name="Path 621" d="M363.605,158.293l11.251-13.3,0,0,.363.308-10.843,12.82,9.006,6.868-.2.436-9.58-7.131Z" transform="translate(-349.103 -139.274)" fill="#ed1f26"/>
      <path id="Path_622" data-name="Path 622" d="M351.887,168.926l14.163-9.89-1.793-18.609.474-.054,2.106,19.077-14.992,9.631Zm12.37-28.5v0h0v0Z" transform="translate(-351.844 -140.35)" fill="#ed1f26"/>
      <path id="Path_623" data-name="Path 623" d="M353.811,173.437c.821-2.239,13.361-17.689,12.84-17.689-1.658,0-.9-.523-.9-.523Z" transform="translate(-351.386 -136.889)" fill="#ed1f26"/>
      <path id="Path_624" data-name="Path 624" d="M363.074,159.462l8.259-19.108-7.365,19.531Z" transform="translate(-349.227 -140.354)" fill="#ed1f26"/>
      <path id="Path_625" data-name="Path 625" d="M363.906,156.642a.178.178,0,0,1,.111-.227h0l12.838-3.17a.178.178,0,0,1,.228.111h0a.179.179,0,0,1-.112.227h0l-12.837,3.17a.206.206,0,0,1-.06.01h0a.177.177,0,0,1-.168-.121Z" transform="translate(-349.036 -137.353)" fill="#ed1f26"/>
      <path id="Path_626" data-name="Path 626" d="M384.647,158.294l-18.378-.387-.64.064-10.275-10.186c-.115-.1-.414-.49-.3-.391l.545.35,10.78,9.623,18.282.387a.268.268,0,0,1,.263.276h0a.27.27,0,0,1-.27.264h0Z" transform="translate(-351.102 -138.717)" fill="#ed1f26"/>
      <path id="Path_627" data-name="Path 627" d="M355.668,149.917c1.758,1.644,9.413,8.177,9.811,7.925a2.347,2.347,0,0,0,.617-.54Z" transform="translate(-350.953 -138.126)" fill="#ed1f26"/>
      <path id="Path_628" data-name="Path 628" d="M363.56,155.4l6.57,7.758-6.967-6.953Z" transform="translate(-349.207 -136.849)" fill="#ed1f26"/>
      <path id="Path_629" data-name="Path 629" d="M365.536,167.363l-2.181-11.906a.161.161,0,0,1,.129-.19h0a.164.164,0,0,1,.19.131h0l2.182,11.906a.164.164,0,0,1-.129.189h0l-.03,0h0a.163.163,0,0,1-.162-.132Z" transform="translate(-349.162 -136.88)" fill="#ed1f26"/>
      <path id="Path_630" data-name="Path 630" d="M363.967,158.153a.261.261,0,0,1-.117-.218h0L363.7,144.2a.268.268,0,0,1,.266-.271h0a.269.269,0,0,1,.274.266h0l.021,13.731,20.465-6.678a.271.271,0,0,1,.348.16h0a.269.269,0,0,1-.16.345h0L364.34,158.5c-.031.011-.187-.3-.218-.3h0a.268.268,0,0,1-.154-.048Z" transform="translate(-349.081 -139.521)" fill="#ed1f26"/>
      <path id="Path_631" data-name="Path 631" d="M362.514,168.5a.222.222,0,0,1-.163-.271h0l2.968-11.992-10.1,1.386h0a.222.222,0,0,1-.252-.19h0a.221.221,0,0,1,.191-.252h0l10.422-1.428a.213.213,0,0,1,.192.072h0a.215.215,0,0,1,.051.2h0l-3.046,12.309a.224.224,0,0,1-.243.169h0l-.027,0Z" transform="translate(-351.115 -136.765)" fill="#ed1f26"/>
      <path id="Path_632" data-name="Path 632" d="M364.964,158.64l-6.666-13.99,7.543,13.8Z" transform="translate(-350.34 -139.353)" fill="#ed1f26"/>
    </g>
    <path id="Path_633" data-name="Path 633" d="M352.411,131.1a22.455,22.455,0,0,0-4.068-2.764,21.541,21.541,0,0,0-3.2,3.863c-1.964.043-5.789.422-5.789.422l-.385,1.742,4.956-.317a16.389,16.389,0,0,0-2.12,4.195c-.163,1.451,4.292,9.93,4.292,9.93l5.138-5.395-.81-1.523s3.367-5.759,3.412-6.824A4.026,4.026,0,0,0,352.411,131.1Z" transform="translate(1.031 0.012)" fill="#ed1f26"/>
    <path id="Path_634" data-name="Path 634" d="M343.968,134.563l-3.776.346c0,1.359.2,3.239.245,3.672a13.37,13.37,0,0,1-1.624,2.393l-.051-.037c-1.441,1.531-3.633,2.856-4.052,6.317-.721,5.944,1.107,12.047,1.316,15.581s-.832,5.625-.832,9.777c0,2.978.423,3.166,3.125,11.357a101.252,101.252,0,0,1,2.7,9.984s.079,4.693-.128,9.062-1.73,10.634,1.181,12.09c.07.036.142.049.211.081-.132.438-.285.91-.477,1.446-.743,2.073.423,2.885,3.027,2.885,2.568,0,8.938.924,8.938-.212,0-.985-.565-1.83-3.87-2.885a2.106,2.106,0,0,1-1.136-.968c.152-.051.255-.088.255-.088l.006-.068.1-.037s.126-1.753.295-4.34c.589-6.705,1.586-18.864,1.288-21.1,0,0-2.288-22.691-2.288-24.355,0-.768-.057-1.343-.118-2.11a14.969,14.969,0,0,1-6.219-2.58,13.874,13.874,0,0,1-4.552-6.866c-1.086-3.334-2.737-6.859-1.792-8.286a3.838,3.838,0,0,1,2.6-2.118c1.385-.211,3.583.386,5.086,3.777,1.363,3.075,4.2,8.129,4.2,8.129s.075.018.245.055a26.708,26.708,0,0,0-2.422-8.65,10.034,10.034,0,0,0-2.195-2.593,9.191,9.191,0,0,1,.76-1.12c-.953-1.787-1.793-3.577-1.719-4.223A8.542,8.542,0,0,1,343.968,134.563Zm4.381-5.9a5.217,5.217,0,0,0-4.535.237,6.084,6.084,0,0,0-2.97,3.132c1.16-.107,3.7-.33,5.176-.363A30.053,30.053,0,0,1,348.349,128.662Z" transform="translate(0)" fill="#ed1f26"/>
  </g>
</svg>
