<svg xmlns="http://www.w3.org/2000/svg" width="241.55" height="93.18" viewBox="0 0 241.55 93.18">
  <g id="Group_567" data-name="Group 567" transform="translate(-26.725 -290.263)">
    <path id="Path_880" data-name="Path 880" d="M248.363,445.946H31.4a4.685,4.685,0,0,0-4.671,4.671h0a4.685,4.685,0,0,0,4.671,4.672H248.363a4.685,4.685,0,0,0,4.671-4.672h0A4.685,4.685,0,0,0,248.363,445.946Z" transform="translate(0 -71.846)" opacity="0.11"/>
    <path id="Path_881" data-name="Path 881" d="M462.6,445.946a4.685,4.685,0,0,0-4.671,4.671h0a4.671,4.671,0,1,0,9.342,0h0A4.685,4.685,0,0,0,462.6,445.946Z" transform="translate(-198.994 -71.846)" opacity="0.11"/>
    <path id="Path_882" data-name="Path 882" d="M132.421,339.409h-1.262a1.658,1.658,0,0,0-1.619,1.3l-.841,3.772a1.658,1.658,0,0,0,1.617,2.018h1.262a1.657,1.657,0,0,0,1.619-1.3l.841-3.772A1.658,1.658,0,0,0,132.421,339.409Z" transform="translate(-47.041 -22.68)" fill="#49a584"/>
    <path id="Path_883" data-name="Path 883" d="M274.579,392.622l-7.168-.1c-6.338,0-11.5,7.416-11.5,16.565s5.077,16.565,11.415,16.565l7.158-.023c6.338,0,11.569-7.273,11.569-16.421S280.918,392.622,274.579,392.622Z" transform="translate(-105.768 -47.191)" fill="#3d3d3d"/>
    <path id="Path_884" data-name="Path 884" d="M66.372,392.622l-7.168-.1c-6.338,0-11.5,7.416-11.5,16.565s5.077,16.565,11.415,16.565l7.253.141c6.338,0,11.474-7.436,11.474-16.585S72.711,392.622,66.372,392.622Z" transform="translate(-9.684 -47.191)" fill="#424242"/>
    <path id="Path_885" data-name="Path 885" d="M205.252,320.234s9.588-19.774,3.473-20.707c-25.108-3.831-69.62-.614-69.62-.614-19.314,1.645-28.329,5.936-39.366,14.506L84.287,325.087s-32.07,5.745-40.231,12.872c-9.245,8.073-10.49,20.087-11,26.979H140.288V339.86h52.607v3.482c7.379,1.8,9.836,13.663,10.653,21.6h41.316c.078-10.215.18-28.322-.058-30.026C244.044,329.46,208.9,324.066,205.252,320.234Z" transform="translate(-2.921 -3.408)" fill="#49a584"/>
    <rect id="Rectangle_602" data-name="Rectangle 602" width="58.562" height="32.323" transform="translate(97.92 336.553)" fill="#2d2d2d"/>
    <path id="Path_886" data-name="Path 886" d="M359.564,376.221l1,32.323,7.779-.06,27.139-.371s.2-22.841.135-31.892Z" transform="translate(-153.601 -39.668)" fill="#2d2d2d"/>
    <path id="Path_887" data-name="Path 887" d="M295.725,347.8l-.869-.253a63.109,63.109,0,0,0-.531-8.14c-.711-5.451-2.958-14.334-6.366-18.166,0,0-12.187-14.66-17.308-17.748-7.531-4.54-48.545-3.573-48.545-3.573-12.5,0-25.1,6.436-34.563,13.648-3.064,2.336-8.734,8.346-11.287,11.1a5.888,5.888,0,0,1-3.116,1.789c-6.577,1.374-29.154,6.439-35.643,12.5-9.458,8.842-11.191,23.849-11.847,30.48h19.867c1.092-7.748,4.842-24.851,14.717-24.9,12.061-.062,15.143,17.122,15.714,24.9h85.07c1.107-7.837,4.524-25.331,13.553-25.331,9.593,0,11.631,17.5,12.059,25.331h7c2.568-2.313,4.179-9.954,4.179-13.429V350.9A3.147,3.147,0,0,0,295.725,347.8Z" transform="translate(-45.653 -4.418)" fill="#3e9579"/>
    <path id="Path_888" data-name="Path 888" d="M31.321,408.8c-.6,2.736-.213,8.68.9,11.016a4.933,4.933,0,0,0,4.62,3.191H98.624c.593-3.434,1.325-12,1.643-15.446H32.773A1.524,1.524,0,0,0,31.321,408.8Z" transform="translate(-1.99 -54.131)" fill="#4f4f4f"/>
    <g id="Group_558" data-name="Group 558" transform="translate(97.179 345.899)">
      <ellipse id="Ellipse_133" data-name="Ellipse 133" cx="11.476" cy="16.565" rx="11.476" ry="16.565" fill="#3d3d3d"/>
      <rect id="Rectangle_603" data-name="Rectangle 603" width="7.14" height="33.13" transform="translate(11.542)" fill="#3d3d3d"/>
      <ellipse id="Ellipse_134" data-name="Ellipse 134" cx="11.476" cy="16.565" rx="11.476" ry="16.565" transform="translate(7.206)" fill="#4d4d4d"/>
      <ellipse id="Ellipse_135" data-name="Ellipse 135" cx="9.181" cy="13.252" rx="9.181" ry="13.252" transform="translate(9.501 3.313)" fill="#ddd"/>
      <ellipse id="Ellipse_136" data-name="Ellipse 136" cx="8.263" cy="11.927" rx="8.263" ry="11.927" transform="translate(10.419 4.638)" fill="#ddd"/>
      <path id="Path_889" data-name="Path 889" d="M180.024,406.991c1.28.655,3.01,1.544,4.074,2.092a.743.743,0,0,0,1.045-.695l.421-6.017A8.261,8.261,0,0,0,180.024,406.991Z" transform="translate(-167.924 -397.635)" fill="#696970"/>
      <path id="Path_890" data-name="Path 890" d="M195,402.719v5.305a.876.876,0,0,0,1.158.781l3.728-1.616A8.227,8.227,0,0,0,195,402.719Z" transform="translate(-174.835 -397.795)" fill="#696970"/>
      <path id="Path_891" data-name="Path 891" d="M200.5,418.979a.906.906,0,0,0-.089,1.229l3.374,4.08a16.815,16.815,0,0,0,.4-3.674,16.632,16.632,0,0,0-.568-4.345Z" transform="translate(-177.239 -404.049)" fill="#696970"/>
      <path id="Path_892" data-name="Path 892" d="M195.175,433.741c-.255,1.555-.728,4.443-1.061,6.457,2.382-.418,4.451-2.3,5.764-5l-3.643-2.05A.73.73,0,0,0,195.175,433.741Z" transform="translate(-174.426 -411.797)" fill="#696970"/>
      <path id="Path_893" data-name="Path 893" d="M183.961,435.273l-3.669,1.479c1.156,2.109,2.535,3.64,4.689,4.246v-4.939A.78.78,0,0,0,183.961,435.273Z" transform="translate(-168.048 -412.796)" fill="#696970"/>
      <path id="Path_894" data-name="Path 894" d="M177.38,416.906a16.938,16.938,0,0,0,.088,8.338l2.93-3.378a.912.912,0,0,0,.026-1.135C179.736,419.858,178.407,418.175,177.38,416.906Z" transform="translate(-166.483 -404.343)" fill="#696970"/>
    </g>
    <g id="Group_559" data-name="Group 559" transform="translate(209.301 345.899)">
      <ellipse id="Ellipse_137" data-name="Ellipse 137" cx="11.476" cy="16.565" rx="11.476" ry="16.565" fill="#3d3d3d"/>
      <rect id="Rectangle_604" data-name="Rectangle 604" width="7.14" height="33.13" transform="translate(11.542)" fill="#3d3d3d"/>
      <ellipse id="Ellipse_138" data-name="Ellipse 138" cx="11.476" cy="16.565" rx="11.476" ry="16.565" transform="translate(7.206)" fill="#4d4d4d"/>
      <ellipse id="Ellipse_139" data-name="Ellipse 139" cx="9.181" cy="13.252" rx="9.181" ry="13.252" transform="translate(9.501 3.313)" fill="#ddd"/>
      <path id="Path_895" data-name="Path 895" d="M393.373,402.189c-4.563,0-8.263,5.34-8.263,11.927s3.7,11.927,8.263,11.927,8.263-5.34,8.263-11.927S397.936,402.189,393.373,402.189Z" transform="translate(-374.691 -397.551)" fill="#ddd"/>
      <path id="Path_896" data-name="Path 896" d="M388.232,406.991c1.28.655,3.01,1.544,4.074,2.092a.743.743,0,0,0,1.045-.695l.421-6.017A8.26,8.26,0,0,0,388.232,406.991Z" transform="translate(-376.132 -397.635)" fill="#696970"/>
      <path id="Path_897" data-name="Path 897" d="M404,402.719v5.305c0,.583.46.987.945.781l3.834-1.616A9.851,9.851,0,0,0,404,402.719Z" transform="translate(-383.408 -397.795)" fill="#696970"/>
      <path id="Path_898" data-name="Path 898" d="M408.705,418.979a.906.906,0,0,0-.089,1.229l3.375,4.08a16.818,16.818,0,0,0,.4-3.674,16.61,16.61,0,0,0-.568-4.345Z" transform="translate(-385.447 -404.049)" fill="#696970"/>
      <path id="Path_899" data-name="Path 899" d="M403.382,433.741c-.254,1.555-.728,4.443-1.061,6.457,2.382-.418,4.451-2.3,5.764-5l-3.643-2.05A.73.73,0,0,0,403.382,433.741Z" transform="translate(-382.634 -411.797)" fill="#696970"/>
      <path id="Path_900" data-name="Path 900" d="M391.426,435.273l-3.832,1.479A9.306,9.306,0,0,0,392.121,441v-4.939C392.121,435.482,391.908,435.079,391.426,435.273Z" transform="translate(-375.837 -412.796)" fill="#696970"/>
      <path id="Path_901" data-name="Path 901" d="M385.588,416.906a16.946,16.946,0,0,0,.087,8.338l2.931-3.378a.911.911,0,0,0,.025-1.135C387.944,419.858,386.614,418.175,385.588,416.906Z" transform="translate(-374.691 -404.343)" fill="#696970"/>
    </g>
    <path id="Path_902" data-name="Path 902" d="M127.93,399.3h20.412c1.872-6.893,5.2-14.377,10.84-15.911H133.793A47.887,47.887,0,0,0,127.93,399.3Z" transform="translate(-46.705 -42.978)" fill="#3e9579"/>
    <path id="Path_903" data-name="Path 903" d="M176.972,374.964c-13.991.038-16.36,19.577-16.36,19.577l2.821.842c2.1-7.7,6.009-16.13,12.936-16.166,8.2-.043,12.251,7.891,14.183,15.42l2.779-.831S190.731,374.926,176.972,374.964Z" transform="translate(-61.787 -39.088)" fill="#fff" opacity="0.11"/>
    <path id="Path_904" data-name="Path 904" d="M104.584,398.762H36.113c-.656,0-.8.366-1.107,1.5-.271,1-.581,1.5.272,1.5H103.5a1.237,1.237,0,0,0,1.122-.775l.537-1.245A.689.689,0,0,0,104.584,398.762Z" transform="translate(-3.69 -50.071)" fill="#4f4f4f"/>
    <path id="Path_905" data-name="Path 905" d="M129.051,352.645l-.88.206-1.6.374-.986.23-1.084.3-2.442.679c-.862.26-1.764.565-2.7.864s-1.892.667-2.868,1.022-1.953.766-2.93,1.178c-.985.393-1.939.872-2.891,1.316-.479.216-.941.462-1.4.7l-1.357.714-1.29.748c-.423.243-.835.485-1.225.744l-1.149.736-1.052.736c-.34.232-.657.473-.957.706s-.591.442-.852.665l-.738.615c-.225.2-.777.7-.963.869-.1.091-7.379,8.6-7.468,8.687l10,.13c.073-.061.492-7.52,2.7-9.048.315-.219.607-.5.928-.768l1.028-.782c.349-.275.722-.536,1.107-.8l1.173-.815,1.247-.792c.421-.269.847-.543,1.292-.789.885-.5,1.772-1.046,2.7-1.507.918-.479,1.834-.97,2.764-1.386s1.827-.879,2.729-1.236,1.76-.746,2.589-1.073l2.353-.871,1.048-.386.956-.31,1.556-.5,1.106-.358a.306.306,0,0,0,.19-.361A.538.538,0,0,0,129.051,352.645Z" transform="translate(-30.224 -28.782)" fill="#3e9579"/>
    <path id="Path_906" data-name="Path 906" d="M148.146,407.561h-21.53c-3.338,12.918,1,15.446,2.035,15.446h15.675a1.238,1.238,0,0,0,1.148-1.21,120.132,120.132,0,0,1,2.948-13.815A.315.315,0,0,0,148.146,407.561Z" transform="translate(-45.526 -54.131)" fill="#494949"/>
    <path id="Path_907" data-name="Path 907" d="M356.143,411.976h9.918a1.033,1.033,0,0,0,.964-.983c.478-4.258,2.837-23.084,10.621-27.336h-21.5Z" transform="translate(-152.022 -43.1)" fill="#3e9579"/>
    <path id="Path_908" data-name="Path 908" d="M387.91,374.964c-12.564.038-14.692,19.577-14.692,19.577l3.8.481c1.962-7.785,5.526-16.235,11.8-16.235,6.515,0,9.545,8.072,10.953,15.706l2.828-.689S400.266,374.926,387.91,374.964Z" transform="translate(-159.902 -39.088)" fill="#fff" opacity="0.11"/>
    <g id="Group_560" data-name="Group 560" transform="translate(136.374 320.731)">
      <path id="Path_909" data-name="Path 909" d="M274.388,347.019a207.372,207.372,0,0,1,.966,35.132l-41.966-.248V359.5c0-4.841-1.816-11.531-1.889-11.813l-1.16-.177c.017.067,1.971,7.322,1.971,11.99v23.685l44.191.262-.032-.594c.015-.186,1.37-18.761-.846-36.01Z" transform="translate(-230.339 -346.841)" fill="#388469"/>
    </g>
    <g id="Group_561" data-name="Group 561" transform="translate(210.704 319.684)">
      <path id="Path_910" data-name="Path 910" d="M371.425,345.308c.034.112,3.457,11.2,3.454,17.208,0,1.758-1.151,3.845-2.482,6.261-1.747,3.169-3.726,6.76-4.029,11.1l1.181.1c.282-4.04,2.184-7.493,3.863-10.539,1.422-2.579,2.65-4.807,2.651-6.922,0-6.22-3.372-17.157-3.516-17.62Z" transform="translate(-368.368 -344.897)" fill="#388469"/>
    </g>
    <path id="Path_911" data-name="Path 911" d="M303.343,398.762H217.125a.629.629,0,0,0-.533.886c.182.448.4.982.562,1.39a1.114,1.114,0,0,0,1.023.727h83.833a1.228,1.228,0,0,0,1.1-.732c.2-.428.459-.981.685-1.481A.548.548,0,0,0,303.343,398.762Z" transform="translate(-87.598 -50.071)" fill="#494949"/>
    <path id="Path_912" data-name="Path 912" d="M304.49,407.561H214.853a.328.328,0,0,0-.273.429,84.949,84.949,0,0,1,1.724,13.95.994.994,0,0,0,.912,1.068h83.906a1.033,1.033,0,0,0,.964-.983,102.438,102.438,0,0,1,2.821-14.07C304.968,407.751,304.687,407.561,304.49,407.561Z" transform="translate(-86.688 -54.131)" fill="#494949"/>
    <g id="Group_562" data-name="Group 562" transform="translate(30.34 365.937)" opacity="0.14">
      <path id="Path_913" data-name="Path 913" d="M37.947,433.747H101.9a1.249,1.249,0,0,0,1.148-1.221c.032-.358.123-.969.256-1.74H33.438A4.849,4.849,0,0,0,37.947,433.747Z" transform="translate(-33.438 -430.786)"/>
      <path id="Path_914" data-name="Path 914" d="M217.724,432.686a.987.987,0,0,0,.912,1.061h83.906a1.043,1.043,0,0,0,.964-.994c.045-.394.138-1.085.272-1.967h-86.13C217.7,431.617,217.728,432.275,217.724,432.686Z" transform="translate(-118.448 -430.786)"/>
    </g>
    <path id="Path_915" data-name="Path 915" d="M45.729,376.66H42.65a1.594,1.594,0,0,0-1.461,1.01l-2.857,6.886a.96.96,0,0,0,.834,1.351H41.97a1.646,1.646,0,0,0,1.508-1.042l2.94-7.087A.8.8,0,0,0,45.729,376.66Z" transform="translate(-5.32 -39.871)" fill="#ededed"/>
    <path id="Path_916" data-name="Path 916" d="M81.772,376.844H57.015a1.487,1.487,0,0,0-1.424,1.282l-.961,5.5c0,1.5.469,2.108,2.1,2.285l18.723-.015a6.033,6.033,0,0,0,5.406-3.61l1.8-3.861A1.088,1.088,0,0,0,81.772,376.844Z" transform="translate(-12.878 -39.956)" fill="#4f4f4f"/>
    <rect id="Rectangle_605" data-name="Rectangle 605" width="20.708" height="0.714" rx="0.357" transform="translate(43.043 344.242)" fill="#595959"/>
    <rect id="Rectangle_606" data-name="Rectangle 606" width="22.318" height="0.714" rx="0.357" transform="translate(43.241 342.644)" fill="#595959"/>
    <path id="Rectangle_607" data-name="Rectangle 607" d="M.357,0H23.083a.357.357,0,0,1,.357.357v0a.357.357,0,0,1-.357.357H.357A.357.357,0,0,1,0,.357v0A.357.357,0,0,1,.357,0Z" transform="translate(43.405 341.046)" fill="#595959"/>
    <rect id="Rectangle_608" data-name="Rectangle 608" width="24.17" height="0.714" rx="0.357" transform="translate(43.405 339.448)" fill="#595959"/>
    <path id="Rectangle_609" data-name="Rectangle 609" d="M.357,0H24.468a.357.357,0,0,1,.357.357v0a.357.357,0,0,1-.357.357H.357A.357.357,0,0,1,0,.357v0A.357.357,0,0,1,.357,0Z" transform="translate(43.62 337.85)" fill="#595959"/>
    <path id="Path_917" data-name="Path 917" d="M79,415.885H48.364a1.415,1.415,0,0,0-1.277,1.807l.833,3.393a1.345,1.345,0,0,0,1.277,1.066H77.966a1.32,1.32,0,0,0,1.266-1.162l.626-4A.926.926,0,0,0,79,415.885Z" transform="translate(-9.376 -57.973)" fill="#424242"/>
    <path id="Path_918" data-name="Path 918" d="M37.3,416.167c-.137-.559-.484-1.167-.872-1.167H31.039a32.9,32.9,0,0,0,.672,7h5.546c.652,0,1.1-1.253.873-2.192Z" transform="translate(-1.991 -57.564)" fill="#424242"/>
    <path id="Path_919" data-name="Path 919" d="M126.183,416.005l-12.831-.03c-.625,0-1.33.875-1.423,1.768l-.346,3.325c-.064.616.191,1.045.623,1.046l13.081.031c.666,0,1.406-.982,1.432-1.9l.1-3.325C126.831,416.369,126.58,416.006,126.183,416.005Z" transform="translate(-39.157 -58.014)" fill="#424242"/>
    <path id="Path_920" data-name="Path 920" d="M316.314,308.862c-5.923-3.756-42.922-3.473-49.9-2.743-16.737,1.752-28.86,12.135-36.315,21.4a1.032,1.032,0,0,0,.7,1.695H332.415a1.152,1.152,0,0,0,.807-1.872C329.789,322.9,321.011,311.84,316.314,308.862Z" transform="translate(-93.746 -7.11)" fill="#494949"/>
    <path id="Path_921" data-name="Path 921" d="M318.241,310.669c-5.6-3.445-40.583-3.316-47.179-2.646-15.819,1.606-27.893,11.165-34.939,19.666-.5.607-.2,1.215.569,1.215h97.649c.843,0,.827-.372.285-1.053C331.382,323.771,322.681,313.4,318.241,310.669Z" transform="translate(-96.521 -8.022)" fill="#b7dce5"/>
    <path id="Path_922" data-name="Path 922" d="M244.58,337.71l-5.983.031c-1.3,1.315-3.044,2.605-4.119,3.9-.5.607-.195,1.216.569,1.216h11.191a20.85,20.85,0,0,1-.948-2.345C244.988,339.6,244.808,338.646,244.58,337.71Z" transform="translate(-95.761 -21.896)" fill="#739799"/>
    <path id="Path_923" data-name="Path 923" d="M344.493,337.71h-.628a9.321,9.321,0,0,1,1.181,1.776,1.551,1.551,0,0,1-.782,1.947c-2.879,1.069-6.619.891-9.63.84a27.224,27.224,0,0,1-9.343-2.176l-.232-.031a1.137,1.137,0,0,1-.944.577c-1.787.043-3.57.215-5.358.242a14.064,14.064,0,0,1-3.969-.093,1.51,1.51,0,0,1-.707-.467c-1.295.076-2.639.048-3.973.067-.319.062-.641.124-.964.184a1.119,1.119,0,0,1-.492.086,9.906,9.906,0,0,1-3.045.13,1.469,1.469,0,0,1-.382-.109c-.6.079-1.2.158-1.758.174a22.677,22.677,0,0,1-5.657-.44,1.316,1.316,0,0,1-.826-.558,1.285,1.285,0,0,1-.432.087c-4.96.1-9.82,1.062-14.805.873a1.084,1.084,0,0,1-1.085-.938,18.671,18.671,0,0,1-9.374-.6,1.436,1.436,0,0,1-.234-.106,1.287,1.287,0,0,1-.679-.109c.193.086-.325.065-.45.082-.311.043-.623.088-.934.13-.427.057-.854.1-1.281.125-.192.8-.524.95-1.108,1.593-.067.387-.312,1.408-.421,1.859h81.257c.843,0,1-.355.461-1.036C347.075,340.784,345.883,339.336,344.493,337.71Z" transform="translate(-110.506 -21.896)" fill="#9dbcc1"/>
    <path id="Path_924" data-name="Path 924" d="M166.886,303.4q-1.464.361-2.91.812a2.665,2.665,0,0,1-.244,1.805,9.546,9.546,0,0,1-1.4,2.08,1.152,1.152,0,0,1-.192.315c-18.181,17.053-31.967,17.347-32.7,17.412-.808.765-1.25,1.214-1.25,1.214l44.263-.51a5,5,0,0,0,3.792-1.863,91.233,91.233,0,0,1,6.35-6.882c5.65-5.532,13.925-12.207,23.344-15.274C205.939,302.506,185.272,300.6,166.886,303.4Z" transform="translate(-46.825 -5.357)" fill="#4f4f4f"/>
    <path id="Path_925" data-name="Path 925" d="M165.386,304.946c-.59.136-1.177.283-1.762.439-16.055,5.371-30.033,18.032-33.695,21.537l41.813-.839a5.869,5.869,0,0,0,4.143-1.681c5-5.646,17.959-17.732,26.778-20.416C202.664,303.985,183.382,302.672,165.386,304.946Z" transform="translate(-47.627 -6.158)" fill="#b7dce5"/>
    <rect id="Rectangle_610" data-name="Rectangle 610" width="3.997" height="2.467" rx="0.974" transform="translate(126.288 333.388)" fill="#c94c27"/>
    <path id="Path_926" data-name="Path 926" d="M435.486,398.762H424.858a.7.7,0,0,0-.629.919l.38,1.372a.933.933,0,0,0,.881.712h10c.705,0,.888-.676.888-1.5S436.191,398.762,435.486,398.762Z" transform="translate(-183.429 -50.071)" fill="#4f4f4f"/>
    <path id="Path_927" data-name="Path 927" d="M434.277,407.561h-12.2a.381.381,0,0,0-.349.467c.675,3.679,1.218,12.67,1.248,14.4.008.474.827.35,1.2.15l5.5-2.988c3.006-1.676,4.437-8.72,4.923-11.6A.349.349,0,0,0,434.277,407.561Z" transform="translate(-182.283 -54.131)" fill="#494949"/>
    <path id="Path_928" data-name="Path 928" d="M280.418,327.965c-10.462.241-11.4,10.434-11.4,10.434l23.815.123C292.9,333,290.312,327.737,280.418,327.965Z" transform="translate(-111.813 -17.396)" fill="#9dbcc1"/>
    <path id="Path_929" data-name="Path 929" d="M206.819,327.4c-8.724.2-10.927,7.4-11.418,9.793l6.556-.131a5.869,5.869,0,0,0,4.143-1.681c1.638-1.851,4.135-4.395,7.058-7.072A16.948,16.948,0,0,0,206.819,327.4Z" transform="translate(-77.842 -17.133)" fill="#9dbcc1"/>
    <path id="Path_930" data-name="Path 930" d="M423.8,426.294c.008.474.827.35,1.2.15l5.5-2.988c1.968-1.1,3.256-4.49,4.051-7.513-3.709,1.618-7.375,3.348-11.045,5.065C423.673,423.448,423.782,425.548,423.8,426.294Z" transform="translate(-183.106 -58)" opacity="0.14"/>
    <path id="Path_931" data-name="Path 931" d="M165.386,304.946c-.59.136-1.177.283-1.762.439-16.055,5.371-30.033,18.032-33.695,21.537l5.438-.109c7.478-5.54,17.253-17.747,39.264-20.95a91.3,91.3,0,0,0-8.365,20.33l5.476-.11a6.423,6.423,0,0,0,1.26-.148,59.855,59.855,0,0,1,6.564-20.328s12.337-.3,18.723.256c.373-.139,4.015-1.768,4.375-1.877C202.664,303.985,183.382,302.672,165.386,304.946Z" transform="translate(-47.627 -6.158)" fill="#9dbcc1"/>
    <g id="Group_563" data-name="Group 563" transform="translate(138.444 299.809)">
      <path id="Path_932" data-name="Path 932" d="M240.785,334.208c-2.211,1.917-4.813,3.81-6.33,5.64-.5.607-.287,1.252.477,1.252l12.782.143a20.842,20.842,0,0,1-.691-2.008C246.288,336.224,244.507,334.687,240.785,334.208Z" transform="translate(-234.183 -320.089)" fill="#9dbcc1"/>
      <path id="Path_933" data-name="Path 933" d="M266.182,330.727l1.834.04c.679-8.686,5.623-15.2,8.086-19.347-1.424.419-3.075.953-4.42,1.486A72.25,72.25,0,0,0,266.182,330.727Z" transform="translate(-248.95 -309.573)" fill="#9dbcc1"/>
      <path id="Path_934" data-name="Path 934" d="M359.091,310.959c-1.452-.893-4.561-1.73-9.432-2.14,13.564,6.4,22,18.048,22,18.048l-24.329-.41s.071-7.542-12.19-7.765a7.653,7.653,0,0,0-5.557,1.729A77.844,77.844,0,0,1,331.949,308c-1.3-.024-2.579.01-3.834,0a109.5,109.5,0,0,0-4.133,21.219l51.128.008c.843,0,.782-.654.241-1.335C372.107,323.809,363.531,313.691,359.091,310.959Z" transform="translate(-275.624 -307.989)" fill="#9dbcc1"/>
    </g>
    <path id="Path_935" data-name="Path 935" d="M289.7,308.11a46.5,46.5,0,0,0-11.516,2.7l1.351,2.2s24.744-9.306,58.493,1.262l1-1.911a25.267,25.267,0,0,0-2.134-1.867C331.3,307.05,296.3,307.441,289.7,308.11Z" transform="translate(-116.045 -8.029)" fill="#9dbcc1"/>
    <path id="Path_936" data-name="Path 936" d="M322.963,328.347c-17.568.365-20.036,9.434-20.036,9.434a5.589,5.589,0,0,1-.646.885l25.813-.131C331.552,333.593,334.067,328.116,322.963,328.347Z" transform="translate(-127.165 -17.572)" fill="#9dbcc1"/>
    <path id="Path_937" data-name="Path 937" d="M286.709,353.091l-26.295.834c-9.619.329-19.879.719-30.137,1.173-5.13.218-10.258.471-15.308.725l-7.506.4-7.313.433c-4.821.325-9.479.63-13.887,1.131-2.206.192-4.346.5-6.416.77-2.073.239-4.064.616-5.978.93l-1.42.241-1.383.291-2.668.568c-.87.165-1.7.424-2.521.625-.815.219-1.61.408-2.373.633l-2.2.706c-.353.118-.7.221-1.041.347l-.99.386c-.646.259-1.271.481-1.856.74l-1.662.778a20.5,20.5,0,0,0-4.618,3.014l-.627.636-.424.532a.661.661,0,0,0-.128.261.512.512,0,0,0,.024.25,1.308,1.308,0,0,0,.1.169l.053.067.35.2.082.01a1.864,1.864,0,0,0,.19,0,.632.632,0,0,0,.194-.012c.055-.013.077-.054.109-.1l.347-.4.555-.52a19.041,19.041,0,0,1,4.386-2.61l1.618-.68c.57-.226,1.187-.417,1.819-.641l.969-.334c.332-.109.679-.194,1.026-.3l2.165-.616c.75-.2,1.535-.364,2.338-.556.806-.176,1.623-.407,2.485-.546l2.637-.487,1.365-.249,1.406-.2c1.9-.266,3.861-.592,5.918-.78,2.053-.213,4.17-.48,6.363-.606,4.374-.355,9-.525,13.789-.679l7.323-.144,7.493-.1c5.043-.054,10.17-.1,15.3-.119,10.253-.048,20.506-.032,30.119.019l13.859.093,12.417.127,18.095.268a55.9,55.9,0,0,0-1.973-7.134Z" transform="translate(-56.867 -28.782)" fill="#fff" opacity="0.2"/>
    <rect id="Rectangle_611" data-name="Rectangle 611" width="7.251" height="5.085" rx="2.542" transform="translate(171.644 332.147)" fill="#388469"/>
    <rect id="Rectangle_612" data-name="Rectangle 612" width="8.837" height="1.759" rx="0.88" transform="translate(170.851 333.81)" fill="#49a584"/>
    <rect id="Rectangle_613" data-name="Rectangle 613" width="7.251" height="5.085" rx="2.542" transform="translate(207.67 332.147)" fill="#388469"/>
    <rect id="Rectangle_614" data-name="Rectangle 614" width="8.837" height="1.759" rx="0.88" transform="translate(206.876 333.81)" fill="#49a584"/>
    <path id="Path_938" data-name="Path 938" d="M434.844,366.93l-2.76.009c-.592,0-1.067.415-1,.872l1.393,10.064a.866.866,0,0,0,.925.644,23.285,23.285,0,0,0,2.618.054.345.345,0,0,0,.348-.351,49.311,49.311,0,0,0-1.115-11.038A.4.4,0,0,0,434.844,366.93Z" transform="translate(-186.602 -35.381)" fill="#c94c27"/>
    <path id="Path_939" data-name="Path 939" d="M132.614,379.237a2.264,2.264,0,0,0-2.193-1.946l-17.258.057a2.557,2.557,0,0,0-2.279,1.49l-2.751,5.726a1.135,1.135,0,0,0,.949,1.653h22.111a2.277,2.277,0,0,0,2.14-2.727Z" transform="translate(-37.514 -40.162)" fill="#ededed"/>
    <g id="Group_564" data-name="Group 564" transform="translate(173.698 299.12)">
      <path id="Path_940" data-name="Path 940" d="M299.649,307.019a96.11,96.11,0,0,1,5.673,21.832l4.22.845A75.119,75.119,0,0,0,302.2,306.71Z" transform="translate(-299.649 -306.71)" fill="#494949"/>
    </g>
    <path id="Path_941" data-name="Path 941" d="M234.191,339.192c-.5.607-.023,1.007.742,1.007h16.249l6.482-7.936s-15.919,3.319-21.244,4.669A16.988,16.988,0,0,0,234.191,339.192Z" transform="translate(-95.647 -19.382)" fill="#efbb75"/>
    <path id="Path_942" data-name="Path 942" d="M350.784,344.409a.544.544,0,0,0-.061-.24C350.743,344.249,350.759,344.328,350.784,344.409Z" transform="translate(-149.521 -24.877)" fill="#3d2405" opacity="0.1"/>
    <path id="Path_943" data-name="Path 943" d="M276.771,332.759l-.386,3.536,10.508,1.147.424-3.889A17.2,17.2,0,0,0,276.771,332.759Z" transform="translate(-115.215 -19.381)" fill="#e09178"/>
    <path id="Path_944" data-name="Path 944" d="M282.209,333.45a6.014,6.014,0,0,1-.929,1.02,5.268,5.268,0,0,1-3.885,1.555c-2.141-.055-4.553-1.676-5.031-3.627a7.978,7.978,0,0,0-3.549,1.348c-1.292,1.014-2.254,3.613-2.975,6.7l19.778.165c.148-1.236.55-2.521.572-3.163C286.248,335.779,284.652,334.384,282.209,333.45Z" transform="translate(-110.348 -19.445)" fill="#ffcb80"/>
    <path id="Path_945" data-name="Path 945" d="M283.292,331.1c-.127,1.045.76,1.536,1.921,1.688s2.173-.089,2.3-1.134l.393-3.226-4.233-.462Z" transform="translate(-118.396 -17.398)" fill="#e09178"/>
    <path id="Path_946" data-name="Path 946" d="M278.953,334.023s-.311,2.052,2.881,3.578,5.929-2.677,5.929-2.677A38.665,38.665,0,0,0,278.953,334.023Z" transform="translate(-116.396 -20.192)" fill="#dbdbdb"/>
    <path id="Path_947" data-name="Path 947" d="M285.672,330.545a2.345,2.345,0,0,1-2.567,1.675,1.873,1.873,0,0,1-1.648-2.284,9.625,9.625,0,0,0-2.56,1.919c-.722,1.289,1.557,3.091,1.557,3.091a2.176,2.176,0,0,1,2.27-1.689c1.846.154,2.393,2.234,2.393,2.234s2.524-1.321,2.582-2.675A5.3,5.3,0,0,0,285.672,330.545Z" transform="translate(-116.309 -18.308)" fill="#f2f2f2"/>
    <path id="Path_948" data-name="Path 948" d="M286.62,332.87a4.023,4.023,0,0,1-4.625,2.986c-3.217-.449-2.778-3.85-2.778-3.85a2.645,2.645,0,0,0-1.5.168s-.827,4.469,4.208,5.054c5.848.68,6.179-3.8,6.179-3.8A2.039,2.039,0,0,0,286.62,332.87Z" transform="translate(-115.805 -19.252)" fill="#f2b770"/>
    <path id="Path_949" data-name="Path 949" d="M275.01,312.447c-.74-.006-1.346.8-1.354,1.792s.585,1.807,1.325,1.813,1.346-.8,1.354-1.792S275.75,312.452,275.01,312.447Z" transform="translate(-113.955 -10.238)" fill="#e09178"/>
    <path id="Path_950" data-name="Path 950" d="M285.431,299.682,283,299.274c-3.206-.539-6.411,2.577-6.95,5.784l-.739,4.4a5.929,5.929,0,0,0,4.85,6.809l2.435.409a5.929,5.929,0,0,0,6.808-4.85l.739-4.4C290.679,304.218,288.637,300.221,285.431,299.682Z" transform="translate(-114.68 -4.13)" fill="#e5a185"/>
    <path id="Path_951" data-name="Path 951" d="M292.26,296.694a3.039,3.039,0,0,0,.608-1.641.965.965,0,0,0-1.072.687,1.452,1.452,0,0,0-.04-1.155.215.215,0,0,0-.089-.108c-.08-.038-.17.025-.234.087a3.111,3.111,0,0,0-.347.892,6.635,6.635,0,0,0-2-2.509,12.4,12.4,0,0,0-4.529-1.874,1.826,1.826,0,0,0,0,1.067c-1.043-1.343-2.635-1.715-4.326-1.878a3.089,3.089,0,0,0-.009,1.521s-1.539-.9-1.56-.872c-.6.758-1.455,2.195-1.11,3.046a1.11,1.11,0,0,0-.478-.413,3.945,3.945,0,0,0-.633,2.072,16.4,16.4,0,0,0,.149,3.9,13.057,13.057,0,0,0-.286,2.834s.015-.1.044-.261l-.044.261c.064.014,1.453-3.918,3.1-4.643,2.108-.928,1.624.789,4.2.852,1.712.041,4.307-.85,5.233,2.092.278.883-.2,2.444-.027,3.286a2.018,2.018,0,0,0,1.489,1.38,18.078,18.078,0,0,0,.593-2.713,8.918,8.918,0,0,0,1.609-5.263c-.008-.078.033-.075.033-.075s.579-.352.51-.552A1.034,1.034,0,0,0,292.26,296.694Z" transform="translate(-115.179)" fill="#582c1a"/>
    <path id="Path_952" data-name="Path 952" d="M286.836,301.988c-1.06-.073-1.969.528-2.715.545-1.723.039-2.087-1.272-3.624-1.539-2.018-.35-3.11,1.966-3.927,3.566a13.239,13.239,0,0,0-.263,2.723s.015-.1.044-.261l-.044.261c.064.014,1.453-3.918,3.1-4.643,2.108-.928,1.624.789,4.2.852,1.712.041,4.307-.85,5.233,2.092.278.883-.2,2.444-.027,3.285a2.018,2.018,0,0,0,1.489,1.38l.177-.639a10.109,10.109,0,0,0,.416-2.074,19.125,19.125,0,0,0-1.289-3.166C288.945,303.329,288.173,302.08,286.836,301.988Z" transform="translate(-115.179 -4.936)" opacity="0.07"/>
    <path id="Path_953" data-name="Path 953" d="M302.274,316.544a1.874,1.874,0,1,0,.421,2.2A1.617,1.617,0,0,0,302.274,316.544Z" transform="translate(-126.141 -12.082)" fill="#e5a185"/>
    <path id="Path_954" data-name="Path 954" d="M289.629,319.728a2.954,2.954,0,0,1-.585-.1c-1.126,3.524-3.826,5.706-7.782,5.15-4.469-.628-5.289-3.005-6.021-5.357a5.928,5.928,0,0,0,4.924,5.887l2.435.409a5.927,5.927,0,0,0,6.8-4.8,1.676,1.676,0,0,0,1.844-1.081,2.236,2.236,0,0,0,.229-1.02A2.225,2.225,0,0,1,289.629,319.728Z" transform="translate(-114.686 -13.176)" fill="#e09178"/>
    <path id="Path_955" data-name="Path 955" d="M287.329,321.337l-4.826-.8a.446.446,0,0,0-.459.566,3.313,3.313,0,0,0,2.437,2.784,3.159,3.159,0,0,0,3.122-1.861A.462.462,0,0,0,287.329,321.337Z" transform="translate(-117.821 -13.968)" fill="#fff"/>
    <path id="Path_956" data-name="Path 956" d="M281.274,311.947c-.433-.186-.99.248-1.245.971s-.108,1.46.325,1.647.991-.249,1.244-.971S281.707,312.133,281.274,311.947Z" transform="translate(-116.839 -9.987)" fill="#3d1d14"/>
    <path id="Path_957" data-name="Path 957" d="M294.394,313.938c-.43-.2-.994.241-1.26.98s-.133,1.5.3,1.693.994-.242,1.26-.98S294.823,314.135,294.394,313.938Z" transform="translate(-122.881 -10.904)" fill="#3d1d14"/>
    <path id="Path_958" data-name="Path 958" d="M280.029,313.223c-.254.723-.108,1.46.325,1.647.381.164.856-.152,1.139-.721-.167-.212-.9-1.26-1.084-1.585A1.976,1.976,0,0,0,280.029,313.223Z" transform="translate(-116.839 -10.292)" fill="#fff" opacity="0.08"/>
    <path id="Path_959" data-name="Path 959" d="M293.134,315.312c-.266.738-.133,1.5.3,1.693.349.16.782-.1,1.076-.6-.349-.555-.7-1.112-1.06-1.656A2.085,2.085,0,0,0,293.134,315.312Z" transform="translate(-122.881 -11.299)" fill="#fff" opacity="0.08"/>
    <path id="Path_960" data-name="Path 960" d="M303.118,300.518a.817.817,0,0,0-.03.119C303.1,300.6,303.109,300.558,303.118,300.518Z" transform="translate(-127.538 -4.733)" fill="#482316"/>
    <path id="Path_961" data-name="Path 961" d="M278.013,293.572a2.5,2.5,0,0,0-.37,1.9.206.206,0,1,0-.211.039,1.147,1.147,0,0,0-.344-.333,4.1,4.1,0,0,0-.556,1.953c-.016.241-.027.47-.035.691,2.046-1.512,7.424-3.9,15.754,3.62.068-.223.127-.446.177-.667C290.919,298.812,285.868,293.151,278.013,293.572Z" transform="translate(-115.266 -1.517)" fill="#fff" opacity="0.1"/>
    <path id="Path_962" data-name="Path 962" d="M338.226,304.5c0,.027,0,.057,0,.079A.217.217,0,0,1,338.226,304.5Z" transform="translate(-143.751 -6.568)" fill="#fff" opacity="0.47"/>
    <path id="Path_963" data-name="Path 963" d="M316.785,318.754a.451.451,0,0,0-.055-.2C316.748,318.622,316.762,318.687,316.785,318.754Z" transform="translate(-133.833 -13.057)" fill="#421f00" opacity="0.1"/>
    <path id="Path_964" data-name="Path 964" d="M338.226,304.5c0,.027,0,.057,0,.079A.217.217,0,0,1,338.226,304.5Z" transform="translate(-143.751 -6.568)" fill="#421f00" opacity="0.1"/>
    <path id="Path_965" data-name="Path 965" d="M251.881,344.551s-.61,2.862-.19,2.626,2.135,1.435,2.033,1.517,2.265-2.732,2.265-2.732l-3.31-2.267Z" transform="translate(-103.751 -24.658)" fill="#e59b82"/>
    <path id="Path_966" data-name="Path 966" d="M276.98,338.474a1.693,1.693,0,0,0-2.249.845c-1.417,2.912-4.169,7.631-7.106,9.327-.925.534-3.283.332-7.129-1.832a36.915,36.915,0,0,1-4.489-2.966.61.61,0,0,0-.88.133l-.117.16-1.7-1.16-2.31.733.3,2.681,1.206,1.169a.894.894,0,0,0,.142,1.2,36.237,36.237,0,0,0,5.1,3.475c3.024,1.711,5.819,3.124,8.132,3.281a8,8,0,0,0,4.618-.707c3.344-1.93,6.351-5.829,8.416-9.052A5.094,5.094,0,0,0,276.98,338.474Z" transform="translate(-103.502 -22.176)" opacity="0.09"/>
    <path id="Path_967" data-name="Path 967" d="M252.136,347.826l1.514,1.365,2.826-3.058-2.331-1.483Z" transform="translate(-104.024 -25.099)" fill="#f2f2f2"/>
    <g id="Group_565" data-name="Group 565" transform="translate(149.151 315.213)">
      <path id="Path_968" data-name="Path 968" d="M278.7,336.742a1.748,1.748,0,0,0-2.25.786c-1.417,2.708-4.168,7.1-7.106,8.674-.924.5-3.282.309-7.129-1.7a37.23,37.23,0,0,1-4.489-2.759.641.641,0,0,0-.88.124l-2.614,3.329a.792.792,0,0,0,.14,1.118,36.495,36.495,0,0,0,5.1,3.232c3.024,1.591,5.819,2.905,8.132,3.051a8.538,8.538,0,0,0,4.619-.658c3.344-1.795,6.351-5.421,8.416-8.418A4.573,4.573,0,0,0,278.7,336.742Z" transform="translate(-254.065 -336.595)" fill="#ffcb80"/>
    </g>
    <path id="Path_969" data-name="Path 969" d="M250.588,345.989H230.42a.805.805,0,0,0-.8.8v.89a.805.805,0,0,0,.8.8h20.168a.708.708,0,0,0,.718-.77l.019-1.035A.662.662,0,0,0,250.588,345.989Z" transform="translate(-93.632 -25.717)" fill="#4f4f4f"/>
    <path id="Path_970" data-name="Path 970" d="M252.56,337h-9.955a3.559,3.559,0,0,0-3.032,1.607l-1.8,3.129-2.327-.009.48,1.2h18.129v-4.5A1.417,1.417,0,0,0,252.56,337Z" transform="translate(-96.321 -21.568)" fill="#49a584"/>
    <path id="Path_971" data-name="Path 971" d="M236.336,344.143h18.129v-4.5C253.926,341.932,236.336,344.143,236.336,344.143Z" transform="translate(-96.733 -22.788)" fill="#3e9579"/>
    <path id="Path_972" data-name="Path 972" d="M198.242,304.107c-1.266.173-2.557.341-3.868.578s-2.645.42-3.989.7-2.7.526-4.072.828c-1.365.321-2.742.625-4.117.967-1.373.37-2.754.715-4.126,1.111-2.742.8-5.47,1.663-8.122,2.648l-1.979.735-1.943.788c-1.291.507-2.543,1.088-3.78,1.637-.62.266-1.221.58-1.823.865s-1.2.568-1.778.878c-1.161.612-2.3,1.195-3.386,1.83-2.185,1.225-4.2,2.512-6.017,3.77s-3.437,2.514-4.838,3.681c-.718.6-1.374,1.176-1.971,1.729l11.579-.233c1.323-.744,2.737-1.486,4.244-2.194,1.029-.511,2.118-.971,3.221-1.457.55-.246,1.124-.457,1.693-.69s1.142-.473,1.735-.677c1.179-.424,2.367-.878,3.6-1.26l1.848-.6,1.885-.548c2.522-.736,5.122-1.352,7.73-1.915,1.305-.276,2.623-.5,3.926-.757,1.31-.226,2.623-.416,3.918-.624,1.01-.147,2.017-.267,3.016-.39,5.633-4.922,12.356-9.856,17.608-11.454,0,0-2.887-.2-7.467-.306C200.075,303.849,199.165,303.983,198.242,304.107Z" transform="translate(-53.399 -6.219)" fill="#fff" opacity="0.35"/>
    <path id="Path_973" data-name="Path 973" d="M353.1,313.185a4.8,4.8,0,0,0-.5-.262l-1.665.039c-.888.022-1.781.082-2.683.122l-2.725.135-2.759.2-2.789.208-2.81.27c-1.882.165-3.772.394-5.668.618-1.9.205-3.793.5-5.691.75s-3.785.582-5.669.869c-1.878.331-3.75.637-5.6.986-.843.162-2.652.549-3.488.709.8,2.245,1.332,3.944,2.009,6.264.694-.077,1.607-.174,2.3-.252,1.832-.2,3.682-.354,5.535-.533,1.857-.135,3.718-.3,5.581-.411s3.724-.239,5.579-.292c1.855-.072,3.7-.15,5.531-.165l2.733-.047,2.7.012,2.668.021,2.626.077c.868.031,1.729.04,2.579.087l2.526.139c.833.051,1.658.081,2.469.146l2.4.2,2.336.2,2.255.256,1.075.12C360.225,319.424,355.828,314.862,353.1,313.185Z" transform="translate(-131.213 -10.457)" fill="#fff" opacity="0.35"/>
    <g id="Group_566" data-name="Group 566" transform="translate(201.998 299.662)">
      <path id="Path_974" data-name="Path 974" d="M354.6,307.84l-2.4-.123c.089.1,9,9.846,10.626,22.231h4.308C365.38,316.486,354.995,308.291,354.6,307.84Z" transform="translate(-352.2 -307.717)" fill="#494949"/>
    </g>
  </g>
</svg>
