<svg xmlns="http://www.w3.org/2000/svg" width="90.485" height="74.679" viewBox="0 0 90.485 74.679"><defs><style>.a{fill-rule:evenodd;}</style></defs><path class="a" d="M171.126,347.487l12.939,1.6a3.279,3.279,0,0,1,3.013,3.129v2.412a.83.83,0,0,1-.861.829l-12.94-.484a3.617,3.617,0,0,1-3.441-3.576V348.73a1.205,1.205,0,0,1,1.29-1.243Zm6.168-6.553c-.83.117-.934-.458-.624-.894l9.866-12.287a2.272,2.272,0,0,1,1.6-.909,255.059,255.059,0,0,1,29.037-.684v-4.338a295.827,295.827,0,0,0-30.436.731,4.649,4.649,0,0,0-3.129,1.751l-8.075,9.929h-9.371a2.729,2.729,0,0,0-2.458,1.939l-.853,3.183c-.112.421.18.6.567.776l5.338,2.432-2.17,2.665a10.23,10.23,0,0,0-1.922,6.712v26.7a1.993,1.993,0,0,0,1.984,1.983h14.519a1.989,1.989,0,0,0,1.983-1.983v-2.651h43.594V356.35l-1.8-2.415v-4.858h-1.886a5.9,5.9,0,0,1-5.888-5.887v-3.172c-12.664-.238-24.282.037-39.883.916Zm66.78-22.322h-13.6a1.376,1.376,0,0,0-1.373,1.372v6.259a1.377,1.377,0,0,0,1.373,1.373h13.6a1.377,1.377,0,0,0,1.373-1.373v-6.259a1.376,1.376,0,0,0-1.373-1.372Zm4.71-5.978H225.767c-1.007,0-4.533,3.527-4.533,4.533V343.19a1.836,1.836,0,0,0,1.831,1.83h28.421a1.835,1.835,0,0,0,1.83-1.83V317.167c0-1.007-3.526-4.533-4.532-4.533ZM229.008,347v5.589l1.8,2.416v27.5c0,1.459,1.31,2.092,2.657,2.656l.778.326V355.443a.727.727,0,0,1,.725-.724h1.751v31.81l1.657.7a1.28,1.28,0,0,0,1.152-.1,28.324,28.324,0,0,0,3.252-2.187,2.414,2.414,0,0,0,.968-1.847v-28.08l1.8-2.416V347Z" transform="translate(-162.831 -312.634)"/></svg>