<svg xmlns="http://www.w3.org/2000/svg" width="53.37" height="93.857" viewBox="0 0 53.37 93.857"><defs><style>.a{fill:#262626;}.b{fill:#21b7ac;}.c{fill:#222121;}.d{fill:#fdfdfd;}</style></defs><g transform="translate(-1280 -1762.143)"><g transform="translate(753.781 1595.336)"><g transform="translate(526.219 166.807)"><path class="a" d="M817.449,1708H796.77a1.173,1.173,0,1,0,0,2.345h20.68a1.173,1.173,0,1,0,0-2.345Z" transform="translate(-780.425 -1621.195)"/><path class="a" d="M573.1,166.807H532.712a6.5,6.5,0,0,0-6.493,6.492v80.873a6.5,6.5,0,0,0,6.493,6.492H573.1a6.5,6.5,0,0,0,6.493-6.492V173.3A6.5,6.5,0,0,0,573.1,166.807Zm4.148,87.365a4.152,4.152,0,0,1-4.148,4.147H532.712a4.152,4.152,0,0,1-4.148-4.147V173.3a4.152,4.152,0,0,1,4.148-4.147h4.651a.6.6,0,0,1,.6.6,3.069,3.069,0,0,0,3.066,3.066h23.749a3.069,3.069,0,0,0,3.066-3.066.6.6,0,0,1,.6-.6H573.1a4.152,4.152,0,0,1,4.148,4.147Z" transform="translate(-526.219 -166.807)"/></g><path class="a" d="M915.219,747.559l2.291,2.291v-18.2a.951.951,0,1,1,1.9,0v18.2l2.291-2.291a.951.951,0,0,1,1.345,1.345l-3.914,3.914-.017.017a.95.95,0,0,1-.587.261.933.933,0,0,1-.19,0,.946.946,0,0,1-.5-.225c-.018-.016-.036-.033-.053-.049l-3.911-3.911a.951.951,0,1,1,1.345-1.345Z" transform="translate(-365.558 -532.13)"/><path class="a" d="M785.32,935.7a.953.953,0,0,0-.951.951v13.221a2.717,2.717,0,0,1-2.714,2.714h-17.9a2.717,2.717,0,0,1-2.714-2.714V936.655a.951.951,0,1,0-1.9,0v13.221a4.622,4.622,0,0,0,4.617,4.617h17.9a4.622,4.622,0,0,0,4.617-4.617V936.655A.953.953,0,0,0,785.32,935.7Z" transform="translate(-219.801 -725.59)"/></g><g transform="translate(27.835 -6698.527)"><path class="b" d="M6734.131,7082.272a10.85,10.85,0,1,1-10.85-10.85,10.85,10.85,0,0,1,10.85,10.85" transform="translate(-5444.431 1397.419)"/><path class="c" d="M6747.306,7128.7c-.212,0-.424,0-.636,0-.6-.007-.882-.257-.883-.846,0-.638-.094-.559-.59-.559q-4.017,0-8.035,0c-.484,0-.484,0-.5.478-.018.675-.27.925-.944.928-.435,0-.871,0-1.306,0a.743.743,0,0,1-.823-.8c-.012-.468-.005-.937,0-1.406a.649.649,0,0,0-.158-.459,3.134,3.134,0,0,1-.322-3.838c.15-.241.172-.342-.165-.334a.543.543,0,0,1-.585-.487c-.074-.372-.16-.742-.224-1.115a.449.449,0,0,1,.483-.6c.435-.014.872-.023,1.306,0a.535.535,0,0,0,.594-.411,7.239,7.239,0,0,1,.979-1.819,3.163,3.163,0,0,1,1.651-1.021,12.128,12.128,0,0,1,2.821-.52,15.758,15.758,0,0,1,4.944.394,3.759,3.759,0,0,1,2.782,2.41,1.966,1.966,0,0,1,.128.308c.121.575.488.727,1.031.66a5.953,5.953,0,0,1,.97,0,.451.451,0,0,1,.483.6c-.057.341-.13.679-.2,1.018-.095.444-.22.56-.676.586-.244.015-.292.061-.149.291a3.185,3.185,0,0,1-.286,3.959.627.627,0,0,0-.141.432c0,.435.005.871,0,1.306a.757.757,0,0,1-.844.849c-.234,0-.469,0-.7,0" transform="translate(-5462.369 1356.949)"/><path class="d" d="M6777.211,7134.632c-1.763,0-3.523-.006-5.285.006-.31,0-.359-.068-.236-.348.18-.407.355-.816.546-1.219a1.945,1.945,0,0,1,1.168-1.028,9.456,9.456,0,0,1,2.582-.509,14.1,14.1,0,0,1,4.545.346,2.445,2.445,0,0,1,1.855,1.6c.094.262.219.512.32.771.146.377.143.38-.245.38h-5.25" transform="translate(-5498.357 1342.701)"/><path class="d" d="M6878.52,7195.69a1.364,1.364,0,1,1-.017-2.728,1.364,1.364,0,1,1,.017,2.728" transform="translate(-5594.472 1286.7)"/><path class="d" d="M6763.678,7194.324a1.351,1.351,0,0,1-1.351,1.37,1.363,1.363,0,1,1,1.351-1.37" transform="translate(-5488.619 1286.696)"/></g></g></svg>