<svg xmlns="http://www.w3.org/2000/svg" width="160.7" height="164.472" viewBox="0 0 160.7 164.472">
  <g id="Group_557" data-name="Group 557" transform="translate(-255.145 -249.398)">
    <g id="Group_555" data-name="Group 555" transform="translate(255.145 249.398)">
      <path id="Path_875" data-name="Path 875" d="M257.757,278.846s26.11-2.687,32.81-4.995c19.114-6.584,39.492-24.454,49.842-24.454,7.251,0,37.348,14.287,42.321,21.946,2.564,3.947,10.031,31.036,7.072,32.48-2.9,1.415-6.819,1.435-8.327,0-5.542-5.275-6.9-11.161-10.032-18.372,0,0-12.809-10.167-17.512-7.659-6.588,3.513-12.278,5.425-14.421,9.406-2.194,4.075,16.571,8.286,21.9,9.853s14.78,1.945,18.543,6.772,3.4,7.9-.046,10.123-21.946-2.16-31.35-1.533-22.563,6.571-34.8,5.913c-10.662-.573-16.938-6.513-27.9-6.513-10.159,0-30.709,8.817-30.709,8.817Z" transform="translate(-255.145 -249.398)" fill="#10cac1"/>
      <g id="Group_554" data-name="Group 554" transform="translate(115.265 48.354)">
        <path id="Path_876" data-name="Path 876" d="M621.474,422.213c1.085-7.271,2.049-24.106-9.814-25.408-12.751-1.4.871,23.97,7.246,33.394-.294.72-.632,1.519-1.024,2.423-.1.223.626,1.1.626,1.1.353-.918.674-1.826.962-2.708.539.769,1.011,1.4,1.386,1.844l-.052-2.027a6.157,6.157,0,0,1-.98-.95,44.458,44.458,0,0,0,1.107-4.39m-.541-.3a15.47,15.47,0,0,1-1.1,4.043c-5.551-7.046-18.687-32.541-7.331-30.979,7.24,1,8.545,17.56,8.629,24.352" transform="translate(-606.398 -396.749)" fill="#10cac1"/>
      </g>
    </g>
    <g id="Group_556" data-name="Group 556" transform="translate(365.124 327.558)">
      <path id="Path_877" data-name="Path 877" d="M729.94,544.557l4.821,1.7-.927,2.629-4,1.009Z" transform="translate(-684.04 -525.859)" fill="#10cac1"/>
      <path id="Path_878" data-name="Path 878" d="M592.616,507.675l-1.3-.456-1.029,2.917,1.3.458-.687,1.946,2.108.743-2,5.676,7.944,2.8,2.059-5.838,3.631,1.281c-.07.157-.207.513-.307.77a12.729,12.729,0,0,0-1.1,4.409c.051.87,1.849,2.53,1.849,2.53l-.973,2.647-1.95,1.5.626,2.871-2.086,2.48.183,4.068-1.789,2.13.245,3.151-1.239,3.5-2.969,4.083-.093,3.894-2.123,1.988,1,2.444-2.936,5.178,1.337,9.047,6.588-2.213L616.528,521.4l3.94,1.39-2.059,5.836,7.943,2.8,2-5.675,2.107.743.685-1.945,1.3.459,1.03-2.919-1.3-.458,2.5-7.094c.9-2.559-.511-17.109-.511-17.109-4.9-2.079-6.381-2.768-13.037-5.117a151.491,151.491,0,0,0-14.89-4.737s-10.223,10.445-11.126,13Zm4.422,61.515,16.1-46.136.745.274-16.1,46.137Zm36.75-60.325c-5.975-2.427-9.138-3.7-16.3-6.231-7.186-2.535-11.909-4.041-18.059-5.892q1.03-1.469,3.533-4.592a35.921,35.921,0,0,1,3.66-3.086c3.776.976,7.255,2.1,14.063,4.507,6.783,2.394,8.524,3.353,12.282,4.788a25.967,25.967,0,0,1,.912,4.7A44.56,44.56,0,0,1,633.788,508.865ZM603,504.594l-1.774,5.027-6.972-2.46,1.774-5.027Zm1.212,2.25.572-1.621,19.458,6.865-.572,1.622Zm18.829,8.65-.573,1.622-19.459-6.869.572-1.621Zm8.182,4.71-6.973-2.46,1.774-5.026L633,515.178Zm1.535,2.365-.629,1.785-41.185-14.533.628-1.784Z" transform="translate(-590.289 -487.579)" fill="#10cac1"/>
      <path id="Path_879" data-name="Path 879" d="M605.48,501.234l-3.271,4.225-2.492-3.3.929-2.63Z" transform="translate(-596.623 -495.607)" fill="#10cac1"/>
    </g>
  </g>
</svg>
