<svg xmlns="http://www.w3.org/2000/svg" width="115.542" height="173.788" viewBox="0 0 115.542 173.788">
  <g id="Group_552" data-name="Group 552" transform="translate(-2863.319 -597.417)">
    <path id="Path_856" data-name="Path 856" d="M2962.41,597.417a51.628,51.628,0,1,0,51.628,51.628A51.628,51.628,0,0,0,2962.41,597.417Zm0,96.114a44.485,44.485,0,1,1,44.485-44.485A44.485,44.485,0,0,1,2962.41,693.531Z" transform="translate(-41.354)" fill="#23b3a8"/>
    <circle id="Ellipse_132" data-name="Ellipse 132" cx="38.031" cy="38.031" r="38.031" transform="translate(2883.027 611.015)" fill="#23b3a8"/>
    <g id="Group_547" data-name="Group 547" transform="translate(2894.93 627.589)">
      <path id="Path_857" data-name="Path 857" d="M3119.834,831.8c-6.3,0-10.958,4.479-10.958,11.885,0,7.474,4.654,11.885,10.958,11.885,6.374,0,11.028-4.411,11.028-11.885C3130.863,836.275,3126.208,831.8,3119.834,831.8Zm0,17.956c-1.96,0-3.611-1.718-3.611-6.071s1.651-6.064,3.611-6.064c2.085,0,3.621,1.718,3.621,6.064S3121.92,849.752,3119.834,849.752Z" transform="translate(-3108.876 -831.796)"/>
      <path id="Path_858" data-name="Path 858" d="M3201.685,836.11,3172.4,878.991h-8.821l29.282-42.881Z" transform="translate(-3156.539 -835.555)"/>
      <path id="Path_859" data-name="Path 859" d="M3354.906,988.842c-6.372,0-10.968,4.47-10.968,11.885,0,7.474,4.6,11.887,10.968,11.887s11.027-4.412,11.027-11.887C3365.932,993.312,3361.278,988.842,3354.906,988.842Zm0,17.949c-2.026,0-3.621-1.709-3.621-6.064s1.594-6.062,3.621-6.062,3.611,1.718,3.611,6.062S3356.923,1006.791,3354.906,1006.791Z" transform="translate(-3313.678 -968.625)"/>
      <path id="Path_860" data-name="Path 860" d="M3119.834,831.8c-6.3,0-10.958,4.479-10.958,11.885,0,7.474,4.654,11.885,10.958,11.885,6.374,0,11.028-4.411,11.028-11.885C3130.863,836.275,3126.208,831.8,3119.834,831.8Zm0,17.956c-1.96,0-3.611-1.718-3.611-6.071s1.651-6.064,3.611-6.064c2.085,0,3.621,1.718,3.621,6.064S3121.92,849.752,3119.834,849.752Z" transform="translate(-3108.876 -831.796)"/>
      <path id="Path_861" data-name="Path 861" d="M3201.685,836.11,3172.4,878.991h-8.821l29.282-42.881Z" transform="translate(-3156.539 -835.555)"/>
      <path id="Path_862" data-name="Path 862" d="M3354.906,988.842c-6.372,0-10.968,4.47-10.968,11.885,0,7.474,4.6,11.887,10.968,11.887s11.027-4.412,11.027-11.887C3365.932,993.312,3361.278,988.842,3354.906,988.842Zm0,17.949c-2.026,0-3.621-1.709-3.621-6.064s1.594-6.062,3.621-6.062,3.611,1.718,3.611,6.062S3356.923,1006.791,3354.906,1006.791Z" transform="translate(-3313.678 -968.625)"/>
    </g>
    <g id="Group_551" data-name="Group 551" transform="translate(2863.319 663.279)">
      <g id="Group_550" data-name="Group 550" transform="translate(0 0)">
        <g id="Group_548" data-name="Group 548">
          <path id="Path_863" data-name="Path 863" d="M2863.319,1162.2h11.343v-53.16l20.141,27.911V1162.2h11.343l-21.413,22.2Z" transform="translate(-2863.319 -1109.042)" fill="#23b3a8"/>
        </g>
        <g id="Group_549" data-name="Group 549" transform="translate(72.716)">
          <path id="Path_864" data-name="Path 864" d="M3471.009,1162.2h-11.343v-53.16l-20.141,27.911V1162.2h-11.343l21.413,22.2Z" transform="translate(-3428.183 -1109.042)" fill="#23b3a8"/>
        </g>
      </g>
      <path id="Path_865" data-name="Path 865" d="M3146.857,1412.274v-49.2h-26.03v49.2h-13.322l26.336,26.021,26.336-26.021Z" transform="translate(-3076.071 -1330.369)" fill="#23b3a8"/>
    </g>
  </g>
</svg>
