<svg xmlns="http://www.w3.org/2000/svg" width="225.304" height="85.483" viewBox="0 0 225.304 85.483">
  <g id="Group_315" data-name="Group 315" transform="translate(-120.466 -130.362)">
    <path id="Path_635" data-name="Path 635" d="M172.765,139.919l1.176-.288,5.147,21.1-1.176.287-5.148-21.1Z" transform="translate(11.059 1.96)" fill="#ed1f26"/>
    <path id="Path_636" data-name="Path 636" d="M181.456,192.017c0-.866-2.288-1.594-5.446-1.851a7.838,7.838,0,0,0,0,3.7C179.168,193.611,181.456,192.882,181.456,192.017Zm.727,1.755c-.612-.612-2.743.492-5.156,2.54a8.188,8.188,0,0,0,2.617,2.616C181.691,196.517,182.795,194.383,182.183,193.773Zm1.755-4.239c.867,0,1.6-2.288,1.854-5.444a7.807,7.807,0,0,0-3.7,0C182.345,187.247,183.074,189.534,183.938,189.534Zm-1.755.727c.612-.612-.492-2.742-2.539-5.155a8.185,8.185,0,0,0-2.616,2.616C179.439,189.769,181.571,190.874,182.183,190.261Zm1.755,4.24c-.864,0-1.593,2.287-1.851,5.443a7.85,7.85,0,0,0,3.7,0C185.534,196.789,184.806,194.5,183.938,194.5Zm1.755-.728c-.611.612.494,2.744,2.54,5.156a8.172,8.172,0,0,0,2.616-2.616C188.438,194.266,186.305,193.161,185.694,193.773Zm-1.755-15.439a13.683,13.683,0,1,0,13.685,13.683A13.682,13.682,0,0,0,183.938,178.334Zm0,23.272a9.588,9.588,0,1,1,9.587-9.589A9.594,9.594,0,0,1,183.939,201.606Zm4.3-16.5c-2.049,2.413-3.152,4.544-2.542,5.155s2.744-.492,5.156-2.539A8.206,8.206,0,0,0,188.235,185.106Zm-1.812,6.911c0,.865,2.287,1.593,5.443,1.851a7.84,7.84,0,0,0,0-3.7C188.711,190.424,186.423,191.152,186.423,192.017Z" transform="translate(10.529 10.144)" fill="#ed1f26"/>
    <path id="Path_637" data-name="Path 637" d="M260.957,192.017c0-.866-2.289-1.594-5.446-1.851a7.819,7.819,0,0,0,0,3.7C258.669,193.611,260.957,192.882,260.957,192.017Zm.727,1.755c-.612-.612-2.743.492-5.156,2.54a8.188,8.188,0,0,0,2.617,2.616C261.191,196.517,262.3,194.383,261.684,193.773Zm1.755-4.239c.867,0,1.594-2.288,1.852-5.444a7.8,7.8,0,0,0-3.7,0C261.846,187.247,262.576,189.534,263.439,189.534Zm-1.755.727c.612-.612-.493-2.742-2.539-5.155a8.2,8.2,0,0,0-2.617,2.616C258.939,189.769,261.071,190.874,261.684,190.261Zm1.755,4.24c-.864,0-1.593,2.287-1.851,5.443a7.844,7.844,0,0,0,3.7,0C265.034,196.789,264.306,194.5,263.439,194.5Zm1.755-.728c-.612.612.493,2.744,2.54,5.156a8.172,8.172,0,0,0,2.616-2.616C267.939,194.266,265.807,193.161,265.195,193.773Zm-1.755-15.439a13.683,13.683,0,1,0,13.683,13.683A13.682,13.682,0,0,0,263.439,178.334Zm0,23.272a9.588,9.588,0,1,1,9.589-9.589A9.593,9.593,0,0,1,263.439,201.606Zm4.3-16.5c-2.05,2.413-3.152,4.544-2.542,5.155s2.744-.492,5.156-2.539A8.206,8.206,0,0,0,267.737,185.106Zm-1.812,6.911c0,.865,2.287,1.593,5.443,1.851a7.88,7.88,0,0,0,0-3.7C268.211,190.424,265.924,191.152,265.924,192.017Z" transform="translate(27.34 10.144)" fill="#ed1f26"/>
    <path id="Path_638" data-name="Path 638" d="M291.2,169.157l-34.319-2.612-.346-.141a4.166,4.166,0,0,1-1.437-2.9h0a3.39,3.39,0,0,1,.865-2.2h0a.6.6,0,0,1,.554-.211h0l30.262,4.5-.087.6-.28.537.28-.537.087-.6.19.061,4.556,2.364a.6.6,0,0,1,.3.7h0a.606.606,0,0,1-.58.441H291.2Zm-2.872-1.434-1.828-.95-29.807-4.432a2.01,2.01,0,0,0-.385,1.161h0a2.471,2.471,0,0,0,.5,1.4h0a3.572,3.572,0,0,0,.374.453h0l31.144,2.371Z" transform="translate(28.47 6.497)" fill="#ed1f26"/>
    <path id="Path_639" data-name="Path 639" d="M253.661,166.941l24.575-36.2s4.126-1.5,3.375,1.5S256.1,173.13,256.1,173.13Z" transform="translate(28.166)" fill="#ed1f26"/>
    <path id="Path_640" data-name="Path 640" d="M191.118,151.03c-5.774-8.527-16.621-18.232-32.4-16.247-.342,1.013,1.665,3.151,2.6,3.254a48.9,48.9,0,0,1,10.77,2.01c6.8,2.275,11.135,8.033,14.232,15.55A34.193,34.193,0,0,0,191.118,151.03Z" transform="translate(8.08 0.88)" fill="#ed1f26"/>
    <path id="Path_641" data-name="Path 641" d="M303.544,191.459c-.428,1.205-.116,2.5.051,4.126s.548,2.852-1.087,3.224a69.015,69.015,0,0,1-7.71.406s-3.253-.733.137-2.2c2.63-1.138,4.581-2.565,4.354-5.651C299.244,190.76,303.544,191.459,303.544,191.459Z" transform="translate(36.567 12.848)" fill="#ed1f26"/>
    <path id="Path_642" data-name="Path 642" d="M295.047,159.194c.142,6.006.661,22.738.766,23.593.969,8.054,1.931,19.15,1.931,19.15l4.952-.12s1.941-13.879.151-19.645c-.543-1.752,2.045-18.928,2.045-18.928Z" transform="translate(36.917 6.097)" fill="#ed1f26"/>
    <path id="Path_643" data-name="Path 643" d="M307.307,194.089c.153,1.354.89,3.176.459,5.036-.15.642-1.33.916-2.29,1.145-.4.1-1.777,1.029-2.485,1.294-2.577.961-3.812.253-4.293-.033s-.635-1.008.516-2.1c.985-.934,2.4-1.445,2.781-2.324a12.534,12.534,0,0,0,.184-3.619Z" transform="translate(37.612 13.35)" fill="#ed1f26"/>
    <g id="Group_313" data-name="Group 313" transform="translate(332.466 161.125)">
      <path id="Path_644" data-name="Path 644" d="M295.461,158.885c.141,6.006,1.281,12.822,3.661,25.093.791,4.072,3.116,21.617,3.116,21.617l6.411.183a97.02,97.02,0,0,0-1.36-21.7c-.23-1.124.258-11.016.838-18.747.344-4.576-2.527-9.578-2.527-9.578Z" transform="translate(-295.461 -155.755)" fill="#ed1f26"/>
    </g>
    <path id="Path_645" data-name="Path 645" d="M268.741,161.7c.406.345,2.43-.32,3.814-.78.573-.2,5.114.174,5.332.065.355-.179-1.216-2.282-1.216-2.282a24.694,24.694,0,0,1-4.431.021,20.531,20.531,0,0,1-2.618-.779,28.359,28.359,0,0,0-2.843,1.119Z" transform="translate(30.939 5.832)" fill="#ed1f26"/>
    <path id="Path_646" data-name="Path 646" d="M276.561,157.651c-1.11-.033-4.56,1.322-5.168.907a4.355,4.355,0,0,0-2.24-.6c-.86-.085-1.33-1.423-1.522-1.188s-.33.281.046.938a4.553,4.553,0,0,0,.743.944s2.916.876,3.181.934,4.957-.606,5.16-.563S276.561,157.651,276.561,157.651Z" transform="translate(31.079 5.578)" fill="#ed1f26"/>
    <path id="Path_647" data-name="Path 647" d="M286.738,149.386c-1.549,1.182-4.114,7.236-6.688,8.186-2.4.884-8.348,2.439-8.348,2.439l2.158,3.564s2.843-.139,4.662-.416a16.378,16.378,0,0,0,5.318-1.673c1.293-.7,7.2-5.492,7.053-7.182S286.738,149.386,286.738,149.386Z" transform="translate(31.981 4.023)" fill="#ed1f26"/>
    <path id="Path_648" data-name="Path 648" d="M289.144,148.509l-1.8-.23a5.559,5.559,0,0,1-2.857-1.329c-.021-.058-.05-.12-.073-.179l.012,0a7.564,7.564,0,0,0-1.139-3.174,6.233,6.233,0,0,0-3.118-3.64c-2.175-1.274-4.323-.4-5.3-.13a6.886,6.886,0,0,0-3.254,3.158,6.485,6.485,0,0,0-.27,5.276,14.742,14.742,0,0,0-1.718,3.036,1.444,1.444,0,0,0-.158.338l0,0h0c-.21.688.334,1.168,1.306,1.161,1.247-.016,1.34-.634,1.892-1.508.234-.372.44-.737.619-1.075a30.279,30.279,0,0,0,2.671,1.921l.092.069a13.078,13.078,0,0,1,1.112,1.87.3.3,0,0,0,.127.1c.277.2.728-.227,1.205-.544.042.022.081.034.122.055a4.16,4.16,0,0,0,2.528.641,1.7,1.7,0,0,0,.248-.028c.816-.223,1-.4,1.763-1.306,1.237.469,4.337,2.107,4.337,2.107l.333-2.625-.164-.01Z" transform="translate(31.499 1.886)" fill="#ed1f26"/>
    <path id="Path_649" data-name="Path 649" d="M281.536,150.956l-.311,1.375,2.314,1.93.757-2.629Z" transform="translate(33.994 4.355)" fill="#ed1f26"/>
    <path id="Path_650" data-name="Path 650" d="M283.651,146.856A17.507,17.507,0,0,1,296.3,149.44c5.626,3.376,13.193,6.44,13.444,11.88.082,1.789-6.566,6.129-10.631,6.38-1.667.1-4.016-2.244-5.752-4s-8.254-4.565-10.443-9.879C282.024,151.632,283.651,146.856,283.651,146.856Z" transform="translate(34.296 3.432)" fill="#ed1f26"/>
    <path id="Path_651" data-name="Path 651" d="M283.309,146.063c0,1.036-1.415,7.053-1.415,7.053l3.318,2.319,1.2-8.615Z" transform="translate(34.136 3.32)" fill="#ed1f26"/>
    <path id="Path_652" data-name="Path 652" d="M275.085,168.3l-8.418-13.07a1.16,1.16,0,0,0,.254-.711c0-.055,0-.111-.012-.17l-.166.022.166-.024a1.17,1.17,0,0,0-1.155-1,1.211,1.211,0,0,0-.176.012,1.165,1.165,0,0,0-1,1.153.929.929,0,0,0,.016.176,1.161,1.161,0,0,0,1.153.993,1.4,1.4,0,0,0,.172-.01,1.112,1.112,0,0,0,.113-.039l8.416,13.069Zm-9.211-12.955a1,1,0,0,1-.122.007.831.831,0,0,1-.824-.711.8.8,0,0,1-.012-.125.833.833,0,0,1,.714-.823.636.636,0,0,1,.125-.011.838.838,0,0,1,.823.714h0a1.011,1.011,0,0,1,.007.122A.838.838,0,0,1,265.874,155.348Z" transform="translate(30.475 4.862)" fill="#ed1f26"/>
    <path id="Path_653" data-name="Path 653" d="M266.81,158.823c-.355.443-.28,1,.218.97-.165.418.242,1.107.687,1-.182.342.227.73.657.687.132.348.371.43.752.313.526-.158,1.529-.452,1.528-.886s-1.428.176-1.428.176,1.038-.315,1.144-.783c0,0,.21-.434-.188-.383s-1.7.323-1.7.323,1.56-.592,1.526-.772c-.057-.326-.078-.614-2.225.052,1.33-.468,1.591-.643,1.5-1.013S266.81,158.823,266.81,158.823Z" transform="translate(30.9 5.929)" fill="#ed1f26"/>
    <path id="Path_654" data-name="Path 654" d="M267.976,165.444a17.166,17.166,0,0,1,2.8-1.079c.11-.055,1.012-.5,1.709-.9-.774-.176-1.909-.55-1.564-.75a12.845,12.845,0,0,1,3.216.258l4.005.029c-1.6,1.971.36,1.53-.979,2.457-.268.185-4.43,1.239-4.811,1.294s-2.7.568-2.934.214c-.09-.137,1.184-.348,1.706-.428-.66.094-2.6.356-2.531.094.07-.281,2.441-.818,2.441-.818a19.942,19.942,0,0,1-2.3.394c-.75.024-.757-.217-.263-.331.407-.091,2.365-.694,2.365-.694s-.886.218-1.745.4C268.137,165.774,267.819,165.709,267.976,165.444Z" transform="translate(31.185 6.834)" fill="#ed1f26"/>
    <path id="Path_655" data-name="Path 655" d="M291.229,148.491a7.482,7.482,0,0,1,.628,3.539c-.609,4.075-3.048,10.452-4.737,11.955a28.743,28.743,0,0,1-10.736,5.484c-1.582.409-2.2-3.255-2.2-3.255s8.368-6.114,8.9-7.013c1.5-2.532,2.44-9.2,3.252-10.393A3.105,3.105,0,0,1,291.229,148.491Z" transform="translate(32.506 3.613)" fill="#ed1f26"/>
    <path id="Path_656" data-name="Path 656" d="M157.565,160.258a13.285,13.285,0,0,0-.058-4.31l.118.03v-.016l.047.013a4.229,4.229,0,0,0-.505-2.589c-1.089-1.359-1.62-1.924-2.941-2.213a9.077,9.077,0,0,0-1.548-.268,5.3,5.3,0,0,0-4.7,1.656c-.159.2-2.691,1.23-2.081,5.4a16.54,16.54,0,0,0,1.719,4.379c-.354.216-.717.436-1.067.651-.084-.093-.52,0-.52,0-1.99.78-10.752,3.18-12.324,21.824l3.161-9.863c.069-1.946,3.442-7.71,5.907-9.236a4.479,4.479,0,0,1,6.639,1.414,20.4,20.4,0,0,0,1.856-1.769c.178.062.29.087.29.087.218,0,2.072-.015,2.252-.016l-.01-.008a4.735,4.735,0,0,0,1.616-.368,3.959,3.959,0,0,0,1.661-2.548c.6-.131,1.233-.349,1.164-.775A11.3,11.3,0,0,1,157.565,160.258Zm-9.36,16.1.849-.27s.909-1.817.354-6.639a7.26,7.26,0,0,0-.171-.916C149.883,173.473,148.723,174.715,148.206,176.36Z" transform="translate(2.799 4.337)" fill="#ed1f26"/>
    <path id="Path_657" data-name="Path 657" d="M156.553,189.65c1.354-4.212.723-6.4-3.18-7.269-4.02-.893-8.48-1.969-8.48-1.969l4.726-7.646s-7.1.986-7.755-5.681l-2.045-.757-1.438-.454c-.651,1.3-7.194,14.535-7.194,17.95s3.025,4.508,7.092,4.411c4.291-.1,10.4.051,10.4.051s-3.282,5.7-5.906,11.055c-1.047,2.136-.024,3.39.081,3.511-.437,1.76-.724,3.5.538,3.593,1.5.113,1.753-.208,3.794.325s7.042,1.024,7.478.021c.6-1.385-.767-2.179-1.84-2.4a5.924,5.924,0,0,1-2.664-1.6h.714A62.283,62.283,0,0,0,156.553,189.65Z" transform="translate(2.267 7.51)" fill="#ed1f26"/>
    <path id="Path_658" data-name="Path 658" d="M156.372,199.363a4.319,4.319,0,0,1-2.07-.795.763.763,0,0,0,.269-.456,40.816,40.816,0,0,1,1.918-8.177c1.414-4.846,1.868-6.561.3-8.48-1.48-1.816-9.312-3.3-14.739-4.518l-.3,1.666s5.975,1.151,9.995,2.044c3.9.867,4.535,3.057,3.18,7.269-2.726,8.48-4.883,13.591-4.883,13.591a.242.242,0,0,0,.227.265c2.1.219,8.394,1.2,8.283-.305A2.094,2.094,0,0,0,156.372,199.363Z" transform="translate(4.501 9.849)" fill="#ed1f26"/>
    <g id="Group_314" data-name="Group 314" transform="translate(168.36 174.89)">
      <path id="Path_659" data-name="Path 659" d="M160.606,170.383c.6-.488,3.535-3.338,3.982-3.264s.217.623-.064,1.251-.038.441-.038.441a12.525,12.525,0,0,1,3.109-.156c.962.056,1.64.838.111.95.769.161,1.4.829.236,1.122.66.194.883.795-.09,1.054.4.064.562.47.076.843a5.232,5.232,0,0,1-3.347,1.01c-1.986-.007-4.582.155-4.582.155Z" transform="translate(-160 -167.118)" fill="#ed1f26"/>
    </g>
    <path id="Path_660" data-name="Path 660" d="M311.475,171.562l-34.856-2.882s-2.13-1.8-.751-3.9l-27.262-16.605c-25.677-7.77-53.725-1.77-58.287.428-2.215,1.067-12.444,11.876-17.512,15.931a15.588,15.588,0,0,0-7.658,3.789,2.252,2.252,0,0,1,.241-.008c1.648.127,1.093.038,3.042.127l3.456.124c1.949.09,2.138.918.422,1.846l-4.633,2.356a3.472,3.472,0,0,1,.832.171c1.1.321,1.155,1.23.643,1.514.511.132.423.883-.032,1.135.328.151.468.966-.081,1.136.482.076.344.758-.247,1.211-.368.281-1.06.946-4.012,1.211-1.162.1-2.267.087-2.991.113a117.542,117.542,0,0,1-1.879,12.51c-2.027,9.291,6.082,9.124,6.082,9.124l4.257.046a16.8,16.8,0,0,1-.2-2.583,16.47,16.47,0,1,1,32.678,2.915c22.689-.084,39.8.008,63.906.17a12.388,12.388,0,0,1-.254-3.084A16.472,16.472,0,1,1,298.9,202.06c9.088.01,12.963-.033,13.769-.157,4.392-.676,6.5-4.479,7.18-7.858C320.8,183.189,312.833,173.183,311.475,171.562ZM183.89,166.375s7.948-11.085,10.443-12.671c5.5-3.5,24.326-3.2,24.326-3.2l3.253,15.925Zm43,.053s-2.709-10.78-3.861-16.1c-.065-.3,12.153.012,21.447,2.345,5.121,1.285,7.773,3.59,10.6,5.328,11.842,7.276,11.974,8.334,11.974,8.334Zm77.674,9.566c-3.471-.938-5.722-2.439-3.282-3.187s10.129.374,10.129.374l3.47,3.938S307.434,176.768,304.569,175.994Z" transform="translate(8.273 2.95)" fill="#ed1f26"/>
    <path id="Path_661" data-name="Path 661" d="M140.5,165.946a6,6,0,0,0,1.211,3.937c2.574,3.029,7.618,4.51,10.778,5.708s12.391.5,12.391.5l.454-5.831s-9.644-.542-12.256-1.907-5.117-4.227-6.749-4.908C143.3,162.182,140.58,164.048,140.5,165.946Z" transform="translate(4.236 6.909)" fill="#ed1f26"/>
    <path id="Path_662" data-name="Path 662" d="M145.374,193.408c.188-.441,1.1-2.076,1.294-2.531-2.377-.409-7.185-1.785-11.245-1.856-5.756-.1-17.944,1.1-12.455,3.1a54.727,54.727,0,0,0,13.018,1.788A61.7,61.7,0,0,0,145.374,193.408Zm-9.72-3.106a74.138,74.138,0,0,1,10.849.9c1.211-2.473,2.813-5.35,2.978-5.7-.271,0-8.283.207-11.8-.068-.624,0-1.258,0-1.908-.013-7.14-.127-12.943-.955-12.959-1.852s5.76-1.522,12.9-1.4c5.582.1,10.33.628,12.152,1.283l1.889-.277c-1.771-1.016-7.411-1.839-14.1-1.958-7.723-.132-14.031.72-14.571,1.93a1.834,1.834,0,0,0-.617,1.433l.091,5.232a2.06,2.06,0,0,0,1.333,1.818C123.9,190.752,129.292,190.192,135.654,190.3Zm-10.234-6.559c.01.619,4.642,1.2,10.347,1.3.39.006,5.234-.048,5.613-.047l4.251-1.217c-1.282-.482-5.232-.888-9.907-.969C130.023,182.708,125.411,183.127,125.42,183.742Zm18.105,13.923a29.118,29.118,0,0,1,1.333-3.472,77.646,77.646,0,0,1-9.086.311c-7.14-.127-12.943-.955-12.959-1.852,0-.173.218-.337.619-.487a14.69,14.69,0,0,1-1.516-.522.19.19,0,0,1-.027-.015,1.523,1.523,0,0,0-.807.6,1.834,1.834,0,0,0-.617,1.433l.091,5.232a2.069,2.069,0,0,0,1.359,1.833,45.019,45.019,0,0,0,14.07,2.27,61.5,61.5,0,0,0,7.483-.319A14.12,14.12,0,0,1,143.525,197.666Z" transform="translate(0 10.751)" fill="#ed1f26"/>
  </g>
</svg>
