<svg xmlns="http://www.w3.org/2000/svg" width="93" height="74" viewBox="0 0 93 74"><defs><style>.a{fill:#e22b2b;}.b{fill:#fff;}</style></defs><g transform="translate(-1219 -4150)"><rect class="a" width="93" height="74" transform="translate(1219 4150)"/><path class="b" d="M8.773,45.7a29.95,29.95,0,0,1,0-42.358A1.55,1.55,0,0,1,10.69,3.12l5.842,3.652A1.549,1.549,0,0,1,17.15,8.66l-2.921,7.3a1.549,1.549,0,0,1-1.593.966l-5.031-.5a23.943,23.943,0,0,0,0,16.181l5.031-.5a1.549,1.549,0,0,1,1.593.966l2.921,7.3a1.549,1.549,0,0,1-.617,1.889L10.69,45.914A1.549,1.549,0,0,1,8.773,45.7Zm13.5-37.091a5.773,5.773,0,0,1,0,5.864,1.086,1.086,0,0,1-1.687.233l-.539-.516a1.09,1.09,0,0,1-.2-1.3,2.89,2.89,0,0,0,0-2.7,1.09,1.09,0,0,1,.2-1.3l.539-.516a1.086,1.086,0,0,1,1.687.233ZM30.548.386a17.331,17.331,0,0,1,0,22.3,1.086,1.086,0,0,1-1.582.084l-.523-.5A1.084,1.084,0,0,1,28.36,20.8a14.443,14.443,0,0,0,0-18.516A1.084,1.084,0,0,1,28.444.8l.523-.5a1.086,1.086,0,0,1,1.582.084ZM26.4,4.437a11.555,11.555,0,0,1,0,14.2,1.087,1.087,0,0,1-1.609.118l-.524-.5a1.081,1.081,0,0,1-.116-1.436,8.665,8.665,0,0,0,0-10.558,1.081,1.081,0,0,1,.116-1.436l.524-.5a1.087,1.087,0,0,1,1.609.118Z" transform="translate(1248 4164)"/></g></svg>