<svg xmlns="http://www.w3.org/2000/svg" width="188.327" height="140.212" viewBox="0 0 188.327 140.212">
  <g id="Group_568" data-name="Group 568" transform="translate(-400 -2094.788)">
    <g id="Group_546" data-name="Group 546" transform="translate(128.75 2067.113)">
      <path id="Path_839" data-name="Path 839" d="M359.779,56.282,372.12,36.969a1.636,1.636,0,0,0-.454-2.84l-4.211-2.022a7.333,7.333,0,0,0-4.678-.324l-5.706,1.827a5.65,5.65,0,0,1-4.453-.706L346.2,28.282a3.751,3.751,0,0,0-4.1,0L335.683,32.9a5.659,5.659,0,0,1-4.453.706l-5.714-1.827a7.339,7.339,0,0,0-4.68.324l-4.219,2.023a1.633,1.633,0,0,0-.454,2.838L328.5,56.282Z" transform="translate(40.164)" fill="#23b3a8"/>
      <path id="Path_841" data-name="Path 841" d="M374.5,42.675H340.99c-17.271,14.074-40.459,45.957-40.459,66.171,0,18.741,5.658,30.542,17.952,40.736a20.316,20.316,0,0,0,12.957,4.7h52.609a20.32,20.32,0,0,0,12.959-4.7c12.291-10.193,17.95-21.995,17.95-40.736C414.957,88.632,391.769,56.749,374.5,42.675Z" transform="translate(26.561 13.607)" fill="#23b3a8"/>
      <path id="Path_842" data-name="Path 842" d="M378.149,45.2a70.091,70.091,0,0,1-68.971,83.375c-2.273,0-4.514-.13-6.73-.339,2.916,7.392,7.583,13.487,14.3,19.054a20.316,20.316,0,0,0,12.957,4.7H382.31a20.32,20.32,0,0,0,12.959-4.7c12.291-10.193,17.95-21.995,17.95-40.736C413.218,88.382,394.483,60.818,378.149,45.2Z" transform="translate(28.3 15.899)" fill="#046357"/>
      <g id="Group_535" data-name="Group 535" transform="translate(363.966 52.537)">
        <path id="Path_843" data-name="Path 843" d="M356.8,48.2H323.612a3.747,3.747,0,0,1,0-7.493H356.8a3.747,3.747,0,0,1,0,7.493Z" transform="translate(-319.866 -40.711)" fill="#d4d9eb"/>
      </g>
      <path id="Path_844" data-name="Path 844" d="M340.205,40.711H323.612a3.747,3.747,0,0,0,0,7.493h16.594Z" transform="translate(44.1 11.826)" fill="#fff"/>
      <path id="Path_845" data-name="Path 845" d="M321.83,48.2h16.594a3.747,3.747,0,1,0,0-7.493H321.83Z" transform="translate(45.881 11.826)" fill="#fff"/>
      <g id="Group_536" data-name="Group 536" transform="translate(295.089 130.699)">
        <path id="Path_846" data-name="Path 846" d="M337.149,93.139H289.471a5.721,5.721,0,0,1,0-11.443h47.678a5.721,5.721,0,0,1,0,11.443Z" transform="translate(-283.75 -81.696)" fill="#23b3a8"/>
      </g>
      <g id="Group_537" data-name="Group 537" transform="translate(271.25 107.812)">
        <path id="Path_847" data-name="Path 847" d="M348.488,81.138H276.971a5.721,5.721,0,0,1,0-11.443h71.516a5.721,5.721,0,0,1,0,11.443Z" transform="translate(-271.25 -69.695)" fill="#23b3a8"/>
      </g>
      <g id="Group_538" data-name="Group 538" transform="translate(295.089 119.257)">
        <path id="Path_848" data-name="Path 848" d="M329.521,87.139H289.471a5.721,5.721,0,0,1,0-11.443h40.049a5.721,5.721,0,1,1,0,11.443Z" transform="translate(-283.75 -75.696)" fill="#fff"/>
      </g>
      <g id="Group_539" data-name="Group 539" transform="translate(295.089 96.37)">
        <path id="Path_849" data-name="Path 849" d="M342.87,75.138h-53.4a5.721,5.721,0,0,1,0-11.443h53.4a5.721,5.721,0,0,1,0,11.443Z" transform="translate(-283.75 -63.695)" fill="#fff"/>
      </g>
      <g id="Group_540" data-name="Group 540" transform="translate(328.94 84.927)">
        <path id="Path_850" data-name="Path 850" d="M321.048,69.138H307.221a5.721,5.721,0,0,1,0-11.443h13.827a5.721,5.721,0,0,1,0,11.443Z" transform="translate(-301.5 -57.695)" fill="#23b3a8"/>
      </g>
      <g id="Group_541" data-name="Group 541" transform="translate(295.089 84.927)">
        <path id="Path_851" data-name="Path 851" d="M305.682,69.138h-16.21a5.721,5.721,0,0,1,0-11.443h16.21a5.721,5.721,0,0,1,0,11.443Z" transform="translate(-283.75 -57.695)" fill="#23b3a8"/>
      </g>
      <g id="Group_545" data-name="Group 545" transform="translate(411.899 39.872)">
        <path id="Path_852" data-name="Path 852" d="M369.211,82.5c-5.245-11.458-13.647-23.537-22.264-33.256a23.837,23.837,0,0,0,21.892,33.273C368.965,82.521,369.085,82.506,369.211,82.5Z" transform="translate(-345 -20.302)" fill="#0d2c82"/>
        <g id="Group_542" data-name="Group 542" transform="translate(21.932 0.954)">
          <rect id="Rectangle_600" data-name="Rectangle 600" width="3.814" height="9.774" fill="#ff4e0e"/>
        </g>
        <circle id="Ellipse_130" data-name="Ellipse 130" cx="23.839" cy="23.839" r="23.839" transform="translate(0 8.821)" fill="#fa873e"/>
        <g id="Group_543" data-name="Group 543" transform="translate(16.091 0.001)">
          <rect id="Rectangle_601" data-name="Rectangle 601" width="15.495" height="5.721" rx="1" fill="#fa873e"/>
        </g>
        <path id="Path_853" data-name="Path 853" d="M357.5,86.373a23.839,23.839,0,0,0,0-47.678Z" transform="translate(-333.661 -29.875)" fill="#f9690e"/>
        <circle id="Ellipse_131" data-name="Ellipse 131" cx="2.861" cy="2.861" r="2.861" transform="translate(20.978 29.799)" fill="#fff"/>
        <line id="Line_248" data-name="Line 248" x1="12.642" y2="12.642" transform="translate(11.196 32.66)" fill="none" stroke="#fff" stroke-linecap="round" stroke-miterlimit="10" stroke-width="1"/>
        <path id="Path_854" data-name="Path 854" d="M361.689,41.82a17.879,17.879,0,1,1-8.807,33.428" transform="translate(-337.85 -27.04)" fill="none" stroke="#fff" stroke-linecap="round" stroke-miterlimit="10" stroke-width="1"/>
        <g id="Group_544" data-name="Group 544" transform="translate(23.839)">
          <path id="Path_855" data-name="Path 855" d="M363.34,39.791H357.5V34.07h5.84a1.907,1.907,0,0,1,1.907,1.907v1.907A1.905,1.905,0,0,1,363.34,39.791Z" transform="translate(-357.5 -34.07)" fill="#f9690e"/>
        </g>
      </g>
    </g>
    <text id="_" data-name="₦ " transform="translate(494 2194)" fill="#fff" font-size="45" font-family="Roboto-Bold, Roboto" font-weight="700" letter-spacing="0.02em"><tspan x="0" y="0">₦ </tspan></text>
  </g>
</svg>
