<svg xmlns="http://www.w3.org/2000/svg" width="1289.5" height="120.75" viewBox="0 0 1289.5 120.75"><g transform="translate(-490.5 -2849)"><line x2="1104" transform="translate(490.5 2906)" fill="none" stroke="#707070" stroke-width="1"/><path d="M125.063,2.25h-34.5A12.941,12.941,0,0,0,77.625,15.188v34.5A12.941,12.941,0,0,0,90.563,62.625h21.562v17.25a17.266,17.266,0,0,1-17.25,17.25H92.719a6.453,6.453,0,0,0-6.469,6.469v12.937A6.453,6.453,0,0,0,92.719,123h2.156A43.113,43.113,0,0,0,138,79.875V15.188A12.941,12.941,0,0,0,125.063,2.25Zm-77.625,0h-34.5A12.941,12.941,0,0,0,0,15.188v34.5A12.941,12.941,0,0,0,12.937,62.625H34.5v17.25a17.266,17.266,0,0,1-17.25,17.25H15.094a6.453,6.453,0,0,0-6.469,6.469v12.937A6.453,6.453,0,0,0,15.094,123H17.25A43.113,43.113,0,0,0,60.375,79.875V15.188A12.941,12.941,0,0,0,47.438,2.25Z" transform="translate(1642 2846.75)" fill="#7b7a7a"/></g></svg>