<svg xmlns="http://www.w3.org/2000/svg" width="143.49" height="154.089" viewBox="0 0 143.49 154.089">
  <g id="Group_324" data-name="Group 324" transform="translate(-11.407 -335.506)">
    <g id="Group_316" data-name="Group 316" transform="translate(119.327 381.365)">
      <path id="Path_663" data-name="Path 663" d="M77.662,366.514a.451.451,0,0,1,.137-.626h0c.879-.556,3.057-1.608,4-2.19h0a.447.447,0,0,1,.621.147h0a.454.454,0,0,1-.147.621h0c-1.016.623-3.208,1.684-3.989,2.185h0a.452.452,0,0,1-.243.072h0a.452.452,0,0,1-.382-.209Z" transform="translate(-77.589 -363.629)" fill="#ed1f26"/>
      <path id="Path_664" data-name="Path 664" d="M77.659,367.759a.453.453,0,0,1,.14-.625h0c.879-.556,3.059-1.608,4-2.19h0a.451.451,0,0,1,.621.15h0a.455.455,0,0,1-.147.621h0c-1.018.62-3.209,1.684-3.99,2.185h0a.452.452,0,0,1-.241.068h0a.456.456,0,0,1-.386-.21Z" transform="translate(-77.589 -362.841)" fill="#ed1f26"/>
      <path id="Path_665" data-name="Path 665" d="M77.659,369.006a.453.453,0,0,1,.14-.625h0c.881-.556,3.059-1.6,4-2.187h0a.447.447,0,0,1,.62.15h0a.451.451,0,0,1-.15.621h0c-1.013.62-3.206,1.681-3.987,2.179h0a.452.452,0,0,1-.243.072h0a.457.457,0,0,1-.385-.21Z" transform="translate(-77.589 -362.053)" fill="#ed1f26"/>
      <path id="Path_666" data-name="Path 666" d="M77.659,370.255a.449.449,0,0,1,.143-.625h0c.877-.553,3.056-1.608,4-2.19h0v0a.453.453,0,0,1,.625.147h0a.459.459,0,0,1-.152.625h0c-1.013.621-3.206,1.681-3.99,2.182h0a.449.449,0,0,1-.24.07h0a.453.453,0,0,1-.385-.212Z" transform="translate(-77.589 -361.266)" fill="#ed1f26"/>
    </g>
    <path id="Path_667" data-name="Path 667" d="M76.477,388.79c1.636-.768,7.475-.487,9.36-2.2a36.576,36.576,0,0,0,4.181-5.308l2.733,2.208s-3.069,5.461-4.51,6.438c-1.128.768-7.788,5.849-9.115,5.011S76.477,388.79,76.477,388.79Z" transform="translate(41.037 28.868)" fill="#ed1f26"/>
    <path id="Path_668" data-name="Path 668" d="M87.911,386.741a9.139,9.139,0,0,1-3.361-2.4h0l.236-.068.166-.051-.166.051-.236.068a.433.433,0,0,1-.02-.119h0c.059-.551.833-1.432.8-1.8h0a.178.178,0,0,0-.007-.047h0a14.154,14.154,0,0,1-.527-3.126h0a2.19,2.19,0,0,1-.075-.626h0c.068-.662,0-1.505.691-1.686h0a.513.513,0,0,1,.4.232h0a2.52,2.52,0,0,1,.424.926h0a3.621,3.621,0,0,1,.913-1.172h0l0-.007h0a.236.236,0,0,1,.174-.072h0c.458.127.776.711,1.378,1.432h0a5.839,5.839,0,0,1,1.06,1.794h0a.192.192,0,0,1,.007.041h0l-.209,0,.209.028a2.868,2.868,0,0,1-1.293,2.658h0a1.923,1.923,0,0,0-.144.639h0c-.041.4-.047.915-.047,1.4h0v.773h0a4.845,4.845,0,0,1-.046.882h0a.349.349,0,0,1-.316.243h0l-.02,0Zm-2.821-2.474c.07.072.173.165.3.272h0c.249.215.581.479.929.74h0a8.87,8.87,0,0,0,1.476.941h0c.01-.142.015-.36.015-.6h0v-.773h0c.041-1.018-.068-2.025.416-2.457h0a2.373,2.373,0,0,0,1.083-2.172h0a.551.551,0,0,1-.02-.1h0a13.26,13.26,0,0,0-1.949-2.73h0a.423.423,0,0,0-.051.055h0a4.537,4.537,0,0,0-.294.388h0c-.212.308-.427.655-.551.848h0a.321.321,0,0,1-.276.163h0c-.483-.2-.264-.382-.4-.626h0a1.941,1.941,0,0,0-.328-.737h0l-.01-.013h0a1.069,1.069,0,0,0-.1.271h0a3.549,3.549,0,0,0-.109.894h0a1.705,1.705,0,0,0,.052.479h0a15.487,15.487,0,0,0,.512,3.085h0a.581.581,0,0,1,.044.235h0c-.033.634-.758,1.543-.8,1.761h0a.807.807,0,0,0,.068.075Z" transform="translate(46.116 26.076)" fill="#ed1f26"/>
    <g id="Group_318" data-name="Group 318" transform="translate(83.903 348.369)">
      <g id="Group_317" data-name="Group 317" transform="translate(0.856 5.429)">
        <rect id="Rectangle_409" data-name="Rectangle 409" width="6.589" height="125.255" fill="#ed1f26"/>
      </g>
      <path id="Path_669" data-name="Path 669" d="M65.5,351.492a.987.987,0,0,1-.877,1.071H62.28a.989.989,0,0,1-.882-1.071v-6.454a1,1,0,0,1,.882-1.078h2.34a.993.993,0,0,1,.877,1.078Z" transform="translate(-52.376 -343.037)" fill="#ed1f26"/>
      <path id="Path_670" data-name="Path 670" d="M70.14,349.494a1.007,1.007,0,0,1-.921,1.073H56.786a1.007,1.007,0,0,1-.921-1.073V344.47a1.008,1.008,0,0,1,.921-1.076H69.218a1.008,1.008,0,0,1,.921,1.076Z" transform="translate(-55.865 -343.394)" fill="#ed1f26"/>
    </g>
    <rect id="Rectangle_410" data-name="Rectangle 410" width="54.434" height="4.338" transform="translate(51.08 400.575)" fill="#ed1f26"/>
    <path id="Path_671" data-name="Path 671" d="M151.836,375.705a65.6,65.6,0,0,1-8.874-.947c-3.4-.837-5.6-2.182-3.214-2.854,1.737-.486,6.177-.09,8.478.165-5.9-2.185-30.973-8-30.973-8L91.07,350.084c-22.979-6.951-48.078-1.585-52.16.385-1.983.954-14.813,10.73-19.349,14.356a6.1,6.1,0,0,0-3.879,2.617,2.477,2.477,0,0,1,.249-.008c1.611.112,1.065.034,2.974.112l3.379.111c1.906.08,2.092.823.414,1.654l-8.471,4.1c-.22.109-.411.2-.577.272-.414,2.785-.885,5.156-1.952,10.038-1.812,8.313,5.445,8.165,5.445,8.165s1.36.011,3.809.038a14.956,14.956,0,0,1-.183-2.309,14.74,14.74,0,0,1,29.479,0,14.924,14.924,0,0,1-.233,2.607c20.3-.077,35.617,0,57.184.15a11.134,11.134,0,0,1-.228-2.758,14.74,14.74,0,1,1,29.1,3.318c8.134.007,11.6-.033,12.323-.143,3.93-.6,5.82-4.007,6.425-7.031A14.293,14.293,0,0,0,151.836,375.705ZM33.157,366.375s7.11-9.918,9.344-11.336c4.925-3.137,21.768-2.867,21.768-2.867l2.912,14.252Zm38.484.049s-2.425-9.647-3.457-14.407c-.059-.269,10.878.01,19.191,2.1,4.582,1.15,6.955,3.212,9.486,4.768,10.6,6.511,10.717,7.457,10.717,7.457Z" transform="translate(0 7.016)" fill="#ed1f26"/>
    <g id="Group_320" data-name="Group 320" transform="translate(64.213 335.506)">
      <g id="Group_319" data-name="Group 319" transform="translate(0.944 7.032)">
        <rect id="Rectangle_411" data-name="Rectangle 411" width="8.021" height="143.815" fill="#ed1f26"/>
      </g>
      <path id="Path_672" data-name="Path 672" d="M55.315,346.7a1.222,1.222,0,0,1-1.078,1.324H51.361a1.222,1.222,0,0,1-1.08-1.324v-7.922a1.22,1.22,0,0,1,1.08-1.321h2.876a1.22,1.22,0,0,1,1.078,1.321Z" transform="translate(-39.696 -334.274)" fill="#ed1f26"/>
      <path id="Path_673" data-name="Path 673" d="M61.315,342.989a1.233,1.233,0,0,1-1.13,1.319H44.922a1.234,1.234,0,0,1-1.132-1.319v-6.164a1.236,1.236,0,0,1,1.132-1.319H60.185a1.235,1.235,0,0,1,1.13,1.319Z" transform="translate(-43.79 -335.506)" fill="#ed1f26"/>
    </g>
    <path id="Path_674" data-name="Path 674" d="M81.678,384.541a1.7,1.7,0,0,0,.106-.429,3.946,3.946,0,0,0-.254-1.787c-.031-.1-.054-.2-.09-.3.349-.4.814-.76.551-1.024l-.011-.008c-.01-.011,0-.026-.015-.039a11.3,11.3,0,0,1-1.451-1.151c-.008-.013-.016-.024-.024-.039a24.048,24.048,0,0,0-1.4-2.55c-1.339,1.4-4.647,4.633-4.647,4.633s.409,2.95-.215,4.171a4.706,4.706,0,0,0,.76.246l0-.015c.042.024.088.052.13.075a4.738,4.738,0,0,1,.812,2.567l-.008,1.546,3.5-.805-.01.137,2.622.868s-1.4-3.654-1.658-4.747C81.228,385.34,81.4,385.21,81.678,384.541Z" transform="translate(39.616 26.301)" fill="#ed1f26"/>
    <g id="Group_322" data-name="Group 322" transform="translate(108.492 401.465)">
      <g id="Group_321" data-name="Group 321" transform="translate(0)">
        <path id="Path_675" data-name="Path 675" d="M80.959,377.574c-.5.621-4.892,4.92-4.892,4.92s.417,2.958-.246,4.054-2.653,3.521-2.8,2.534c.075-1.45.1-3.353.1-3.353s-2.234-1.861-2.175-3.907a6.662,6.662,0,0,1,1.626-3.548c1.1-1.181,2.66-2.462,4.484-2.306A7.723,7.723,0,0,1,80.959,377.574Z" transform="translate(-70.944 -375.955)" fill="#ed1f26"/>
      </g>
    </g>
    <path id="Path_676" data-name="Path 676" d="M84.694,422.64c1.655-10.881,3.34-15.446,2.955-23.374l-10.055-1.779a22.954,22.954,0,0,0-1.531,8.871c.546,7.248.621,13.564.386,14.614-3.305,14.656-3.139,23.987-3.134,24.2a5.614,5.614,0,0,0-.113,1.906c.077.615,1.151.982,2.025,1.285.362.129,1.559,1.13,2.195,1.443,2.309,1.141,3.53.6,4.007.378s.687-.877-.282-2c-.83-.965-2.1-1.577-2.373-2.433a1.8,1.8,0,0,1-.034-.189l.051,0S84.108,426.485,84.694,422.64Z" transform="translate(38.948 39.089)" fill="#ed1f26"/>
    <path id="Path_677" data-name="Path 677" d="M83.651,437.307a9.085,9.085,0,0,1-2.759-1.869l.274.732s1.363-11.936,2.275-19.483c.046-.372.318-3.555.579-7.371-.256-.179-.67,2.531-1.282,6.549-.585,3.843-5.394,22.4-5.394,22.4l.051.458c1.849.362,6.306.652,6.306.652S86.774,438.8,83.651,437.307Z" transform="translate(41.584 46.544)" fill="#ed1f26"/>
    <path id="Path_678" data-name="Path 678" d="M83.36,392.457c-1.014-3.775-4.346-6.409-6.082-5.846-1.771.571-1.381,4.99-.646,7.371.02.033.042.06.062.095l-.007-.041C80.537,398.884,83.381,395.308,83.36,392.457Zm-7.909,3.424c-1.37-6.182-.09-10.536,3.468-9.927,3.157.536,4.841,4.09,5.587,6.257.488-.024.76.444,1.205.117-1.283-3.343-3.32-7.041-4.1-6.9-.81.147-5.414-1.057-5.414-1.057-.5,1.321-2.665,3.814-2.369,7.459a34.969,34.969,0,0,0,.672,3.956A.894.894,0,0,0,75.451,395.882Z" transform="translate(39.35 30.817)" fill="#ed1f26"/>
    <path id="Path_679" data-name="Path 679" d="M86.412,373.857a5.278,5.278,0,1,1-5.277-5.28A5.276,5.276,0,0,1,86.412,373.857Z" transform="translate(40.645 20.857)" fill="#ed1f26"/>
    <path id="Path_680" data-name="Path 680" d="M77.131,394.918a5.443,5.443,0,0,0,3.09-.254c1.869-.944,5.407-3.493,6.534-5.46,1.546-2.689,2.025-3.664,2.955-9.213.119-.713-3.348-2.541-3.348-2.541s-2.862,7.723-3.481,8.406-6.291,4.409-7.01,5.468C75.021,392.571,75.043,394.448,77.131,394.918Z" transform="translate(40.323 26.452)" fill="#ed1f26"/>
    <g id="Group_323" data-name="Group 323" transform="translate(125.098 397.704)">
      <path id="Path_681" data-name="Path 681" d="M82.172,381.364c-.041-.078.788-1.94.685-2.06-.938-1.08-.742-1.748-1.345-2.351-.481-.483-.7-1.616.509-.678.567.437.66.127.66.127s.292-.033.585-1.6c.145-.781.876-1.637.9-.481.085-.817.841-.978.877.015.171-.584.651-.466.691.37.119-.315.354-.158.453.321a3.423,3.423,0,0,1,.085,2.333,23.42,23.42,0,0,0,.046,5.184Z" transform="translate(-81.128 -373.649)" fill="#ed1f26"/>
    </g>
    <path id="Path_682" data-name="Path 682" d="M28.669,377.978c0-.788-2.079-1.451-4.951-1.683a7.1,7.1,0,0,0,0,3.366C26.59,379.428,28.669,378.764,28.669,377.978Zm.66,1.595c-.556-.556-2.493.447-4.687,2.309a7.45,7.45,0,0,0,2.379,2.379C28.882,382.068,29.885,380.128,29.329,379.573Zm1.6-3.853c.788,0,1.45-2.079,1.684-4.949a7.11,7.11,0,0,0-3.367,0C29.478,373.641,30.14,375.72,30.926,375.72Zm-1.6.662c.556-.556-.447-2.493-2.307-4.685a7.44,7.44,0,0,0-2.379,2.376C26.834,375.933,28.773,376.938,29.329,376.382Zm1.6,3.853c-.786,0-1.448,2.079-1.683,4.949a7.167,7.167,0,0,0,3.367,0C32.375,382.314,31.713,380.235,30.926,380.235Zm1.6-.662c-.558.556.448,2.495,2.309,4.688a7.445,7.445,0,0,0,2.378-2.379C35.015,380.023,33.078,379.019,32.522,379.573Zm-1.6-14.035a12.439,12.439,0,1,0,12.439,12.44A12.439,12.439,0,0,0,30.926,365.538Zm0,21.156a8.717,8.717,0,1,1,8.716-8.716A8.719,8.719,0,0,1,30.926,386.694Zm3.905-15c-1.862,2.192-2.865,4.13-2.309,4.685s2.493-.448,4.685-2.309A7.43,7.43,0,0,0,34.831,371.7Zm-1.647,6.281c0,.786,2.079,1.45,4.947,1.683a7.1,7.1,0,0,0,0-3.366C35.263,376.529,33.184,377.191,33.184,377.978Z" transform="translate(4.465 18.94)" fill="#ed1f26"/>
    <path id="Path_683" data-name="Path 683" d="M73.75,391.807c0,.916,2.753,6.93,3.057,12.127l10.6,1.53s-1.528-15.186-1.732-16.1-1.154-.137-1.154-.137S83.909,393,81.7,394.049c-2.254,1.075-5.164-1.393-5.572-2.309S73.75,391.807,73.75,391.807Z" transform="translate(39.317 33.682)" fill="#ed1f26"/>
    <path id="Path_684" data-name="Path 684" d="M86.59,377.044a.483.483,0,0,1,.752.533.567.567,0,0,1,.608.765c.341-.111.9.4.789.786a.947.947,0,0,1,.176,1.1c-.233.457-.819,1.127-1.215,1.058s.391-1.277.391-1.277-.455.9-.9.921c0,0-.429.117-.316-.236s.574-1.5.574-1.5-.8,1.327-.956,1.269c-.287-.108-.548-.174.411-2.027-.642,1.143-.846,1.347-1.169,1.205S86.59,377.044,86.59,377.044Z" transform="translate(46.84 26.141)" fill="#ed1f26"/>
    <path id="Path_685" data-name="Path 685" d="M95.494,385.313a3.09,3.09,0,0,0-.46-1.295c-.5-.885-1.958-.881-2.4-.869a2,2,0,0,1-1.19,2.4c0,.044-.1.157-.1.2.028.45-.139.812.822,1.282a3.01,3.01,0,0,0,1.7.393.376.376,0,0,0,.183-.091c.148-.15-.876-.186-1.249-1a.282.282,0,0,1,.011-.124l.013-.044a1.536,1.536,0,0,1,.083-.227l0-.011a2.316,2.316,0,0,1,.471-.669,1.774,1.774,0,0,1,.943-.5c.135-.024,1.153.987,1.169.894A1.153,1.153,0,0,0,95.494,385.313ZM83,372.126a2.819,2.819,0,0,0-1.562,0,1.986,1.986,0,0,0-.4.212,5.127,5.127,0,0,1,1.213.621c.517.435.515,1.066-.082,1.678a1.041,1.041,0,0,1-1.7,0,4.3,4.3,0,0,1-.613-1.107l-.166.192a2.551,2.551,0,0,0-.02,1.828,1.538,1.538,0,0,0,1.743,1.371,1.727,1.727,0,0,1,1.655-.2c.543.375.823-1.308,1.027-1.68a2.429,2.429,0,0,1,.417-.5c-.046-.236-.085-.515-.121-.9A1.525,1.525,0,0,0,83,372.126Zm4.83,6.333c-.1.781-.173,2.1-.207,2.963.543.483,1.445.947,1.919,1.37a14.256,14.256,0,0,1,.662-1.911C89.589,380.241,88.466,379.108,87.835,378.459Z" transform="translate(42.961 23.027)" fill="#ed1f26"/>
  </g>
</svg>
