<svg xmlns="http://www.w3.org/2000/svg" width="123.27" height="87.797" viewBox="0 0 123.27 87.797">
  <g id="Group_325" data-name="Group 325" transform="translate(-229.297 -3216.351)">
    <g id="Layer_3" data-name="Layer 3" transform="translate(229.297 3216.351)">
      <g id="Group_130" data-name="Group 130" transform="translate(0 0)">
        <path id="Path_1" data-name="Path 1" d="M428.021,697.087h-4.261a5.173,5.173,0,0,1-5.817-5.86c0-4.307-.777-3.908-3.885-3.908h-54.68c-3.108,0-3.108,0-3.485,3.13,0,4.685-1.927,6.238-6.66,6.238h-8.88a4.929,4.929,0,0,1-5.44-5.46v-9.768c-.377-.377-.377-1.555-1.155-2.219a21.889,21.889,0,0,1-2.218-26.157c1.177-1.575,1.177-2.353-1.155-2.353a3.573,3.573,0,0,1-3.872-3.248q-.011-.13-.013-.26c-.377-2.73-1.155-5.083-1.555-7.815s.777-3.885,3.108-3.885h8.88a3.485,3.485,0,0,0,3.863-2.753,54.879,54.879,0,0,1,6.66-12.475c2.708-3.907,6.97-5.46,11.232-7.037a82.647,82.647,0,0,1,18.951-3.618,109.861,109.861,0,0,1,33.744,2.73,26.2,26.2,0,0,1,19,16.405,6.333,6.333,0,0,1,.777,1.927c.777,3.907,3.485,5.083,6.993,4.685a38.453,38.453,0,0,1,6.66,0c2.708,0,3.862,1.575,3.085,3.907a44.4,44.4,0,0,1-1.532,7.037c-.777,3.108-1.555,3.907-4.657,3.907-1.555,0-1.927.378-1.155,1.953a21.334,21.334,0,0,1-1.953,26.928,4.218,4.218,0,0,0-.777,3.13v8.9a5.15,5.15,0,0,1-5.817,5.86Z" transform="translate(-324.87 -609.338)" fill="#21B7AC"/>
        <path id="Path_2" data-name="Path 2" d="M660.964,750.889H624.89c-1.927,0-2.22-.377-1.555-2.33a78.569,78.569,0,0,1,3.885-8.3,12.609,12.609,0,0,1,7.748-7.015,68.989,68.989,0,0,1,17.472-3.508,92.266,92.266,0,0,1,31.08,2.22,16.672,16.672,0,0,1,12.81,10.921c.777,1.953,1.555,3.533,2.219,5.083,1.154,2.73.777,2.73-1.555,2.73Z" transform="translate(-599.305 -719.749)" fill="#fff"/>
        <path id="Path_3" data-name="Path 3" d="M626.121,1177.661a11.744,11.744,0,0,1-19.447.666,1.82,1.82,0,0,0-1.465-.732H560.34a2.442,2.442,0,0,0-1.976.954,11.986,11.986,0,1,1,.222-14.454,2.569,2.569,0,0,0,2.043,1.022h44.6a1.776,1.776,0,0,0,1.445-.755,11.743,11.743,0,0,1,19.447.667.71.71,0,0,1-.577,1.087h-6.66a5.239,5.239,0,0,0,0,10.457h6.66a.689.689,0,0,1,.577,1.087Z" transform="translate(-520.063 -1115.463)" fill="#fff"/>
        <path id="Path_4" data-name="Path 4" d="M628.6,1255.234a5.151,5.151,0,1,1,5.15-5.151,5.15,5.15,0,0,1-5.15,5.151Z" transform="translate(-599.707 -1194.39)" fill="#21B7AC"/>
      </g>
    </g>
  </g>
</svg>
