<svg xmlns="http://www.w3.org/2000/svg" width="145.6" height="121.972" viewBox="0 0 145.6 121.972"><defs><style>.a{fill:#fff;}.b{fill:gray;}.c{fill:#ff2844;}.d{fill:#ffc700;}.e{fill:#39b54a;}.f{fill:#e2e2e2;}.g{fill:#b3b3b3;}.h{fill:#19c9c1;}.i{fill:#999;}.j{fill:#29abe2;}</style></defs><g transform="translate(-481.2 -1746.027)"><g transform="translate(481.2 1746.027)"><g transform="translate(0 0)"><path class="a" d="M1345.286,275.5H1212.738a6.56,6.56,0,0,0-6.526,6.593V390.876a6.559,6.559,0,0,0,6.526,6.593h132.548a6.559,6.559,0,0,0,6.526-6.593V282.09A6.56,6.56,0,0,0,1345.286,275.5Z" transform="translate(-1206.212 -275.497)"/><path class="b" d="M1351.812,295.476V279.782a4.516,4.516,0,0,0-4.716-4.285H1210.928a4.516,4.516,0,0,0-4.716,4.285v15.693Z" transform="translate(-1206.212 -275.497)"/><g transform="translate(6.371 5.298)"><circle class="c" cx="3.9" cy="3.9" r="3.9" transform="matrix(0.973, -0.23, 0.23, 0.973, 0, 1.792)"/><circle class="d" cx="3.9" cy="3.9" r="3.9" transform="matrix(0.973, -0.23, 0.23, 0.973, 10.314, 1.792)"/><circle class="e" cx="3.9" cy="3.9" r="3.9" transform="translate(20.845 1.467) rotate(-9.217)"/></g></g></g><g transform="translate(511.106 1801.186)"><rect class="f" width="85.788" height="13.683" transform="translate(0)"/><g transform="translate(5.741 4.475)"><path class="g" d="M1339.312,471.035v-2.728h.591v2.745c0,1.117.472,1.468,1.079,1.468s1.1-.351,1.1-1.468v-2.745h.567v2.728c0,1.491-.72,2-1.669,2S1339.312,472.527,1339.312,471.035Z" transform="translate(-1339.312 -468.307)"/><path class="g" d="M1350.784,474.558l.288-.384a1.552,1.552,0,0,0,1.016.408c.452,0,.676-.241.676-.535,0-.354-.406-.511-.787-.652-.482-.177-1.027-.414-1.027-.994,0-.551.441-.977,1.187-.977a1.748,1.748,0,0,1,1.071.386l-.279.374a1.3,1.3,0,0,0-.785-.306c-.434,0-.634.231-.634.494,0,.327.374.452.764.6.5.187,1.05.389,1.05,1.044,0,.558-.444,1.023-1.256,1.023A2.066,2.066,0,0,1,1350.784,474.558Z" transform="translate(-1346.66 -470.304)"/><path class="g" d="M1359.388,473.234a1.66,1.66,0,0,1,1.547-1.81c.878,0,1.374.63,1.374,1.615a1.822,1.822,0,0,1-.027.331h-2.318a1.144,1.144,0,0,0,1.144,1.2,1.506,1.506,0,0,0,.857-.275l.208.382a2.023,2.023,0,0,1-1.137.357A1.646,1.646,0,0,1,1359.388,473.234Zm2.406-.281c0-.69-.31-1.065-.849-1.065a1.056,1.056,0,0,0-.987,1.065Z" transform="translate(-1352.171 -470.304)"/><path class="g" d="M1369.86,471.509h.481l.049.627h.019a1.184,1.184,0,0,1,.979-.712.8.8,0,0,1,.367.07l-.109.511a.961.961,0,0,0-.334-.057c-.291,0-.638.21-.871.792v2.21h-.582Z" transform="translate(-1358.879 -470.304)"/><path class="g" d="M1376.7,471.509h.481l.049.5h.019a1.642,1.642,0,0,1,1.155-.581c.725,0,1.051.468,1.051,1.346v2.181h-.583v-2.106c0-.641-.194-.915-.65-.915a1.305,1.305,0,0,0-.941.529v2.493h-.582Z" transform="translate(-1363.258 -470.304)"/><path class="g" d="M1386.867,474.057c0-.75.647-1.124,2.114-1.284,0-.443-.148-.87-.71-.87a1.9,1.9,0,0,0-1.027.369l-.228-.4a2.525,2.525,0,0,1,1.352-.449c.84,0,1.2.558,1.2,1.415v2.112h-.481l-.049-.412h-.019a1.83,1.83,0,0,1-1.139.5A.936.936,0,0,1,1386.867,474.057Zm2.114.054v-.956c-1.154.139-1.543.421-1.543.861,0,.391.265.55.6.55A1.417,1.417,0,0,0,1388.981,474.111Z" transform="translate(-1369.772 -470.304)"/><path class="g" d="M1397.392,471.509h.481l.049.5h.02a1.529,1.529,0,0,1,1.071-.584.908.908,0,0,1,.951.656,1.625,1.625,0,0,1,1.135-.656c.708,0,1.047.468,1.047,1.346v2.181h-.582v-2.106c0-.641-.2-.915-.641-.915a1.258,1.258,0,0,0-.863.529v2.493h-.582v-2.106c0-.641-.2-.915-.641-.915a1.275,1.275,0,0,0-.862.529v2.493h-.583Z" transform="translate(-1376.514 -470.304)"/><path class="g" d="M1413,473.234a1.659,1.659,0,0,1,1.547-1.81c.878,0,1.374.63,1.374,1.615a1.837,1.837,0,0,1-.027.331h-2.318a1.144,1.144,0,0,0,1.144,1.2,1.507,1.507,0,0,0,.857-.275l.208.382a2.024,2.024,0,0,1-1.137.357A1.646,1.646,0,0,1,1413,473.234Zm2.406-.281c0-.69-.31-1.065-.849-1.065a1.056,1.056,0,0,0-.987,1.065Z" transform="translate(-1386.511 -470.304)"/></g></g><g transform="translate(511.106 1817.496)"><rect class="f" width="85.788" height="13.683" transform="translate(0)"/><g transform="translate(5.741 4.276)"><path class="g" d="M1339.312,522.2h1.327c1.042,0,1.744.35,1.744,1.369,0,.978-.7,1.435-1.716,1.435h-.764v1.844h-.591Zm1.281,2.324c.813,0,1.2-.295,1.2-.956s-.412-.889-1.229-.889h-.661v1.845Z" transform="translate(-1339.312 -521.799)"/><path class="g" d="M1348.872,527.948c0-.75.647-1.125,2.114-1.284,0-.443-.149-.87-.711-.87a1.9,1.9,0,0,0-1.027.369l-.228-.4a2.527,2.527,0,0,1,1.352-.449c.84,0,1.2.558,1.2,1.415v2.112h-.481l-.049-.412h-.019a1.83,1.83,0,0,1-1.139.5A.936.936,0,0,1,1348.872,527.948Zm2.114.054v-.956c-1.154.139-1.544.421-1.544.861,0,.391.265.55.6.55A1.416,1.416,0,0,0,1350.986,528Z" transform="translate(-1345.435 -523.796)"/><path class="g" d="M1358.335,528.448l.288-.384a1.551,1.551,0,0,0,1.016.408c.452,0,.676-.241.676-.535,0-.354-.406-.511-.787-.652-.482-.176-1.027-.414-1.027-.994,0-.551.442-.977,1.187-.977a1.745,1.745,0,0,1,1.071.387l-.279.373a1.3,1.3,0,0,0-.785-.306c-.433,0-.634.231-.634.494,0,.327.374.452.764.6.5.187,1.05.389,1.05,1.044,0,.559-.443,1.024-1.256,1.024A2.067,2.067,0,0,1,1358.335,528.448Z" transform="translate(-1351.497 -523.796)"/><path class="g" d="M1366.589,528.448l.288-.384a1.55,1.55,0,0,0,1.016.408c.452,0,.677-.241.677-.535,0-.354-.407-.511-.787-.652-.482-.176-1.027-.414-1.027-.994,0-.551.441-.977,1.187-.977a1.744,1.744,0,0,1,1.07.387l-.279.373a1.3,1.3,0,0,0-.785-.306c-.434,0-.633.231-.633.494,0,.327.374.452.764.6.5.187,1.05.389,1.05,1.044,0,.559-.444,1.024-1.256,1.024A2.066,2.066,0,0,1,1366.589,528.448Z" transform="translate(-1356.784 -523.796)"/><path class="g" d="M1374.761,525.55h.6l.511,1.989c.074.327.138.637.2.96h.028c.074-.323.149-.638.234-.96l.532-1.989h.568l.537,1.989c.085.327.16.637.24.96h.028c.074-.323.139-.633.213-.96l.5-1.989h.555l-.924,3.442h-.709l-.5-1.85c-.083-.326-.149-.643-.233-.991h-.028c-.074.349-.144.675-.236,1l-.482,1.841h-.681Z" transform="translate(-1362.018 -523.947)"/><path class="g" d="M1389.259,527.124a1.607,1.607,0,1,1,1.595,1.8A1.646,1.646,0,0,1,1389.259,527.124Zm2.588,0c0-.789-.4-1.325-.993-1.325s-.993.537-.993,1.325.4,1.317.993,1.317S1391.847,527.913,1391.847,527.124Z" transform="translate(-1371.304 -523.796)"/><path class="g" d="M1400.649,525.4h.481l.049.627h.019a1.185,1.185,0,0,1,.979-.712.8.8,0,0,1,.367.071l-.109.511a.97.97,0,0,0-.334-.056c-.29,0-.638.209-.87.792v2.21h-.583Z" transform="translate(-1378.6 -523.796)"/><path class="g" d="M1406.607,524.419a1.626,1.626,0,0,1,1.489-1.81,1.411,1.411,0,0,1,.965.4l-.025-.59v-1.326h.583v5.045h-.481l-.049-.406h-.019a1.525,1.525,0,0,1-1.044.491C1407.165,526.221,1406.607,525.567,1406.607,524.419Zm2.429.842v-1.8a1.212,1.212,0,0,0-.839-.358c-.551,0-.988.531-.988,1.315,0,.825.342,1.317.945,1.317A1.189,1.189,0,0,0,1409.036,525.261Z" transform="translate(-1382.416 -521.091)"/></g></g><rect class="h" width="48.366" height="12.972" rx="2" transform="translate(529.643 1847)"/><g transform="translate(534.172 1764.373)"><circle class="f" cx="15.175" cy="15.175" r="15.175" transform="translate(0 11.615) rotate(-22.5)"/><path class="g" d="M1427.883,379.739a7.183,7.183,0,1,0-8.279.03c-3.517,1.263-6.053,4.073-6.415,7.412a15.164,15.164,0,0,0,21.193,0C1434.017,383.816,1431.444,380.988,1427.883,379.739Z" transform="translate(-1403.958 -356.495)"/></g><g transform="translate(511.106 1833.797)"><g transform="translate(5.258 0)"><path class="i" d="M1337.97,560.084h1.069c.695,0,1.194.25,1.194.961,0,.682-.5,1.01-1.194,1.01h-.635V563.5h-.434Zm1.007,1.618c.531,0,.823-.215.823-.658s-.292-.608-.823-.608h-.572V561.7Zm-.023.233.34-.225,1.041,1.786h-.492Z" transform="translate(-1337.97 -559.792)"/><path class="i" d="M1345.424,563.7a1.219,1.219,0,0,1,1.136-1.329c.645,0,1.009.463,1.009,1.186a1.365,1.365,0,0,1-.02.243h-1.7a.84.84,0,0,0,.84.883,1.106,1.106,0,0,0,.629-.2l.153.28a1.483,1.483,0,0,1-.835.262A1.209,1.209,0,0,1,1345.424,563.7Zm1.767-.207c0-.507-.228-.782-.623-.782a.775.775,0,0,0-.725.782Z" transform="translate(-1342.744 -561.258)"/><path class="i" d="M1353.114,562.435h.353l.036.367h.014a1.122,1.122,0,0,1,.786-.429.667.667,0,0,1,.7.482,1.194,1.194,0,0,1,.834-.482c.519,0,.769.344.769.989v1.6h-.428v-1.546c0-.471-.149-.672-.47-.672a.925.925,0,0,0-.633.388v1.83h-.428v-1.546c0-.471-.149-.672-.47-.672a.938.938,0,0,0-.634.388v1.83h-.427Z" transform="translate(-1347.67 -561.258)"/><path class="i" d="M1364.575,563.7a1.219,1.219,0,0,1,1.136-1.329c.645,0,1.009.463,1.009,1.186a1.332,1.332,0,0,1-.02.243H1365a.84.84,0,0,0,.84.883,1.106,1.106,0,0,0,.629-.2l.153.28a1.482,1.482,0,0,1-.835.262A1.209,1.209,0,0,1,1364.575,563.7Zm1.767-.207c0-.507-.228-.782-.623-.782a.775.775,0,0,0-.725.782Z" transform="translate(-1355.011 -561.258)"/><path class="i" d="M1372.264,562.435h.353l.036.367h.014a1.124,1.124,0,0,1,.787-.429.667.667,0,0,1,.7.482,1.194,1.194,0,0,1,.834-.482c.519,0,.769.344.769.989v1.6h-.428v-1.546c0-.471-.149-.672-.47-.672a.924.924,0,0,0-.633.388v1.83h-.428v-1.546c0-.471-.149-.672-.47-.672a.938.938,0,0,0-.634.388v1.83h-.428Z" transform="translate(-1359.936 -561.258)"/><path class="i" d="M1384.644,562.716h-.014l-.04.261h-.342v-3.7h.428v1.013l-.014.453a1.278,1.278,0,0,1,.794-.352c.653,0,1,.507,1,1.286,0,.863-.517,1.366-1.095,1.366A1.13,1.13,0,0,1,1384.644,562.716Zm1.374-1.037c0-.558-.191-.932-.666-.932a1.027,1.027,0,0,0-.676.345v1.325a.971.971,0,0,0,.615.263C1385.71,562.679,1386.018,562.3,1386.018,561.679Z" transform="translate(-1367.612 -559.272)"/><path class="i" d="M1391.728,563.7a1.219,1.219,0,0,1,1.136-1.329c.645,0,1.009.463,1.009,1.186a1.332,1.332,0,0,1-.02.243h-1.7a.84.84,0,0,0,.84.883,1.106,1.106,0,0,0,.629-.2l.153.28a1.483,1.483,0,0,1-.834.262A1.209,1.209,0,0,1,1391.728,563.7Zm1.767-.207c0-.507-.228-.782-.623-.782a.775.775,0,0,0-.725.782Z" transform="translate(-1372.403 -561.258)"/><path class="i" d="M1399.418,562.435h.353l.036.461h.014a.87.87,0,0,1,.719-.523.586.586,0,0,1,.27.052l-.08.375a.707.707,0,0,0-.245-.041c-.214,0-.468.154-.639.581v1.623h-.428Z" transform="translate(-1377.329 -561.258)"/><path class="i" d="M1407.33,562.435h.353l.036.367h.014a1.123,1.123,0,0,1,.787-.429.667.667,0,0,1,.7.482,1.2,1.2,0,0,1,.834-.482c.519,0,.769.344.769.989v1.6h-.427v-1.546c0-.471-.149-.672-.47-.672a.925.925,0,0,0-.633.388v1.83h-.428v-1.546c0-.471-.149-.672-.47-.672a.938.938,0,0,0-.633.388v1.83h-.428Z" transform="translate(-1382.397 -561.258)"/><path class="i" d="M1418.791,563.7a1.219,1.219,0,0,1,1.136-1.329c.645,0,1.009.463,1.009,1.186a1.332,1.332,0,0,1-.02.243h-1.7a.84.84,0,0,0,.839.883,1.106,1.106,0,0,0,.629-.2l.153.28a1.483,1.483,0,0,1-.835.262A1.209,1.209,0,0,1,1418.791,563.7Zm1.767-.207c0-.507-.228-.782-.623-.782a.775.775,0,0,0-.725.782Z" transform="translate(-1389.738 -561.258)"/></g><g transform="translate(48.284 0)"><path class="j" d="M1457.659,560.084h1.968v.368h-1.534V561.6h1.3v.367h-1.3V563.5h-.434Z" transform="translate(-1457.659 -559.792)"/><path class="j" d="M1463.969,563.7a1.18,1.18,0,1,1,1.171,1.323A1.209,1.209,0,0,1,1463.969,563.7Zm1.9,0c0-.579-.294-.973-.729-.973s-.729.394-.729.973.294.967.729.967S1465.87,564.282,1465.87,563.7Z" transform="translate(-1461.701 -561.258)"/><path class="j" d="M1472.332,562.435h.353l.036.461h.014a.87.87,0,0,1,.719-.523.588.588,0,0,1,.27.052l-.08.375a.708.708,0,0,0-.245-.041c-.214,0-.469.154-.64.581v1.623h-.428Z" transform="translate(-1467.057 -561.258)"/><path class="j" d="M1476.675,565.449a.71.71,0,0,1,.371-.572v-.021a.467.467,0,0,1-.226-.414.606.606,0,0,1,.278-.469v-.021a.88.88,0,0,1-.328-.679.9.9,0,0,1,.948-.9,1.035,1.035,0,0,1,.357.062h.881v.33h-.519a.73.73,0,0,1,.206.52.864.864,0,0,1-.926.876.9.9,0,0,1-.376-.086.37.37,0,0,0-.161.3c0,.161.1.274.443.274h.492c.588,0,.883.185.883.6,0,.469-.5.874-1.278.874C1477.1,566.126,1476.675,565.884,1476.675,565.449Zm1.9-.132c0-.234-.177-.314-.509-.314h-.436a1.443,1.443,0,0,1-.329-.037.527.527,0,0,0-.258.424c0,.272.274.443.733.443C1478.263,565.832,1478.58,565.58,1478.58,565.316Zm-.324-2.043a.54.54,0,1,0-1.074,0,.541.541,0,1,0,1.074,0Z" transform="translate(-1469.839 -561.258)"/><path class="j" d="M1483.776,563.7a1.18,1.18,0,1,1,1.171,1.323A1.209,1.209,0,0,1,1483.776,563.7Zm1.9,0c0-.579-.294-.973-.729-.973s-.729.394-.729.973.295.967.729.967S1485.677,564.282,1485.677,563.7Z" transform="translate(-1474.388 -561.258)"/><path class="j" d="M1491.431,563.03v-1.4h-.376v-.324l.4-.025.051-.709h.357v.709h.685v.349h-.685v1.405c0,.309.1.488.391.488a.845.845,0,0,0,.288-.068l.083.323a1.52,1.52,0,0,1-.469.094C1491.613,563.874,1491.431,563.533,1491.431,563.03Z" transform="translate(-1479.05 -560.107)"/><path class="j" d="M1499.784,560.084h.974c.765,0,1.281.257,1.281,1.005,0,.718-.513,1.054-1.26,1.054h-.561V563.5h-.434Zm.94,1.707c.6,0,.882-.216.882-.7s-.3-.653-.9-.653h-.485v1.354Z" transform="translate(-1484.641 -559.792)"/><path class="j" d="M1506.8,564.307c0-.551.475-.826,1.552-.943,0-.325-.109-.638-.522-.638a1.391,1.391,0,0,0-.754.271l-.167-.293a1.852,1.852,0,0,1,.993-.33c.617,0,.878.41.878,1.04v1.55h-.353l-.036-.3h-.014a1.342,1.342,0,0,1-.836.365A.687.687,0,0,1,1506.8,564.307Zm1.552.039v-.7c-.847.1-1.133.309-1.133.632,0,.287.2.4.443.4A1.038,1.038,0,0,0,1508.355,564.346Z" transform="translate(-1489.137 -561.258)"/><path class="j" d="M1513.751,564.675l.211-.282a1.14,1.14,0,0,0,.746.3c.332,0,.5-.177.5-.393,0-.26-.3-.375-.578-.479-.354-.129-.754-.3-.754-.73,0-.4.324-.718.872-.718a1.279,1.279,0,0,1,.785.284l-.2.274a.952.952,0,0,0-.576-.225c-.318,0-.465.17-.465.363,0,.24.275.331.561.438.365.137.771.286.771.767,0,.41-.326.752-.922.752A1.518,1.518,0,0,1,1513.751,564.675Z" transform="translate(-1493.587 -561.258)"/><path class="j" d="M1519.812,564.675l.211-.282a1.138,1.138,0,0,0,.746.3c.332,0,.5-.177.5-.393,0-.26-.3-.375-.578-.479-.354-.129-.753-.3-.753-.73,0-.4.324-.718.872-.718a1.28,1.28,0,0,1,.786.284l-.2.274a.952.952,0,0,0-.577-.225c-.319,0-.466.17-.466.363,0,.24.275.331.561.438.364.137.771.286.771.767,0,.41-.326.752-.922.752A1.518,1.518,0,0,1,1519.812,564.675Z" transform="translate(-1497.469 -561.258)"/><path class="j" d="M1525.814,562.546h.437l.375,1.46c.055.24.1.468.15.7h.021c.055-.237.11-.468.172-.7l.39-1.46h.417l.394,1.46c.063.24.117.468.176.7h.021c.055-.237.1-.464.157-.7l.368-1.46h.408l-.678,2.528h-.521l-.365-1.358c-.062-.239-.11-.472-.171-.728h-.021c-.055.256-.106.5-.173.735l-.354,1.352h-.5Z" transform="translate(-1501.314 -561.369)"/><path class="j" d="M1536.459,563.7a1.18,1.18,0,1,1,1.171,1.323A1.209,1.209,0,0,1,1536.459,563.7Zm1.9,0c0-.579-.294-.973-.729-.973s-.729.394-.729.973.294.967.729.967S1538.36,564.282,1538.36,563.7Z" transform="translate(-1508.132 -561.258)"/><path class="j" d="M1544.823,562.435h.353l.036.461h.014a.87.87,0,0,1,.719-.523.59.59,0,0,1,.27.052l-.08.375a.706.706,0,0,0-.245-.041c-.214,0-.468.154-.64.581v1.623h-.427Z" transform="translate(-1513.49 -561.258)"/><path class="j" d="M1549.2,561.716a1.194,1.194,0,0,1,1.094-1.329,1.038,1.038,0,0,1,.708.293l-.018-.434v-.974h.427v3.7h-.353l-.036-.3h-.014a1.119,1.119,0,0,1-.767.361C1549.607,563.039,1549.2,562.559,1549.2,561.716Zm1.784.618v-1.325a.893.893,0,0,0-.617-.263c-.4,0-.725.39-.725.966,0,.606.25.967.694.967A.874.874,0,0,0,1550.982,562.334Z" transform="translate(-1516.292 -559.272)"/><path class="j" d="M1558.43,560.572a.469.469,0,0,0-.5-.5.8.8,0,0,0-.6.3l-.246-.224a1.182,1.182,0,0,1,.892-.43.8.8,0,0,1,.872.83c0,.683-.838.958-.753,1.685h-.379C1557.606,561.42,1558.43,561.122,1558.43,560.572Zm-.823,2.426a.31.31,0,1,1,.31.324A.313.313,0,0,1,1557.607,563Z" transform="translate(-1521.344 -559.554)"/></g><g transform="translate(0 0.292)"><path class="i" d="M1326.756,563.5h-3.413v-3.413h3.413Zm-3.074-.338h2.736v-2.736h-2.736Z" transform="translate(-1323.343 -560.084)"/></g></g></g></svg>