<svg xmlns="http://www.w3.org/2000/svg" width="85.732" height="128.923" viewBox="0 0 85.732 128.923">
  <g id="Group_519" data-name="Group 519" transform="translate(-652.364 -88.016)">
    <path id="Path_835" data-name="Path 835" d="M655.016,113.907a4.259,4.259,0,0,0,.5.9,5.638,5.638,0,0,0,1.084,1.146c.1.075.215.131.315.2a9.2,9.2,0,0,0,2.07,1.084l40.852-16.02.588-.23.587-.231,11.379-4.462v4.913l-11.379,3.916-.587.2-.588.2-36.594,12.6a26.849,26.849,0,0,0,6.662-.427c.66-.118,1.326-.246,2.006-.411,2.519-.609,7.371-1.7,13.4-3.025l14.528-5,.588-.2.587-.2,11.379-3.916,1.766-.608,1.764-.609,8.238-2.835v4.966q.9-.19,1.767-.378l1.764-.378v-9.16L715.919,99.99V91.117L701.01,96.962V88.016l-46.267,24.7a3.712,3.712,0,0,0,.078.624A3.821,3.821,0,0,0,655.016,113.907Z" fill="#21b7ac"/>
    <path id="Path_836" data-name="Path 836" d="M738.1,106.485l-10.408,2.224-1.764.379-1.767.377-8.238,1.769-1.764.381-1.766.379c-3.773.813-7.619,1.642-11.379,2.457l-.587.128-.588.127c-11.987,2.6-22.86,4.989-27.1,6.012-.338.081-.666.143-1,.215-.2.041-.393.086-.588.125-.58.115-1.15.212-1.719.3-.447.067-.892.127-1.33.175a29.915,29.915,0,0,1-3.267.2c-.377,0-.742-.018-1.11-.034a21.194,21.194,0,0,1-3.916-.519,15.629,15.629,0,0,1-2.771-.913c-.4-.175-.776-.363-1.139-.568-.34-.191-.66-.4-.971-.609-.068-.049-.138-.1-.207-.146-.1-.073-.2-.138-.3-.213-.028-.021-.049-.044-.075-.065-.072-.059-.14-.122-.21-.183-.127-.107-.254-.213-.374-.324-.074-.07-.144-.143-.214-.214a8.665,8.665,0,0,1-1.178-1.464V212.4s4.557,4.542,13.213,4.542a33.11,33.11,0,0,0,5.672-.526l.5-.088L738.1,201.709Z" fill="#21b7ac"/>
  </g>
</svg>
