<?xml version="1.0" encoding="utf-8"?>
<!-- Generator: Adobe Illustrator 25.2.1, SVG Export Plug-In . SVG Version: 6.00 Build 0)  -->
<svg version="1.1" id="Layer_1" xmlns="http://www.w3.org/2000/svg" xmlns:xlink="http://www.w3.org/1999/xlink" x="0px" y="0px"
	 viewBox="0 0 193 93.5" style="enable-background:new 0 0 193 93.5;" xml:space="preserve">
<style type="text/css">
	.st0{fill:#4D4D4D;}
	.st1{fill:url(#SVGID_1_);}
	.st2{fill:url(#SVGID_2_);}
	.st3{fill:url(#SVGID_3_);}
	.st4{fill:#828282;}
	.st5{fill:url(#SVGID_4_);}
	.st6{fill:url(#SVGID_5_);}
	.st7{fill:#252525;}
	.st8{fill:url(#SVGID_6_);}
	.st9{fill:#616161;}
	.st10{fill:url(#SVGID_7_);}
	.st11{fill:url(#SVGID_8_);}
</style>
<g transform="translate(2922.366 56.635)">
	<path d="M-2745,22.8c-4.6-3.2-10.1-4.9-15.7-5.1c-5.5-0.3-10.9,1.4-15.2,4.7c0,0-23.8-7-49-6.7c-15.5,0.2-30.8,2.1-45.9,5.7
		c-4.9-2.6-10.3-4.3-15.8-4.7c-5.6-0.2-11.2,1-16.1,3.6c0,0-16.6-21.2-2.2-32.2c16.7-12.6,123.7-10.1,150.1,1.9
		C-2732.2,0.2-2745,22.8-2745,22.8z"/>
	<path d="M-2759.7-15.7c-12.6-12.7-24.7-22.8-24.7-22.8s-8.9,9.3,4.6,20.2C-2766.4-7.4-2759.7-15.7-2759.7-15.7z"/>
	<path class="st0" d="M-2915.3,8.1c0.4-1.2,2.6-2.5,2.6-2.5s-1-15.3-0.3-21.7c0.7-6.4,8-27,9.2-29.8c1.2-2.8,2.2-3.6,6.1-3.8
		c3.8-0.1,97.7,1.1,100.5,1.2c2.9,0.1,3.6,0.4,5.3,1.9s9.4,8.7,9.4,9.4s-2.7,1.3-2.7,1.3s3.5,3.6,9.5,9.7c6.7,6.7,9.8,10.4,12,10.9
		c1.3,0.3,2.6,0.2,3.8-0.4c0,0,10.1,4.5,16,8.9c1.5,1.2,2.6,2.8,3,4.6c0.6,1.8,1.6,5.6,1.6,5.6c1,0.6,1.9,1.5,2.6,2.5
		c0.6,1.4,0.3,9.9-0.2,11.1c-0.9,1.8-2.3,3.2-4,4.3c-1.4,0.7-2.8,1.2-4.3,1.6c0,0,1.6-9.3-4.2-15.4c-5.8-6.1-16.9-6.6-22.7-0.3
		c-5.8,6.3-4.1,15.4-4.1,15.4s-24.8-0.7-51.8-1c-27-0.3-43.1,0-43.1,0s1.4-9.1-4.7-14.9s-16.9-5.3-22.4,0.2
		c-5.5,5.5-4.8,13.5-4.8,13.5s-8.3-1-10.4-2.7C-2914.7,16.4-2915.7,9.5-2915.3,8.1z"/>
	
		<linearGradient id="SVGID_1_" gradientUnits="userSpaceOnUse" x1="-3779.1731" y1="527.2386" x2="-3779.1731" y2="526.3807" gradientTransform="matrix(176.6536 0 0 -31.047 664778.8125 16352.7471)">
		<stop  offset="0" style="stop-color:#AAAAAA"/>
		<stop  offset="1" style="stop-color:#4D4D4D"/>
	</linearGradient>
	<path class="st1" d="M-2737.4,6.2c-0.3-1.3-3.1-2.1-3.1-2.1s-1.4-6.7-3.4-8.7c-2.1-2.1-15-6.7-29.1-8.8c0,0-18.4-0.9-57.5-1.7
		c-39-0.8-71.7-0.9-75.7-0.7c-4,0.2-5.2,1.3-5.2,5.4c0,4,0.7,16.7,0.7,16.7s-3.4,1.5-3.3,3.2c0.1,1.6,8.5,5.8,8.5,5.8
		s1.4-8,7.1-12.3c5.8-4.2,14.6-5.1,21-2c3.8,1.9,6.9,5,8.8,8.8c0,0,11.5-5.9,39.1-5.5c17.1,0.4,34,2.7,50.6,7c0,0,2.6-6.8,9-9.8
		c6.3-3,15.6-2.1,21,2.2c3.2,2.5,5.4,6.1,6.2,10.1C-2742.9,13.6-2737.1,7.5-2737.4,6.2z"/>
	
		<linearGradient id="SVGID_2_" gradientUnits="userSpaceOnUse" x1="-3778.3794" y1="503.1312" x2="-3777.3794" y2="503.1312" gradientTransform="matrix(138.477 0 0 -11.1069 520317.0938 5579.063)">
		<stop  offset="0" style="stop-color:#9D9D9D"/>
		<stop  offset="0.109" style="stop-color:#B3B3B3"/>
		<stop  offset="0.242" style="stop-color:#C8C8C8"/>
		<stop  offset="0.373" style="stop-color:#D4D4D4"/>
		<stop  offset="0.5" style="stop-color:#D9D9D9"/>
		<stop  offset="0.627" style="stop-color:#D4D4D4"/>
		<stop  offset="0.758" style="stop-color:#C8C8C8"/>
		<stop  offset="0.891" style="stop-color:#B3B3B3"/>
		<stop  offset="1" style="stop-color:#9D9D9D"/>
	</linearGradient>
	<path class="st2" d="M-2901.7-12.5c-0.2,2.8,20.9,7.2,52.2,8.6c31.3,1.4,86.3-2.4,86.3-4.4s-17-3.8-58.7-5.4
		C-2863.6-15.2-2901.4-15.3-2901.7-12.5z"/>
	
		<linearGradient id="SVGID_3_" gradientUnits="userSpaceOnUse" x1="-3774.4958" y1="506.3296" x2="-3773.4958" y2="506.3296" gradientTransform="matrix(83.991 0 0 -12.1663 314159.5 6173.5527)">
		<stop  offset="0" style="stop-color:#4D4D4D"/>
		<stop  offset="3.600000e-02" style="stop-color:#4A4A4A"/>
		<stop  offset="0.364" style="stop-color:#353535"/>
		<stop  offset="0.688" style="stop-color:#292929"/>
		<stop  offset="1" style="stop-color:#252525"/>
	</linearGradient>
	<path class="st3" d="M-2864.3,15.7c0,2.9,20.9,3.2,42.4,3.5s41.6,1.2,41.6-1.7s-28.4-9.9-49.9-10.1S-2864.3,12.8-2864.3,15.7z"/>
	<path class="st4" d="M-2813.6-10.4c0,0.9,2.6,1.2,6,1.2c3.3,0.1,6.1-0.1,6.1-1c0-0.9-2.7-1.6-6-1.7S-2813.6-11.3-2813.6-10.4z"/>
	<path class="st4" d="M-2860.5-11.4c0,0.9,2.6,1.2,6,1.2c3.3,0.1,6.1-0.1,6.1-1c0-0.9-2.7-1.6-6-1.7S-2860.4-12.3-2860.5-11.4z"/>
	<path d="M-2842.3-36.7c19.4,0.1,41.6,0.8,45.7,1.2c3.4,0.3,4.2,0.7,6.4,2.6c4,3.5,15.2,17.8,15.2,17.8s-35.7-1.1-65.9-1.7
		c-20.3-0.4-27.6-0.4-27.6-0.4s1.7-10.9,3.4-19.4C-2865.1-36.6-2859.5-36.8-2842.3-36.7z"/>
	
		<linearGradient id="SVGID_4_" gradientUnits="userSpaceOnUse" x1="-3775.4512" y1="506.7881" x2="-3774.0422" y2="506.7881" gradientTransform="matrix(88.951 0 0 -12.3349 332927.0938 6228.6841)">
		<stop  offset="0" style="stop-color:#393939"/>
		<stop  offset="0.26" style="stop-color:#343434"/>
		<stop  offset="0.53" style="stop-color:#282828"/>
		<stop  offset="0.803" style="stop-color:#131313"/>
		<stop  offset="1" style="stop-color:#000000"/>
	</linearGradient>
	<path class="st5" d="M-2816.9-27.3c18.3,2.2,38.8,11,38.8,11s-34-1.1-62.7-1.6c-19.3-0.4-26.3-0.4-26.3-0.4s0.7-4.5,1.6-9.8
		C-2865.4-28.1-2837.6-29.8-2816.9-27.3z"/>
	<path d="M-2904.1-17.7c0,0,2-11.9,3.8-15.8c0.9-2,1.8-2.4,3.9-2.6c3.6-0.3,14.4-0.6,21.6-0.2c-2,8.2-3.6,18.9-3.6,18.9
		L-2904.1-17.7z"/>
	
		<linearGradient id="SVGID_5_" gradientUnits="userSpaceOnUse" x1="-3751.2278" y1="490.8796" x2="-3746.2148" y2="490.8796" gradientTransform="matrix(25.009 0 0 -8.329 90911.3594 4065.8135)">
		<stop  offset="0" style="stop-color:#393939"/>
		<stop  offset="0.26" style="stop-color:#343434"/>
		<stop  offset="0.53" style="stop-color:#282828"/>
		<stop  offset="0.803" style="stop-color:#131313"/>
		<stop  offset="1" style="stop-color:#000000"/>
	</linearGradient>
	<path class="st6" d="M-2902.8-18.9c0,0,5.6-4.3,10.5-5.8c4.7-1.3,9.6-2,14.5-2.2c-0.9,4.6-1.5,8.3-1.5,8.3L-2902.8-18.9z"/>
	<path class="st0" d="M-2789.3-15.1c0.7,0.7,6.3,0.8,7,0.1c0.5-0.6-0.9-4.9-2.8-6.4c-1.1-0.8-4.3-1.3-5.3-0.5
		C-2791.3-21-2790-15.8-2789.3-15.1z"/>
	<path class="st7" d="M-2747.1,18.6c0,7.4-6,13.5-13.5,13.5s-13.5-6-13.5-13.5c0-7.4,6-13.5,13.5-13.5
		C-2753.2,5.1-2747.1,11.1-2747.1,18.6C-2747.1,18.6-2747.1,18.6-2747.1,18.6z"/>
	<path d="M-2750.8,18.6c0,5.4-4.4,9.8-9.8,9.8c-5.4,0-9.8-4.4-9.8-9.8c0-5.4,4.4-9.8,9.8-9.8C-2755.2,8.7-2750.8,13.1-2750.8,18.6
		C-2750.8,18.5-2750.8,18.5-2750.8,18.6z"/>
	
		<linearGradient id="SVGID_6_" gradientUnits="userSpaceOnUse" x1="-3743.4702" y1="520.4769" x2="-3743.4702" y2="519.4749" gradientTransform="matrix(20.522 0 0 -20.522 74062.8906 10689.6602)">
		<stop  offset="0" style="stop-color:#E6E6E6"/>
		<stop  offset="1" style="stop-color:#4D4D4D"/>
	</linearGradient>
	<path class="st8" d="M-2770.9,18.5c0,5.7,4.6,10.3,10.3,10.3s10.3-4.6,10.3-10.3s-4.6-10.3-10.3-10.3c0,0,0,0,0,0
		C-2766.3,8.3-2770.9,12.9-2770.9,18.5z M-2763.2,15.3c-0.7,0.5-3.9,0.4-6-0.7c1.3-2.8,3.9-4.9,7-5.4
		C-2761.7,11.7-2762.4,14.8-2763.2,15.3L-2763.2,15.3z M-2752.2,14.3c-2.2,1.3-5.6,1.4-6.3,0.9c-0.7-0.5-1.5-3.6-1-6
		C-2756.3,9.6-2753.6,11.5-2752.2,14.3z M-2756.7,19.6c0.3-0.8,2.9-2.6,5.3-3c0.1,0.6,0.2,1.2,0.2,1.8c0,2.5-1,4.8-2.7,6.6
		C-2755.7,23.4-2756.9,20.5-2756.7,19.6L-2756.7,19.6z M-2764.7,27c1.1-2.2,3.5-4.2,4.4-4.2c0.8,0,3.1,1.8,4.3,3.9
		C-2758.8,28.2-2762,28.3-2764.7,27z M-2770,18.5c0-0.4,0-0.8,0.1-1.2c2.4,0.2,4.9,1.7,5.2,2.4c0.3,0.8-0.6,3.9-2.3,5.7
		C-2768.9,23.7-2770,21.2-2770,18.5L-2770,18.5z"/>
	<path class="st7" d="M-2763.1,18.6c0,1.4,1.1,2.5,2.5,2.5c1.4,0,2.5-1.1,2.5-2.5s-1.1-2.5-2.5-2.5l0,0
		C-2762,16.1-2763.1,17.2-2763.1,18.6C-2763.1,18.6-2763.1,18.6-2763.1,18.6z"/>
	<path class="st9" d="M-2762.2,18.6c0,0.9,0.7,1.6,1.6,1.6c0.9,0,1.6-0.7,1.6-1.6c0-0.9-0.7-1.6-1.6-1.6
		C-2761.5,16.9-2762.2,17.7-2762.2,18.6C-2762.2,18.5-2762.2,18.5-2762.2,18.6z"/>
	<path class="st7" d="M-2873.1,18.6c0,7.4-6,13.5-13.5,13.5s-13.5-6-13.5-13.5c0-7.4,6-13.5,13.5-13.5
		C-2879.1,5.1-2873.1,11.1-2873.1,18.6C-2873.1,18.6-2873.1,18.6-2873.1,18.6z"/>
	<path d="M-2876.7,18.6c0,5.4-4.4,9.8-9.8,9.8c-5.4,0-9.8-4.4-9.8-9.8c0-5.4,4.4-9.8,9.8-9.8C-2881.1,8.7-2876.7,13.1-2876.7,18.6
		C-2876.7,18.5-2876.7,18.5-2876.7,18.6z"/>
	
		<linearGradient id="SVGID_7_" gradientUnits="userSpaceOnUse" x1="-3743.4702" y1="520.4769" x2="-3743.4702" y2="519.4749" gradientTransform="matrix(20.522 0 0 -20.522 73936.9453 10689.6602)">
		<stop  offset="0" style="stop-color:#E6E6E6"/>
		<stop  offset="1" style="stop-color:#4D4D4D"/>
	</linearGradient>
	<path class="st10" d="M-2896.8,18.5c0,5.7,4.6,10.3,10.3,10.3s10.3-4.6,10.3-10.3s-4.6-10.3-10.3-10.3c0,0,0,0,0,0
		C-2892.2,8.3-2896.8,12.9-2896.8,18.5z M-2889.1,15.3c-0.7,0.5-3.9,0.4-6-0.7c1.3-2.8,3.9-4.9,7-5.4
		C-2887.6,11.7-2888.4,14.8-2889.1,15.3L-2889.1,15.3z M-2878.1,14.3c-2.2,1.3-5.6,1.4-6.3,0.9c-0.7-0.5-1.5-3.6-1-6
		C-2882.3,9.6-2879.6,11.5-2878.1,14.3z M-2882.6,19.6c0.3-0.8,2.9-2.6,5.3-3c0.1,0.6,0.2,1.2,0.2,1.8c0,2.5-1,4.8-2.7,6.6
		C-2881.7,23.4-2882.9,20.5-2882.6,19.6z M-2890.7,27c1.1-2.2,3.5-4.2,4.4-4.2c0.8,0,3.1,1.8,4.3,3.9
		C-2884.7,28.2-2887.9,28.3-2890.7,27z M-2896,18.5c0-0.4,0-0.8,0.1-1.2c2.4,0.2,4.9,1.7,5.2,2.4c0.3,0.8-0.6,3.9-2.3,5.7
		C-2894.9,23.7-2896,21.2-2896,18.5L-2896,18.5z"/>
	<path class="st7" d="M-2889,18.6c0,1.4,1.1,2.5,2.5,2.5c1.4,0,2.5-1.1,2.5-2.5s-1.1-2.5-2.5-2.5c0,0,0,0,0,0
		C-2887.9,16.1-2889,17.2-2889,18.6C-2889,18.6-2889,18.6-2889,18.6z"/>
	<path class="st9" d="M-2888.2,18.6c0,0.9,0.7,1.6,1.6,1.6s1.6-0.7,1.6-1.6c0-0.9-0.7-1.6-1.6-1.6
		C-2887.4,16.9-2888.2,17.7-2888.2,18.6C-2888.2,18.5-2888.2,18.5-2888.2,18.6z"/>
	
		<linearGradient id="SVGID_8_" gradientUnits="userSpaceOnUse" x1="-3776.8311" y1="503.1986" x2="-3776.832" y2="502.2776" gradientTransform="matrix(117.8551 0 0 -10.9862 442274.4375 5480.2402)">
		<stop  offset="0" style="stop-color:#AAAAAA"/>
		<stop  offset="1" style="stop-color:#4D4D4D"/>
	</linearGradient>
	<path class="st11" d="M-2901.7-38.5c1.4,0,113.8,1.1,115.1,1.1c1.3,0,1.4-0.7,0.5-1.7s-5.3-5.3-6.7-6.6c-1.1-1.1-2.6-1.8-4.2-1.7
		c-1.9-0.1-97.9-1.1-100.3-1s-3.4,0.7-4,2.1c-0.8,1.9-1.4,3.8-2,5.8C-2903.7-39-2903.1-38.5-2901.7-38.5z"/>
	<path class="st0" d="M-2810.7-37c1,10.9,1.1,21.5,1.1,21.5h-5.9c0.2-11.2-0.1-21.5-0.1-21.5L-2810.7-37z"/>
</g>
</svg>
