<svg xmlns="http://www.w3.org/2000/svg" width="88.583" height="31.933" viewBox="0 0 88.583 31.933">
  <g id="Group_421" data-name="Group 421" transform="translate(-605.407 -43.487)">
    <g id="Group_417" data-name="Group 417" transform="translate(613.275 61.702)">
      <g id="Group_415" data-name="Group 415" transform="translate(0 0.059)">
        <circle id="Ellipse_108" data-name="Ellipse 108" cx="4.85" cy="4.85" r="4.85" transform="translate(0.969 3.188) rotate(-13.226)" fill="#7b7a7a"/>
        <path id="Path_723" data-name="Path 723" d="M628.092,80.379a6.8,6.8,0,1,0,6.8,6.8A6.807,6.807,0,0,0,628.092,80.379Zm0,11.269a4.469,4.469,0,1,1,4.469-4.469A4.475,4.475,0,0,1,628.092,91.648Z" transform="translate(-621.292 -80.379)" fill="#7b7a7a"/>
      </g>
      <g id="Group_416" data-name="Group 416" transform="translate(55.934 0)">
        <circle id="Ellipse_109" data-name="Ellipse 109" cx="4.85" cy="4.85" r="4.85" transform="translate(0 6.859) rotate(-45)" fill="#7b7a7a"/>
        <path id="Path_724" data-name="Path 724" d="M741.132,80.379a6.8,6.8,0,1,0,6.8,6.8A6.807,6.807,0,0,0,741.132,80.379Zm0,11.269a4.469,4.469,0,1,1,4.469-4.469A4.475,4.475,0,0,1,741.132,91.648Z" transform="translate(-734.273 -80.32)" fill="#7b7a7a"/>
      </g>
    </g>
    <g id="Group_420" data-name="Group 420" transform="translate(605.407 43.487)">
      <path id="Path_725" data-name="Path 725" d="M693.691,61.417l-.011-.005c-.8-.418-.8-.906-.785-1.584.01-.6.017-2.757-.014-4.052a2.722,2.722,0,0,0-.516-1.882c-.061-.094-.131-.2-.206-.319-.236-.377-1.375-2.089-2.477-3.744-1.551-2.33-2.577-3.875-2.7-4.1-.412-.724-1.315-.986-3.716-1.08-1.5-.059-7.891-.11-13.673-.11-5.228,0-9.173.039-11.109.11-5.126.189-8.231.4-10.718.713a26.556,26.556,0,0,0-4.9,1.08c-.916.33-5.561,3.121-9.843,5.711l-.019.011c-1.39.841-2.394,1.448-2.705,1.62a.528.528,0,0,1-.241.065c-1.585.036-9,.807-10.8,1.1-2,.32-9.295,1.884-9.908,2.1l-.015.006a2.93,2.93,0,0,0-1.087,1.035l-.016.035-.007.038c-.1.561-.761,4.432-.8,4.8a1.421,1.421,0,0,1-.709,1.074l-.073.05-.034.082a.977.977,0,0,0-.065.42c.013.129.03.494.059,1.128.064,1.409.132,2.753.191,3.045.016.084.03.163.043.238s.023.136.035.194l.038.177.188.048c.463.109,3.549.564,4.483.7l.333.049V68.388a8.791,8.791,0,1,1,17.583,0v1.853l38.436-.573V68.1a8.791,8.791,0,1,1,17.582,0V69.38l.33-.045c.9-.122,5.435-.742,6.105-.939a1.811,1.811,0,0,0,1.035-.523l.074-.069a5.017,5.017,0,0,0,.977-1.267l.019-.052V66.43c-.006-.294,0-.934.007-1.678.01-1.026.024-2.432,0-2.8A.565.565,0,0,0,693.691,61.417Z" transform="translate(-605.979 -44.019)" fill="#7b7a7a"/>
      <g id="Group_419" data-name="Group 419">
        <path id="Path_726" data-name="Path 726" d="M693.971,61.379a1.081,1.081,0,0,0-.658-.962c-.5-.26-.513-.43-.5-1.11.009-.569.017-2.75-.014-4.074a3.452,3.452,0,0,0-.8-2.466c-.507-.81-4.928-7.4-5.17-7.824-.526-.924-1.567-1.244-4.151-1.345-1.475-.058-7.683-.111-13.694-.111-4.522,0-8.933.03-11.129.111-4.945.182-8.151.383-10.765.717a27.142,27.142,0,0,0-5.01,1.107c-1.456.525-11.578,6.789-12.643,7.377-1.616.037-9.035.808-10.871,1.1s-9.476,1.91-10.027,2.13A3.058,3.058,0,0,0,607.1,57.5c-.073.4-.771,4.48-.808,4.885a.984.984,0,0,1-.551.735,1.212,1.212,0,0,0-.331.992c.037.368.147,3.673.257,4.224s.074.918.7,1.065,5.462.845,5.462.845V67.859a8.267,8.267,0,1,1,16.534,0v2.385l39.485-.588V67.574a8.267,8.267,0,0,1,16.534,0v1.875s6.246-.825,7.108-1.079a2.273,2.273,0,0,0,1.317-.709c.325-.3,1.181-1.264,1.165-1.722C693.95,65.331,694.022,62.038,693.971,61.379Zm-.809,2.84c-.007.742-.014,1.389-.007,1.688a4.8,4.8,0,0,1-.9,1.155l-.074.069c-.295.273-.295.273-.92.457-.513.151-3.679.606-6.062.929v-.943a9.083,9.083,0,0,0-18.165,0v1.278l-37.853.564V67.859a9.083,9.083,0,1,0-18.165,0V69.3c-1.85-.27-4.092-.609-4.459-.7h-.007c-.011-.054-.023-.125-.033-.183-.013-.078-.027-.16-.045-.247-.062-.311-.145-2.128-.185-3-.03-.658-.047-1.009-.06-1.144a.694.694,0,0,1,.046-.281,1.71,1.71,0,0,0,.837-1.29c.032-.346.687-4.188.792-4.779a2.713,2.713,0,0,1,.934-.889c.592-.206,7.919-1.774,9.858-2.084,1.794-.287,9.183-1.056,10.761-1.092a.813.813,0,0,0,.375-.1c.318-.175,1.331-.788,2.734-1.637,3.085-1.866,8.826-5.339,9.791-5.686a26.238,26.238,0,0,1,4.837-1.065c2.478-.317,5.575-.522,10.692-.711,1.933-.071,5.875-.11,11.1-.11,5.779,0,12.163.052,13.662.11,2.53.1,3.173.4,3.474.933.132.233,1.114,1.71,2.715,4.116,1.1,1.654,2.24,3.365,2.472,3.738.076.122.147.23.209.325a2.436,2.436,0,0,1,.468,1.728c.031,1.3.024,3.448.014,4.041a1.666,1.666,0,0,0,.942,1.847l.01.005c.143.074.2.1.211.3C693.185,61.8,693.171,63.2,693.161,64.219Z" transform="translate(-605.407 -43.487)" fill="#7b7a7a"/>
        <path id="Path_727" data-name="Path 727" d="M707.255,47.15c-1.569-.045-26.453,0-27.036,0s-2.107.179-4.215.4a14.359,14.359,0,0,0-5.2,1.7c-.987.583-6.053,3.9-6.815,4.484s-.11.963.221,1.306c.67.693,1.438.575,2.794.532,1.312-.042,47.2-2.31,47.2-2.31s-3.047-3.9-4.213-5.066S708.825,47.195,707.255,47.15Z" transform="translate(-634.791 -45.325)" fill="#7b7a7a"/>
        <g id="Group_418" data-name="Group 418" transform="translate(24.608 11.351)">
          <path id="Path_728" data-name="Path 728" d="M690.883,83.064l3.54,4.405.438-.013L691.3,83.029Z" transform="translate(-673.151 -74.793)" fill="#7b7a7a"/>
          <path id="Path_729" data-name="Path 729" d="M685.34,83.52l3.428,4.265.438-.013-3.445-4.287Z" transform="translate(-670.354 -75.024)" fill="#7b7a7a"/>
          <path id="Path_730" data-name="Path 730" d="M688.111,83.292l3.484,4.335.438-.013-3.5-4.357Z" transform="translate(-671.752 -74.909)" fill="#7b7a7a"/>
          <path id="Path_731" data-name="Path 731" d="M707.5,81.679l3.883,4.833.437-.013-3.9-4.855Z" transform="translate(-681.535 -74.094)" fill="#7b7a7a"/>
          <path id="Path_732" data-name="Path 732" d="M677.026,84.2l3.259,4.056.438-.013-3.277-4.078Z" transform="translate(-666.158 -75.368)" fill="#7b7a7a"/>
          <path id="Path_733" data-name="Path 733" d="M674.255,84.43l3.2,3.986.438-.013-3.221-4.007Z" transform="translate(-664.76 -75.483)" fill="#7b7a7a"/>
          <path id="Path_734" data-name="Path 734" d="M679.8,83.975l3.316,4.126.438-.013-3.333-4.147Z" transform="translate(-667.557 -75.253)" fill="#7b7a7a"/>
          <path id="Path_735" data-name="Path 735" d="M693.653,82.836l3.6,4.475.438-.013-3.613-4.5Z" transform="translate(-674.549 -74.678)" fill="#7b7a7a"/>
          <path id="Path_736" data-name="Path 736" d="M701.962,82.145l3.767,4.688.437-.013-3.784-4.71Z" transform="translate(-678.742 -74.33)" fill="#7b7a7a"/>
          <path id="Path_737" data-name="Path 737" d="M704.73,81.913l3.825,4.76.438-.013-3.843-4.782Z" transform="translate(-680.139 -74.213)" fill="#7b7a7a"/>
          <path id="Path_738" data-name="Path 738" d="M699.193,82.377l3.71,4.616.438-.013-3.727-4.638Z" transform="translate(-677.345 -74.447)" fill="#7b7a7a"/>
          <path id="Path_739" data-name="Path 739" d="M696.424,82.607l3.653,4.545.438-.013-3.67-4.567Z" transform="translate(-675.948 -74.563)" fill="#7b7a7a"/>
          <path id="Path_740" data-name="Path 740" d="M682.569,83.747l3.371,4.2.438-.013-3.389-4.217Z" transform="translate(-668.956 -75.138)" fill="#7b7a7a"/>
          <path id="Path_741" data-name="Path 741" d="M752.117,67.368l2.689,3.346a9.825,9.825,0,0,1,.881.538l-3.142-3.91Z" transform="translate(-704.053 -66.877)" fill="#7b7a7a"/>
          <path id="Path_742" data-name="Path 742" d="M655.086,86.081c.029.072.055.142.081.212l2.616,3.255.438-.013-2.806-3.492C655.247,86.06,655.136,86.073,655.086,86.081Z" transform="translate(-655.086 -76.314)" fill="#7b7a7a"/>
          <path id="Path_743" data-name="Path 743" d="M656.054,90.656l.768.956.438-.013-1.247-1.551C656.031,90.243,656.044,90.444,656.054,90.656Z" transform="translate(-655.554 -78.336)" fill="#7b7a7a"/>
          <path id="Path_744" data-name="Path 744" d="M730.973,73.933,732.39,75.7c.082-.084.165-.166.25-.247l-1.4-1.747Z" transform="translate(-693.383 -70.087)" fill="#7b7a7a"/>
          <path id="Path_745" data-name="Path 745" d="M771.355,76.046l-7.539-9.381-.428.025,8,9.951a2.279,2.279,0,0,0-.009-.457C771.37,76.139,771.363,76.093,771.355,76.046Z" transform="translate(-709.741 -66.535)" fill="#7b7a7a"/>
          <path id="Path_746" data-name="Path 746" d="M660.413,85.584l2.916,3.628.438-.013-2.934-3.651Z" transform="translate(-657.774 -76.065)" fill="#7b7a7a"/>
          <path id="Path_747" data-name="Path 747" d="M665.945,85.117l3.033,3.774.438-.013-3.05-3.8Z" transform="translate(-660.566 -75.829)" fill="#7b7a7a"/>
          <path id="Path_748" data-name="Path 748" d="M668.715,84.887l3.09,3.845.438-.013-3.108-3.867Z" transform="translate(-661.964 -75.713)" fill="#7b7a7a"/>
          <path id="Path_749" data-name="Path 749" d="M657.653,85.825l2.854,3.552.438-.013-2.874-3.575Z" transform="translate(-656.381 -76.186)" fill="#7b7a7a"/>
          <path id="Path_750" data-name="Path 750" d="M663.178,85.35l2.975,3.7.438-.013L663.6,85.314Z" transform="translate(-659.17 -75.947)" fill="#7b7a7a"/>
          <path id="Path_751" data-name="Path 751" d="M671.484,84.658l3.147,3.916.438-.013L671.9,84.623Z" transform="translate(-663.361 -75.598)" fill="#7b7a7a"/>
          <path id="Path_752" data-name="Path 752" d="M769.507,66.4l-.435.016,3.258,4.054c-.093-.3-.175-.59-.25-.868Z" transform="translate(-712.61 -66.403)" fill="#7b7a7a"/>
          <path id="Path_753" data-name="Path 753" d="M749.3,67.54l1.931,2.4c.2.053.4.111.59.176l-2.094-2.605Z" transform="translate(-702.632 -66.964)" fill="#7b7a7a"/>
          <path id="Path_754" data-name="Path 754" d="M767.881,89.712l.118,0-.138-.172C767.867,89.594,767.875,89.653,767.881,89.712Z" transform="translate(-711.999 -78.077)" fill="#7b7a7a"/>
          <path id="Path_755" data-name="Path 755" d="M710.26,81.442l3.943,4.907.438-.013-3.962-4.93Z" transform="translate(-682.93 -73.974)" fill="#7b7a7a"/>
          <path id="Path_756" data-name="Path 756" d="M738.642,68.87l1.506,1.874c.118-.04.237-.078.357-.114l-1.522-1.895C738.868,68.778,738.755,68.823,738.642,68.87Z" transform="translate(-697.253 -67.58)" fill="#7b7a7a"/>
          <path id="Path_757" data-name="Path 757" d="M766.868,85.181l1.45,1.8.438-.013L766.528,84.2A9.908,9.908,0,0,1,766.868,85.181Z" transform="translate(-711.326 -75.385)" fill="#7b7a7a"/>
          <path id="Path_758" data-name="Path 758" d="M740.98,68.16l1.55,1.929c.13-.026.261-.048.393-.069l-1.558-1.939C741.236,68.1,741.108,68.131,740.98,68.16Z" transform="translate(-698.433 -67.25)" fill="#7b7a7a"/>
          <path id="Path_759" data-name="Path 759" d="M743.662,67.877l1.547,1.925c.144-.009.289-.014.434-.017l-1.553-1.932Z" transform="translate(-699.787 -67.134)" fill="#7b7a7a"/>
          <path id="Path_760" data-name="Path 760" d="M772.023,66.432l1.081,1.346a5.044,5.044,0,0,0-.256-.777A.963.963,0,0,0,772.023,66.432Z" transform="translate(-714.099 -66.418)" fill="#7b7a7a"/>
          <path id="Path_761" data-name="Path 761" d="M766.645,66.512l-.43.022,5.94,7.392c-.124-.327-.264-.685-.418-1.078Z" transform="translate(-711.168 -66.458)" fill="#7b7a7a"/>
          <path id="Path_762" data-name="Path 762" d="M757.749,67.024l9,11.194.438-.013L758.177,67Z" transform="translate(-706.896 -66.703)" fill="#7b7a7a"/>
          <path id="Path_763" data-name="Path 763" d="M754.933,67.2,763.9,78.348l.437-.013L755.36,67.169Z" transform="translate(-705.475 -66.79)" fill="#7b7a7a"/>
          <path id="Path_764" data-name="Path 764" d="M760.567,66.855l9,11.2a3.433,3.433,0,0,0,.165-.353l-8.733-10.868Z" transform="translate(-708.318 -66.618)" fill="#7b7a7a"/>
          <path id="Path_765" data-name="Path 765" d="M746.484,67.71l1.625,2.022c.165.014.329.032.491.054l-1.689-2.1Z" transform="translate(-701.211 -67.05)" fill="#7b7a7a"/>
          <path id="Path_766" data-name="Path 766" d="M718.764,80.632c-.061.008-.147.019-.254.031l4.143,5.155.437-.013-4.175-5.2Z" transform="translate(-687.093 -73.573)" fill="#7b7a7a"/>
          <path id="Path_767" data-name="Path 767" d="M721.162,80.271l3.532,4.395q.03-.237.07-.471L721.555,80.2C721.43,80.227,721.3,80.249,721.162,80.271Z" transform="translate(-688.432 -73.367)" fill="#7b7a7a"/>
          <path id="Path_768" data-name="Path 768" d="M713.02,81.2l4,4.983.437-.013-4.024-5.007Z" transform="translate(-684.323 -73.851)" fill="#7b7a7a"/>
          <path id="Path_769" data-name="Path 769" d="M723.66,79.639l2.586,3.218c.038-.136.08-.27.124-.4L724,79.508Q723.834,79.581,723.66,79.639Z" transform="translate(-689.692 -73.017)" fill="#7b7a7a"/>
          <path id="Path_770" data-name="Path 770" d="M715.774,80.949l4.069,5.063.438-.013-4.09-5.09Z" transform="translate(-685.713 -73.724)" fill="#7b7a7a"/>
          <path id="Path_771" data-name="Path 771" d="M725.776,78.524,727.764,81c.052-.119.107-.237.163-.355l-1.866-2.322Q725.916,78.431,725.776,78.524Z" transform="translate(-690.76 -72.418)" fill="#7b7a7a"/>
          <path id="Path_772" data-name="Path 772" d="M732.731,72.459l1.39,1.73c.091-.073.184-.144.277-.213l-1.392-1.733C732.913,72.315,732.821,72.387,732.731,72.459Z" transform="translate(-694.27 -69.35)" fill="#7b7a7a"/>
          <path id="Path_773" data-name="Path 773" d="M736.53,69.88l1.449,1.8c.109-.052.219-.1.329-.149l-1.467-1.826C736.736,69.764,736.633,69.821,736.53,69.88Z" transform="translate(-696.187 -68.071)" fill="#7b7a7a"/>
          <path id="Path_774" data-name="Path 774" d="M734.573,71.1l1.407,1.751c.1-.063.2-.125.3-.184L734.863,70.9Q734.716,70.995,734.573,71.1Z" transform="translate(-695.2 -68.671)" fill="#7b7a7a"/>
          <path id="Path_775" data-name="Path 775" d="M727.7,76.954l-.116.106,1.664,2.071c.063-.106.128-.212.2-.316l-1.6-1.993Z" transform="translate(-691.672 -71.662)" fill="#7b7a7a"/>
          <path id="Path_776" data-name="Path 776" d="M729.271,75.483l1.5,1.863c.073-.094.149-.186.225-.277l-1.466-1.825Z" transform="translate(-692.524 -70.865)" fill="#7b7a7a"/>
        </g>
      </g>
    </g>
  </g>
</svg>
