<svg xmlns="http://www.w3.org/2000/svg" width="276" height="70.316" viewBox="0 0 276 70.316"><g transform="translate(-31.931 -24.956)"><path d="M6781.792,7106.1a34.681,34.681,0,1,1-34.681-34.681,34.681,34.681,0,0,1,34.681,34.681" transform="translate(-6680.5 -7046.466)" fill="#21b7ac"/><path d="M6780.655,7156.938c-.678,0-1.355.007-2.033,0-1.907-.023-2.819-.822-2.823-2.706,0-2.038-.3-1.785-1.887-1.786q-12.842-.006-25.682,0c-1.547,0-1.547,0-1.587,1.527-.058,2.159-.864,2.956-3.018,2.966-1.391.007-2.782.011-4.173,0a2.374,2.374,0,0,1-2.631-2.562c-.039-1.5-.018-3-.009-4.494a2.062,2.062,0,0,0-.505-1.467,10.019,10.019,0,0,1-1.03-12.268c.48-.771.551-1.093-.525-1.068a1.733,1.733,0,0,1-1.869-1.556c-.237-1.189-.512-2.371-.717-3.566a1.436,1.436,0,0,1,1.546-1.9c1.39-.043,2.785-.075,4.172,0a1.707,1.707,0,0,0,1.9-1.312,23.152,23.152,0,0,1,3.13-5.816,10.105,10.105,0,0,1,5.279-3.263,38.706,38.706,0,0,1,9.018-1.661,50.352,50.352,0,0,1,15.8,1.259,12.014,12.014,0,0,1,8.893,7.7,6.449,6.449,0,0,1,.41.986c.386,1.838,1.559,2.321,3.3,2.107a19.212,19.212,0,0,1,3.1-.007,1.442,1.442,0,0,1,1.545,1.905c-.182,1.089-.416,2.171-.646,3.253-.3,1.42-.7,1.789-2.159,1.874-.781.047-.934.194-.478.93,2.664,4.283,2.333,8.723-.914,12.654a2.014,2.014,0,0,0-.451,1.38c.005,1.391.018,2.782-.006,4.174a2.42,2.42,0,0,1-2.7,2.714c-.749.007-1.5,0-2.247,0" transform="translate(-6694.586 -7078.25)" fill="#222121"/><path d="M6789.472,7141.535c-5.631,0-11.26-.021-16.89.02-.992.007-1.151-.217-.755-1.112.574-1.3,1.134-2.608,1.743-3.9a6.223,6.223,0,0,1,3.735-3.285,30.25,30.25,0,0,1,8.251-1.627,45.12,45.12,0,0,1,14.527,1.106,7.82,7.82,0,0,1,5.932,5.117c.3.837.7,1.635,1.022,2.463.468,1.205.456,1.213-.784,1.213q-6.039,0-12.079,0h-4.7" transform="translate(-6722.849 -7089.438)" fill="#fdfdfd"/><path d="M6881.557,7201.682a4.36,4.36,0,1,1-.051-8.719,4.359,4.359,0,1,1,.051,8.719" transform="translate(-6798.332 -7133.418)" fill="#fdfdfd"/><path d="M6769.7,7197.3a4.319,4.319,0,0,1-4.316,4.38,4.358,4.358,0,1,1,4.316-4.38" transform="translate(-6715.202 -7133.422)" fill="#fdfdfd"/><path d="M7004.375,7153.631a1.47,1.47,0,0,1,1.113.478l3.155,3.366a15.007,15.007,0,0,1-5.793,4.509,20.172,20.172,0,0,1-8.233,1.538,19.6,19.6,0,0,1-7.769-1.473,16.781,16.781,0,0,1-5.86-4.1,18.174,18.174,0,0,1-3.712-6.23,24.357,24.357,0,0,1-.677-13.324,19.191,19.191,0,0,1,1.816-4.759,18.394,18.394,0,0,1,2.877-3.924,17.336,17.336,0,0,1,3.805-2.983,18.291,18.291,0,0,1,4.627-1.883,21.238,21.238,0,0,1,5.343-.649,20.907,20.907,0,0,1,4.016.371,19.546,19.546,0,0,1,3.541,1.034,16.276,16.276,0,0,1,3.036,1.6,17.042,17.042,0,0,1,2.5,2.055l-2.678,3.659a2.484,2.484,0,0,1-.61.609,1.7,1.7,0,0,1-1.007.266,2.247,2.247,0,0,1-1.286-.451q-.65-.45-1.591-1.008a11.5,11.5,0,0,0-2.36-1.007,12.059,12.059,0,0,0-3.593-.451,11,11,0,0,0-4.428.875,9.615,9.615,0,0,0-3.46,2.531,11.677,11.677,0,0,0-2.241,4.071,17.511,17.511,0,0,0-.795,5.488,16.456,16.456,0,0,0,.861,5.528,12.141,12.141,0,0,0,2.359,4.1,9.946,9.946,0,0,0,3.5,2.532,10.718,10.718,0,0,0,4.282.862,20.331,20.331,0,0,0,2.453-.134,10.151,10.151,0,0,0,2.041-.45,8.947,8.947,0,0,0,1.776-.822,10.94,10.94,0,0,0,1.684-1.271,3.173,3.173,0,0,1,.61-.4,1.513,1.513,0,0,1,.689-.159" transform="translate(-6869.044 -7084.224)" fill="#222121"/><path d="M7114,7149.552h0l-4.163-11.771q-.372-.929-.782-2.175t-.782-2.7q-.371,1.485-.782,2.744t-.783,2.187l-4.136,11.719Zm13.364,14.611h-6.178a2.712,2.712,0,0,1-1.684-.492,2.958,2.958,0,0,1-.968-1.259l-2.6-7.345h-15.326l-2.6,7.345a3.029,3.029,0,0,1-.929,1.206,2.55,2.55,0,0,1-1.67.544h-6.23l15.034-38.474h8.14Z" transform="translate(-6950.03 -7085.29)" fill="#222121"/><path d="M7246.374,7143.906h0a10.165,10.165,0,0,0,3.34-.491,6.278,6.278,0,0,0,2.308-1.353,5.275,5.275,0,0,0,1.326-2.028,7.414,7.414,0,0,0,.424-2.546,5.213,5.213,0,0,0-1.816-4.242q-1.816-1.51-5.528-1.512h-4.136v12.171Zm18.641,20.257h-7.187a3.122,3.122,0,0,1-2.916-1.538l-7.319-11.8a3.088,3.088,0,0,0-.993-1.008,3.234,3.234,0,0,0-1.6-.318h-2.7v14.664h-7.955v-38.474h12.091a24.856,24.856,0,0,1,6.894.835,13.261,13.261,0,0,1,4.693,2.321,8.873,8.873,0,0,1,2.678,3.54,11.717,11.717,0,0,1,.85,4.521,11.886,11.886,0,0,1-.544,3.62,10.659,10.659,0,0,1-1.578,3.115,11.362,11.362,0,0,1-2.545,2.493,13.149,13.149,0,0,1-3.447,1.75,7.728,7.728,0,0,1,1.432,1.021,6.976,6.976,0,0,1,1.192,1.419Z" transform="translate(-7053.877 -7085.29)" fill="#222121"/><path d="M7367.115,7131.994a3.02,3.02,0,0,1-.755.889,1.656,1.656,0,0,1-.994.278,2.452,2.452,0,0,1-1.26-.411q-.677-.41-1.577-.888a15.41,15.41,0,0,0-2.069-.889,8.241,8.241,0,0,0-2.731-.41,6.039,6.039,0,0,0-4.137,1.232,4.119,4.119,0,0,0-1.379,3.222,3.026,3.026,0,0,0,.755,2.107,6.564,6.564,0,0,0,1.99,1.445,18.475,18.475,0,0,0,2.8,1.088q1.564.476,3.208,1.047a28.219,28.219,0,0,1,3.208,1.339,11.305,11.305,0,0,1,2.8,1.936,8.855,8.855,0,0,1,1.988,2.851,9.954,9.954,0,0,1,.756,4.1,13.139,13.139,0,0,1-.915,4.919,11.661,11.661,0,0,1-2.639,4,12.22,12.22,0,0,1-4.255,2.691,15.813,15.813,0,0,1-5.741.981,18.192,18.192,0,0,1-3.646-.372,21.086,21.086,0,0,1-3.5-1.034,19.193,19.193,0,0,1-3.167-1.591,13.891,13.891,0,0,1-2.6-2.068l2.334-3.766a2.37,2.37,0,0,1,.769-.7,1.979,1.979,0,0,1,1.008-.278,2.755,2.755,0,0,1,1.511.53q.8.532,1.831,1.167a14.86,14.86,0,0,0,2.4,1.167,9.054,9.054,0,0,0,3.274.529,6.539,6.539,0,0,0,4.309-1.272,4.654,4.654,0,0,0,1.525-3.791,3.545,3.545,0,0,0-.756-2.359,6.072,6.072,0,0,0-1.975-1.512,15.7,15.7,0,0,0-2.784-1.048q-1.564-.437-3.208-.968a26.023,26.023,0,0,1-3.209-1.273,9.878,9.878,0,0,1-2.783-1.961,9.274,9.274,0,0,1-1.976-3.022,11.631,11.631,0,0,1-.755-4.481,10.651,10.651,0,0,1,3.341-7.742,12.475,12.475,0,0,1,4.044-2.52,14.807,14.807,0,0,1,5.5-.954,18.723,18.723,0,0,1,6.43,1.073,14.44,14.44,0,0,1,5,2.983Z" transform="translate(-7131.797 -7084.224)" fill="#222121"/><path d="M7459.691,7149.406h0v-11.455q0-.9.066-1.922t.2-2.134l-11.136,15.511Zm10.818,0v4.136a1.364,1.364,0,0,1-1.458,1.406h-3v9.148h-6.364v-9.148h-15.882a2.054,2.054,0,0,1-1.259-.424,1.756,1.756,0,0,1-.7-1.113l-.77-3.66,18.031-24.155h6.947v23.811Z" transform="translate(-7201.782 -7085.222)" fill="#21b7ac"/><path d="M7556.3,7139.478a23.034,23.034,0,0,1,2.294-.346q1.1-.1,2.134-.1a14.506,14.506,0,0,1,5.343.914,11.167,11.167,0,0,1,3.9,2.507,10.316,10.316,0,0,1,2.374,3.738,13.176,13.176,0,0,1,.8,4.613,14.084,14.084,0,0,1-1.087,5.608,12.913,12.913,0,0,1-3.009,4.348,13.593,13.593,0,0,1-4.587,2.824,16.318,16.318,0,0,1-5.821,1.008,15.561,15.561,0,0,1-3.5-.384,16.656,16.656,0,0,1-3.115-1.034,17.429,17.429,0,0,1-2.691-1.5,17.731,17.731,0,0,1-2.228-1.777l2.254-3.076a2.2,2.2,0,0,1,1.856-.981,2.649,2.649,0,0,1,1.405.425q.689.423,1.564.941a12.2,12.2,0,0,0,2.042.941,8.343,8.343,0,0,0,2.837.423,7.261,7.261,0,0,0,3-.57,5.8,5.8,0,0,0,2.108-1.564,6.542,6.542,0,0,0,1.245-2.359,10.124,10.124,0,0,0,.412-2.93,6.088,6.088,0,0,0-1.71-4.627,6.936,6.936,0,0,0-4.971-1.631,15.334,15.334,0,0,0-5.382,1.008l-4.535-1.272,3.235-18.933h19.3v3.076a4.082,4.082,0,0,1-.225,1.392,2.672,2.672,0,0,1-.742,1.087,3.52,3.52,0,0,1-1.327.715,6.693,6.693,0,0,1-1.976.252h-9.942Z" transform="translate(-7277.635 -7085.29)" fill="#21b7ac"/><path d="M7656.049,7240.747a3.535,3.535,0,1,1-3.535,3.535,3.534,3.534,0,0,1,3.535-3.535" transform="translate(-7353.047 -7167.603)" fill="#21b7ac"/><path d="M7652.593,7208.143a1.514,1.514,0,0,1,.229.229.51.51,0,0,1,.084.314.674.674,0,0,1-.093.352l-.208.352a2.735,2.735,0,0,0-.208.458,1.983,1.983,0,0,0-.093.654,1.836,1.836,0,0,0,.178.836,1.552,1.552,0,0,0,.509.582,2.337,2.337,0,0,0,.811.34,4.867,4.867,0,0,0,1.083.11,3.29,3.29,0,0,0,1.944-.489,1.563,1.563,0,0,0,.68-1.345,1.882,1.882,0,0,0-.115-.727,2.172,2.172,0,0,0-.255-.453l-.258-.344a.638.638,0,0,1-.119-.4.545.545,0,0,1,.229-.476l.942-.764a4.183,4.183,0,0,1,.76.858,4.316,4.316,0,0,1,.458.92,4.791,4.791,0,0,1,.229.947,6.956,6.956,0,0,1,.063.925,3.973,3.973,0,0,1-.306,1.541,3.774,3.774,0,0,1-.887,1.291,4.249,4.249,0,0,1-1.43.882,5.355,5.355,0,0,1-1.937.328,5.44,5.44,0,0,1-1.778-.285,4.04,4.04,0,0,1-1.435-.84,3.921,3.921,0,0,1-.956-1.376,4.823,4.823,0,0,1-.347-1.9,4.639,4.639,0,0,1,.331-1.817,4.383,4.383,0,0,1,.968-1.409Z" transform="translate(-7351.513 -7143.731)" fill="#222121"/><path d="M7657.491,7178.778h0a1.494,1.494,0,0,0-.641-1.337,4.623,4.623,0,0,0-3.893,0,1.5,1.5,0,0,0-.636,1.337,1.536,1.536,0,0,0,.636,1.367,4.594,4.594,0,0,0,3.893,0,1.531,1.531,0,0,0,.641-1.367m-7.122,0a5.089,5.089,0,0,1,.313-1.825,4,4,0,0,1,.9-1.413,4.053,4.053,0,0,1,1.422-.917,5.134,5.134,0,0,1,1.88-.327,5.226,5.226,0,0,1,1.9.327,4.078,4.078,0,0,1,1.435.917,4,4,0,0,1,.908,1.413,5.037,5.037,0,0,1,.318,1.825,5.088,5.088,0,0,1-.318,1.838,4.1,4.1,0,0,1-.908,1.427,4.041,4.041,0,0,1-1.435.925,5.205,5.205,0,0,1-1.9.327,5.114,5.114,0,0,1-1.88-.327,4.016,4.016,0,0,1-1.422-.925,4.1,4.1,0,0,1-.9-1.427A5.141,5.141,0,0,1,7650.369,7178.778Z" transform="translate(-7351.513 -7120.063)" fill="#222121"/><path d="M7659.308,7137.587h-8.8v-1.63a.62.62,0,0,1,.441-.646l.475-.145a4.913,4.913,0,0,1-.42-.459,2.888,2.888,0,0,1-.552-1.107,2.85,2.85,0,0,1-.08-.7,2.067,2.067,0,0,1,.411-1.32,2.57,2.57,0,0,1,1.1-.794,2.6,2.6,0,0,1-.7-.538,2.921,2.921,0,0,1-.467-.687,3.4,3.4,0,0,1-.263-.782,4.031,4.031,0,0,1-.084-.819,3.726,3.726,0,0,1,.224-1.341,2.556,2.556,0,0,1,.654-.98,2.825,2.825,0,0,1,1.052-.6,4.552,4.552,0,0,1,1.415-.2h5.594v2.632h-5.594q-1.367,0-1.368,1.172a1.2,1.2,0,0,0,.353.887,1.37,1.37,0,0,0,1.015.353h5.594v2.632h-5.594a1.5,1.5,0,0,0-1.062.3,1.166,1.166,0,0,0-.306.874,1.479,1.479,0,0,0,.162.676,2.469,2.469,0,0,0,.433.6h6.367Z" transform="translate(-7351.513 -7084.678)" fill="#222121"/><text transform="translate(111.921 92.272)" fill="#231f20" font-size="15" font-family="Lato-Bold, Lato" font-weight="700" letter-spacing="0.3em"><tspan x="0" y="0" xml:space="preserve">Buy   Sell   Swap</tspan></text><circle cx="2.614" cy="2.614" r="2.614" transform="translate(103.978 86.382)" fill="#222121"/><circle cx="2.614" cy="2.614" r="2.614" transform="translate(165.926 86.382)" fill="#222121"/><circle cx="2.614" cy="2.614" r="2.614" transform="translate(232.75 86.327)" fill="#222121"/></g></svg>