<svg xmlns="http://www.w3.org/2000/svg" width="12.048" height="12.048" viewBox="0 0 12.048 12.048">
  <path id="Icon_awesome-check-square" data-name="Icon awesome-check-square" d="M10.757,14.3H1.291A1.291,1.291,0,0,1,0,13.007V3.541A1.291,1.291,0,0,1,1.291,2.25h9.466a1.291,1.291,0,0,1,1.291,1.291v9.466A1.291,1.291,0,0,1,10.757,14.3Zm-5.5-2.637L10.2,6.713a.43.43,0,0,0,0-.608L9.592,5.5a.43.43,0,0,0-.609,0L4.948,9.531,3.064,7.647a.43.43,0,0,0-.609,0l-.608.608a.43.43,0,0,0,0,.608l2.8,2.8A.43.43,0,0,0,5.252,11.661Z" transform="translate(0 -2.25)" fill="#21b7ac"/>
</svg>
