<svg xmlns="http://www.w3.org/2000/svg" xmlns:xlink="http://www.w3.org/1999/xlink" width="260" height="262" viewBox="0 0 260 262"><defs><style>.a{fill:#fff;stroke:#707070;}.b{fill:#d80012;}.c{fill:url(#a);}.d{fill:url(#b);}.e{fill:url(#c);}.f{fill:#141215;}.g{fill:#a2a3a5;}.h{stroke:none;}.i{fill:none;}</style><linearGradient id="a" x1="0.874" y1="0.061" x2="-0.009" y2="0.849" gradientUnits="objectBoundingBox"><stop offset="0.017" stop-color="gray"/><stop offset="1" stop-color="#fff"/></linearGradient><linearGradient id="b" x1="0" y1="0.5" x2="1" y2="0.5" xlink:href="#a"/><linearGradient id="c" x1="0.035" y1="0.5" x2="0.97" y2="0.5" gradientUnits="objectBoundingBox"><stop offset="0.017" stop-color="gray"/><stop offset="0.545" stop-color="#fff"/><stop offset="1" stop-color="gray"/></linearGradient></defs><g transform="translate(-495 -3499)"><g class="a" transform="translate(495 3499)"><rect class="h" width="260" height="262" rx="14"/><rect class="i" x="0.5" y="0.5" width="259" height="261" rx="13.5"/></g><g transform="translate(478.485 3345.824)"><g transform="translate(39.515 332.457)"><path class="b" d="M65.235,537.951h7.723s-1.416-5.6-9.847-6.887H50.433a11.291,11.291,0,0,0-9.4,4.892c-3.926,5.341.579,12.292,4.119,13.837a22.824,22.824,0,0,0,7.659,1.609h9.332s8.3,0,10.877-7.08H65.364s-2.253,4.119-6.758,4.119H53.393s-6.179-1.416-6.179-7.4,6.371-7.144,7.208-7.144h4.634A7.966,7.966,0,0,1,65.235,537.951Z" transform="translate(-39.515 -523.709)"/><path class="b" d="M132.289,532.857v17.634s-.1.92.635.92h6.9V532.643a.78.78,0,0,0-.823-.736h-6.22S132.289,531.932,132.289,532.857Z" transform="translate(-94.47 -524.214)"/><path class="b" d="M160.84,535.9v-3.128s-.046-.694,1.03-.694h28.122s.812.121.812.771v3.043H180.5a.9.9,0,0,0-.873.954V551.56h-7s-.67.042-.67-.79V539.426a3.426,3.426,0,0,0-.94-1.969,4.424,4.424,0,0,0-3.15-1.53C166.706,535.914,160.84,535.9,160.84,535.9Z" transform="translate(-111.385 -524.317)"/><g transform="translate(83.594 7.781)"><path class="b" d="M269.1,544.434c2.5-.687,4.479-2.3,5.1-4.093a5.346,5.346,0,0,0-1.476-6.022,7.761,7.761,0,0,0-5.182-2.2H248.033c-3.154,0-3.438,3.472-3.438,3.472v15.164a.666.666,0,0,0,.647.768h6.9v-6.857h7.1c7.418.481,7.819,6.817,7.819,6.817h7.5C274.555,546.594,269.1,544.434,269.1,544.434Zm-4.721-3.228-12.149.02v-4.277a1.578,1.578,0,0,1,1.594-1.458h10.438s2.741.31,2.741,2.838A2.986,2.986,0,0,1,264.378,541.206Z" transform="translate(-244.594 -532.122)"/></g><g transform="translate(116.823 7.496)"><path class="b" d="M348.851,531.423H336.7s-10.586.6-10.586,9.744,10.647,10.346,10.647,10.346h11.729s11.549-.782,11.549-10.226S348.851,531.423,348.851,531.423Zm-3.609,17.263h-4.511s-6.978-.421-6.978-7.459a6.443,6.443,0,0,1,6.557-6.917h4.812s7.459,0,7.459,6.436S347.468,548.686,345.242,548.686Z" transform="translate(-326.115 -531.423)"/></g><path class="b" d="M418.29,532.941v14.971s.348,3.587,3.7,3.587h22.237a.676.676,0,0,0,.75-.7V548H426.858s-.9.109-.9-1.154V543.28h15.555v-3.386H425.906V536.36s-.037-.841,1.1-.841H444.94v-2.764s.073-.732-1.116-.732H418.989S418.324,532.048,418.29,532.941Z" transform="translate(-263.895 -524.282)"/><path class="b" d="M439.362,514.817h.558s.258.064,1.009-.451a4.307,4.307,0,0,1,3.521-1.288c2.427,0,3.779,1.18,3.779,2.211s-1.031,2.32-3.651,2.32-3.865-1.611-4.4-1.611h-.687a10.1,10.1,0,0,0-1.953.987,5.325,5.325,0,0,1-3.286.644c-1.31,0-2.942-.859-2.942-2.362s1.911-2.234,3.694-2.234a6.3,6.3,0,0,1,3.543,1.31C438.976,514.623,438.954,514.8,439.362,514.817Z" transform="translate(-271.608 -513.034)"/><path class="b" d="M493.995,532.78v17.865a.711.711,0,0,0,.73.837H501.6V536.193a.861.861,0,0,1,.924-.794h8.31s4.616.945,4.616,5.677v9.584s-.138.818.9.818h6.389v-9.809s-.115-8.813-10.581-9.656H494.795A.744.744,0,0,0,493.995,532.78Z" transform="translate(-308.738 -524.277)"/></g><g transform="translate(83.407 208.202)"><path class="c" d="M148.887,301.87s9.808-9.834,13.921-13.095,5.469-5.154,10.517-8.2c0,0,25.355-15.994,35.46-11.9,0,0-1.083,3.609-14.2,11.549s-43.158,31.54-43.158,31.54-1.835,1.062-1.955-1.585S148.887,301.87,148.887,301.87Z" transform="translate(-148.197 -243.624)"/><path class="d" d="M368.635,301.87s-9.808-9.834-13.92-13.095-5.469-5.154-10.518-8.2c0,0-25.355-15.994-35.46-11.9,0,0,1.083,3.609,14.2,11.549s43.158,31.54,43.158,31.54,1.835,1.062,1.955-1.585S368.635,301.87,368.635,301.87Z" transform="translate(-242.89 -243.624)"/><path class="e" d="M149.916,262.3a98.881,98.881,0,0,1,13.647-15.96c8.168-7.619,36.9-37.654,47.879-36.511s22.685,13.012,29.9,19.107,27.722,27.69,27.722,27.69,4.524,7.2,4.364,10.246c0,0-14.709-14.265-19.725-17.854S236.711,238.9,236.711,238.9l-21.319-8.346-17.081,2.119-14.876,6.141s-13.146,9.038-14.27,10.075-13.492,11.286-20.281,18.594C148.885,267.484,149.262,263.213,149.916,262.3Z" transform="translate(-148.196 -209.147)"/><path class="f" d="M150.856,276.865h0c.24-.192,24.067-19.3,32.489-24.813,4.481-2.934,19.692-12.506,27.3-12.506,5.666,0,17.042,6.188,25.063,11.487,5.957,3.936,27.517,20,33.477,25.865l-.053-.058a2.418,2.418,0,0,0,2.47.7c1.343-.335,1.647-2,1.615-2.928,0,.044.247-8.37.247-8.37a18.5,18.5,0,0,0-4.9-11.021c-4.8-5.188-22.819-23.39-30.07-29.647-8.839-7.627-16.336-12.962-22.282-15.856a13.608,13.608,0,0,0-5.772-1.512c-3.048,0-5.307,1.13-8.726,2.839-3.653,1.826-12.589,8.482-19.512,14.532-5.771,5.043-13.633,12.88-17.856,17.09l-2.261,2.244c-2.439,2.378-10.1,10.711-11.4,12.187a14.966,14.966,0,0,0-3.479,9.344c-.06,4.073.239,8.317.243,8.36a3.4,3.4,0,0,0,1.023,2.42A1.993,1.993,0,0,0,150.856,276.865Zm-1.6-.763a2.331,2.331,0,0,1-.448-1.384c0-.06-.3-4.248-.24-8.26A13.542,13.542,0,0,1,151.7,258c1.3-1.469,8.915-9.755,11.334-12.114l2.272-2.255c4.212-4.2,12.054-12.015,17.791-17.029,6.852-5.989,15.656-12.555,19.224-14.34,3.542-1.771,5.511-2.7,8.116-2.7a12.438,12.438,0,0,1,5.148,1.361c5.868,2.857,13.266,8.127,22.016,15.677,7.219,6.229,25.171,24.369,29.96,29.541a17.416,17.416,0,0,1,4.54,10.075c0-.02-.247,8.393-.247,8.393.013.481-.117,1.485-.583,1.6a1.07,1.07,0,0,1-1.086-.24l-.016-.018c-.011-.013-.028-.03-.028-.03-6.434-6.329-28.3-22.472-33.682-26.031-2.96-1.956-18.119-11.714-25.815-11.714-7.772,0-22.206,8.9-28.051,12.729-8.477,5.55-32.355,24.7-32.6,24.89C149.8,275.974,149.4,276.2,149.254,276.1Z" transform="translate(-147.195 -208.202)"/><path class="f" d="M170.459,276.322s25.4-21.734,42.607-21.734,39.4,17.684,44.211,21.895c0,0-12.872-8.782-24.782-11.669s-12.109-1.246-12.295-.47,9.685,4.88,13.123,7.061,12.679,8.54,17.485,12.273,15.083,12.532,17.3,14.565,5.989,6.21,5.989,6.21-.55-.062-2.077-1.458-5.661-4.948-7.826-6.543-11.339-8.692-11.339-8.692-11.338-8.542-14.135-10.256-12.241-7.158-12.241-7.158A82.4,82.4,0,0,0,218,266.979a17.663,17.663,0,0,0-9.083.211,67.922,67.922,0,0,0-7.609,3.1c-1.594.752-9.444,5.2-9.444,5.2s-6.526,4.15-8.151,5.263-8.21,6.105-9.955,7.519-8.992,6.947-8.992,6.947l-6.557,5.143s-3.038,2.466-3.609,2.947a13.22,13.22,0,0,1-1.233.9l-.421.15s3.369-3.338,5.2-5.023,13.474-11.579,16.541-14.105,13.354-9.745,14.527-10.587,6.5-4.06,8.271-5.113a89.486,89.486,0,0,1,8.15-4.09c1.023-.331,2.226-.6,1.444-1.775s-6.887-.21-9.534.3a84.25,84.25,0,0,0-12.511,4.361C182.69,269.475,174.319,273.726,170.459,276.322Z" transform="translate(-150.601 -235.68)"/><path class="g" d="M302.117,217.439a58.31,58.31,0,0,0,.3,6.37c.3,1.668,1.668,4.7,6.825,6.37s19.413,8.645,29.423,16.38,22.143,19.261,22.143,19.261l-.3-1.061s-17.442-19.414-26.693-27.3S303.785,211.221,302.117,217.439Z" transform="translate(-238.968 -212.925)"/></g><g transform="translate(83.407 252.23)"><path class="c" d="M148.887,409.883s9.808-9.834,13.921-13.095,5.469-5.154,10.517-8.2c0,0,25.355-15.995,35.46-11.9,0,0-1.083,3.609-14.2,11.549s-43.158,31.54-43.158,31.54-1.835,1.062-1.955-1.584S148.887,409.883,148.887,409.883Z" transform="translate(-148.197 -351.637)"/><path class="d" d="M368.635,409.883s-9.808-9.834-13.92-13.095-5.469-5.154-10.518-8.2c0,0-25.355-15.995-35.46-11.9,0,0,1.083,3.609,14.2,11.549s43.158,31.54,43.158,31.54,1.835,1.062,1.955-1.584S368.635,409.883,368.635,409.883Z" transform="translate(-242.89 -351.637)"/><path class="e" d="M149.916,370.313a98.862,98.862,0,0,1,13.647-15.96c8.168-7.619,36.9-37.654,47.879-36.511s22.685,13.012,29.9,19.108,27.722,27.689,27.722,27.689,4.524,7.2,4.364,10.247c0,0-14.709-14.265-19.725-17.854s-16.994-10.118-16.994-10.118l-21.319-8.346-17.081,2.119-14.876,6.141s-13.146,9.038-14.27,10.076-13.492,11.286-20.281,18.594C148.885,375.5,149.262,371.226,149.916,370.313Z" transform="translate(-148.196 -317.16)"/><g transform="translate(0 0)"><path class="f" d="M150.856,384.878h0c.24-.192,24.067-19.3,32.489-24.812,4.481-2.934,19.692-12.506,27.3-12.506,5.666,0,17.042,6.188,25.063,11.487,5.957,3.936,27.517,20,33.477,25.865l-.053-.059a2.418,2.418,0,0,0,2.47.7c1.343-.335,1.647-2,1.615-2.928,0,.044.247-8.37.247-8.37a18.5,18.5,0,0,0-4.9-11.021c-4.8-5.187-22.819-23.39-30.07-29.647-8.839-7.627-16.336-12.962-22.282-15.856a13.615,13.615,0,0,0-5.772-1.512c-3.048,0-5.307,1.129-8.726,2.839-3.653,1.826-12.589,8.482-19.512,14.532-5.771,5.043-13.633,12.88-17.856,17.09l-2.261,2.244c-2.439,2.377-10.1,10.711-11.4,12.187a14.966,14.966,0,0,0-3.479,9.344c-.06,4.073.239,8.317.243,8.359a3.4,3.4,0,0,0,1.023,2.42A1.994,1.994,0,0,0,150.856,384.878Zm-1.6-.764a2.329,2.329,0,0,1-.448-1.383c0-.06-.3-4.248-.24-8.26a13.544,13.544,0,0,1,3.137-8.461c1.3-1.469,8.915-9.755,11.334-12.114l2.272-2.255c4.212-4.2,12.054-12.014,17.791-17.028,6.852-5.989,15.656-12.555,19.224-14.34,3.542-1.77,5.511-2.694,8.116-2.694a12.45,12.45,0,0,1,5.148,1.36c5.868,2.857,13.266,8.127,22.016,15.677,7.219,6.23,25.171,24.369,29.96,29.541a17.416,17.416,0,0,1,4.54,10.075c0-.02-.247,8.393-.247,8.393.013.481-.117,1.485-.583,1.6a1.068,1.068,0,0,1-1.086-.24l-.016-.018a.4.4,0,0,0-.028-.029c-6.434-6.329-28.3-22.472-33.682-26.031-2.96-1.956-18.119-11.713-25.815-11.713-7.772,0-22.206,8.9-28.051,12.729-8.477,5.55-32.355,24.7-32.6,24.89C149.8,383.987,149.4,384.218,149.254,384.115Z" transform="translate(-147.195 -316.215)"/></g><path class="f" d="M170.459,384.336s25.4-21.735,42.607-21.735,39.4,17.684,44.211,21.895c0,0-12.872-8.782-24.782-11.669s-12.109-1.246-12.295-.47,9.685,4.88,13.123,7.061,12.679,8.54,17.485,12.273,15.083,12.532,17.3,14.565,5.989,6.21,5.989,6.21-.55-.063-2.077-1.458-5.661-4.948-7.826-6.543-11.339-8.692-11.339-8.692-11.338-8.541-14.135-10.255-12.241-7.158-12.241-7.158A82.335,82.335,0,0,0,218,374.992a17.655,17.655,0,0,0-9.083.21,67.916,67.916,0,0,0-7.609,3.1c-1.594.752-9.444,5.2-9.444,5.2s-6.526,4.15-8.151,5.263-8.21,6.105-9.955,7.519-8.992,6.947-8.992,6.947l-6.557,5.142s-3.038,2.466-3.609,2.948a13.226,13.226,0,0,1-1.233.9l-.421.15s3.369-3.338,5.2-5.022,13.474-11.58,16.541-14.106,13.354-9.745,14.527-10.587,6.5-4.06,8.271-5.113a89.493,89.493,0,0,1,8.15-4.09c1.023-.331,2.226-.6,1.444-1.774s-6.887-.21-9.534.3a84.25,84.25,0,0,0-12.511,4.361C182.69,377.488,174.319,381.739,170.459,384.336Z" transform="translate(-150.601 -343.693)"/><path class="g" d="M302.117,325.452a58.314,58.314,0,0,0,.3,6.37c.3,1.668,1.668,4.7,6.825,6.37s19.413,8.645,29.423,16.38,22.143,19.261,22.143,19.261l-.3-1.061s-17.442-19.414-26.693-27.3S303.785,319.234,302.117,325.452Z" transform="translate(-238.968 -320.938)"/></g></g></g></svg>