<svg xmlns="http://www.w3.org/2000/svg" xmlns:xlink="http://www.w3.org/1999/xlink" width="105.498" height="33.072" viewBox="0 0 105.498 33.072"><defs><linearGradient id="a" x1="0.144" y1="-0.019" x2="0.144" y2="0.956" gradientUnits="objectBoundingBox"><stop offset="0" stop-color="#aaa"/><stop offset="1" stop-color="#4d4d4d"/></linearGradient><linearGradient id="b" y1="0.5" x2="1" y2="0.5" gradientUnits="objectBoundingBox"><stop offset="0" stop-color="#9d9d9d"/><stop offset="0.109" stop-color="#b3b3b3"/><stop offset="0.242" stop-color="#c8c8c8"/><stop offset="0.373" stop-color="#d4d4d4"/><stop offset="0.5" stop-color="#d9d9d9"/><stop offset="0.627" stop-color="#d4d4d4"/><stop offset="0.758" stop-color="#c8c8c8"/><stop offset="0.891" stop-color="#b3b3b3"/><stop offset="1" stop-color="#9d9d9d"/></linearGradient><linearGradient id="c" x1="0.037" y1="-23.006" x2="1.037" y2="-23.006" gradientUnits="objectBoundingBox"><stop offset="0" stop-color="#4d4d4d"/><stop offset="0.036" stop-color="#4a4a4a"/><stop offset="0.364" stop-color="#353535"/><stop offset="0.688" stop-color="#292929"/><stop offset="1" stop-color="#252525"/></linearGradient><linearGradient id="d" x1="0.5" y1="0.007" x2="0.5" y2="1.009" gradientUnits="objectBoundingBox"><stop offset="0" stop-color="#e6e6e6"/><stop offset="1" stop-color="#4d4d4d"/></linearGradient></defs><g transform="translate(-247.065 -550.93)"><path d="M282.044,558s4.291-1.58,5.639-1.327c1.319.249,4.221,6.688,4.221,6.688s-4.145.382-5.773-.533S282.044,558,282.044,558Z" transform="translate(-9.564 -1.562)"/><path d="M347.152,584.675a11.485,11.485,0,0,0-9.637-4.87,13.367,13.367,0,0,0-10.043,4.589,91.785,91.785,0,0,0-23.757-2.662,107.21,107.21,0,0,0-23.5,2.7,16.029,16.029,0,0,0-9.871-4.634,11.983,11.983,0,0,0-10.049,3.351s-4.65-7.254,3.268-13.257c9.154-6.94,70.922-3.294,78.913.278C353.164,574.942,347.152,584.675,347.152,584.675Z" transform="translate(-3.247 -4.108)"/><path d="M339.667,560.051a181.138,181.138,0,0,0-17.383-8.535s-3.166.752-1.131,2.075C326.406,557.005,338.955,566.917,339.667,560.051Z" transform="translate(-20.07 -0.16)"/><path d="M343.9,580.567c.894-4.1.3-8.88-2.413-11.595a10.461,10.461,0,0,0-14.795,0c-2.653,2.654-3.265,7.278-2.472,11.315,0,0-13.1-.637-23.244-.637-11.477,0-24.009.67-24.009.67.8-4.043.195-8.687-2.466-11.348a10.461,10.461,0,0,0-14.795,0c-2.383,2.383-3.057,6.356-2.66,10.065a26.243,26.243,0,0,1-4.606-1.292,11.9,11.9,0,0,1-4.336-3.486,8.849,8.849,0,0,1-.992-4.6c.229-.839,1.221-1.068,1.678-1.831s.554-2.538,1.266-4.166a9.837,9.837,0,0,1,2.244-3.082s-.814-1.908-.381-2.289c.512-.451,4.352.424,7.477.153,3.229-.28,12.157-2.951,13.275-3.281.971-.286,1.16-.121,1.7.61a12.7,12.7,0,0,0,2.848,2.925c.991.559,6.815,1.729,10.02,1.959s22.887.356,22.887.356-6.236-4.746-8.957-6.634c-1.495-1.038-4.2-1.58-4.126-2.114s5.221-1.792,6.01-1.155c.464.373-1.242,1.537-1.242,1.537s3.274,1.88,6.936,3.966c3.514,2,6.313,3.587,8.144,3.791a3.954,3.954,0,0,0,2.7-.509,83.77,83.77,0,0,1,14.648,1.785,51.188,51.188,0,0,1,12.169,4.5s5.259,1.438,5.76,2.561c.635,1.424-.625,5.593-.534,6.409.1.915,1.017,1.678.916,2.518-.1.789-2.917,2.138-4.629,2.467A35.562,35.562,0,0,1,343.9,580.567Z" transform="translate(0 0)" fill="#4d4d4d"/><path d="M351.778,570.865c-.474-.711-5.294-2.173-5.294-2.173a35.849,35.849,0,0,0-8.336-3.2c-4.543-1.067-12.639-1.546-21.493-1.739s-25.046-.087-29.1-.36-9.7-1.11-10.944-1.857-2.568-3.02-3.318-3.279-10.759,2.591-14.046,2.809-6.361-.632-6.6-.355.488,1.953.488,1.953c-3.154,2.57-3.2,6.7-3.635,7.479s-1.348,1.007-1.567,1.525.553,2.807,2.277,4.094a12.565,12.565,0,0,0,4.868,1.7,14.064,14.064,0,0,1,4.4-8.135A12.235,12.235,0,0,1,272.6,567.9a12.453,12.453,0,0,1,5.926,5.729,128.534,128.534,0,0,1,21.3-.69A125.669,125.669,0,0,1,322.661,576a12.8,12.8,0,0,1,5.018-7.349,11.692,11.692,0,0,1,18.115,9.6s2.845-.316,4.285-1.774S352.252,571.576,351.778,570.865Z" transform="translate(-0.229 -1.999)" fill="url(#a)"/><path d="M262,565.067c-.238.711,26.655,5.224,42.405,5.575s27.524-1.941,27.445-2.81-27.423-1.575-42.116-2.143S262.234,564.356,262,565.067Z" transform="translate(-4.082 -3.787)" fill="url(#b)"/><path d="M292.6,584.8c-.012,1.348,7.978,1.537,19.584,1.7s20.906.666,20.919-.682-13.68-5.092-25.285-5.254S292.614,583.45,292.6,584.8Z" transform="translate(-12.45 -8.1)" fill="url(#c)"/><path d="M298.457,567.991c-.009.425,1.7.582,3.854.634s3.921-.018,3.931-.443-1.723-.813-3.873-.865S298.468,567.567,298.457,567.991Z" transform="translate(-14.051 -4.479)" fill="#828282"/><path d="M327.347,563.787c.389.412,4.228.442,4.612.031.311-.329.066-1.6-.777-2.343-.809-.717-3.2-1.025-3.744-.587S326.934,563.351,327.347,563.787Z" transform="translate(-21.864 -2.667)" fill="#4d4d4d"/><g transform="translate(325.549 566.834)"><path d="M372.252,581.4a8.585,8.585,0,1,1-8.585-8.586A8.584,8.584,0,0,1,372.252,581.4Z" transform="translate(-355.082 -572.818)" fill="#252525"/><path d="M370.806,582.276a6.267,6.267,0,1,1-6.268-6.268A6.267,6.267,0,0,1,370.806,582.276Z" transform="translate(-355.954 -573.69)"/><path d="M357.909,582.176a6.531,6.531,0,1,0,6.53-6.531A6.531,6.531,0,0,0,357.909,582.176Zm4.913-2.037c-.447.335-2.453.26-3.838-.458a5.991,5.991,0,0,1,4.449-3.433C363.77,577.788,363.276,579.8,362.822,580.138Zm6.975-.67c-1.385.8-3.537.892-4,.543-.446-.336-.928-2.276-.624-3.8A5.993,5.993,0,0,1,369.8,579.468Zm-2.834,3.39c.163-.531,1.817-1.642,3.353-1.881a6.081,6.081,0,0,1,.117,1.176,5.974,5.974,0,0,1-1.708,4.186C367.562,585.287,366.8,583.4,366.962,582.858Zm-5.136,4.686c.68-1.4,2.228-2.653,2.784-2.653.535,0,2,1.173,2.712,2.514a6,6,0,0,1-5.5.139Zm-3.377-5.391a5.976,5.976,0,0,1,.052-.777c1.5.154,3.129,1.054,3.333,1.549.214.522-.377,2.486-1.444,3.64A5.976,5.976,0,0,1,358.449,582.153Z" transform="translate(-355.855 -573.591)" fill="url(#d)"/><g transform="translate(7.008 7.009)"><path d="M364.727,584.042a1.577,1.577,0,1,0,1.576-1.577A1.576,1.576,0,0,0,364.727,584.042Z" transform="translate(-364.727 -582.465)" fill="#252525"/><path d="M365.49,584.25a1.022,1.022,0,1,0,1.022-1.022A1.02,1.02,0,0,0,365.49,584.25Z" transform="translate(-364.936 -582.674)" fill="#616161"/></g></g><g transform="translate(258.564 566.834)"><path d="M280.061,581.4a8.585,8.585,0,1,1-8.585-8.586A8.584,8.584,0,0,1,280.061,581.4Z" transform="translate(-262.891 -572.818)" fill="#252525"/><path d="M278.615,582.276a6.267,6.267,0,1,1-6.268-6.268A6.267,6.267,0,0,1,278.615,582.276Z" transform="translate(-263.763 -573.69)"/><path d="M265.717,582.176a6.531,6.531,0,1,0,6.531-6.531A6.532,6.532,0,0,0,265.717,582.176Zm4.913-2.037c-.447.335-2.453.26-3.838-.458a5.991,5.991,0,0,1,4.449-3.433C271.579,577.788,271.084,579.8,270.63,580.138Zm6.975-.67c-1.385.8-3.537.892-4,.543-.446-.336-.928-2.276-.625-3.8A6,6,0,0,1,277.6,579.468Zm-2.835,3.39c.163-.531,1.818-1.642,3.354-1.881a6.079,6.079,0,0,1,.117,1.176,5.974,5.974,0,0,1-1.708,4.186C275.37,585.287,274.606,583.4,274.77,582.858Zm-5.135,4.686c.68-1.4,2.228-2.653,2.784-2.653.536,0,2,1.173,2.712,2.514a6,6,0,0,1-5.5.139Zm-3.377-5.391a5.965,5.965,0,0,1,.052-.777c1.5.154,3.129,1.054,3.333,1.549.214.522-.378,2.486-1.444,3.64A5.976,5.976,0,0,1,266.258,582.153Z" transform="translate(-263.664 -573.591)" fill="url(#d)"/><g transform="translate(7.008 7.009)"><path d="M272.536,584.042a1.577,1.577,0,1,0,1.576-1.577A1.576,1.576,0,0,0,272.536,584.042Z" transform="translate(-272.536 -582.465)" fill="#252525"/><path d="M273.3,584.25a1.022,1.022,0,1,0,1.022-1.022A1.02,1.02,0,0,0,273.3,584.25Z" transform="translate(-272.745 -582.674)" fill="#616161"/></g></g></g></svg>