<svg xmlns="http://www.w3.org/2000/svg" xmlns:xlink="http://www.w3.org/1999/xlink" width="109.003" height="32.289" viewBox="0 0 109.003 32.289"><defs><linearGradient id="a" x1="2.795" y1="-0.003" x2="2.795" y2="0.956" gradientUnits="objectBoundingBox"><stop offset="0" stop-color="#aaa"/><stop offset="1" stop-color="#4d4d4d"/></linearGradient><linearGradient id="b" y1="0.5" x2="1" y2="0.5" gradientUnits="objectBoundingBox"><stop offset="0" stop-color="#9d9d9d"/><stop offset="0.109" stop-color="#b3b3b3"/><stop offset="0.242" stop-color="#c8c8c8"/><stop offset="0.373" stop-color="#d4d4d4"/><stop offset="0.5" stop-color="#d9d9d9"/><stop offset="0.627" stop-color="#d4d4d4"/><stop offset="0.758" stop-color="#c8c8c8"/><stop offset="0.891" stop-color="#b3b3b3"/><stop offset="1" stop-color="#9d9d9d"/></linearGradient><linearGradient id="c" y1="0.5" x2="1" y2="0.5" gradientUnits="objectBoundingBox"><stop offset="0" stop-color="#4d4d4d"/><stop offset="0.036" stop-color="#4a4a4a"/><stop offset="0.364" stop-color="#353535"/><stop offset="0.688" stop-color="#292929"/><stop offset="1" stop-color="#252525"/></linearGradient><linearGradient id="d" y1="0.5" x2="1" y2="0.5" gradientUnits="objectBoundingBox"><stop offset="0" stop-color="#393939"/><stop offset="0.26" stop-color="#343434"/><stop offset="0.53" stop-color="#282828"/><stop offset="0.803" stop-color="#131313"/><stop offset="1"/></linearGradient><linearGradient id="e" x1="0.5" y1="0.007" x2="0.5" y2="1.009" gradientUnits="objectBoundingBox"><stop offset="0" stop-color="#e6e6e6"/><stop offset="1" stop-color="#4d4d4d"/></linearGradient></defs><g transform="translate(-55.13 -553.141)"><path d="M156.128,585.087s-2.238-4.379-9.7-4.218-9.906,4.145-9.906,4.145a98.373,98.373,0,0,0-24.151-2.5,121.93,121.93,0,0,0-24.361,2.6s-2.69-4.173-9.879-4.566-9.8,4.174-9.8,4.174-6.278-8.811,1.847-14.971c9.393-7.121,68.385-5.438,80.607-.528C161.926,573.7,156.128,585.087,156.128,585.087Z" transform="translate(-2.769 -3.007)"/><path d="M145.226,562.365c-13.1-6.263-22.6-8.143-22.6-8.143s-2.643,5.888,7.62,9.916C141.417,568.523,145.226,562.365,145.226,562.365Z" transform="translate(-17.094 -0.275)"/><path d="M55.17,572.623c.209-.574,1.406-1.3,1.406-1.3a21.9,21.9,0,0,1-.182-4.278,13.225,13.225,0,0,1,.887-3.463s-.836-1.907-.253-2.49c.283-.283,2.68.159,5,.041,2.235-.113,3.644-.462,7.282-1.71A115.9,115.9,0,0,1,88.257,554c8.427-1.521,17.523-.657,17.929-.17.422.506-.079,1.37-.079,1.37s4.31,1.54,9.134,3.483c4.98,2.006,8.919,3.95,10.608,3.993a3.462,3.462,0,0,0,2.283-.587s12.315-.045,19.7,1.86c7,1.806,10.52,4.716,10.52,4.716s4.383,1.887,5.219,2.923c.66.817.68,3.258.362,4.114-.237.636-1.819,1.859-1.819,2.329s1.628.713,1.628,1.245c0,.506-3.392,1.84-5.448,2.24a43.107,43.107,0,0,1-4.934.563c1.314-4.305.5-9.714-2.436-12.655a10.4,10.4,0,0,0-14.712,0c-2.923,2.923-3.743,8.289-2.459,12.582,0,0-13.58-.606-23.052-.606-11.339,0-25.461.7-25.461.7,1.326-4.309.517-9.733-2.428-12.679a10.4,10.4,0,0,0-14.712,0c-2.856,2.857-3.7,8.046-2.54,12.287,0,0-2.578-.594-4.266-1.191a14.733,14.733,0,0,1-5.025-3.252A10.048,10.048,0,0,1,55.17,572.623Z" fill="#4d4d4d"/><path d="M163.175,573.228c-.492-.646-5.033-2.431-5.033-2.431a20.977,20.977,0,0,0-6.892-3.729c-4.434-1.5-15.041-3-29.028-1.459,0,0-10.521-.016-23.555-.771S77.571,563.23,77,562.257s1.352-3.243,1.352-3.243c-4.7.972-10.886,3.7-13.967,4.187s-6.468-.488-6.73-.135.548,2.016.548,2.016c-1.824,3-.689,8.067-.689,8.067s-1.326.537-1.534,1.16.412,2.511,1.946,3.676,5.906,2.054,5.906,2.054-.616-5.637,3.121-9.69a12.207,12.207,0,0,1,14.724-2.106,13.247,13.247,0,0,1,6.082,7.338c10.256-7.3,44.028,3.446,44.028,3.446a14.506,14.506,0,0,1,3.925-9.084c3.809-3.776,10.541-4.055,15.13-.525s4.33,9.7,4.33,9.7,7.709-1.637,8.216-2.324A4.441,4.441,0,0,0,163.175,573.228Z" transform="translate(-0.207 -1.494)" fill="url(#a)"/><path d="M73.17,565.53c-.162.567,27.778,6.763,42.876,7.152s21.991-2.287,21.909-3.26-17.562-1.3-33.731-2.189S73.332,564.962,73.17,565.53Z" transform="translate(-4.589 -3.118)" fill="url(#b)"/><path d="M100.052,585.418c.458,1.027,8.191,1.625,20.1,1.777s22.1.264,22.113-.869-19.174-6.585-29.694-5.909S99.6,584.391,100.052,585.418Z" transform="translate(-11.415 -6.924)" fill="url(#c)"/><path d="M128.69,564.224a46.482,46.482,0,0,0-20.875-7.624c-11.973-1.13-20.262,2.434-20.428,3.8s7.19,2.432,16.244,2.985C113.5,563.983,128.69,564.224,128.69,564.224Z" transform="translate(-8.206 -0.824)"/><path d="M126.758,564.406s-11.8-3.744-20.168-4.471c-9.776-.85-16.723.449-16.792,1.294-.066.814,5.939,1.872,14.171,2.371C112.941,564.145,126.758,564.406,126.758,564.406Z" transform="translate(-8.82 -1.658)" fill="url(#d)"/><path d="M128.788,565.671c.382.439,4.618.654,5.028.249.333-.325-.19-1.31-1.023-2.111-.8-.768-3.539-1.209-4.116-.782S128.383,565.208,128.788,565.671Z" transform="translate(-18.627 -2.473)" fill="#4d4d4d"/><g transform="translate(134.818 567.812)"><path d="M179.627,581.629a8.81,8.81,0,1,1-8.81-8.811A8.809,8.809,0,0,1,179.627,581.629Z" transform="translate(-162.008 -572.818)" fill="#252525"/><path d="M178.06,582.44a6.431,6.431,0,1,1-6.432-6.432A6.431,6.431,0,0,1,178.06,582.44Z" transform="translate(-162.82 -573.63)"/><path d="M164.835,582.346a6.7,6.7,0,1,0,6.7-6.7A6.7,6.7,0,0,0,164.835,582.346Zm5.041-2.091c-.459.344-2.517.267-3.938-.47a6.15,6.15,0,0,1,4.565-3.523C170.85,577.844,170.342,579.905,169.876,580.256Zm7.157-.687c-1.421.822-3.63.916-4.105.557-.458-.344-.951-2.336-.64-3.9A6.15,6.15,0,0,1,177.033,579.568Zm-2.909,3.478c.167-.544,1.865-1.685,3.441-1.93a6.242,6.242,0,0,1,.12,1.207,6.127,6.127,0,0,1-1.753,4.3C174.74,585.539,173.956,583.6,174.124,583.047Zm-5.27,4.809c.7-1.435,2.286-2.722,2.857-2.722.549,0,2.054,1.2,2.783,2.58a6.16,6.16,0,0,1-5.64.142Zm-3.465-5.532a6.123,6.123,0,0,1,.052-.8c1.543.158,3.211,1.082,3.42,1.59.22.536-.387,2.551-1.482,3.735A6.131,6.131,0,0,1,165.39,582.323Z" transform="translate(-162.727 -573.537)" fill="url(#e)"/><g transform="translate(7.192 7.193)"><path d="M171.654,584.083a1.618,1.618,0,1,0,1.616-1.618A1.616,1.616,0,0,0,171.654,584.083Z" transform="translate(-171.654 -582.465)" fill="#252525"/><path d="M172.416,584.277a1.049,1.049,0,1,0,1.048-1.049A1.047,1.047,0,0,0,172.416,584.277Z" transform="translate(-171.848 -582.659)" fill="#616161"/></g></g><g transform="translate(66.543 567.812)"><path d="M88.057,581.629a8.81,8.81,0,1,1-8.81-8.811A8.809,8.809,0,0,1,88.057,581.629Z" transform="translate(-70.438 -572.818)" fill="#252525"/><path d="M86.49,582.44a6.431,6.431,0,1,1-6.432-6.432A6.431,6.431,0,0,1,86.49,582.44Z" transform="translate(-71.25 -573.63)"/><path d="M73.265,582.346a6.7,6.7,0,1,0,6.7-6.7A6.7,6.7,0,0,0,73.265,582.346Zm5.041-2.091c-.459.344-2.517.267-3.938-.47a6.149,6.149,0,0,1,4.565-3.523C79.28,577.844,78.772,579.905,78.306,580.256Zm7.157-.687c-1.421.822-3.63.916-4.105.557-.458-.344-.951-2.336-.64-3.9A6.15,6.15,0,0,1,85.463,579.568Zm-2.909,3.478c.167-.544,1.865-1.685,3.441-1.93a6.242,6.242,0,0,1,.12,1.207,6.127,6.127,0,0,1-1.753,4.3C83.17,585.539,82.386,583.6,82.554,583.047Zm-5.27,4.809c.7-1.435,2.286-2.722,2.857-2.722.549,0,2.054,1.2,2.783,2.58a6.16,6.16,0,0,1-5.64.142Zm-3.465-5.532a6.123,6.123,0,0,1,.052-.8c1.543.158,3.211,1.082,3.42,1.59.22.536-.387,2.551-1.481,3.735A6.131,6.131,0,0,1,73.82,582.323Z" transform="translate(-71.157 -573.537)" fill="url(#e)"/><g transform="translate(7.191 7.193)"><path d="M80.083,584.083a1.618,1.618,0,1,0,1.617-1.618A1.617,1.617,0,0,0,80.083,584.083Z" transform="translate(-80.083 -582.465)" fill="#252525"/><path d="M80.846,584.277a1.049,1.049,0,1,0,1.048-1.049A1.047,1.047,0,0,0,80.846,584.277Z" transform="translate(-80.277 -582.659)" fill="#616161"/></g></g><path d="M103.982,569.338c-.025.435,1.727.658,3.929.788s4.022.122,4.047-.313-1.738-.895-3.94-1.026S104.008,568.9,103.982,569.338Z" transform="translate(-12.428 -3.972)" fill="#828282"/></g></svg>