<?xml version="1.0" encoding="utf-8"?>
<!-- Generator: Adobe Illustrator 25.2.1, SVG Export Plug-In . SVG Version: 6.00 Build 0)  -->
<svg version="1.1" id="Layer_1" xmlns="http://www.w3.org/2000/svg" xmlns:xlink="http://www.w3.org/1999/xlink" x="0px" y="0px"
	 viewBox="0 0 148.2 62.9" style="enable-background:new 0 0 148.2 62.9;" xml:space="preserve">
<style type="text/css">
	.st0{fill:#4D4D4D;}
	.st1{fill:url(#SVGID_1_);}
	.st2{fill:url(#SVGID_2_);}
	.st3{fill:url(#SVGID_3_);}
	.st4{fill:#828282;}
	.st5{fill:url(#SVGID_4_);}
	.st6{fill:#252525;}
	.st7{fill:url(#SVGID_5_);}
	.st8{fill:#616161;}
	.st9{fill:url(#SVGID_6_);}
</style>
<g transform="translate(2897.596 43.625)">
	<path d="M-2879.9-33.5c-4.5,3.5-9,11.1-9,11.1s7,3.5,12.1-1.9C-2871.7-29.8-2879.9-33.5-2879.9-33.5z"/>
	<path d="M-2789.4-22.9c-8.2-5.7-17.2-10.3-26.7-13.7c0,0-1.6,10.7,7.4,17.7S-2789.4-22.9-2789.4-22.9z"/>
	<path d="M-2765.8,9.7c0,0-4.1-5.8-13.5-5.6s-13.6,5.7-13.6,5.7c-10.4-3.2-21.2-4.8-32-4.9c-10.2,0.1-20.4,1.6-30.2,4.3
		c-4-3.3-8.9-5.3-14.1-5.5c-8.6-0.4-13.3,3.4-13.3,3.4s-6.6-14,3.1-21.6c11.2-8.8,88.7-6.4,106.5,1.9
		C-2757.6-5.5-2765.8,9.7-2765.8,9.7z"/>
	<path class="st0" d="M-2893.4-7c0.3-1,1.6-2.2,1.8-3c0.3-0.9-0.1-9.4,1.1-11.5c0.8-1.4,6.4-3.9,7.7-5.1c1.2-1.1,3.5-5.2,3.5-5.2
		c-1.4-0.6-2.8-1.3-4.1-2.1c-0.6-0.5-1.1-2.2-0.8-2.4c0.3-0.3,3.9-0.2,6.5-0.5c2.5-0.3,12-1.9,20-2.6c9.6-0.9,19.3-0.9,28.9-0.1
		c7.8,0.7,13.1,1.8,13.9,2.5c0.8,0.7,0,2,0,2s5.7,3,10.4,5.5c4.6,2.5,10.4,5.7,12.1,6.2c1,0.2,1.9,0.3,2.9,0.3c0,0,7.5,0.8,15.4,2.5
		c7.6,1.6,14.7,4,16.4,5.8c1.7,1.8,2.5,6.3,2.5,6.3c0.8,0.7,1.5,1.5,1.9,2.5c0.4,1.2-0.1,8.2-0.5,9.5s-3.7,4.2-5.7,5
		c-2.1,0.6-4.2,0.9-6.4,1c0,0,2.5-9.3-2.6-15.4c-5.2-6.1-16.5-5.9-21.4,0.3s-3.1,15.1-3.1,15.1s-18.8-1.3-33-1.3
		c-13.7,0-29.3,0.8-29.3,0.8s1.8-9.7-3.4-15.3s-15.5-6-20.6-0.5s-3.1,13.6-3.3,13.7c-1.6-0.3-3.1-0.8-4.6-1.4
		c-1.3-0.6-4.2-2.8-5-4.6S-2893.7-6-2893.4-7z"/>
	
		<linearGradient id="SVGID_1_" gradientUnits="userSpaceOnUse" x1="-3768.353" y1="523.1063" x2="-3768.1328" y2="523.1063" gradientTransform="matrix(138.3938 0 0 -30.3942 519749.125 15889.8711)">
		<stop  offset="0" style="stop-color:#AAAAAA"/>
		<stop  offset="1" style="stop-color:#4D4D4D"/>
	</linearGradient>
	<path class="st1" d="M-2754.1-5.8c-0.3-0.9-1.8-1.9-1.8-1.9s-0.6-4.8-2.6-6.4c-2.1-1.6-14.6-5.1-29.9-6.2c-2.4,0.8-4.1,1.4-4.1,1.4
		s-16-0.9-41.2-2.7c-25.1-1.8-38.6-3.4-43.5-3s-11.4,2.7-12.1,3.9s-0.5,10.1-0.9,11.2s-1.7,1.9-2,3c-0.3,1.1,0.2,5.2,1.4,6.6
		s5.9,2.8,5.9,2.8c-0.2-4.6,1.7-9,5.1-12.1c5.7-5.1,14-4.8,19.4-1.7c3.4,2.1,6,5.2,7.4,8.9c0,0,8-2.5,26.4-2.1
		c10.6,0.1,21.1,1.6,31.4,4.3c0,0,1.6-6.7,6.8-10.1c5.4-3.5,15.2-3.7,20.7,2c5.2,5.4,5.1,13.7,5.1,13.7s4.2-1.2,6.4-3.9
		C-2754.5-0.4-2753.8-3.1-2754.1-5.8z"/>
	
		<linearGradient id="SVGID_2_" gradientUnits="userSpaceOnUse" x1="-3773.7156" y1="497.8127" x2="-3772.7156" y2="497.8127" gradientTransform="matrix(94.673 0 0 -10.538 354392.5312 5228.1533)">
		<stop  offset="0" style="stop-color:#9D9D9D"/>
		<stop  offset="0.109" style="stop-color:#B3B3B3"/>
		<stop  offset="0.242" style="stop-color:#C8C8C8"/>
		<stop  offset="0.373" style="stop-color:#D4D4D4"/>
		<stop  offset="0.5" style="stop-color:#D9D9D9"/>
		<stop  offset="0.627" style="stop-color:#D4D4D4"/>
		<stop  offset="0.758" style="stop-color:#C8C8C8"/>
		<stop  offset="0.891" style="stop-color:#B3B3B3"/>
		<stop  offset="1" style="stop-color:#9D9D9D"/>
	</linearGradient>
	<path class="st2" d="M-2876.6-22.3c-0.3,1.5,12.5,7.2,34.9,9.1c22.4,2,60-1,59.8-2.1s-35.8-3.9-59.2-5.8S-2876.3-23.8-2876.6-22.3z
		"/>
	
		<linearGradient id="SVGID_3_" gradientUnits="userSpaceOnUse" x1="-3767.5222" y1="487.9439" x2="-3766.5222" y2="487.9439" gradientTransform="matrix(55.4521 0 0 -8.3975 206065.4844 4099.7183)">
		<stop  offset="0" style="stop-color:#4D4D4D"/>
		<stop  offset="3.600000e-02" style="stop-color:#4A4A4A"/>
		<stop  offset="0.364" style="stop-color:#353535"/>
		<stop  offset="0.688" style="stop-color:#292929"/>
		<stop  offset="1" style="stop-color:#252525"/>
	</linearGradient>
	<path class="st3" d="M-2851.4,3.7c0,2.1,12.2,2.3,27.3,2.4c15.1,0.2,28.2,0.9,28.2-1.2c0-2.1-19-6.8-34-6.9
		C-2845-2.1-2851.4,1.7-2851.4,3.7z"/>
	<path class="st4" d="M-2830.5-18.3c-0.1,0.7,1.8,1.1,4.2,1.3c2.4,0.2,5.2,0.2,5.2-0.6s-2.7-1.5-5-1.7
		C-2828.5-19.4-2830.4-19-2830.5-18.3z"/>
	<path class="st4" d="M-2861.7-20.5c-0.1,0.7,1.8,1.1,4.2,1.3s5.2,0.2,5.2-0.6c0.1-0.7-2.7-1.5-5-1.7S-2861.7-21.2-2861.7-20.5z"/>
	<path d="M-2794.3-20.1c0,0-21.4-1.2-38-2.5c-16.6-1.2-33.2-2.7-35.3-3.5c-2.1-0.9-6.2-5.4-5.9-6.2c0.3-0.8,12.1-4,24.7-4.5
		c14.5-0.6,23.6,0.7,32.6,4.4C-2807-28.7-2794.3-20.1-2794.3-20.1z"/>
	
		<linearGradient id="SVGID_4_" gradientUnits="userSpaceOnUse" x1="-3771.3762" y1="501.6316" x2="-3770.3762" y2="501.6316" gradientTransform="matrix(74.7129 0 0 -11.6911 278899.0312 5837.9502)">
		<stop  offset="0" style="stop-color:#393939"/>
		<stop  offset="0.26" style="stop-color:#343434"/>
		<stop  offset="0.53" style="stop-color:#282828"/>
		<stop  offset="0.803" style="stop-color:#131313"/>
		<stop  offset="1" style="stop-color:#000000"/>
	</linearGradient>
	<path class="st5" d="M-2796.8-20.8c0,0-20.4-1.4-36.3-2.7s-31-2.6-33-3.4c-2-0.8-5.6-4.2-5.4-5c0.3-0.8,20.9-1.3,36.3,1
		C-2817.8-28.3-2796.8-20.8-2796.8-20.8z"/>
	<path class="st0" d="M-2804.8-24.6c-1-1.1-3.9-1.4-4.5-0.9c-0.7,0.6-0.4,4.1,0.1,4.6c0.5,0.5,5.3,0.8,5.7,0.3
		C-2803.1-20.9-2803.6-23.3-2804.8-24.6z"/>
	<path class="st6" d="M-2767.1,3.8c0,6.6-5.3,11.9-11.9,11.9c-6.6,0-11.9-5.3-11.9-11.9c0-6.6,5.3-11.9,11.9-11.9
		C-2772.4-8.1-2767.1-2.8-2767.1,3.8C-2767.1,3.8-2767.1,3.8-2767.1,3.8z"/>
	<path d="M-2770.3,3.8c0,4.8-3.9,8.7-8.7,8.7c-4.8,0-8.7-3.9-8.7-8.7c0-4.8,3.9-8.7,8.7-8.7C-2774.2-4.9-2770.3-1-2770.3,3.8
		C-2770.3,3.8-2770.3,3.8-2770.3,3.8z"/>
	
		<linearGradient id="SVGID_5_" gradientUnits="userSpaceOnUse" x1="-3736.1609" y1="514.4764" x2="-3736.1609" y2="513.4744" gradientTransform="matrix(18.096 0 0 -18.096 64830.6484 9304.8486)">
		<stop  offset="0" style="stop-color:#E6E6E6"/>
		<stop  offset="1" style="stop-color:#4D4D4D"/>
	</linearGradient>
	<path class="st7" d="M-2788,3.8c0,5,4,9,9,9s9-4,9-9s-4.1-9-9-9c0,0,0,0,0,0C-2783.9-5.2-2788-1.2-2788,3.8z M-2781.2,1
		c-0.6,0.5-3.4,0.4-5.3-0.6c1.1-2.5,3.4-4.3,6.2-4.8C-2779.9-2.3-2780.6,0.5-2781.2,1L-2781.2,1z M-2771.5,0
		c-1.9,1.1-4.9,1.2-5.5,0.8c-0.6-0.5-1.3-3.2-0.9-5.3C-2775.2-4.1-2772.8-2.4-2771.5,0z M-2775.5,4.7c0.2-0.7,2.5-2.3,4.6-2.6
		c0.1,0.5,0.2,1.1,0.2,1.6c0,2.2-0.8,4.3-2.4,5.8C-2774.6,8.1-2775.7,5.5-2775.5,4.7L-2775.5,4.7z M-2782.6,11.2
		c0.9-1.9,3.1-3.7,3.9-3.7c0.7,0,2.8,1.6,3.8,3.5C-2777.3,12.3-2780.2,12.4-2782.6,11.2z M-2787.2,3.8c0-0.4,0-0.7,0.1-1.1
		c2.1,0.2,4.3,1.5,4.6,2.1c0.3,0.7-0.5,3.4-2,5C-2786.3,8.3-2787.3,6.1-2787.2,3.8L-2787.2,3.8z"/>
	<path class="st6" d="M-2781.1,3.8c0,1.2,1,2.2,2.2,2.2c1.2,0,2.2-1,2.2-2.2c0-1.2-1-2.2-2.2-2.2c0,0,0,0,0,0
		C-2780.2,1.6-2781.1,2.6-2781.1,3.8C-2781.1,3.8-2781.1,3.8-2781.1,3.8z"/>
	<path class="st8" d="M-2780.4,3.8c0,0.8,0.6,1.4,1.4,1.4s1.4-0.6,1.4-1.4c0-0.8-0.6-1.4-1.4-1.4C-2779.7,2.4-2780.4,3-2780.4,3.8
		C-2780.4,3.8-2780.4,3.8-2780.4,3.8z"/>
	<path class="st6" d="M-2857.1,3.8c0,6.6-5.3,11.9-11.9,11.9c-6.6,0-11.9-5.3-11.9-11.9c0-6.6,5.3-11.9,11.9-11.9
		C-2862.4-8.1-2857.1-2.8-2857.1,3.8C-2857.1,3.8-2857.1,3.8-2857.1,3.8z"/>
	<path d="M-2860.3,3.8c0,4.8-3.9,8.7-8.7,8.7c-4.8,0-8.7-3.9-8.7-8.7c0-4.8,3.9-8.7,8.7-8.7C-2864.2-4.9-2860.3-1-2860.3,3.8
		C-2860.3,3.8-2860.3,3.8-2860.3,3.8z"/>
	
		<linearGradient id="SVGID_6_" gradientUnits="userSpaceOnUse" x1="-3736.1609" y1="514.4764" x2="-3736.1609" y2="513.4744" gradientTransform="matrix(18.096 0 0 -18.096 64740.6016 9304.8486)">
		<stop  offset="0" style="stop-color:#E6E6E6"/>
		<stop  offset="1" style="stop-color:#4D4D4D"/>
	</linearGradient>
	<path class="st9" d="M-2878,3.8c0,5,4.1,9,9,9s9-4,9-9c0-5-4.1-9-9-9c0,0,0,0,0,0C-2874-5.2-2878-1.2-2878,3.8z M-2871.2,1
		c-0.6,0.5-3.4,0.4-5.3-0.6c1.1-2.5,3.4-4.3,6.2-4.8C-2869.9-2.3-2870.6,0.5-2871.2,1L-2871.2,1z M-2861.6,0
		c-1.9,1.1-4.9,1.2-5.5,0.8c-0.6-0.5-1.3-3.2-0.9-5.3C-2865.2-4.1-2862.8-2.4-2861.6,0L-2861.6,0z M-2865.5,4.7
		c0.2-0.7,2.5-2.3,4.6-2.6c0.1,0.5,0.2,1.1,0.2,1.6c0,2.2-0.8,4.3-2.4,5.8C-2864.7,8.1-2865.7,5.5-2865.5,4.7L-2865.5,4.7z
		 M-2872.6,11.2c0.9-1.9,3.1-3.7,3.9-3.7c0.7,0,2.8,1.6,3.8,3.5C-2867.4,12.3-2870.2,12.4-2872.6,11.2L-2872.6,11.2z M-2877.3,3.8
		c0-0.4,0-0.7,0.1-1.1c2.1,0.2,4.3,1.5,4.6,2.1c0.3,0.7-0.5,3.4-2,5C-2876.3,8.3-2877.3,6.1-2877.3,3.8L-2877.3,3.8z"/>
	<path class="st6" d="M-2871.2,3.8c0,1.2,1,2.2,2.2,2.2c1.2,0,2.2-1,2.2-2.2c0-1.2-1-2.2-2.2-2.2c0,0,0,0,0,0
		C-2870.2,1.6-2871.2,2.6-2871.2,3.8C-2871.2,3.8-2871.2,3.8-2871.2,3.8z"/>
	<path class="st8" d="M-2870.4,3.8c0,0.8,0.6,1.4,1.4,1.4s1.4-0.6,1.4-1.4c0-0.8-0.6-1.4-1.4-1.4C-2869.8,2.4-2870.4,3-2870.4,3.8
		C-2870.4,3.8-2870.4,3.8-2870.4,3.8z"/>
	<path class="st0" d="M-2844.2-37.9c-2.8,7.4-4.6,14.8-4.6,14.8l5.9,0.3c1.6-7.8,3.6-14.8,3.6-14.8L-2844.2-37.9z"/>
</g>
</svg>
