<svg xmlns="http://www.w3.org/2000/svg" width="59" height="59" viewBox="0 0 59 59"><g transform="translate(0.196 0.192)"><g transform="translate(-0.196 -0.192)" fill="none" stroke="#fff" stroke-width="3"><circle cx="29.5" cy="29.5" r="29.5" stroke="none"/><circle cx="29.5" cy="29.5" r="28" fill="none"/></g><g transform="translate(13.738 13.737)"><path d="M206.635,189.375,191.4,185.6l5.12-1.341s-10-9.142-22.185-1.585c2.56-4.51,14.628-15.725,28.4-3.9,1.1-1.828,2.438-3.9,2.438-3.9Z" transform="translate(-174.333 -173.521)" fill="#fff"/><path d="M175.315,507.287l15.237,3.779-5.12,1.341s10,9.142,22.185,1.585c-2.56,4.51-14.628,15.725-28.4,3.9-1.1,1.828-2.438,3.9-2.438,3.9Z" transform="translate(-175.266 -490.709)" fill="#fff"/></g></g></svg>