<svg xmlns="http://www.w3.org/2000/svg" width="260" height="262" viewBox="0 0 260 262"><defs><style>.a,.d{fill:#fff;}.a{stroke:#707070;}.b,.c{fill:#e50019;}.b,.d{fill-rule:evenodd;}.e{stroke:none;}.f{fill:none;}</style></defs><g transform="translate(-1166 -3499)"><g class="a" transform="translate(1166 3499)"><rect class="e" width="260" height="262" rx="14"/><rect class="f" x="0.5" y="0.5" width="259" height="261" rx="13.5"/></g><g transform="translate(1160.663 3342.89)"><path class="b" d="M129.175,566.14c.55,0,.813.028,1-.409.221-.523,1.988-5.832,1.988-5.832h4.027c1.748,0,4.159-.031,4.159-.031a18.858,18.858,0,0,1,1.023,2.825c.715,2.277.93,3.5,2,3.5h3.706c.516,0,.671-.205.671-.609a5.451,5.451,0,0,0-.4-1.346s-1.73-5.029-2.121-6.177-1.746-5.027-2.564-7.294-2.173-6.446-2.4-7.161-.251-1.046-1.036-1.129a27.548,27.548,0,0,0-3.787-.133.639.639,0,0,0-.632.536c-.155.508-1.688,5.2-2.339,7.13s-2.564,7.522-2.813,8.278-1.945,5.835-2.225,6.705-.319,1.119.238,1.119S128.624,566.14,129.175,566.14Zm7.021-18.777s.527,1.318,1.83,5.366,1.455,4.63,1.455,4.63-1.175.014-3.187.014-3.342-.055-3.342-.055.3-1.027,1.566-4.908S136.2,547.363,136.2,547.363Z" transform="translate(-46.72 -216.488)"/><path class="b" d="M310.725,566.14c.55,0,.814.028,1-.409.221-.523,1.988-5.832,1.988-5.832h4.027c1.748,0,4.159-.031,4.159-.031a18.854,18.854,0,0,1,1.023,2.825c.714,2.277.93,3.5,2,3.5h3.706c.516,0,.671-.205.671-.609a5.457,5.457,0,0,0-.4-1.346s-1.73-5.029-2.121-6.177-1.746-5.027-2.565-7.294-2.173-6.446-2.4-7.161-.25-1.046-1.035-1.129a27.544,27.544,0,0,0-3.786-.133.638.638,0,0,0-.632.536c-.156.508-1.688,5.2-2.339,7.13s-2.564,7.522-2.813,8.278-1.945,5.835-2.224,6.705-.319,1.119.238,1.119S310.175,566.14,310.725,566.14Zm7.021-18.777s.527,1.318,1.829,5.366,1.455,4.63,1.455,4.63-1.175.014-3.188.014-3.342-.055-3.342-.055.3-1.027,1.566-4.908S317.746,547.363,317.746,547.363Z" transform="translate(-169.85 -216.488)"/><path class="b" d="M203.091,543.923c0-.987.252-1.4,1.14-1.4s1.782.019,2.421.019,1.789-.029,1.789.642.1,9.091.1,10.813.058,9.682.058,10.775-.117,1.578-.968,1.578-2.131.057-2.994.048-1.427-.105-1.427-1.32-.048-11.943-.048-13.847S203.091,544.909,203.091,543.923Z" transform="translate(-98.174 -216.63)"/><path class="b" d="M250.185,555.245c-1.105,0-3.651.015-3.651.015.013,2.845.051,8.6.051,9.512,0,1.092-.113,1.578-.924,1.578s-2.035.058-2.858.048-1.363-.105-1.363-1.32-.045-11.943-.045-13.847-.064-6.322-.064-7.309.24-1.4,1.089-1.4,1.7.019,2.312.019,1.708-.029,1.708.642c0,.559.063,6.494.1,9.456,0,0,1.188.034,3.672.034s4.145-.034,4.145-.034c0-2.963.068-8.9.068-9.456,0-.671,1.1-.642,1.708-.642s1.463-.019,2.312-.019,1.089.412,1.089,1.4-.064,5.405-.064,7.309-.046,12.633-.046,13.847-.54,1.31-1.363,1.32-2.047-.048-2.858-.048-.924-.486-.924-1.578c0-.916.039-6.667.051-9.512C254.33,555.26,251.291,555.245,250.185,555.245Z" transform="translate(-124.109 -216.63)"/><path class="b" d="M373.628,565.8c.043.743.008.9.355.971a25.032,25.032,0,0,0,2.636.254c.946.042,2.2.228,2.2-1.123s-.025-5.931-.025-6.361-.034-5.094-.034-5.491V546.1c0-.228.068-.3.33-.3s2.881.059,3.869.059h1.63c.254,0,.524.068.574-.321s.11-1.191.118-1.588-.009-.684-.684-.727-5.221-.126-6.192-.144-4.723-.017-5.432-.008-5.263.076-5.609.076-.507.4-.507,1.242.068,1.369.524,1.369,4,.009,4.942.025c.482.009.676,0,.82,0s.321-.013.321.127.076,3.48.076,4.756-.042,4.68-.042,6.04.076,5.837.076,6.4S373.586,565.052,373.628,565.8Z" transform="translate(-209.239 -217.003)"/><path class="b" d="M434.175,567.275a23.833,23.833,0,0,1-5.78-1,.778.778,0,0,1-.6-.886v-.962c0-.483.055-1.037.346-1.037.955,0,2,1.507,6.439,1.507,2.527,0,2.917-1.458,2.917-2.381,0-5.077-9.89-6.123-9.89-13.269,0-5.25,3.912-6.194,7.046-6.194a12.99,12.99,0,0,1,5.052.906c.645.309.729.526.729.874v1.755c0,.25-.141.43-.343.43-.659,0-1.622-1.622-5.17-1.622-2.348,0-3.345,1.166-3.345,2.534,0,4.072,10.222,5.879,10.222,13.01C441.8,565.964,437.522,567.275,434.175,567.275Z" transform="translate(-250.443 -216.99)"/><path class="b" d="M483.912,544.924c0-.464.084-.8.777-.8s1.174-.059,1.791-.059,1.14.009,1.63.017.98.085.98,1.96-.046,6.74-.046,7.645.011,3.883.011,5.2c0,2.411-.4,6.906,4.535,6.906.933,0,4.507,0,4.507-4.774,0-1.865-.082-8.906-.1-11.8-.011-1.532-.063-3.888-.063-4.355s.094-.678.421-.678,1.139.023,1.671.023.853.006.853.368.1,2.812.1,9.506V561.2c0,1.476.148,6.9-7.167,6.9S484,564.223,484,560.282,483.912,545.389,483.912,544.924Z" transform="translate(-288.63 -217.674)"/><path class="b" d="M58.371,554.561c0,4.021.091,9.824.091,10.383s.02.83,1.391.907,6.7.019,8.284.019c6.488,0,9.788-4.653,9.788-11.353,0-11.084-6.174-12.475-10.583-12.475H59.4c-.676,0-1.064.033-1.064.777S58.371,550.54,58.371,554.561Zm8.206,8.865c2.953,0,6.041-.481,6.041-9.578s-3.434-9.166-6.316-9.166H64.445c-.309,0-.82-.047-.82.544v18.12S65.237,563.426,66.576,563.426Z" transform="translate(0 -216.303)"/><rect class="c" width="154.008" height="91.455" transform="translate(58.337 223.11)"/><path class="d" d="M152.653,322.933l-18.611,1.891-33.288-33.289s21.744-1.345,61.3,2.226,61.451,9.629,61.451,16c0,16.929-107.061,33.5-107.061,33.5l9.578-14.962L89.313,291.949l8.7-.414,35.151,35.152s86.251-7.61,86.251-16.721c0-5.487-38.518-10.3-57.362-11.855-16.879-1.39-35.514-1.295-35.514-1.295Z" transform="translate(-21.008 -46.238)"/></g></g></svg>