<?xml version="1.0" encoding="utf-8"?>
<!-- Generator: Adobe Illustrator 25.2.0, SVG Export Plug-In . SVG Version: 6.00 Build 0)  -->
<svg version="1.1" id="Layer_1" xmlns="http://www.w3.org/2000/svg" xmlns:xlink="http://www.w3.org/1999/xlink" x="0px" y="0px"
	 viewBox="0 0 667.86 250.84" style="enable-background:new 0 0 667.86 250.84;" xml:space="preserve">
<style type="text/css">
	.st0{fill:#25B4AA;}
	.st1{fill:#232221;}
	.st2{fill:#FDFDFD;}
	.st3{fill:#FFFFFF;}
	.st4{font-family:'Lato-Black';}
	.st5{font-size:105.2042px;}
</style>
<g>
	<path class="st0" d="M-364.56-1103.81c0,52.58-42.63,95.21-95.21,95.21s-95.21-42.63-95.21-95.21c0-52.58,42.63-95.21,95.21-95.21
		S-364.56-1156.39-364.56-1103.81"/>
	<path class="st1" d="M-406.38-1051.5c-1.86,0-3.72,0.02-5.58,0c-5.24-0.06-7.74-2.26-7.75-7.43c-0.01-5.59-0.83-4.9-5.18-4.9
		c-23.5-0.01-47.01-0.01-70.51,0c-4.25,0-4.25,0.01-4.36,4.19c-0.16,5.93-2.37,8.11-8.28,8.14c-3.82,0.02-7.64,0.03-11.46-0.01
		c-4.58-0.04-7.1-2.44-7.22-7.03c-0.11-4.11-0.05-8.23-0.03-12.34c0.01-1.52-0.33-2.82-1.39-4.03c-8.57-9.8-9.68-22.66-2.83-33.68
		c1.32-2.12,1.51-3-1.44-2.94c-2.8,0.06-4.57-1.45-5.13-4.27c-0.65-3.26-1.41-6.51-1.97-9.79c-0.56-3.28,0.91-5.12,4.24-5.22
		c3.82-0.12,7.65-0.21,11.45,0.01c2.86,0.16,4.24-1.07,5.21-3.6c2.18-5.67,4.87-11.08,8.59-15.97c3.72-4.89,8.99-7.17,14.49-8.96
		c8.03-2.61,16.31-3.91,24.76-4.56c14.67-1.14,29.06,0.01,43.38,3.46c11.94,2.88,19.95,9.85,24.42,21.15
		c0.36,0.91,0.92,1.77,1.12,2.71c1.06,5.05,4.28,6.38,9.05,5.79c2.8-0.34,5.68-0.13,8.51-0.02c3.33,0.13,4.79,1.94,4.24,5.23
		c-0.5,2.99-1.14,5.96-1.77,8.93c-0.83,3.9-1.93,4.91-5.93,5.15c-2.14,0.13-2.56,0.53-1.31,2.55c7.31,11.76,6.4,23.95-2.51,34.74
		c-0.96,1.16-1.24,2.38-1.24,3.79c0.01,3.82,0.05,7.64-0.02,11.46c-0.08,4.97-2.53,7.4-7.41,7.45
		C-402.27-1051.49-404.33-1051.5-406.38-1051.5"/>
	<path class="st2" d="M-459.78-1124.51c-15.46,0-30.91-0.06-46.37,0.05c-2.72,0.02-3.16-0.59-2.07-3.05
		c1.58-3.57,3.11-7.16,4.79-10.7c2.15-4.54,5.62-7.34,10.26-9.02c7.33-2.65,14.93-3.94,22.65-4.47c13.43-0.92,26.74-0.36,39.88,3.04
		c7.89,2.04,13.51,6.25,16.29,14.05c0.82,2.3,1.92,4.49,2.81,6.76c1.29,3.31,1.25,3.33-2.15,3.33c-11.05,0-22.11,0-33.16,0
		C-451.17-1124.51-455.48-1124.51-459.78-1124.51"/>
	<path class="st3" d="M-485.9-1101.11h52.28c0.9,0,1.73-0.49,2.18-1.27c2.74-4.83,7.94-8.1,13.89-8.1c5.48,0,10.31,2.76,13.19,6.96
		c0.57,0.83-0.03,1.96-1.03,1.96h-8.63c-3.89,0-7.04,3.15-7.04,7.04l0,0c0,3.99,3.27,7.2,7.26,7.12c4.1-0.08,8.42-0.08,8.42-0.08
		c1,0,1.6,1.12,1.03,1.95c-3.19,4.67-8.8,7.56-15.03,6.87c-5.19-0.58-9.63-3.65-12.08-8c-0.44-0.78-1.27-1.27-2.17-1.27h-52.28
		c-0.9,0-1.73,0.49-2.18,1.27c-2.74,4.83-7.94,8.1-13.89,8.1c-5.48,0-10.31-2.76-13.19-6.96c-0.57-0.83,0.03-1.96,1.03-1.96h8.63
		c3.89,0,7.04-3.15,7.04-7.04l0,0c0-3.89-3.15-7.04-7.04-7.04h-8.63c-1.01,0-1.6-1.13-1.03-1.96c3.19-4.67,8.8-7.55,15.02-6.86
		c5.19,0.58,9.63,3.65,12.08,8C-487.64-1101.59-486.8-1101.11-485.9-1101.11z"/>
</g>
<g>
	<path class="st0" d="M-364.56-809.89c0,52.58-42.63,95.21-95.21,95.21s-95.21-42.63-95.21-95.21c0-52.58,42.63-95.21,95.21-95.21
		S-364.56-862.48-364.56-809.89"/>
	<path class="st1" d="M-406.38-757.59c-1.86,0-3.72,0.02-5.58,0c-5.24-0.06-7.74-2.26-7.75-7.43c-0.01-5.59-0.83-4.9-5.18-4.9
		c-23.5-0.01-47.01-0.01-70.51,0c-4.25,0-4.25,0.01-4.36,4.19c-0.16,5.93-2.37,8.11-8.28,8.14c-3.82,0.02-7.64,0.03-11.46-0.01
		c-4.58-0.04-7.1-2.44-7.22-7.03c-0.11-4.11-0.05-8.23-0.03-12.34c0.01-1.52-0.33-2.82-1.39-4.03c-8.57-9.8-9.68-22.66-2.83-33.68
		c1.32-2.12,1.51-3-1.44-2.94c-2.8,0.06-4.57-1.45-5.13-4.27c-0.65-3.26-1.41-6.51-1.97-9.79c-0.56-3.28,0.91-5.12,4.24-5.22
		c3.82-0.12,7.65-0.21,11.45,0.01c2.86,0.16,4.24-1.07,5.21-3.6c2.18-5.67,4.87-11.08,8.59-15.97c3.72-4.89,8.99-7.17,14.49-8.96
		c8.03-2.61,16.31-3.91,24.76-4.56c14.67-1.14,29.06,0.01,43.38,3.46c11.94,2.88,19.95,9.85,24.42,21.15
		c0.36,0.91,0.92,1.77,1.12,2.71c1.06,5.05,4.28,6.38,9.05,5.79c2.8-0.34,5.68-0.13,8.51-0.02c3.33,0.13,4.79,1.94,4.24,5.23
		c-0.5,2.99-1.14,5.96-1.77,8.93c-0.83,3.9-1.93,4.91-5.93,5.15c-2.14,0.13-2.56,0.53-1.31,2.55c7.31,11.76,6.4,23.95-2.51,34.74
		c-0.96,1.16-1.24,2.38-1.24,3.79c0.01,3.82,0.05,7.64-0.02,11.46c-0.08,4.97-2.53,7.4-7.41,7.45
		C-402.27-757.57-404.33-757.59-406.38-757.59"/>
	<path class="st2" d="M-459.78-830.6c-15.46,0-30.91-0.06-46.37,0.05c-2.72,0.02-3.16-0.59-2.07-3.05c1.58-3.57,3.11-7.16,4.79-10.7
		c2.15-4.54,5.62-7.34,10.26-9.02c7.33-2.65,14.93-3.94,22.65-4.47c13.43-0.92,26.74-0.36,39.88,3.04
		c7.89,2.04,13.51,6.25,16.29,14.05c0.82,2.3,1.92,4.49,2.81,6.76c1.29,3.31,1.25,3.33-2.15,3.33c-11.05,0-22.11,0-33.16,0
		C-451.17-830.6-455.48-830.6-459.78-830.6"/>
	<path class="st3" d="M-485.9-807.19h52.28c0.9,0,1.73-0.49,2.18-1.27c2.74-4.83,7.94-8.1,13.89-8.1c5.48,0,10.31,2.76,13.19,6.96
		c0.57,0.83-0.03,1.96-1.03,1.96h-8.63c-3.89,0-7.04,3.15-7.04,7.04l0,0c0,3.99,3.27,7.2,7.26,7.12c4.1-0.08,8.42-0.08,8.42-0.08
		c1,0,1.6,1.12,1.03,1.95c-3.19,4.67-8.8,7.56-15.03,6.87c-5.19-0.58-9.63-3.65-12.08-8c-0.44-0.78-1.27-1.27-2.17-1.27h-52.28
		c-0.9,0-1.73,0.49-2.18,1.27c-2.74,4.83-7.94,8.1-13.89,8.1c-5.48,0-10.31-2.76-13.19-6.96c-0.57-0.83,0.03-1.96,1.03-1.96h8.63
		c3.89,0,7.04-3.15,7.04-7.04v0c0-3.89-3.15-7.04-7.04-7.04h-8.63c-1.01,0-1.6-1.13-1.03-1.96c3.19-4.67,8.8-7.55,15.02-6.86
		c5.19,0.58,9.63,3.65,12.08,8C-487.64-807.68-486.8-807.19-485.9-807.19z"/>
</g>
<g>
	<path class="st0" d="M224.71,127.11c0,52.58-42.63,95.21-95.21,95.21s-95.21-42.63-95.21-95.21c0-52.58,42.63-95.21,95.21-95.21
		S224.71,74.53,224.71,127.11"/>
	<path class="st1" d="M182.89,179.41c-1.86,0-3.72,0.02-5.58,0c-5.24-0.06-7.74-2.26-7.75-7.43c-0.01-5.59-0.83-4.9-5.18-4.9
		c-23.5-0.01-47.01-0.01-70.51,0c-4.25,0-4.25,0.01-4.36,4.19c-0.16,5.93-2.37,8.11-8.28,8.14c-3.82,0.02-7.64,0.03-11.46-0.01
		c-4.58-0.04-7.1-2.44-7.22-7.03c-0.11-4.11-0.05-8.23-0.03-12.34c0.01-1.52-0.33-2.82-1.39-4.03c-8.57-9.8-9.68-22.66-2.83-33.68
		c1.32-2.12,1.51-3-1.44-2.94c-2.8,0.06-4.57-1.45-5.13-4.27c-0.65-3.26-1.41-6.51-1.97-9.79c-0.56-3.28,0.91-5.12,4.24-5.22
		c3.82-0.12,7.65-0.21,11.45,0.01c2.86,0.16,4.24-1.07,5.21-3.6c2.18-5.67,4.87-11.08,8.59-15.97c3.72-4.89,8.99-7.17,14.49-8.96
		c8.03-2.61,16.31-3.91,24.76-4.56c14.67-1.14,29.06,0.01,43.38,3.46c11.94,2.88,19.95,9.85,24.42,21.15
		c0.36,0.91,0.92,1.77,1.12,2.71c1.06,5.05,4.28,6.38,9.05,5.79c2.8-0.35,5.68-0.13,8.51-0.02c3.33,0.13,4.79,1.94,4.24,5.23
		c-0.5,2.99-1.14,5.96-1.77,8.93c-0.83,3.9-1.93,4.91-5.93,5.15c-2.14,0.13-2.56,0.53-1.31,2.55c7.31,11.76,6.4,23.95-2.51,34.74
		c-0.96,1.16-1.24,2.38-1.24,3.79c0.01,3.82,0.05,7.64-0.02,11.46c-0.08,4.97-2.53,7.4-7.41,7.45
		C187,179.43,184.95,179.41,182.89,179.41"/>
	<path class="st2" d="M129.49,106.41c-15.46,0-30.91-0.06-46.37,0.05c-2.72,0.02-3.16-0.59-2.07-3.05c1.58-3.57,3.11-7.16,4.79-10.7
		c2.15-4.54,5.62-7.34,10.26-9.02c7.33-2.65,14.93-3.94,22.65-4.47c13.43-0.92,26.74-0.36,39.88,3.04
		c7.89,2.04,13.51,6.25,16.29,14.05c0.82,2.3,1.92,4.49,2.81,6.76c1.29,3.31,1.25,3.33-2.15,3.33c-11.05,0-22.11,0-33.16,0
		C138.1,106.41,133.8,106.41,129.49,106.41"/>
	<path class="st3" d="M103.37,129.81l52.28,0c0.9,0,1.73-0.49,2.18-1.27c2.74-4.83,7.94-8.1,13.89-8.1c5.48,0,10.31,2.76,13.19,6.96
		c0.57,0.83-0.03,1.96-1.03,1.96h-8.63c-3.89,0-7.04,3.15-7.04,7.04v0c0,3.99,3.27,7.2,7.26,7.12c4.1-0.08,8.42-0.08,8.42-0.08
		c1,0,1.6,1.12,1.03,1.95c-3.19,4.67-8.8,7.56-15.03,6.87c-5.19-0.58-9.63-3.65-12.08-8c-0.44-0.78-1.27-1.27-2.17-1.27l-52.28,0
		c-0.9,0-1.73,0.49-2.18,1.27c-2.74,4.83-7.94,8.1-13.89,8.1c-5.48,0-10.31-2.76-13.19-6.96c-0.57-0.83,0.03-1.96,1.03-1.96h8.63
		c3.89,0,7.04-3.15,7.04-7.04v0c0-3.89-3.15-7.04-7.04-7.04h-8.63c-1.01,0-1.6-1.13-1.03-1.96c3.19-4.67,8.8-7.55,15.02-6.86
		c5.19,0.58,9.63,3.65,12.08,8C101.64,129.33,102.47,129.81,103.37,129.81z"/>
</g>
<text transform="matrix(1 0 0 1 -334.65 -1078.5482)"><tspan x="0" y="0" class="st1 st4 st5">MEKANI</tspan><tspan x="424.86" y="0" class="st0 st4 st5">C45</tspan></text>
<text transform="matrix(1 0 0 1 -334.65 -787.3106)"><tspan x="0" y="0" class="st1 st4 st5">MEKANIK</tspan><tspan x="499.19" y="0" class="st0 st4 st5">45</tspan></text>
<path class="st0" d="M611.52-1052.06c0,52.58-42.63,95.21-95.21,95.21c-52.58,0-95.21-42.63-95.21-95.21
	c0-52.58,42.63-95.21,95.21-95.21C568.89-1147.28,611.52-1104.65,611.52-1052.06"/>
<path class="st1" d="M569.69-999.76c-1.86,0-3.72,0.02-5.58,0c-5.24-0.06-7.74-2.26-7.75-7.43c-0.01-5.59-0.83-4.9-5.18-4.9
	c-23.5-0.01-47.01-0.01-70.51,0c-4.25,0-4.25,0.01-4.36,4.19c-0.16,5.93-2.37,8.11-8.28,8.14c-3.82,0.02-7.64,0.03-11.46-0.01
	c-4.58-0.04-7.1-2.44-7.22-7.03c-0.11-4.11-0.05-8.23-0.03-12.34c0.01-1.52-0.33-2.82-1.39-4.03c-8.57-9.8-9.68-22.66-2.83-33.68
	c1.32-2.12,1.51-3-1.44-2.94c-2.8,0.06-4.57-1.45-5.13-4.27c-0.65-3.26-1.41-6.51-1.97-9.79c-0.56-3.28,0.91-5.12,4.24-5.22
	c3.82-0.12,7.65-0.21,11.45,0.01c2.86,0.16,4.24-1.07,5.21-3.6c2.18-5.67,4.87-11.08,8.59-15.97c3.72-4.89,8.99-7.17,14.49-8.96
	c8.03-2.61,16.31-3.91,24.76-4.56c14.67-1.14,29.06,0.01,43.38,3.46c11.94,2.88,19.95,9.85,24.42,21.15
	c0.36,0.91,0.92,1.77,1.12,2.71c1.06,5.05,4.28,6.38,9.05,5.79c2.8-0.35,5.68-0.13,8.51-0.02c3.33,0.13,4.79,1.94,4.24,5.23
	c-0.5,2.99-1.14,5.96-1.77,8.93c-0.83,3.9-1.93,4.91-5.93,5.15c-2.14,0.13-2.56,0.53-1.31,2.55c7.31,11.76,6.4,23.95-2.51,34.74
	c-0.96,1.16-1.24,2.38-1.24,3.79c0.01,3.82,0.05,7.64-0.02,11.46c-0.08,4.97-2.53,7.4-7.41,7.45
	C573.81-999.74,571.75-999.76,569.69-999.76"/>
<path class="st3" d="M490.17-1049.36h52.28c0.9,0,1.73-0.49,2.18-1.27c2.74-4.83,7.94-8.1,13.89-8.1c5.48,0,10.31,2.76,13.19,6.96
	c0.57,0.83-0.03,1.96-1.03,1.96h-8.63c-3.89,0-7.04,3.15-7.04,7.04l0,0c0,3.99,3.27,7.2,7.26,7.12c4.1-0.08,8.42-0.08,8.42-0.08
	c1,0,1.6,1.12,1.03,1.95c-3.19,4.67-8.8,7.56-15.03,6.87c-5.19-0.58-9.63-3.65-12.08-8c-0.44-0.78-1.27-1.27-2.17-1.27h-52.28
	c-0.9,0-1.73,0.49-2.18,1.27c-2.74,4.83-7.94,8.1-13.89,8.1c-5.48,0-10.31-2.76-13.19-6.96c-0.57-0.83,0.03-1.96,1.03-1.96h8.63
	c3.89,0,7.04-3.15,7.04-7.04l0,0c0-3.89-3.15-7.04-7.04-7.04h-8.63c-1.01,0-1.6-1.13-1.03-1.96c3.19-4.67,8.8-7.55,15.02-6.86
	c5.19,0.58,9.63,3.65,12.08,8C488.44-1049.85,489.27-1049.36,490.17-1049.36z"/>
<text transform="matrix(1 0 0 1 254.625 155.5238)"><tspan x="0" y="0" class="st1 st4 st5">FIX</tspan><tspan x="164.91" y="0" class="st0 st4 st5">IT</tspan><tspan x="261.69" y="0" class="st1 st4 st5">45</tspan></text>
<g>
	<g>
		<path class="st3" d="M540.24-1067.04l-18.68-32.35c-2.34-4.06-6.17-4.06-8.52,0l-18.68,32.35c-2.34,4.06-0.43,7.37,4.26,7.37
			h37.35C540.66-1059.67,542.58-1062.99,540.24-1067.04z M519.5-1066.39c0,0.95-0.98,1.72-2.19,1.72c-1.21,0-2.2-0.77-2.2-1.72
			v-1.13c0-0.95,0.98-1.72,2.2-1.72c1.21,0,2.19,0.77,2.19,1.72V-1066.39z M519.55-1072.69c0,0.96-1.01,1.74-2.25,1.74
			c-1.24,0-2.25-0.78-2.25-1.74v-18.6c0-0.96,1.01-1.74,2.25-1.74c1.24,0,2.25,0.78,2.25,1.74V-1072.69z"/>
	</g>
</g>
</svg>
