<svg xmlns="http://www.w3.org/2000/svg" width="36" height="36" viewBox="0 0 36 36">
  <path id="Icon_awesome-gas-pump" data-name="Icon awesome-gas-pump" d="M23.625,31.5H1.125A1.128,1.128,0,0,0,0,32.625v2.25A1.128,1.128,0,0,0,1.125,36h22.5a1.128,1.128,0,0,0,1.125-1.125v-2.25A1.128,1.128,0,0,0,23.625,31.5ZM34.678,7.545l-5.7-5.7a1.129,1.129,0,0,0-1.589,0l-.795.795a1.129,1.129,0,0,0,0,1.589L29.25,6.884V11.25a3.931,3.931,0,0,0,3.375,3.881V26.438a1.688,1.688,0,0,1-3.375,0v-2.25A6.188,6.188,0,0,0,23.063,18H22.5V4.5A4.5,4.5,0,0,0,18,0H6.75a4.5,4.5,0,0,0-4.5,4.5V29.25H22.5V21.375h.563a2.812,2.812,0,0,1,2.813,2.813v1.955a5.273,5.273,0,0,0,4.535,5.337A5.076,5.076,0,0,0,36,26.437V10.73a4.508,4.508,0,0,0-1.322-3.185ZM18,13.5H6.75v-9H18Z" fill="#707070"/>
</svg>
