<?xml version="1.0" encoding="utf-8"?>
<!-- Generator: Adobe Illustrator 25.2.1, SVG Export Plug-In . SVG Version: 6.00 Build 0)  -->
<svg version="1.1" id="Layer_1" xmlns="http://www.w3.org/2000/svg" xmlns:xlink="http://www.w3.org/1999/xlink" x="0px" y="0px"
	 viewBox="0 0 163 72" style="enable-background:new 0 0 163 72;" xml:space="preserve">
<style type="text/css">
	.st0{fill:#4D4D4D;}
	.st1{fill:url(#SVGID_1_);}
	.st2{fill:url(#SVGID_2_);}
	.st3{fill:#828282;}
	.st4{fill:url(#SVGID_3_);}
	.st5{fill:url(#SVGID_4_);}
	.st6{fill:#252525;}
	.st7{fill:url(#SVGID_5_);}
	.st8{fill:#616161;}
	.st9{fill:url(#SVGID_6_);}
</style>
<g transform="translate(1879.432 -112.352)">
	<path d="M-1795.1,121.6c12.1,2.6,23.7,7.1,34.4,13.3c13.9,8.1-21.1,6.3-21.1,6.3L-1795.1,121.6z"/>
	<path d="M-1738.5,168.1c0,0-3.7-5.1-13.1-5.2c-9.4-0.1-14.5,5.4-14.5,5.4c-12-3.1-24.3-4.6-36.7-4.5c-19.9,0.2-33.3,3.8-33.3,3.8
		s-4.8-4.5-13.9-5.5s-14.2,2.8-14.2,2.8s-8.6-16.7,2.8-25.1c13.2-9.7,93.1-5,113.9,4.2C-1729.5,151.9-1738.5,168.1-1738.5,168.1z"/>
	<path class="st0" d="M-1872.9,147.7c0.6-0.8,2.6-1.4,3.1-2.5c0.4-1.1,0.7-6.9,2.2-9.2c1.7-2.5,6.4-5.6,6.4-5.6s-1.8-3.7-1.4-4.2
		c0.4-0.5,11-1.7,11-1.7c10.4-2.7,21.1-4.4,31.8-5c17.7-0.9,27.1,1.8,27.6,2.4c0.3,0.3-0.1,1.4-0.1,1.4c5.1,1.5,10,3.3,14.8,5.4
		c7.1,3.1,12.2,6.2,13.7,6.6c1,0.2,2.1,0.1,3.1-0.3c5.5,1,11,2.3,16.3,4c7.5,2.4,13.3,5.4,15,7c0.9,1,1.6,2.2,2.1,3.4
		c0.6,0.5,1.1,1.1,1.5,1.8c0.6,1.9,0.6,4,0.2,6c-0.5,2.1-1.7,3.7-1.6,4.4s1.2,1.2,1.2,2.1c0,0.8-1.4,2.7-3.2,3.4
		c-2,0.7-9.2,0.9-9.2,0.9s2.5-9.1-3-15.7s-17.2-6.3-22.2,0.7s-2.3,15.2-2.3,15.2s-20-1.5-38.2-1.5c-17.1-0.1-31.8,0.8-31.8,0.8
		s2.5-8.9-3.4-15.4s-16.3-5.9-21.4-0.1c-3,3.5-4.3,8.3-3.4,12.8c-1.8-0.7-3.5-1.6-5.1-2.8c-1.9-1.8-3.2-4.1-3.8-6.7
		C-1873.7,153-1873.5,148.4-1872.9,147.7z"/>
	
		<linearGradient id="SVGID_1_" gradientUnits="userSpaceOnUse" x1="-2752.2354" y1="681.9407" x2="-2752.2354" y2="681.0536" gradientTransform="matrix(145.5223 0 0 -28.4949 398712.125 19565.8828)">
		<stop  offset="0" style="stop-color:#AAAAAA"/>
		<stop  offset="1" style="stop-color:#4D4D4D"/>
	</linearGradient>
	<path class="st1" d="M-1728.3,149.9c-0.4-1.3-1.2-2.5-2.2-3.4c-1.7-1.4-8.4-3.4-20.6-5.1s-38.6-3.1-61.3-4.4
		c-22.8-1.3-42.3-2.4-44.4-2.7s-2.3-0.4-3.9-2.9c0,0-4.4,2.7-5.9,5.2s-1.6,8.1-2.3,9.4s-2.6,2-3,2.7s-0.8,4.5,0.9,7.2
		c1.2,1.7,3,2.9,5,3.3c0.6-3.8,2.5-7.2,5.3-9.7c4.6-3.9,11.8-4.9,18.2-2c6.4,2.9,8.2,9.6,8.2,9.6s7.5-2.9,27.9-2.5
		c12.7,0.3,25.4,1.8,37.8,4.3c0,0,1.2-6.6,6.5-10.3c5.7-4,14.1-3.7,19.6,0.2c3.6,2.7,6,6.7,6.5,11.2c0,0,5.3-0.1,7.3-1.9
		c2-1.9,2.2-5.6,1.9-6.5C-1727.2,150.8-1727.7,150.2-1728.3,149.9z"/>
	
		<linearGradient id="SVGID_2_" gradientUnits="userSpaceOnUse" x1="-2749.2349" y1="651.5464" x2="-2748.2349" y2="651.5464" gradientTransform="matrix(90.1371 0 0 -9.2088 245956.5 6141.5537)">
		<stop  offset="0" style="stop-color:#9D9D9D"/>
		<stop  offset="0.109" style="stop-color:#B3B3B3"/>
		<stop  offset="0.242" style="stop-color:#C8C8C8"/>
		<stop  offset="0.373" style="stop-color:#D4D4D4"/>
		<stop  offset="0.5" style="stop-color:#D9D9D9"/>
		<stop  offset="0.627" style="stop-color:#D4D4D4"/>
		<stop  offset="0.758" style="stop-color:#C8C8C8"/>
		<stop  offset="0.891" style="stop-color:#B3B3B3"/>
		<stop  offset="1" style="stop-color:#9D9D9D"/>
	</linearGradient>
	<path class="st2" d="M-1817.8,138c-24.1-1.4-34-1.4-33.8,0.3c0.1,1.7,10.6,6.3,34.5,7.7c24.4,1.4,55.8-2.5,55.6-3.3
		S-1794.2,139.3-1817.8,138z"/>
	<path class="st3" d="M-1829.5,139.9c-0.1,0.8,4.2,1.2,6.9,1.4s5,0.1,5.1-0.7s-2.1-1.7-4.8-1.9S-1829.4,139.1-1829.5,139.9z"/>
	
		<linearGradient id="SVGID_3_" gradientUnits="userSpaceOnUse" x1="-2744.5923" y1="649.8969" x2="-2743.5923" y2="649.8969" gradientTransform="matrix(60.4151 0 0 -8.8782 163990.6719 5931.0703)">
		<stop  offset="0" style="stop-color:#4D4D4D"/>
		<stop  offset="3.600000e-02" style="stop-color:#4A4A4A"/>
		<stop  offset="0.364" style="stop-color:#353535"/>
		<stop  offset="0.688" style="stop-color:#292929"/>
		<stop  offset="1" style="stop-color:#252525"/>
	</linearGradient>
	<path class="st4" d="M-1831.3,162.5c0,1.9,13.5,2.2,30.2,2.6c16.7,0.4,30.2,1.2,30.2-0.7s-19.5-7.3-36.2-7.7
		C-1823.7,156.4-1831.2,160.7-1831.3,162.5z"/>
	<path d="M-1766.6,138.5c0,0-77.4-4.7-79.1-5.4c-1.7-0.6-4.3-5.3-3.8-6s22.1-6.8,46-3.2S-1766.6,138.5-1766.6,138.5z"/>
	
		<linearGradient id="SVGID_4_" gradientUnits="userSpaceOnUse" x1="-2747.8455" y1="659.8111" x2="-2746.8455" y2="659.8111" gradientTransform="matrix(78.3064 0 0 -11.3205 213326.3125 7601.2549)">
		<stop  offset="0" style="stop-color:#393939"/>
		<stop  offset="0.26" style="stop-color:#343434"/>
		<stop  offset="0.53" style="stop-color:#282828"/>
		<stop  offset="0.803" style="stop-color:#131313"/>
		<stop  offset="1" style="stop-color:#000000"/>
	</linearGradient>
	<path class="st5" d="M-1808.6,127.6c19.8,2.7,39.3,9.9,39.3,9.9s-73.3-5-74.6-5.5c-1.3-0.4-4-3.7-3.6-4.4
		C-1847.1,126.9-1828.3,124.9-1808.6,127.6z"/>
	<path class="st0" d="M-1781.9,138.1c0.6,0.6,6.1,1,6.7,0.4c0.5-0.5,0.3-2.9-1-4c-1.2-1.1-4.8-1.9-5.7-1.3
		C-1782.7,133.7-1782.5,137.4-1781.9,138.1z"/>
	<g transform="translate(537.265 517.491)">
		<path class="st6" d="M-2277.1-355.5c0,6.9-5.6,12.5-12.5,12.5c-6.9,0-12.5-5.6-12.5-12.5c0-6.9,5.6-12.5,12.5-12.5
			C-2282.6-368-2277.1-362.4-2277.1-355.5C-2277.1-355.5-2277.1-355.5-2277.1-355.5z"/>
		<path d="M-2280.4-355.5c0,5-4.1,9.1-9.1,9.1s-9.1-4.1-9.1-9.1c0-5,4.1-9.1,9.1-9.1l0,0C-2284.5-364.6-2280.4-360.6-2280.4-355.5z"
			/>
		
			<linearGradient id="SVGID_5_" gradientUnits="userSpaceOnUse" x1="-3251.4963" y1="157.3464" x2="-3251.4963" y2="156.3444" gradientTransform="matrix(18.97 0 0 -18.97 59391.2578 2619.9802)">
			<stop  offset="0" style="stop-color:#E6E6E6"/>
			<stop  offset="1" style="stop-color:#4D4D4D"/>
		</linearGradient>
		<path class="st7" d="M-2299-355.5c0,5.2,4.2,9.5,9.5,9.5c5.2,0,9.5-4.2,9.5-9.5c0-5.2-4.2-9.5-9.5-9.5c0,0,0,0,0,0
			C-2294.8-365-2299-360.8-2299-355.5z M-2291.9-358.5c-0.6,0.5-3.6,0.4-5.6-0.7c1.2-2.6,3.6-4.5,6.5-5
			C-2290.5-361.9-2291.2-359-2291.9-358.5L-2291.9-358.5z M-2281.8-359.5c-2,1.2-5.1,1.3-5.8,0.8c-0.6-0.5-1.3-3.3-0.9-5.5
			C-2285.6-363.8-2283.1-362.1-2281.8-359.5z M-2285.9-354.5c0.2-0.8,2.6-2.4,4.9-2.7c0.1,0.6,0.2,1.1,0.2,1.7
			c0,2.3-0.9,4.5-2.5,6.1C-2285-351-2286.1-353.8-2285.9-354.5L-2285.9-354.5z M-2293.3-347.7c1-2,3.2-3.9,4-3.9
			c0.8,0,2.9,1.7,3.9,3.7C-2287.8-346.6-2290.8-346.5-2293.3-347.7L-2293.3-347.7z M-2298.2-355.6c0-0.4,0-0.8,0.1-1.1
			c2.2,0.2,4.5,1.5,4.8,2.2c0.3,0.8-0.5,3.6-2.1,5.3C-2297.2-350.8-2298.2-353.1-2298.2-355.6L-2298.2-355.6z"/>
		<g transform="translate(10.178 10.179)">
			<path class="st6" d="M-2302-365.7c0,1.3,1,2.3,2.3,2.3s2.3-1,2.3-2.3c0-1.3-1-2.3-2.3-2.3c0,0,0,0,0,0
				C-2301-368-2302-367-2302-365.7C-2302-365.7-2302-365.7-2302-365.7z"/>
			<path class="st8" d="M-2301.2-365.7c0,0.8,0.7,1.5,1.5,1.5c0.8,0,1.5-0.7,1.5-1.5c0-0.8-0.7-1.5-1.5-1.5
				C-2300.5-367.2-2301.2-366.5-2301.2-365.7C-2301.2-365.7-2301.2-365.7-2301.2-365.7z"/>
		</g>
	</g>
	<g transform="translate(439.484 517.491)">
		<path class="st6" d="M-2277.1-355.5c0,6.9-5.6,12.5-12.5,12.5c-6.9,0-12.5-5.6-12.5-12.5c0-6.9,5.6-12.5,12.5-12.5
			C-2282.6-368-2277.1-362.4-2277.1-355.5C-2277.1-355.5-2277.1-355.5-2277.1-355.5z"/>
		<path d="M-2280.4-355.5c0,5-4.1,9.1-9.1,9.1c-5,0-9.1-4.1-9.1-9.1c0-5,4.1-9.1,9.1-9.1c0,0,0,0,0,0
			C-2284.5-364.6-2280.4-360.6-2280.4-355.5z"/>
		
			<linearGradient id="SVGID_6_" gradientUnits="userSpaceOnUse" x1="-3153.7153" y1="157.3463" x2="-3153.7153" y2="156.3443" gradientTransform="matrix(18.97 0 0 -18.97 57536.4531 2619.9692)">
			<stop  offset="0" style="stop-color:#E6E6E6"/>
			<stop  offset="1" style="stop-color:#4D4D4D"/>
		</linearGradient>
		<path class="st9" d="M-2299-355.5c0,5.2,4.2,9.5,9.5,9.5c5.2,0,9.5-4.2,9.5-9.5c0-5.2-4.2-9.5-9.5-9.5c0,0,0,0,0,0
			C-2294.8-365-2299-360.8-2299-355.5z M-2291.9-358.5c-0.6,0.5-3.6,0.4-5.6-0.7c1.2-2.6,3.6-4.5,6.5-5
			C-2290.5-361.9-2291.2-359-2291.9-358.5L-2291.9-358.5z M-2281.8-359.5c-2,1.2-5.1,1.3-5.8,0.8c-0.6-0.5-1.3-3.3-0.9-5.5
			C-2285.6-363.8-2283.1-362.1-2281.8-359.5z M-2285.9-354.5c0.2-0.8,2.6-2.4,4.9-2.7c0.1,0.6,0.2,1.1,0.2,1.7
			c0,2.3-0.9,4.5-2.5,6.1C-2285-351-2286.1-353.8-2285.9-354.5z M-2293.3-347.7c1-2,3.2-3.9,4-3.9c0.8,0,2.9,1.7,3.9,3.7
			C-2287.8-346.6-2290.8-346.5-2293.3-347.7L-2293.3-347.7z M-2298.2-355.6c0-0.4,0-0.8,0.1-1.1c2.2,0.2,4.5,1.5,4.8,2.2
			c0.3,0.8-0.5,3.6-2.1,5.3C-2297.2-350.8-2298.2-353.1-2298.2-355.6L-2298.2-355.6z"/>
		<g transform="translate(10.178 10.179)">
			<path class="st6" d="M-2302-365.7c0,1.3,1,2.3,2.3,2.3c1.3,0,2.3-1,2.3-2.3c0-1.3-1-2.3-2.3-2.3c0,0,0,0,0,0
				C-2301-368-2302-367-2302-365.7C-2302-365.7-2302-365.7-2302-365.7z"/>
			<path class="st8" d="M-2301.2-365.7c0,0.8,0.7,1.5,1.5,1.5s1.5-0.7,1.5-1.5c0-0.8-0.7-1.5-1.5-1.5
				C-2300.5-367.2-2301.2-366.5-2301.2-365.7C-2301.2-365.7-2301.2-365.7-2301.2-365.7z"/>
		</g>
	</g>
	<path class="st0" d="M-1825.7,121.8c-3.2,4.2-6.1,8.6-8.6,13.2l6.9,0.2c1.8-4.8,4.4-9.3,7.6-13.4L-1825.7,121.8z"/>
</g>
</svg>
