<svg xmlns="http://www.w3.org/2000/svg" xmlns:xlink="http://www.w3.org/1999/xlink" width="98" height="105" viewBox="0 0 98 105"><defs><filter id="a" x="0" y="0" width="98" height="98" filterUnits="userSpaceOnUse"><feOffset dy="3" input="SourceAlpha"/><feGaussianBlur stdDeviation="3" result="b"/><feFlood flood-opacity="0.161"/><feComposite operator="in" in2="b"/><feComposite in="SourceGraphic"/></filter></defs><g transform="translate(-1561 -3)"><g transform="matrix(1, 0, 0, 1, 1561, 3)" filter="url(#a)"><g transform="translate(9 6)" fill="#ff0707" stroke="#fff" stroke-width="1"><circle cx="40" cy="40" r="40" stroke="none"/><circle cx="40" cy="40" r="39.5" fill="none"/></g></g><path d="M10.142,29.326c0-7.235,10.3-12.009,10.3-19.9A13.379,13.379,0,0,0,16.612.563a8.221,8.221,0,0,1,.059.98c0,9.029-14.421,15.088-14.421,26.332,0,4.882,3.157,7.764,6.519,10.617,6.382,4.578,7.657,7,7.657,8.49a16.454,16.454,0,0,1-.471,2.186,7.2,7.2,0,0,0,1.716-4.549c0-2.9-2.127-5.519-4.333-8.48-1.569-2.186-3.2-4.176-3.2-6.814ZM30.269,25.5c-1.186-6.549-7.647-12.2-9.284-12.833l.392.706a3.912,3.912,0,0,1,.333,1.676c0,4.382-5.314,10.9-5.549,11.441a3.907,3.907,0,0,0-.314,1.549A6.291,6.291,0,0,0,17.6,32.169c.235,0,5.549-5.431,5.7-8.6a6.684,6.684,0,0,1,.892,3.274c0,4.039-4.1,9.5-4.1,9.5,0,1.137,3.127,5.216,3.48,5.216.1,0,.216-.137.314-.235,3.716-3.853,6.6-8.333,6.6-13.411a13.692,13.692,0,0,0-.216-2.412Z" transform="translate(1592.75 23.438)" fill="#fff"/><text transform="translate(1578 104)" fill="#bf4545" font-size="15" font-family="Roboto-Light, Roboto" font-weight="300"><tspan x="0" y="0">Hot Deals</tspan></text></g></svg>