<svg xmlns="http://www.w3.org/2000/svg" width="100.39" height="126.708" viewBox="0 0 100.39 126.708">
  <path id="Union_9" data-name="Union 9" d="M15351.291-8005a3.29,3.29,0,0,1-3.291-3.292v-88.817h26.318a6.587,6.587,0,0,0,6.578-6.579V-8130h62.5a3.286,3.286,0,0,1,3.287,3.288v118.422a3.287,3.287,0,0,1-3.287,3.292Zm50.985-9.87h32.9v-6.579h-32.9Zm-42.763-6.579v6.579h32.9v-6.579h-26.318v-26.318h-6.578Zm19.735-23.027h7.521l-17.037,16.925,2.317,2.333,17.069-16.952v7.563h3.291v-13.161h-13.161Zm23.027,16.448h32.9v-6.579h-32.9Zm0-13.161h32.9v-6.579h-32.9Zm-42.763-16.444h32.9v-6.579h-32.9Zm0-13.157h32.9v-6.579h-32.9Zm0-13.157h32.9v-6.579h-32.9Zm42.763-16.449h32.9v-6.579h-32.9Zm0-13.157h32.9v-6.579h-32.9ZM15348-8100.394l29.605-29.605v26.314a3.29,3.29,0,0,1-3.287,3.291Z" transform="translate(-15346.793 8131.207)" fill="#21b7ac" stroke="rgba(0,0,0,0)" stroke-miterlimit="10" stroke-width="1"/>
</svg>
