<svg xmlns="http://www.w3.org/2000/svg" width="122" height="117.889" viewBox="0 0 122 117.889">
  <g id="Group_517" data-name="Group 517" transform="translate(-1652.237 -299.541)">
    <path id="Path_827" data-name="Path 827" d="M1899.7,369.487a31.4,31.4,0,0,1,3.879.454V353.066a2.085,2.085,0,0,0-2.084-2.084H1881.3v3.879H1899.7Z" transform="translate(-172.21 -38.673)" fill="#21b7ac"/>
    <path id="Path_828" data-name="Path 828" d="M1691.513,373.6h-16.658v93.894h67.9V449.343a31.451,31.451,0,0,1,0-62.9V373.6H1726.1v1.732h-34.584Z" transform="translate(-17.004 -55.676)" fill="#21b7ac"/>
    <path id="Path_829" data-name="Path 829" d="M1727.486,452.225h-71.371V354.861h18.394v-3.879h-20.188a2.085,2.085,0,0,0-2.084,2.084V454.019a2.085,2.085,0,0,0,2.084,2.084h74.959a2.085,2.085,0,0,0,2.084-2.084V431.838a31.389,31.389,0,0,1-3.879.454Z" transform="translate(0 -38.673)" fill="#21b7ac"/>
    <path id="Path_830" data-name="Path 830" d="M1780.073,315.987v-6.063a3.446,3.446,0,0,0-3.444-3.444h-7.238a5.185,5.185,0,1,0-9.749,0H1752.4a3.446,3.446,0,0,0-3.444,3.444v7.995h31.113Zm-15.556-9.01a2.251,2.251,0,1,1,2.251-2.251A2.253,2.253,0,0,1,1764.517,306.978Z" transform="translate(-72.716)" fill="#21b7ac"/>
    <path id="Path_831" data-name="Path 831" d="M1909.155,506.893l-24.242-26.414a.654.654,0,0,0-.225-.2,27.947,27.947,0,0,0,2.432-22.323,28.263,28.263,0,0,0-1.9-4.607l-5.2,7.419a20.533,20.533,0,1,1-6.355-9.943q2.9-3.082,5.244-5.53a28.211,28.211,0,1,0-3.666,44.863l23.827,25.973c.7.768,2.274.467,3.5-.666l5.605-5.139C1909.424,509.179,1909.864,507.646,1909.155,506.893Z" transform="translate(-135.257 -104.273)" fill="#21b7ac"/>
    <path id="Path_832" data-name="Path 832" d="M1934.855,437.095c-3.208,1.558-19.074,19.606-27.667,28.07L1900.6,458.6c-.767-.922-2.4-3.794-3.967-1.926l-2.408,3.49c-1.57,1.868.092,4.935,1.324,5.894l10.584,12.206c1.236.958,3.5.223,5.068-1.648l1.331-1.592,0,0,24.646-35.181C1938.75,437.969,1942.415,433.774,1934.855,437.095Z" transform="translate(-181.445 -102.48)" fill="#21b7ac"/>
  </g>
</svg>
