<svg xmlns="http://www.w3.org/2000/svg" width="25.949" height="25.944" viewBox="0 0 25.949 25.944"><path d="M12.972,8.558a6.652,6.652,0,1,0,6.652,6.652A6.641,6.641,0,0,0,12.972,8.558Zm0,10.976A4.324,4.324,0,1,1,17.3,15.21,4.332,4.332,0,0,1,12.972,19.534ZM21.447,8.286A1.551,1.551,0,1,1,19.9,6.734,1.548,1.548,0,0,1,21.447,8.286ZM25.853,9.86a7.678,7.678,0,0,0-2.1-5.436,7.728,7.728,0,0,0-5.436-2.1c-2.142-.122-8.562-.122-10.7,0a7.717,7.717,0,0,0-5.436,2.09,7.7,7.7,0,0,0-2.1,5.436c-.122,2.142-.122,8.562,0,10.7a7.678,7.678,0,0,0,2.1,5.436,7.738,7.738,0,0,0,5.436,2.1c2.142.122,8.562.122,10.7,0a7.678,7.678,0,0,0,5.436-2.1,7.728,7.728,0,0,0,2.1-5.436c.122-2.142.122-8.556,0-10.7Zm-2.767,13a4.378,4.378,0,0,1-2.466,2.466c-1.708.677-5.76.521-7.647.521s-5.945.151-7.647-.521a4.378,4.378,0,0,1-2.466-2.466c-.677-1.708-.521-5.76-.521-7.647s-.151-5.945.521-7.647A4.378,4.378,0,0,1,5.325,5.1c1.708-.677,5.76-.521,7.647-.521s5.945-.151,7.647.521a4.378,4.378,0,0,1,2.466,2.466c.677,1.708.521,5.76.521,7.647S23.763,21.155,23.086,22.857Z" transform="translate(0.005 -2.238)" fill="#fff"/></svg>