<svg xmlns="http://www.w3.org/2000/svg" width="38.69" height="48.095" viewBox="0 0 38.69 48.095">
  <path id="Path_687" data-name="Path 687" d="M233.769,208.366a19.342,19.342,0,1,0-38.684,0s-.016.344.024.97a19.256,19.256,0,0,0,.875,4.87c1.61,5.729,6.079,14.766,18.443,22.913,12.364-8.147,16.833-17.183,18.443-22.913a19.291,19.291,0,0,0,.875-4.87C233.783,208.71,233.769,208.366,233.769,208.366Zm-19.312,12.976a12.976,12.976,0,1,1,12.976-12.976A12.976,12.976,0,0,1,214.457,221.342Z" transform="translate(-195.081 -189.024)" fill="#222121"/>
</svg>
