<svg xmlns="http://www.w3.org/2000/svg" width="356.199" height="60.979" viewBox="0 0 356.199 60.979">
  <g id="Group_763" data-name="Group 763" transform="translate(-140.001 -87.521)">
    <path id="Path_16" data-name="Path 16" d="M6761.046,7095.729a24.308,24.308,0,1,1-24.308-24.308,24.308,24.308,0,0,1,24.308,24.308" transform="translate(-6572.43 -6977.459)" fill="#21b7ac"/>
    <path id="Path_17" data-name="Path 17" d="M6766.139,7144.648c-.476,0-.95,0-1.425,0-1.336-.017-1.976-.576-1.979-1.9,0-1.429-.211-1.251-1.323-1.252q-9,0-18,0c-1.084,0-1.084,0-1.112,1.071-.041,1.513-.605,2.071-2.115,2.078-.975,0-1.95.008-2.925,0a1.663,1.663,0,0,1-1.844-1.795c-.027-1.049-.012-2.1-.006-3.15a1.445,1.445,0,0,0-.354-1.027,7.022,7.022,0,0,1-.722-8.6c.336-.541.386-.766-.369-.749a1.215,1.215,0,0,1-1.31-1.09c-.166-.834-.359-1.662-.5-2.5a1.007,1.007,0,0,1,1.083-1.333c.974-.03,1.952-.053,2.924,0a1.2,1.2,0,0,0,1.331-.92,16.216,16.216,0,0,1,2.194-4.076,7.079,7.079,0,0,1,3.7-2.287,27.1,27.1,0,0,1,6.321-1.164,35.316,35.316,0,0,1,11.076.882,8.422,8.422,0,0,1,6.233,5.4,4.528,4.528,0,0,1,.287.691c.271,1.288,1.093,1.627,2.31,1.477a13.449,13.449,0,0,1,2.173,0,1.01,1.01,0,0,1,1.083,1.335c-.128.763-.292,1.521-.453,2.28-.212,1-.492,1.254-1.513,1.313-.547.032-.654.136-.335.651a7.13,7.13,0,0,1-.64,8.869,1.413,1.413,0,0,0-.316.968c0,.975.013,1.95,0,2.925a1.7,1.7,0,0,1-1.891,1.9c-.525,0-1.05,0-1.575,0" transform="translate(-6588.195 -7013.024)" fill="#222121"/>
    <path id="Path_18" data-name="Path 18" d="M6784.135,7138.53c-3.947,0-7.892-.015-11.838.014-.7,0-.807-.152-.529-.78.4-.913.794-1.828,1.222-2.731a4.362,4.362,0,0,1,2.618-2.3,21.21,21.21,0,0,1,5.783-1.141,31.614,31.614,0,0,1,10.182.776,5.48,5.48,0,0,1,4.158,3.586c.208.587.49,1.146.717,1.727.328.845.319.851-.549.851q-4.233,0-8.466,0h-3.3" transform="translate(-6619.818 -7025.544)" fill="#fdfdfd"/>
    <path id="Path_19" data-name="Path 19" d="M6880.234,7199.074a3.056,3.056,0,1,1-.036-6.111,3.056,3.056,0,1,1,.036,6.111" transform="translate(-6704.283 -7074.757)" fill="#fdfdfd"/>
    <path id="Path_20" data-name="Path 20" d="M6767.077,7196.006a3.028,3.028,0,0,1-3.025,3.07,3.054,3.054,0,1,1,3.025-3.07" transform="translate(-6611.262 -7074.761)" fill="#fdfdfd"/>
    <path id="Path_21" data-name="Path 21" d="M6995.882,7144.828a1.028,1.028,0,0,1,.78.335l2.211,2.359a10.52,10.52,0,0,1-4.061,3.16,14.143,14.143,0,0,1-5.771,1.078,13.74,13.74,0,0,1-5.445-1.032,11.765,11.765,0,0,1-4.107-2.872,12.741,12.741,0,0,1-2.6-4.366,17.076,17.076,0,0,1-.475-9.34,13.456,13.456,0,0,1,1.273-3.335,12.911,12.911,0,0,1,2.016-2.75,12.167,12.167,0,0,1,2.667-2.092,12.813,12.813,0,0,1,3.243-1.319,14.91,14.91,0,0,1,3.745-.455,14.677,14.677,0,0,1,2.815.26,13.7,13.7,0,0,1,2.482.726,11.352,11.352,0,0,1,2.127,1.124,11.94,11.94,0,0,1,1.756,1.44l-1.877,2.564a1.73,1.73,0,0,1-.427.427,1.193,1.193,0,0,1-.706.187,1.575,1.575,0,0,1-.9-.316q-.456-.315-1.115-.706a8.127,8.127,0,0,0-1.654-.706,8.45,8.45,0,0,0-2.518-.315,7.7,7.7,0,0,0-3.1.613,6.733,6.733,0,0,0-2.425,1.773,8.174,8.174,0,0,0-1.571,2.854,12.272,12.272,0,0,0-.557,3.847,11.53,11.53,0,0,0,.6,3.875,8.505,8.505,0,0,0,1.654,2.872,6.967,6.967,0,0,0,2.453,1.774,7.516,7.516,0,0,0,3,.6,14.352,14.352,0,0,0,1.72-.094,7.122,7.122,0,0,0,1.431-.315,6.315,6.315,0,0,0,1.245-.576,7.713,7.713,0,0,0,1.181-.892,2.244,2.244,0,0,1,.427-.279,1.066,1.066,0,0,1,.483-.111" transform="translate(-6783.408 -7019.709)" fill="#222121"/>
    <path id="Path_22" data-name="Path 22" d="M7106.574,7142.415h0l-2.918-8.25q-.261-.651-.548-1.524t-.548-1.9q-.26,1.04-.548,1.923t-.548,1.533l-2.9,8.214Zm9.367,10.241h-4.33a1.9,1.9,0,0,1-1.18-.345,2.069,2.069,0,0,1-.678-.882l-1.822-5.148h-10.742l-1.82,5.148a2.123,2.123,0,0,1-.651.845,1.784,1.784,0,0,1-1.17.382h-4.367l10.537-26.967h5.705Z" transform="translate(-6874.029 -7020.902)" fill="#222121"/>
    <path id="Path_23" data-name="Path 23" d="M7242.773,7138.457h0a7.122,7.122,0,0,0,2.341-.344,4.394,4.394,0,0,0,1.617-.948,3.7,3.7,0,0,0,.93-1.421,5.189,5.189,0,0,0,.3-1.785,3.653,3.653,0,0,0-1.272-2.973,5.967,5.967,0,0,0-3.875-1.06h-2.9v8.531Zm13.065,14.2H7250.8a2.189,2.189,0,0,1-2.044-1.078l-5.13-8.271a2.166,2.166,0,0,0-.7-.706,2.267,2.267,0,0,0-1.125-.223h-1.895v10.278h-5.576v-26.967h8.475a17.43,17.43,0,0,1,4.832.585,9.3,9.3,0,0,1,3.289,1.627,6.224,6.224,0,0,1,1.877,2.481,8.2,8.2,0,0,1,.6,3.168,8.331,8.331,0,0,1-.382,2.537,7.46,7.46,0,0,1-1.105,2.183,7.954,7.954,0,0,1-1.784,1.747,9.212,9.212,0,0,1-2.416,1.227,5.434,5.434,0,0,1,1,.716,4.91,4.91,0,0,1,.835.995Z" transform="translate(-6990.232 -7020.902)" fill="#222121"/>
    <path id="Path_24" data-name="Path 24" d="M7359.978,7129.663a2.1,2.1,0,0,1-.529.622,1.154,1.154,0,0,1-.7.2,1.719,1.719,0,0,1-.884-.288c-.316-.191-.684-.4-1.1-.622a10.735,10.735,0,0,0-1.45-.623,5.784,5.784,0,0,0-1.914-.287,4.233,4.233,0,0,0-2.9.863,2.89,2.89,0,0,0-.967,2.259,2.119,2.119,0,0,0,.529,1.477,4.592,4.592,0,0,0,1.395,1.013,12.881,12.881,0,0,0,1.961.763q1.1.334,2.249.734a19.641,19.641,0,0,1,2.248.938,7.91,7.91,0,0,1,1.961,1.356,6.2,6.2,0,0,1,1.394,2,6.98,6.98,0,0,1,.53,2.87,9.213,9.213,0,0,1-.642,3.448,8.174,8.174,0,0,1-1.85,2.806,8.556,8.556,0,0,1-2.982,1.887,11.08,11.08,0,0,1-4.023.688,12.773,12.773,0,0,1-2.556-.261,14.8,14.8,0,0,1-2.453-.726,13.486,13.486,0,0,1-2.221-1.114,9.772,9.772,0,0,1-1.821-1.45l1.636-2.64a1.66,1.66,0,0,1,.539-.492,1.389,1.389,0,0,1,.706-.194,1.929,1.929,0,0,1,1.059.371q.558.374,1.283.818a10.382,10.382,0,0,0,1.682.817,6.337,6.337,0,0,0,2.295.371,4.583,4.583,0,0,0,3.02-.892,3.26,3.26,0,0,0,1.069-2.657,2.484,2.484,0,0,0-.53-1.653,4.249,4.249,0,0,0-1.384-1.06,10.957,10.957,0,0,0-1.951-.734q-1.1-.306-2.249-.679a18.229,18.229,0,0,1-2.249-.893,6.953,6.953,0,0,1-1.951-1.374,6.518,6.518,0,0,1-1.385-2.119,8.145,8.145,0,0,1-.529-3.141,7.466,7.466,0,0,1,2.342-5.427,8.734,8.734,0,0,1,2.834-1.766,10.365,10.365,0,0,1,3.855-.669,13.123,13.123,0,0,1,4.507.752,10.131,10.131,0,0,1,3.5,2.091Z" transform="translate(-7077.422 -7019.709)" fill="#222121"/>
    <path id="Path_25" data-name="Path 25" d="M7454.124,7142.285h0v-8.029q0-.631.047-1.347t.139-1.5l-7.806,10.872Zm7.583,0v2.9a.956.956,0,0,1-1.022.985h-2.1v6.412h-4.46v-6.412h-11.132a1.439,1.439,0,0,1-.883-.3,1.23,1.23,0,0,1-.492-.78l-.54-2.565,12.638-16.931h4.869v16.689Z" transform="translate(-7155.734 -7020.827)" fill="#21b7ac"/>
    <path id="Path_26" data-name="Path 26" d="M7553.552,7135.354a16.206,16.206,0,0,1,1.608-.243q.771-.073,1.5-.073a10.161,10.161,0,0,1,3.745.641,7.829,7.829,0,0,1,2.731,1.757,7.237,7.237,0,0,1,1.664,2.62,9.248,9.248,0,0,1,.558,3.233,9.868,9.868,0,0,1-.763,3.931,9.052,9.052,0,0,1-2.108,3.047,9.535,9.535,0,0,1-3.215,1.979,11.439,11.439,0,0,1-4.08.706,10.905,10.905,0,0,1-2.453-.269,11.679,11.679,0,0,1-2.184-.725,12.3,12.3,0,0,1-1.887-1.05,12.471,12.471,0,0,1-1.562-1.246l1.58-2.156a1.544,1.544,0,0,1,1.3-.687,1.856,1.856,0,0,1,.985.3q.483.3,1.1.66a8.566,8.566,0,0,0,1.432.66,5.839,5.839,0,0,0,1.988.3,5.09,5.09,0,0,0,2.1-.4,4.069,4.069,0,0,0,1.478-1.1,4.576,4.576,0,0,0,.873-1.654,7.082,7.082,0,0,0,.288-2.054,4.269,4.269,0,0,0-1.2-3.243,4.863,4.863,0,0,0-3.484-1.143,10.745,10.745,0,0,0-3.772.707l-3.179-.892,2.268-13.27h13.529v2.156a2.867,2.867,0,0,1-.157.975,1.879,1.879,0,0,1-.521.762,2.474,2.474,0,0,1-.93.5,4.691,4.691,0,0,1-1.385.177h-6.969Z" transform="translate(-7240.611 -7020.902)" fill="#21b7ac"/>
    <path id="Path_27" data-name="Path 27" d="M7654.991,7240.747a2.478,2.478,0,1,1-2.478,2.478,2.477,2.477,0,0,1,2.478-2.478" transform="translate(-7324.996 -7113.009)" fill="#21b7ac"/>
    <path id="Path_28" data-name="Path 28" d="M7651.928,7207.914a1.058,1.058,0,0,1,.161.161.354.354,0,0,1,.06.22.475.475,0,0,1-.065.247l-.146.247a1.9,1.9,0,0,0-.146.321,1.39,1.39,0,0,0-.065.458,1.288,1.288,0,0,0,.125.586,1.087,1.087,0,0,0,.357.408,1.637,1.637,0,0,0,.568.238,3.417,3.417,0,0,0,.759.077,2.306,2.306,0,0,0,1.362-.342,1.1,1.1,0,0,0,.477-.943,1.318,1.318,0,0,0-.081-.509,1.512,1.512,0,0,0-.179-.317l-.181-.241a.446.446,0,0,1-.083-.277.382.382,0,0,1,.161-.333l.661-.535a2.944,2.944,0,0,1,.532.6,3.015,3.015,0,0,1,.321.646,3.342,3.342,0,0,1,.161.664,4.873,4.873,0,0,1,.044.648,2.786,2.786,0,0,1-.214,1.08,2.652,2.652,0,0,1-.622.9,2.985,2.985,0,0,1-1,.618,3.746,3.746,0,0,1-1.357.23,3.813,3.813,0,0,1-1.247-.2,2.825,2.825,0,0,1-1.005-.589,2.746,2.746,0,0,1-.67-.964,3.379,3.379,0,0,1-.243-1.33,3.25,3.25,0,0,1,.231-1.273,3.069,3.069,0,0,1,.679-.988Z" transform="translate(-7323.281 -7086.297)" fill="#222121"/>
    <path id="Path_29" data-name="Path 29" d="M7655.361,7177.438h0a1.047,1.047,0,0,0-.449-.937,3.24,3.24,0,0,0-2.729,0,1.049,1.049,0,0,0-.445.937,1.076,1.076,0,0,0,.445.958,3.221,3.221,0,0,0,2.729,0,1.073,1.073,0,0,0,.449-.958m-4.992,0a3.564,3.564,0,0,1,.22-1.279,2.8,2.8,0,0,1,.631-.99,2.839,2.839,0,0,1,1-.643,3.6,3.6,0,0,1,1.318-.229,3.67,3.67,0,0,1,1.33.229,2.865,2.865,0,0,1,1.006.643,2.8,2.8,0,0,1,.636.99,3.8,3.8,0,0,1,0,2.567,2.87,2.87,0,0,1-.636,1,2.836,2.836,0,0,1-1.006.648,3.649,3.649,0,0,1-1.33.229,3.583,3.583,0,0,1-1.318-.229,2.811,2.811,0,0,1-1-.648,2.871,2.871,0,0,1-.631-1A3.6,3.6,0,0,1,7650.369,7177.438Z" transform="translate(-7323.281 -7059.813)" fill="#222121"/>
    <path id="Path_30" data-name="Path 30" d="M7656.634,7133.773h-6.17v-1.143a.434.434,0,0,1,.31-.452l.333-.1a3.417,3.417,0,0,1-.294-.322,2.02,2.02,0,0,1-.387-.776,2,2,0,0,1-.056-.491,1.452,1.452,0,0,1,.288-.926,1.8,1.8,0,0,1,.771-.556,1.835,1.835,0,0,1-.488-.377,2.037,2.037,0,0,1-.328-.482,2.408,2.408,0,0,1-.184-.548,2.834,2.834,0,0,1-.059-.574,2.6,2.6,0,0,1,.157-.939,1.786,1.786,0,0,1,.458-.687,1.983,1.983,0,0,1,.738-.419,3.187,3.187,0,0,1,.991-.143h3.921v1.845h-3.921q-.958,0-.958.821a.841.841,0,0,0,.248.622.959.959,0,0,0,.711.247h3.921v1.845h-3.921a1.057,1.057,0,0,0-.744.208.819.819,0,0,0-.214.613,1.035,1.035,0,0,0,.114.474,1.721,1.721,0,0,0,.3.419h4.462Z" transform="translate(-7323.281 -7020.218)" fill="#222121"/>
    <text id="Buy_Sell_Swap" data-name="Buy   Sell   Swap" transform="translate(196.065 140.631)" fill="#231f20" font-size="10" font-family="Lato-Bold, Lato" font-weight="700" letter-spacing="0.3em"><tspan x="0" y="0" xml:space="preserve">Buy   Sell   Swap</tspan></text>
    <circle id="Ellipse_4" data-name="Ellipse 4" cx="1.832" cy="1.832" r="1.832" transform="translate(190.498 137.016)" fill="#222121"/>
    <circle id="Ellipse_5" data-name="Ellipse 5" cx="1.832" cy="1.832" r="1.832" transform="translate(233.918 137.016)" fill="#222121"/>
    <circle id="Ellipse_6" data-name="Ellipse 6" cx="1.832" cy="1.832" r="1.832" transform="translate(277.755 136.978)" fill="#222121"/>
    <line id="Line_293" data-name="Line 293" y2="60.979" transform="translate(340.809 87.521)" fill="none" stroke="#707070" stroke-width="1"/>
    <g id="Group_750" data-name="Group 750" transform="translate(350.41 97.688)">
      <g id="Group_749" data-name="Group 749">
        <text id="An_" data-name="An                  " transform="translate(-0.21 18.333)" fill="#305eab" font-size="16" font-family="Helvetica"><tspan x="0" y="0" xml:space="preserve">An                  </tspan></text>
        <g id="Group_747" data-name="Group 747" transform="translate(30.585 1.488)">
          <g id="Group_746" data-name="Group 746">
            <rect id="Rectangle_739" data-name="Rectangle 739" width="6.02" height="25.363" transform="translate(23.07)" fill="#305eab"/>
            <g id="Group_745" data-name="Group 745" transform="translate(0 2.225)">
              <path id="Path_1369" data-name="Path 1369" d="M352.6,170.443A10.456,10.456,0,1,0,363.06,180.9,10.45,10.45,0,0,0,352.6,170.443m0,13.619a3.164,3.164,0,1,1,3.173-3.163,3.161,3.161,0,0,1-3.173,3.163" transform="translate(-342.158 -170.443)" fill="#305eab"/>
              <path id="Path_1370" data-name="Path 1370" d="M358.155,170.873h-4l-2.347,2.347-2.347-2.347h-4v4.065l2.313,2.313-2.313,2.313v4.009h4.053l2.291-2.291,2.291,2.291h4.053v-4.009l-2.313-2.313,2.313-2.313Z" transform="translate(-313.847 -166.767)" fill="#305eab"/>
              <path id="Path_1371" data-name="Path 1371" d="M357.158,182.4h-4.817l-1.261,3.651h-3.632l5.352-15.311h3.89l5.667,15.311h-3.919Zm-3.756-3.1H356.1l-1.348-3.871Z" transform="translate(-296.889 -167.936)" fill="#305eab"/>
              <path id="Path_1372" data-name="Path 1372" d="M349.006,179.94v-9.2h3.689v9.2c0,1.73.822,2.915,2.628,2.915,1.749,0,2.59-1.214,2.59-2.934v-9.185h3.7v9.185c0,3.689-2.132,6.413-6.327,6.413-4.31,0-6.279-2.571-6.279-6.394" transform="translate(-283.557 -167.936)" fill="#305eab"/>
              <path id="Path_1373" data-name="Path 1373" d="M356.707,174.187v11.855h-3.694V174.187h-2.566v-3.451h8.8v3.451Z" transform="translate(-271.223 -167.933)" fill="#305eab"/>
              <path id="Path_1374" data-name="Path 1374" d="M359.3,170.706c5,0,8.124,3.431,8.124,7.894a7.671,7.671,0,0,1-8.009,7.99c-5,0-8.047-3.431-8.047-7.923a7.716,7.716,0,0,1,7.933-7.961m.1,12.434c2.7,0,4.157-1.988,4.157-4.492s-1.548-4.492-4.186-4.492c-2.7,0-4.129,2-4.129,4.492,0,2.523,1.615,4.492,4.158,4.492" transform="translate(-263.318 -168.192)" fill="#305eab"/>
              <path id="Path_1375" data-name="Path 1375" d="M358.364,176.507l1.931.746a4.459,4.459,0,0,1,3.154,4.425c0,3.1-2.189,4.913-5.257,4.913-4.387,0-5.18-2.858-5.046-5.085h3.5c-.048.965.325,1.921,1.548,1.921a1.3,1.3,0,0,0,1.453-1.348c0-.87-.611-1.29-1.615-1.663-.774-.306-1.548-.593-2.38-1.013a4.44,4.44,0,0,1-2.37-4.157c0-2.676,1.949-4.54,4.931-4.54,3.6,0,4.913,2.055,4.76,4.779h-3.412c.019-.946-.459-1.615-1.329-1.615a1.123,1.123,0,0,0-1.261,1.147c0,.65.354,1.09,1.4,1.491" transform="translate(-248.244 -168.192)" fill="#305eab"/>
            </g>
          </g>
        </g>
      </g>
      <text id="Company" transform="translate(79.063 37.181)" fill="#305eab" font-size="12" font-family="Helvetica-Light, Helvetica" font-weight="300"><tspan x="0" y="0">Company</tspan></text>
    </g>
  </g>
</svg>
