<svg xmlns="http://www.w3.org/2000/svg" width="42.168" height="42.168" viewBox="0 0 42.168 42.168"><path d="M11.971,32.334c-2.048,0-4.541-2.494-4.541-4.541V11.25H6.457a3.093,3.093,0,0,0-3.082,3.082V42.065L9.3,36.186h21.8a3.13,3.13,0,0,0,3.082-3.132v-.72Z" transform="translate(-3.375 0.103)" fill="#fff"/><path d="M39.925,3.375h-28.3A3.547,3.547,0,0,0,8.086,6.913V29.832a3.556,3.556,0,0,0,3.538,3.548H35.769l7.694,5.372V6.913A3.547,3.547,0,0,0,39.925,3.375Z" transform="translate(-1.294 -3.375)" fill="#fff"/></svg>