<svg xmlns="http://www.w3.org/2000/svg" xmlns:xlink="http://www.w3.org/1999/xlink" width="98.274" height="41.928" viewBox="0 0 98.274 41.928"><defs><linearGradient id="a" x1="-3.24" x2="-3.24" y2="0.952" gradientUnits="objectBoundingBox"><stop offset="0" stop-color="#aaa"/><stop offset="1" stop-color="#4d4d4d"/></linearGradient><linearGradient id="b" y1="0.5" x2="1" y2="0.5" gradientUnits="objectBoundingBox"><stop offset="0" stop-color="#9d9d9d"/><stop offset="0.109" stop-color="#b3b3b3"/><stop offset="0.242" stop-color="#c8c8c8"/><stop offset="0.373" stop-color="#d4d4d4"/><stop offset="0.5" stop-color="#d9d9d9"/><stop offset="0.627" stop-color="#d4d4d4"/><stop offset="0.758" stop-color="#c8c8c8"/><stop offset="0.891" stop-color="#b3b3b3"/><stop offset="1" stop-color="#9d9d9d"/></linearGradient><linearGradient id="c" y1="0.5" x2="1" y2="0.5" gradientUnits="objectBoundingBox"><stop offset="0" stop-color="#4d4d4d"/><stop offset="0.036" stop-color="#4a4a4a"/><stop offset="0.364" stop-color="#353535"/><stop offset="0.688" stop-color="#292929"/><stop offset="1" stop-color="#252525"/></linearGradient><linearGradient id="d" y1="0.5" x2="1" y2="0.5" gradientUnits="objectBoundingBox"><stop offset="0" stop-color="#393939"/><stop offset="0.26" stop-color="#343434"/><stop offset="0.53" stop-color="#282828"/><stop offset="0.803" stop-color="#131313"/><stop offset="1"/></linearGradient><linearGradient id="e" x1="0.5" y1="0.007" x2="0.5" y2="1.009" gradientUnits="objectBoundingBox"><stop offset="0" stop-color="#e6e6e6"/><stop offset="1" stop-color="#4d4d4d"/></linearGradient></defs><g transform="translate(-437.228 -550.886)"><path d="M519.644,563.543c-12-7.473-21.736-9.613-21.736-9.613s-1.262,6.989,6.671,11.009C514.588,570.01,519.644,563.543,519.644,563.543Z" transform="translate(-4.833 -0.243)"/><path d="M529.286,588.9a15.522,15.522,0,0,0-10.169-3.92,16.538,16.538,0,0,0-10.048,3.507,94.962,94.962,0,0,0-24.225-2.961,73.134,73.134,0,0,0-22.121,3.372s-3.353-3.318-10.208-3.819-10.168,1.549-10.168,1.549-3.993-10.166,3.377-15.99c10.736-8.481,63.04-5.178,76.978.859C534.642,576.671,529.286,588.9,529.286,588.9Z" transform="translate(-0.322 -1.166)"/><path d="M437.349,574.143c.43-1.127,1.826-2.094,2.256-2.9.407-.763,1.077-5.8,3.378-8.252a9.178,9.178,0,0,1,4-1.952c1.4-2.4,5.407-6.3,7.185-7.036,1.971-.82,11.942-3.12,22.29-3.118,10.8,0,16.395,1.873,17.092,2.356.671.465.456,1.513.456,1.513s4.311,1.883,8.185,3.8c3.953,1.952,8.591,4.16,10.149,4.643a5.472,5.472,0,0,0,2.469.108s7.8,1.556,12.471,4.08c4.689,2.533,5.888,5.958,5.888,5.958a5.072,5.072,0,0,1,1.61,1.5,10.662,10.662,0,0,1,.7,4.294c-.108.966-.959,2.629-.859,3.329.109.751.859,1.165.859,1.986,0,.752-1.387,2.065-2.645,2.577a14.838,14.838,0,0,1-3.87.708s1.5-6.037-2.313-10.676-11.618-4.688-15.413-.351-2.452,10.508-2.492,10.613c0,0-12.5-.65-23.62-.562-10.228.081-22.727.974-22.727.974s1.652-6.221-2.1-10.824-11.458-4.525-15.212-.85-3.063,9.4-3.063,9.4a11.012,11.012,0,0,1-3.171-2.516C437.672,581.5,436.921,575.27,437.349,574.143Z" transform="translate(0)" fill="#4d4d4d"/><path d="M532.619,574.2a8.607,8.607,0,0,0-4.6-4.5c-3.57-1.567-21.313-2.692-40.966-4.6s-30.8-3.23-32.159-4.67-.039-5.064-.534-5.187-4.454,2.852-6.906,6.855a7.286,7.286,0,0,0-4,1.968c-1.547,1.67-2.445,7.105-3.007,8.14s-2.021,1.808-2.33,2.568.164,5.414,2.639,7.27a10.816,10.816,0,0,1,6-8.638,12.984,12.984,0,0,1,17.113,5.5c6.906-8.707,34.69.27,42.834,3.7,0,0,1.093-5.159,5.1-7.973a12.474,12.474,0,0,1,13.762-.049,13.088,13.088,0,0,1,5.037,7.98s3.119-1.259,3.82-2.593a5.9,5.9,0,0,0-.288-4.6A3.4,3.4,0,0,0,532.619,574.2Z" transform="translate(-0.064 -0.347)" fill="url(#a)"/><path d="M451.041,565.128c-.317,1.367,8.072,4.548,23.919,5.8s45.6.829,45.311-.365-22.309-3.271-39.557-4.638S451.359,563.759,451.041,565.128Z" transform="translate(-1.101 -1.079)" fill="url(#b)"/><path d="M478.024,580.124c-7.3-.165-10.756,3.2-9.666,5.367,1.051,2.091,8.028,1.7,19.786,1.966,11.163.253,19.55,1.1,19.569.075S489.185,580.375,478.024,580.124Z" transform="translate(-2.466 -2.331)" fill="url(#c)"/><path d="M471.4,567.19c-.046.641,1.652.94,3.794,1.1s5.517.111,5.564-.531-3.253-1.289-5.395-1.446S471.445,566.547,471.4,567.19Z" transform="translate(-2.724 -1.227)" fill="#828282"/><path d="M511.98,566.214s-15.445-1.083-29.808-2.719c-14.5-1.652-22.366-2.861-22.813-3.993-.474-1.2,5.445-7.366,22.445-5.756S511.98,566.214,511.98,566.214Z" transform="translate(-1.763 -0.207)"/><path d="M509.466,565.573s-13.187-1.2-26.489-2.713c-13.429-1.529-20.317-2.652-20.516-3.5s6.9-3.779,20.09-2.189S509.466,565.573,509.466,565.573Z" transform="translate(-2.012 -0.464)" fill="url(#d)"/><path d="M503.1,566.307c.463.49,4.656.525,5.111.038.368-.391.078-2.257-.922-3.143-.959-.85-3.434-1.217-4.081-.7S502.607,565.791,503.1,566.307Z" transform="translate(-5.222 -0.907)" fill="#4d4d4d"/><g transform="translate(443.348 574.709)"><path d="M461.985,585.827a9.054,9.054,0,1,1-9.054-9.055A9.053,9.053,0,0,1,461.985,585.827Z" transform="translate(-443.878 -576.773)" fill="#252525"/><path d="M459.753,586.039a6.609,6.609,0,1,1-6.609-6.61A6.609,6.609,0,0,1,459.753,586.039Z" transform="translate(-444.09 -576.985)"/><path d="M446.232,586.013a6.887,6.887,0,1,0,6.886-6.886A6.888,6.888,0,0,0,446.232,586.013Zm5.181-2.149c-.472.353-2.588.275-4.047-.482a6.318,6.318,0,0,1,4.692-3.62C452.413,581.387,451.892,583.5,451.413,583.865Zm7.355-.706c-1.46.844-3.73.941-4.219.572-.47-.353-.978-2.4-.658-4.011A6.324,6.324,0,0,1,458.768,583.159Zm-2.99,3.574c.172-.56,1.917-1.732,3.537-1.984a6.409,6.409,0,0,1,.123,1.241,6.3,6.3,0,0,1-1.8,4.414C456.412,589.294,455.606,587.3,455.778,586.733Zm-5.415,4.943c.717-1.475,2.349-2.8,2.936-2.8.565,0,2.111,1.237,2.86,2.65a6.328,6.328,0,0,1-5.8.147Zm-3.561-5.686a6.355,6.355,0,0,1,.054-.819c1.586.163,3.3,1.112,3.514,1.633.225.551-.4,2.623-1.523,3.839A6.3,6.3,0,0,1,446.8,585.989Z" transform="translate(-444.066 -576.961)" fill="url(#e)"/><g transform="translate(7.391 7.392)"><path d="M451.909,586.468a1.663,1.663,0,1,0,1.661-1.663A1.662,1.662,0,0,0,451.909,586.468Z" transform="translate(-451.909 -584.805)" fill="#252525"/><path d="M452.544,586.519a1.078,1.078,0,1,0,1.078-1.079A1.076,1.076,0,0,0,452.544,586.519Z" transform="translate(-451.96 -584.856)" fill="#616161"/></g></g><g transform="translate(509.86 574.709)"><path d="M534.26,585.827a9.054,9.054,0,1,1-9.055-9.055A9.053,9.053,0,0,1,534.26,585.827Z" transform="translate(-516.153 -576.773)" fill="#252525"/><path d="M532.027,586.039a6.609,6.609,0,1,1-6.609-6.61A6.608,6.608,0,0,1,532.027,586.039Z" transform="translate(-516.365 -576.985)"/><path d="M518.506,586.013a6.887,6.887,0,1,0,6.887-6.886A6.888,6.888,0,0,0,518.506,586.013Zm5.181-2.149c-.471.353-2.587.275-4.047-.482a6.32,6.32,0,0,1,4.692-3.62C524.687,581.387,524.166,583.5,523.687,583.865Zm7.355-.706c-1.46.844-3.73.941-4.218.572-.47-.353-.978-2.4-.659-4.011A6.321,6.321,0,0,1,531.042,583.159Zm-2.989,3.574c.172-.56,1.917-1.732,3.537-1.984a6.413,6.413,0,0,1,.123,1.241,6.3,6.3,0,0,1-1.8,4.414C528.686,589.294,527.88,587.3,528.053,586.733Zm-5.416,4.943c.718-1.475,2.349-2.8,2.937-2.8.565,0,2.11,1.237,2.859,2.65a6.328,6.328,0,0,1-5.8.147Zm-3.561-5.686a6.355,6.355,0,0,1,.053-.819c1.587.163,3.3,1.112,3.514,1.633.226.551-.4,2.623-1.522,3.839A6.3,6.3,0,0,1,519.077,585.989Z" transform="translate(-516.341 -576.961)" fill="url(#e)"/><g transform="translate(7.391 7.392)"><path d="M524.184,586.468a1.662,1.662,0,1,0,1.661-1.663A1.662,1.662,0,0,0,524.184,586.468Z" transform="translate(-524.184 -584.805)" fill="#252525"/><path d="M524.819,586.519a1.077,1.077,0,1,0,1.078-1.079A1.075,1.075,0,0,0,524.819,586.519Z" transform="translate(-524.235 -584.856)" fill="#616161"/></g></g></g></svg>