<svg xmlns="http://www.w3.org/2000/svg" width="122" height="85.399" viewBox="0 0 122 85.399">
  <path id="Icon_awesome-money-bill-wave" data-name="Icon awesome-money-bill-wave" d="M118.407,6.531A56.449,56.449,0,0,0,96.216,2.25c-23.479,0-46.956,11.883-70.435,11.883A57.836,57.836,0,0,1,8.12,11.518a6.518,6.518,0,0,0-1.973-.309A6.066,6.066,0,0,0,0,17.273V77.75a6.062,6.062,0,0,0,3.591,5.616,56.418,56.418,0,0,0,22.19,4.283c23.479,0,46.958-11.885,70.437-11.885a57.837,57.837,0,0,1,17.661,2.615,6.518,6.518,0,0,0,1.973.309A6.066,6.066,0,0,0,122,72.624V12.149a6.07,6.07,0,0,0-3.593-5.618ZM9.15,21.354a66.337,66.337,0,0,0,11.956,1.7A12.214,12.214,0,0,1,9.15,32.881Zm0,54.327V66.573a12.2,12.2,0,0,1,12.145,11.7A46.05,46.05,0,0,1,9.15,75.681ZM61,63.249c-8.424,0-15.25-8.195-15.25-18.3S52.577,26.65,61,26.65s15.25,8.193,15.25,18.3S69.419,63.249,61,63.249Zm51.849,5.3a65.54,65.54,0,0,0-10.355-1.609,12.174,12.174,0,0,1,10.355-9.394Zm0-45.008A12.175,12.175,0,0,1,102.21,11.8a45.822,45.822,0,0,1,10.639,2.413Z" transform="translate(0 -2.25)" fill="#21b7ac"/>
</svg>
