<?xml version="1.0" encoding="utf-8"?>
<!-- Generator: Adobe Illustrator 25.2.1, SVG Export Plug-In . SVG Version: 6.00 Build 0)  -->
<svg version="1.1" id="Layer_1" xmlns="http://www.w3.org/2000/svg" xmlns:xlink="http://www.w3.org/1999/xlink" x="0px" y="0px"
	 viewBox="0 0 166.7 76" style="enable-background:new 0 0 166.7 76;" xml:space="preserve">
<style type="text/css">
	.st0{fill:#4D4D4D;}
	.st1{fill:url(#SVGID_1_);}
	.st2{fill:url(#SVGID_2_);}
	.st3{fill:url(#SVGID_3_);}
	.st4{fill:#828282;}
	.st5{fill:url(#SVGID_4_);}
	.st6{fill:url(#SVGID_5_);}
	.st7{fill:#252525;}
	.st8{fill:url(#SVGID_6_);}
	.st9{fill:#616161;}
	.st10{fill:url(#SVGID_7_);}
</style>
<g transform="translate(1726.327 -36.783)">
	<path d="M-1577.1,96c0,0-3.7-6.4-12.9-6.4c-5.3-0.1-10.5,1.9-14.4,5.5c-11.8-3.2-23.9-4.7-36.1-4.6c-11.6,0.1-23.2,1.4-34.6,3.8
		c-4.1-3.3-9.2-5.1-14.4-5.1c-8.6,0-13.4,4.4-13.4,4.4s-12-16.2-0.6-24.8c13.1-10,97.4-7.9,118.2,1.5
		C-1567.5,78.3-1577.1,96-1577.1,96z"/>
	<path d="M-1593.8,65.4c-10.4-6.6-21.4-12.1-33-16.3c0,0,1.9,11.6,12.1,17.4C-1604.2,72.5-1593.8,65.4-1593.8,65.4z"/>
	<path class="st0" d="M-1720.6,79.3c0.2-1.1,2.2-2.8,2.5-4s0.6-11,1.8-14.3c1.3-3.6,6.9-10,6.9-10s-2-1.9-1.6-2.4
		c0.4-0.4,16.4-1.8,30-2.3c13.2-0.5,26.3-0.3,39.5,0.5c8.3,0.6,14.1,1.5,15.3,2.2c0.5,0.3,0.8,0.9,0.8,1.6c0,0,7.3,3.5,14.3,7.2
		c7,3.7,12.9,7.6,14.8,8c0.9,0.2,1.8,0.1,2.6-0.3c4.5,1.3,17.9,5.2,23.2,8.9c2.7,1.9,3.8,5.9,3.8,5.9c0.8,0.5,1.4,1.3,1.8,2.1
		c0.4,2.5,0.4,5.1,0.1,7.6c-0.3,1.5-2.5,3.8-4,4.5c-1.6,0.8-8.2,1.5-8.2,1.5c0.1-0.2,2.7-8.7-2.8-15.2s-16.4-6-21.2-0.3
		c-4.9,5.7-3.3,14.6-3.3,14.6s-11.7-0.6-34.9-0.9c-23.2-0.3-35.9,0.1-35.9,0.1s1.6-7.7-3.6-13.8s-15.6-6-20.7-0.4
		s-3.5,13.3-3.5,13.5c0,0-8.8-0.9-11.5-2c-2.1-0.9-4.9-3.5-5.4-5.2C-1720.4,84-1720.7,81.6-1720.6,79.3z"/>
	
		<linearGradient id="SVGID_1_" gradientUnits="userSpaceOnUse" x1="-2600.6814" y1="599.8586" x2="-2600.6814" y2="599.0366" gradientTransform="matrix(153.6359 0 0 -27.9983 397915.4688 16858.3242)">
		<stop  offset="0" style="stop-color:#AAAAAA"/>
		<stop  offset="1" style="stop-color:#4D4D4D"/>
	</linearGradient>
	<path class="st1" d="M-1565.8,82.3c-0.4-0.7-1.1-1.2-1.9-1.4c0,0-0.8-4.6-4.7-6.7c-4-2.1-26.6-6-65.3-9c-38.7-3-74.3-2.6-75.7-2.5
		s-2,0.6-2.2,2.1c-0.2,1.5-0.7,9.9-1.3,11.3s-2,2.3-2.2,3.3s1,4.5,3.5,6.2c2.5,1.7,10,2.1,10,2.1s0.9-6.8,6.1-10.6
		c5-3.7,11.5-4.4,17.2-1.9c3.4,1.6,6.2,4.1,8.2,7.3c0,0,9.9-2.5,30-1.6c12.7,0.6,25.3,2.4,37.6,5.4c0,0,1.9-7.1,7.6-10.2
		c5.7-3.1,13.9-2.7,19,1.8c5.3,4.7,5.2,12.7,5.2,12.7s4.8,0.1,6.9-1.6C-1565.9,87.4-1565.4,83.3-1565.8,82.3z"/>
	
		<linearGradient id="SVGID_2_" gradientUnits="userSpaceOnUse" x1="-2599.2002" y1="570.9885" x2="-2598.2002" y2="570.9885" gradientTransform="matrix(112.5564 0 0 -9.6373 290846.5625 5571.3994)">
		<stop  offset="0" style="stop-color:#9D9D9D"/>
		<stop  offset="0.109" style="stop-color:#B3B3B3"/>
		<stop  offset="0.242" style="stop-color:#C8C8C8"/>
		<stop  offset="0.373" style="stop-color:#D4D4D4"/>
		<stop  offset="0.5" style="stop-color:#D9D9D9"/>
		<stop  offset="0.627" style="stop-color:#D4D4D4"/>
		<stop  offset="0.758" style="stop-color:#C8C8C8"/>
		<stop  offset="0.891" style="stop-color:#B3B3B3"/>
		<stop  offset="1" style="stop-color:#9D9D9D"/>
	</linearGradient>
	<path class="st2" d="M-1710.1,65.3c-0.3,1.6,19.3,5.9,48.2,7.5s64.4,0,64.4-1.6s-32.4-4.9-64.3-6.5
		C-1693.8,63.2-1709.8,63.7-1710.1,65.3z"/>
	
		<linearGradient id="SVGID_3_" gradientUnits="userSpaceOnUse" x1="-2593.5884" y1="563.4173" x2="-2592.5884" y2="563.4173" gradientTransform="matrix(64.0464 0 0 -8.2028 164438.2656 4709.9897)">
		<stop  offset="0" style="stop-color:#4D4D4D"/>
		<stop  offset="3.600000e-02" style="stop-color:#4A4A4A"/>
		<stop  offset="0.364" style="stop-color:#353535"/>
		<stop  offset="0.688" style="stop-color:#292929"/>
		<stop  offset="1" style="stop-color:#252525"/>
	</linearGradient>
	<path class="st3" d="M-1671.6,89.1c1,2.3,12.8,2.9,29.8,3.1s34.2,1.1,34.2-1.4c0-2.6-23.8-6.2-40.7-6.4S-1672.6,86.9-1671.6,89.1z"
		/>
	<path class="st4" d="M-1642.2,68.4c-0.1,0.8,2.1,1.2,4.8,1.4c2.7,0.2,5,0.1,5-0.7s-2.1-1.6-4.8-1.8S-1642.2,67.6-1642.2,68.4z"/>
	<path class="st4" d="M-1678.1,66.3c-0.1,0.8,2.1,1.2,4.8,1.4s5,0.1,5-0.7c0.1-0.8-2.1-1.6-4.8-1.8
		C-1675.7,65-1678,65.5-1678.1,66.3z"/>
	<path d="M-1640.7,50.2c7.7,1.1,11.3,2.3,19.5,6.1c6.6,3.3,13,6.9,19.2,11c0,0-25.2-2.8-53.9-4.3c-8.8-0.5-17.4-0.8-25.1-1
		c0.8-2.9,2.3-8.2,3.9-13.1C-1663.8,48.7-1649.2,49-1640.7,50.2z"/>
	
		<linearGradient id="SVGID_4_" gradientUnits="userSpaceOnUse" x1="-2595.7874" y1="576.9609" x2="-2594.3965" y2="576.9609" gradientTransform="matrix(74.433 0 0 -11.1795 191504 6510.7217)">
		<stop  offset="0" style="stop-color:#393939"/>
		<stop  offset="0.26" style="stop-color:#343434"/>
		<stop  offset="0.53" style="stop-color:#282828"/>
		<stop  offset="0.803" style="stop-color:#131313"/>
		<stop  offset="1" style="stop-color:#000000"/>
	</linearGradient>
	<path class="st5" d="M-1643.3,56.5c16.6,2,37.9,9.7,37.9,9.7s-23.7-2.6-50.8-4.1c-8.3-0.4-16.4-0.7-23.7-0.9c0.4-1.5,1-3.6,1.7-6
		C-1666.5,54.7-1654.9,55.2-1643.3,56.5z"/>
	<path d="M-1709.4,61.5c0,0,4.2-7.4,5.6-9.4c0.6-1.1,1.6-1.7,2.8-1.8c1.7-0.3,8.6-0.9,17.5-1.2c-2,4.9-3.7,10-4.5,12.7
		C-1700.7,61.5-1709.4,61.5-1709.4,61.5z"/>
	
		<linearGradient id="SVGID_5_" gradientUnits="userSpaceOnUse" x1="-2567.0999" y1="540.941" x2="-2562.1929" y2="540.941" gradientTransform="matrix(21.098 0 0 -5.689 52452.3906 3135.5747)">
		<stop  offset="0" style="stop-color:#393939"/>
		<stop  offset="0.26" style="stop-color:#343434"/>
		<stop  offset="0.53" style="stop-color:#282828"/>
		<stop  offset="0.803" style="stop-color:#131313"/>
		<stop  offset="1" style="stop-color:#000000"/>
	</linearGradient>
	<path class="st6" d="M-1707.9,60.8c2.5-1.7,5.3-2.9,8.2-3.6c4.2-1,8.5-1.6,12.9-1.8c-0.8,2.3-1.5,4.4-1.9,5.7
		C-1700.1,60.8-1707.9,60.8-1707.9,60.8z"/>
	<path class="st0" d="M-1618,66.1c0.6,0.6,6.2,1.1,6.9,0.6c0.5-0.4,0.2-2.6-1.1-3.7c-1.3-1.1-4.6-1.8-5.5-1.3
		S-1618.7,65.5-1618,66.1z"/>
	<path class="st7" d="M-1677,90.9c0,6.7-5.5,12.2-12.2,12.2c-6.7,0-12.2-5.5-12.2-12.2c0-6.7,5.5-12.2,12.2-12.2
		C-1682.5,78.7-1677,84.2-1677,90.9C-1677,90.9-1677,90.9-1677,90.9z"/>
	<path d="M-1680.3,90.9c0,4.9-4,8.9-8.9,8.9c-4.9,0-8.9-4-8.9-8.9c0-4.9,4-8.9,8.9-8.9C-1684.3,82-1680.3,86-1680.3,90.9
		C-1680.3,90.9-1680.3,90.9-1680.3,90.9z"/>
	
		<linearGradient id="SVGID_6_" gradientUnits="userSpaceOnUse" x1="-2561.1086" y1="592.2614" x2="-2561.1086" y2="591.2593" gradientTransform="matrix(18.532 0 0 -18.532 45773.3086 11057.5479)">
		<stop  offset="0" style="stop-color:#E6E6E6"/>
		<stop  offset="1" style="stop-color:#4D4D4D"/>
	</linearGradient>
	<path class="st8" d="M-1698.5,90.9c0,5.1,4.1,9.3,9.3,9.3c5.1,0,9.3-4.1,9.3-9.3c0-5.1-4.1-9.3-9.3-9.3c0,0,0,0,0,0
		C-1694.3,81.6-1698.5,85.8-1698.5,90.9z M-1691.5,88c-0.6,0.5-3.5,0.4-5.4-0.6c1.2-2.6,3.5-4.4,6.3-4.9
		C-1690.1,84.7-1690.8,87.5-1691.5,88L-1691.5,88z M-1681.6,87c-2,1.1-5,1.3-5.7,0.8c-0.6-0.5-1.3-3.2-0.9-5.4
		C-1685.3,82.8-1682.9,84.5-1681.6,87L-1681.6,87z M-1685.6,91.9c0.2-0.8,2.6-2.3,4.8-2.7c0.1,0.5,0.2,1.1,0.2,1.7
		c0,2.2-0.9,4.4-2.4,5.9C-1684.8,95.3-1685.8,92.6-1685.6,91.9L-1685.6,91.9z M-1692.9,98.5c1-2,3.2-3.8,4-3.8
		c0.8,0,2.8,1.7,3.8,3.6C-1687.5,99.6-1690.4,99.7-1692.9,98.5L-1692.9,98.5z M-1697.7,90.9c0-0.4,0-0.7,0.1-1.1
		c2.1,0.2,4.4,1.5,4.7,2.2c0.3,0.7-0.5,3.5-2,5.2C-1696.7,95.5-1697.7,93.2-1697.7,90.9L-1697.7,90.9z"/>
	<path class="st7" d="M-1691.4,90.9c0,1.2,1,2.2,2.2,2.2s2.2-1,2.2-2.2s-1-2.2-2.2-2.2c0,0,0,0,0,0
		C-1690.4,88.7-1691.4,89.7-1691.4,90.9C-1691.4,90.9-1691.4,90.9-1691.4,90.9z"/>
	<path class="st9" d="M-1690.6,90.9c0,0.8,0.7,1.4,1.5,1.4c0.8,0,1.4-0.7,1.4-1.5c0-0.8-0.6-1.4-1.5-1.4
		C-1690,89.4-1690.6,90.1-1690.6,90.9C-1690.6,90.9-1690.6,90.9-1690.6,90.9z"/>
	<path class="st7" d="M-1578.2,90.9c0,6.7-5.5,12.2-12.2,12.2s-12.2-5.5-12.2-12.2c0-6.7,5.5-12.2,12.2-12.2
		C-1583.6,78.7-1578.2,84.2-1578.2,90.9C-1578.2,90.9-1578.2,90.9-1578.2,90.9z"/>
	<path d="M-1581.4,90.9c0,4.9-4,8.9-8.9,8.9s-8.9-4-8.9-8.9s4-8.9,8.9-8.9C-1585.4,82-1581.4,86-1581.4,90.9
		C-1581.4,90.9-1581.4,90.9-1581.4,90.9z"/>
	
		<linearGradient id="SVGID_7_" gradientUnits="userSpaceOnUse" x1="-2561.1086" y1="592.2614" x2="-2561.1086" y2="591.2593" gradientTransform="matrix(18.532 0 0 -18.532 45872.168 11057.5479)">
		<stop  offset="0" style="stop-color:#E6E6E6"/>
		<stop  offset="1" style="stop-color:#4D4D4D"/>
	</linearGradient>
	<path class="st10" d="M-1599.6,90.9c0,5.1,4.1,9.3,9.3,9.3c5.1,0,9.3-4.1,9.3-9.3c0-5.1-4.1-9.3-9.3-9.3c0,0,0,0,0,0
		C-1595.5,81.6-1599.6,85.8-1599.6,90.9z M-1592.6,88c-0.6,0.5-3.5,0.4-5.4-0.6c1.2-2.6,3.5-4.4,6.3-4.9
		C-1591.3,84.7-1592,87.5-1592.6,88L-1592.6,88z M-1582.7,87c-2,1.1-5,1.3-5.7,0.8c-0.6-0.5-1.3-3.2-0.9-5.4
		C-1586.5,82.8-1584,84.5-1582.7,87L-1582.7,87z M-1586.8,91.9c0.2-0.8,2.6-2.3,4.8-2.7c0.1,0.5,0.2,1.1,0.2,1.7
		c0,2.2-0.9,4.4-2.4,5.9C-1585.9,95.3-1587,92.6-1586.8,91.9L-1586.8,91.9z M-1594,98.5c1-2,3.2-3.8,3.9-3.8c0.8,0,2.8,1.7,3.8,3.6
		C-1588.7,99.6-1591.6,99.7-1594,98.5L-1594,98.5z M-1598.8,90.9c0-0.4,0-0.7,0.1-1.1c2.1,0.2,4.4,1.5,4.7,2.2
		c0.3,0.7-0.5,3.5-2,5.2C-1597.8,95.5-1598.8,93.2-1598.8,90.9z"/>
	<path class="st7" d="M-1592.6,90.9c0,1.2,1,2.2,2.2,2.2c1.2,0,2.2-1,2.2-2.2c0-1.2-1-2.2-2.2-2.2c0,0,0,0,0,0
		C-1591.6,88.7-1592.6,89.7-1592.6,90.9C-1592.6,90.9-1592.6,90.9-1592.6,90.9z"/>
	<path class="st9" d="M-1591.8,90.9c0,0.8,0.7,1.4,1.5,1.4s1.4-0.7,1.4-1.5c0-0.8-0.6-1.4-1.4-1.4
		C-1591.1,89.4-1591.8,90.1-1591.8,90.9C-1591.8,90.9-1591.8,90.9-1591.8,90.9z"/>
</g>
</svg>
