<?xml version="1.0" encoding="utf-8"?>
<!-- Generator: Adobe Illustrator 25.2.1, SVG Export Plug-In . SVG Version: 6.00 Build 0)  -->
<svg version="1.1" id="Layer_1" xmlns="http://www.w3.org/2000/svg" xmlns:xlink="http://www.w3.org/1999/xlink" x="0px" y="0px"
	 viewBox="0 0 260 262" style="enable-background:new 0 0 260 262;" xml:space="preserve">
<style type="text/css">
	.st0{fill:#4D4D4D;}
	.st1{fill:url(#SVGID_1_);}
	.st2{fill:url(#SVGID_2_);}
	.st3{fill:url(#SVGID_3_);}
	.st4{fill:#828282;}
	.st5{fill:url(#SVGID_4_);}
	.st6{fill:url(#SVGID_5_);}
	.st7{fill:#252525;}
	.st8{fill:url(#SVGID_6_);}
	.st9{fill:#616161;}
	.st10{fill:url(#SVGID_7_);}
</style>
<g transform="translate(1726.327 -36.783)">
	<path d="M-1530.7,180.7c0,0-3.7-6.4-12.9-6.4c-5.3-0.1-10.5,1.9-14.4,5.5c-11.8-3.2-23.9-4.7-36.1-4.6c-11.6,0.1-23.2,1.4-34.6,3.8
		c-4.1-3.3-9.2-5.1-14.4-5.1c-8.6,0-13.4,4.4-13.4,4.4s-12-16.2-0.6-24.8c13.1-10,97.4-7.9,118.2,1.5
		C-1521.2,163-1530.7,180.7-1530.7,180.7z"/>
	<path d="M-1547.5,150.1c-10.4-6.6-21.4-12.1-33-16.3c0,0,1.9,11.6,12.1,17.4C-1557.9,157.2-1547.5,150.1-1547.5,150.1z"/>
	<path class="st0" d="M-1674.3,164c0.2-1.1,2.2-2.8,2.5-4s0.6-11,1.8-14.3c1.3-3.6,6.9-10,6.9-10s-2-1.9-1.6-2.4
		c0.4-0.4,16.4-1.8,30-2.3c13.2-0.5,26.3-0.3,39.5,0.5c8.3,0.6,14.1,1.5,15.3,2.2c0.5,0.3,0.8,0.9,0.8,1.6c0,0,7.3,3.5,14.3,7.2
		c7,3.7,12.9,7.6,14.8,8c0.9,0.2,1.8,0.1,2.6-0.3c4.5,1.3,17.9,5.2,23.2,8.9c2.7,1.9,3.8,5.9,3.8,5.9c0.8,0.5,1.4,1.3,1.8,2.1
		c0.4,2.5,0.4,5.1,0.1,7.6c-0.3,1.5-2.5,3.8-4,4.5c-1.6,0.8-8.2,1.5-8.2,1.5c0.1-0.2,2.7-8.7-2.8-15.2s-16.4-6-21.2-0.3
		c-4.9,5.7-3.3,14.6-3.3,14.6s-11.7-0.6-34.9-0.9c-23.2-0.3-35.9,0.1-35.9,0.1s1.6-7.7-3.6-13.8c-5.2-6-15.6-6-20.7-0.4
		s-3.5,13.3-3.5,13.5c0,0-8.8-0.9-11.5-2c-2.1-0.9-4.9-3.5-5.4-5.2C-1674.1,168.8-1674.3,166.4-1674.3,164z"/>
	
		<linearGradient id="SVGID_1_" gradientUnits="userSpaceOnUse" x1="-2549.4312" y1="694.1887" x2="-2549.4312" y2="693.3667" gradientTransform="matrix(153.6359 0 0 -27.9983 390087.9375 19584.166)">
		<stop  offset="0" style="stop-color:#AAAAAA"/>
		<stop  offset="1" style="stop-color:#4D4D4D"/>
	</linearGradient>
	<path class="st1" d="M-1519.5,167c-0.4-0.7-1.1-1.2-1.9-1.4c0,0-0.8-4.6-4.7-6.7c-4-2.1-26.6-6-65.3-9c-38.7-3-74.3-2.6-75.7-2.5
		s-2,0.6-2.2,2.1c-0.2,1.5-0.7,9.9-1.3,11.3s-2,2.3-2.2,3.3s1,4.5,3.5,6.2c2.5,1.7,10,2.1,10,2.1s0.9-6.8,6.1-10.6
		c5-3.7,11.5-4.4,17.2-1.9c3.4,1.6,6.2,4.1,8.2,7.3c0,0,9.9-2.5,30-1.6c12.7,0.6,25.3,2.4,37.6,5.4c0,0,1.9-7.1,7.6-10.2
		c5.7-3.1,13.9-2.7,19,1.8c5.3,4.7,5.2,12.7,5.2,12.7s4.8,0.1,6.9-1.6C-1519.5,172.2-1519.1,168-1519.5,167z"/>
	
		<linearGradient id="SVGID_2_" gradientUnits="userSpaceOnUse" x1="-2547.9619" y1="665.9475" x2="-2546.9619" y2="665.9475" gradientTransform="matrix(112.5564 0 0 -9.6373 285125.6875 6571.3057)">
		<stop  offset="0" style="stop-color:#9D9D9D"/>
		<stop  offset="0.109" style="stop-color:#B3B3B3"/>
		<stop  offset="0.242" style="stop-color:#C8C8C8"/>
		<stop  offset="0.373" style="stop-color:#D4D4D4"/>
		<stop  offset="0.5" style="stop-color:#D9D9D9"/>
		<stop  offset="0.627" style="stop-color:#D4D4D4"/>
		<stop  offset="0.758" style="stop-color:#C8C8C8"/>
		<stop  offset="0.891" style="stop-color:#B3B3B3"/>
		<stop  offset="1" style="stop-color:#9D9D9D"/>
	</linearGradient>
	<path class="st2" d="M-1663.8,150.1c-0.3,1.6,19.3,5.9,48.2,7.5s64.4,0,64.4-1.6s-32.4-4.9-64.3-6.5S-1663.5,148.5-1663.8,150.1z"
		/>
	
		<linearGradient id="SVGID_3_" gradientUnits="userSpaceOnUse" x1="-2542.3833" y1="658.544" x2="-2541.3833" y2="658.544" gradientTransform="matrix(64.0464 0 0 -8.2028 161205.0938 5575.0547)">
		<stop  offset="0" style="stop-color:#4D4D4D"/>
		<stop  offset="3.600000e-02" style="stop-color:#4A4A4A"/>
		<stop  offset="0.364" style="stop-color:#353535"/>
		<stop  offset="0.688" style="stop-color:#292929"/>
		<stop  offset="1" style="stop-color:#252525"/>
	</linearGradient>
	<path class="st3" d="M-1625.3,173.8c1,2.3,12.8,2.9,29.8,3.1s34.2,1.1,34.2-1.4c0-2.6-23.8-6.2-40.7-6.4
		S-1626.2,171.6-1625.3,173.8z"/>
	<path class="st4" d="M-1595.9,153.2c-0.1,0.8,2.1,1.2,4.8,1.4c2.7,0.2,5,0.1,5-0.7c0.1-0.8-2.1-1.6-4.8-1.8
		C-1593.6,151.9-1595.8,152.4-1595.9,153.2z"/>
	<path class="st4" d="M-1631.7,151.1c-0.1,0.8,2.1,1.2,4.8,1.4c2.7,0.2,5,0.1,5-0.7c0.1-0.8-2.1-1.6-4.8-1.8
		C-1629.4,149.8-1631.7,150.3-1631.7,151.1z"/>
	<path d="M-1594.4,134.9c7.7,1.1,11.3,2.3,19.5,6.1c6.6,3.3,13,6.9,19.2,11c0,0-25.2-2.8-53.9-4.3c-8.8-0.5-17.4-0.8-25.1-1
		c0.8-2.9,2.3-8.2,3.9-13.1C-1617.5,133.4-1602.9,133.8-1594.4,134.9z"/>
	
		<linearGradient id="SVGID_4_" gradientUnits="userSpaceOnUse" x1="-2544.5715" y1="671.7877" x2="-2543.1804" y2="671.7877" gradientTransform="matrix(74.433 0 0 -11.1795 187738.1719 7655.5952)">
		<stop  offset="0" style="stop-color:#393939"/>
		<stop  offset="0.26" style="stop-color:#343434"/>
		<stop  offset="0.53" style="stop-color:#282828"/>
		<stop  offset="0.803" style="stop-color:#131313"/>
		<stop  offset="1" style="stop-color:#000000"/>
	</linearGradient>
	<path class="st5" d="M-1597,141.3c16.6,2,37.9,9.7,37.9,9.7s-23.7-2.6-50.8-4.1c-8.3-0.4-16.4-0.7-23.7-0.9c0.4-1.5,1-3.6,1.7-6
		C-1620.2,139.5-1608.6,139.9-1597,141.3z"/>
	<path d="M-1663.1,146.3c0,0,4.2-7.4,5.6-9.4c0.6-1.1,1.6-1.7,2.8-1.8c1.7-0.3,8.6-0.9,17.5-1.2c-2,4.9-3.7,10-4.5,12.7
		C-1654.3,146.3-1663.1,146.3-1663.1,146.3z"/>
	
		<linearGradient id="SVGID_5_" gradientUnits="userSpaceOnUse" x1="-2516.0522" y1="636.5656" x2="-2511.1453" y2="636.5656" gradientTransform="matrix(21.098 0 0 -5.689 51421.7148 3764.3401)">
		<stop  offset="0" style="stop-color:#393939"/>
		<stop  offset="0.26" style="stop-color:#343434"/>
		<stop  offset="0.53" style="stop-color:#282828"/>
		<stop  offset="0.803" style="stop-color:#131313"/>
		<stop  offset="1" style="stop-color:#000000"/>
	</linearGradient>
	<path class="st6" d="M-1661.6,145.5c2.5-1.7,5.3-2.9,8.2-3.6c4.2-1,8.5-1.6,12.9-1.8c-0.8,2.3-1.5,4.4-1.9,5.7
		C-1653.8,145.5-1661.6,145.5-1661.6,145.5z"/>
	<path class="st0" d="M-1571.7,150.9c0.6,0.6,6.2,1.1,6.9,0.6c0.5-0.4,0.2-2.6-1.1-3.7c-1.3-1.1-4.6-1.8-5.5-1.3
		S-1572.3,150.3-1571.7,150.9z"/>
	<path class="st7" d="M-1630.7,175.6c0,6.7-5.5,12.2-12.2,12.2c-6.7,0-12.2-5.5-12.2-12.2c0-6.7,5.5-12.2,12.2-12.2
		C-1636.1,163.5-1630.7,168.9-1630.7,175.6C-1630.7,175.6-1630.7,175.6-1630.7,175.6z"/>
	<path d="M-1634,175.6c0,4.9-4,8.9-8.9,8.9c-4.9,0-8.9-4-8.9-8.9c0-4.9,4-8.9,8.9-8.9C-1638,166.8-1634,170.7-1634,175.6
		C-1634,175.6-1634,175.6-1634,175.6z"/>
	
		<linearGradient id="SVGID_6_" gradientUnits="userSpaceOnUse" x1="-2510.0935" y1="686.7601" x2="-2510.0935" y2="685.7581" gradientTransform="matrix(18.532 0 0 -18.532 44874.2266 12893.5566)">
		<stop  offset="0" style="stop-color:#E6E6E6"/>
		<stop  offset="1" style="stop-color:#4D4D4D"/>
	</linearGradient>
	<path class="st8" d="M-1652.1,175.6c0,5.1,4.1,9.3,9.3,9.3c5.1,0,9.3-4.1,9.3-9.3c0-5.1-4.1-9.3-9.3-9.3c0,0,0,0,0,0
		C-1648,166.4-1652.1,170.5-1652.1,175.6z M-1645.2,172.8c-0.6,0.5-3.5,0.4-5.4-0.6c1.2-2.6,3.5-4.4,6.3-4.9
		C-1643.8,169.4-1644.5,172.3-1645.2,172.8L-1645.2,172.8z M-1635.3,171.8c-2,1.1-5,1.3-5.7,0.8c-0.6-0.5-1.3-3.2-0.9-5.4
		C-1639,167.5-1636.5,169.3-1635.3,171.8L-1635.3,171.8z M-1639.3,176.6c0.2-0.8,2.6-2.3,4.8-2.7c0.1,0.5,0.2,1.1,0.2,1.7
		c0,2.2-0.9,4.4-2.4,5.9C-1638.4,180.1-1639.5,177.4-1639.3,176.6L-1639.3,176.6z M-1646.6,183.3c1-2,3.2-3.8,3.9-3.8
		c0.8,0,2.8,1.7,3.8,3.6C-1641.2,184.4-1644.1,184.5-1646.6,183.3L-1646.6,183.3z M-1651.4,175.6c0-0.4,0-0.7,0.1-1.1
		c2.1,0.2,4.4,1.5,4.7,2.2c0.3,0.7-0.5,3.5-2,5.2C-1650.4,180.3-1651.4,178-1651.4,175.6L-1651.4,175.6z"/>
	<path class="st7" d="M-1645.1,175.6c0,1.2,1,2.2,2.2,2.2s2.2-1,2.2-2.2s-1-2.2-2.2-2.2c0,0,0,0,0,0
		C-1644.1,173.4-1645.1,174.4-1645.1,175.6C-1645.1,175.6-1645.1,175.6-1645.1,175.6z"/>
	<path class="st9" d="M-1644.3,175.6c0,0.8,0.7,1.4,1.5,1.4c0.8,0,1.4-0.7,1.4-1.5c0-0.8-0.6-1.4-1.4-1.4
		C-1643.7,174.2-1644.3,174.8-1644.3,175.6C-1644.3,175.6-1644.3,175.6-1644.3,175.6z"/>
	<path class="st7" d="M-1531.8,175.6c0,6.7-5.5,12.2-12.2,12.2s-12.2-5.5-12.2-12.2c0-6.7,5.5-12.2,12.2-12.2
		C-1537.3,163.5-1531.8,168.9-1531.8,175.6C-1531.8,175.6-1531.8,175.6-1531.8,175.6z"/>
	<path d="M-1535.1,175.6c0,4.9-4,8.9-8.9,8.9s-8.9-4-8.9-8.9s4-8.9,8.9-8.9C-1539.1,166.8-1535.1,170.7-1535.1,175.6
		C-1535.1,175.6-1535.1,175.6-1535.1,175.6z"/>
	
		<linearGradient id="SVGID_7_" gradientUnits="userSpaceOnUse" x1="-2510.0935" y1="686.7601" x2="-2510.0935" y2="685.7581" gradientTransform="matrix(18.532 0 0 -18.532 44973.082 12893.5566)">
		<stop  offset="0" style="stop-color:#E6E6E6"/>
		<stop  offset="1" style="stop-color:#4D4D4D"/>
	</linearGradient>
	<path class="st10" d="M-1553.3,175.6c0,5.1,4.1,9.3,9.3,9.3c5.1,0,9.3-4.1,9.3-9.3c0-5.1-4.1-9.3-9.3-9.3c0,0,0,0,0,0
		C-1549.1,166.4-1553.3,170.5-1553.3,175.6z M-1546.3,172.8c-0.6,0.5-3.5,0.4-5.4-0.6c1.2-2.6,3.5-4.4,6.3-4.9
		C-1545,169.4-1545.7,172.3-1546.3,172.8L-1546.3,172.8z M-1536.4,171.8c-2,1.1-5,1.3-5.7,0.8c-0.6-0.5-1.3-3.2-0.9-5.4
		C-1540.1,167.5-1537.7,169.3-1536.4,171.8L-1536.4,171.8z M-1540.4,176.6c0.2-0.8,2.6-2.3,4.8-2.7c0.1,0.5,0.2,1.1,0.2,1.7
		c0,2.2-0.9,4.4-2.4,5.9C-1539.6,180.1-1540.7,177.4-1540.4,176.6L-1540.4,176.6z M-1547.7,183.3c1-2,3.2-3.8,3.9-3.8
		c0.8,0,2.8,1.7,3.8,3.6C-1542.3,184.4-1545.2,184.5-1547.7,183.3L-1547.7,183.3z M-1552.5,175.6c0-0.4,0-0.7,0.1-1.1
		c2.1,0.2,4.4,1.5,4.7,2.2c0.3,0.7-0.5,3.5-2,5.2C-1551.5,180.3-1552.5,178-1552.5,175.6z"/>
	<path class="st7" d="M-1546.2,175.6c0,1.2,1,2.2,2.2,2.2c1.2,0,2.2-1,2.2-2.2c0-1.2-1-2.2-2.2-2.2c0,0,0,0,0,0
		C-1545.2,173.4-1546.2,174.4-1546.2,175.6C-1546.2,175.6-1546.2,175.6-1546.2,175.6z"/>
	<path class="st9" d="M-1545.5,175.6c0,0.8,0.7,1.4,1.5,1.4c0.8,0,1.4-0.7,1.4-1.5c0-0.8-0.6-1.4-1.4-1.4
		C-1544.8,174.2-1545.5,174.8-1545.5,175.6C-1545.5,175.6-1545.5,175.6-1545.5,175.6z"/>
</g>
</svg>
