<svg xmlns="http://www.w3.org/2000/svg" width="280" height="211.542" viewBox="0 0 280 211.542"><g transform="translate(-258 -2021.458)"><g transform="translate(340.587 2021.458)"><path d="M565.607,148.577V40H531.06V148.577h-9.871V59.741H486.642v88.836h-9.871V79.483H442.224v69.095h-9.871V104.159H397.806v44.418H383v9.871H580.413v-9.871Z" transform="translate(-383 29.095)" fill="#21b7ac"/><path d="M455.523,90.853l19.708,19.708,51.505-46.353,18.125,18.125V26H488.528l17.238,17.24L476.3,69.758,456.533,49.99l-73.278,67.041,19.816,22.021Z" transform="translate(-381.995 -26)" fill="#21b7ac"/></g><g transform="translate(-4)"><g transform="translate(262 2158.559)"><path d="M487.356,181.031C477.794,164.19,453.671,151,432.441,151s-45.354,13.19-54.916,30.031l-.675,1.186.675,1.186c9.562,16.84,33.686,30.031,54.916,30.031s45.354-13.19,54.916-30.031l.675-1.186Zm-54.916,25.2a24.013,24.013,0,1,1,24.013-24.013A24.04,24.04,0,0,1,432.441,206.23Z" transform="translate(-376.85 -138.993)" fill="#75787a"/><path d="M426.17,150.8c14.869,0,30.811,6.135,41.6,16.007l3.242-3.542C459.375,152.618,442.191,146,426.17,146s-33.206,6.618-44.845,17.268l3.242,3.542C395.358,156.938,411.3,150.8,426.17,150.8Z" transform="translate(-370.579 -146)" fill="#75787a"/></g><g transform="translate(303 2191.122)"><path d="M123.776,255.931l1.079-.478a.919.919,0,0,0,.441-1.211.8.8,0,0,0-.608-.459,4.092,4.092,0,0,0-1.616-.169.812.812,0,0,0-.547.37l0,0-.235.363-1.043-2.43a3.664,3.664,0,0,0-2.773-2.351,44.872,44.872,0,0,0-11.46,0,3.664,3.664,0,0,0-2.773,2.351l-1.043,2.43-.235-.363,0,0a.812.812,0,0,0-.547-.37,4.092,4.092,0,0,0-1.616.169.8.8,0,0,0-.608.459.919.919,0,0,0,.441,1.211l1.079.478a4.285,4.285,0,0,0-1.7,3.8,11.641,11.641,0,0,0,.784,3.62v2.125a1.541,1.541,0,0,0,1.468,1.6h2.377a1.541,1.541,0,0,0,1.468-1.6v-.506l3.881.12h5.51l3.881-.12v.506a1.541,1.541,0,0,0,1.468,1.6h2.377a1.541,1.541,0,0,0,1.468-1.6v-2.125a11.64,11.64,0,0,0,.784-3.62A4.285,4.285,0,0,0,123.776,255.931ZM105,252.46a2.772,2.772,0,0,1,2.1-1.779,44.177,44.177,0,0,1,11.287,0,2.773,2.773,0,0,1,2.1,1.779l1.26,2.936c-1.736-.128-5.192-.29-8.774-.29-3.634,0-7.394.167-9.233.3Zm1.14,8.7h-2.612a1.247,1.247,0,0,1-1.12-.927l-.07-.2c-.307-.893.292-1.861,1.054-1.7,0,0,3.324.469,3.6,1.379C107.17,260.427,106.74,261.159,106.139,261.159Zm17.007-1.132-.07.2a1.247,1.247,0,0,1-1.12.927h-2.612c-.6,0-1.03-.732-.854-1.456.278-.909,3.6-1.379,3.6-1.379C122.854,258.167,123.453,259.134,123.146,260.028Z" transform="translate(-100 -249.203)" fill="#16b8ac"/></g></g></g></svg>