<svg xmlns="http://www.w3.org/2000/svg" width="202.017" height="199.999" viewBox="0 0 202.017 199.999"><g transform="translate(-1403.76 -1951.139)"><g transform="translate(1403.76 1951.139)"><g transform="translate(0 0)"><path d="M1414.547,1450.987v12.208H1265.785V1278.168H1376.77V1315.9l37.777,0v41.327c.985.838,1.952,1.708,2.882,2.638q1.5,1.5,2.835,3.1V1311.9l-39.452-39.452H1260.067v196.462h160.2V1456.7Zm-32.059-168.777,28.009,28.009-28.009-.029Z" transform="translate(-1260.067 -1272.45)" fill="#75787a"/></g><g transform="translate(31.089 95.944)"><path d="M1644.565,2450.216a2.859,2.859,0,1,0,0,5.717h45.669a47.6,47.6,0,0,1,3.056-5.717Z" transform="translate(-1641.706 -2450.216)" fill="#75787a"/><g transform="translate(0 19.821)"><path d="M1686.352,2693.526h-41.788a2.859,2.859,0,1,0,0,5.718h41.45A48.443,48.443,0,0,1,1686.352,2693.526Z" transform="translate(-1641.706 -2693.526)" fill="#75787a"/></g><g transform="translate(0 39.643)"><path d="M1644.565,2936.85a2.859,2.859,0,1,0,0,5.718h45.757a47.756,47.756,0,0,1-2.166-5.718Z" transform="translate(-1641.706 -2936.85)" fill="#75787a"/></g><g transform="translate(0 59.463)"><path d="M1644.565,3180.16a2.859,2.859,0,1,0,0,5.717h62.483a48.383,48.383,0,0,1-6.921-5.717Z" transform="translate(-1641.706 -3180.16)" fill="#75787a"/></g></g><g transform="translate(81.682 79.661)"><path d="M2379.537,2349.94l-22.607-22.607a6.37,6.37,0,0,0-7.407-1.144l-10.585-10.585a41.717,41.717,0,1,0-10.916,10.915l10.585,10.585a6.372,6.372,0,0,0,1.141,7.411l22.607,22.607a12.15,12.15,0,0,0,17.182-17.182ZM2279,2317.527a36.022,36.022,0,1,1,53.939-3.387,36.965,36.965,0,0,1-6.382,6.382A36.05,36.05,0,0,1,2279,2317.527Zm54.985,4.043q.7-.7,1.381-1.448l9.872,9.872-2.83,2.83-9.872-9.871Q2333.282,2322.276,2333.988,2321.57Zm41.507,41.51a6.439,6.439,0,0,1-9.1,0l-22.607-22.607a.668.668,0,0,1,0-.944l.614-.613c.01-.009.021-.016.031-.026l6.872-6.873c.008-.008.012-.017.02-.024l.616-.617a.67.67,0,0,1,.944,0l22.607,22.607A6.44,6.44,0,0,1,2375.495,2363.079Z" transform="translate(-2262.755 -2250.338)" fill="#75787a"/></g><g transform="translate(92.089 90.069)"><g transform="translate(0 0)"><path d="M2421.833,2440.734a31.319,31.319,0,1,1,31.319-31.32A31.355,31.355,0,0,1,2421.833,2440.734Zm0-56.921a25.6,25.6,0,1,0,25.6,25.6A25.631,25.631,0,0,0,2421.833,2383.813Z" transform="translate(-2390.514 -2378.096)" fill="#75787a"/></g></g></g><g transform="translate(1425.206 1979.03)"><path d="M160.125,266.218l2.728-1.21a2.323,2.323,0,0,0,1.115-3.063,2.013,2.013,0,0,0-1.538-1.162,10.347,10.347,0,0,0-4.086-.429,2.054,2.054,0,0,0-1.382.937l-.007.011-.6.918-2.637-6.144c-1.435-3.342-4.056-5.565-7.011-5.945a113.47,113.47,0,0,0-28.979,0c-2.955.38-5.577,2.6-7.011,5.945l-2.637,6.144-.6-.918-.007-.011a2.054,2.054,0,0,0-1.382-.937,10.347,10.347,0,0,0-4.087.429,2.013,2.013,0,0,0-1.538,1.162,2.323,2.323,0,0,0,1.115,3.063l2.728,1.21a10.835,10.835,0,0,0-4.3,9.614A29.438,29.438,0,0,0,102,284.986v5.372a3.9,3.9,0,0,0,3.712,4.056h6.011a3.9,3.9,0,0,0,3.712-4.056v-1.281l9.815.3h13.933l9.815-.3v1.281a3.9,3.9,0,0,0,3.712,4.056h6.011a3.9,3.9,0,0,0,3.712-4.056v-5.372a29.437,29.437,0,0,0,1.982-9.154A10.835,10.835,0,0,0,160.125,266.218Zm-47.481-8.778a7.01,7.01,0,0,1,5.306-4.5,111.711,111.711,0,0,1,28.541,0,7.012,7.012,0,0,1,5.308,4.5l3.187,7.425c-4.39-.323-13.131-.733-22.188-.733-9.19,0-18.7.423-23.348.747Zm2.882,22h-6.6a3.154,3.154,0,0,1-2.832-2.344l-.178-.518c-.776-2.259.738-4.705,2.665-4.307,0,0,8.406,1.187,9.109,3.487C118.13,277.587,117.044,279.439,115.525,279.439Zm43.006-2.862-.178.518a3.154,3.154,0,0,1-2.832,2.344h-6.6c-1.519,0-2.605-1.852-2.16-3.683.7-2.3,9.109-3.487,9.109-3.487C157.793,271.871,159.306,274.318,158.53,276.577Z" transform="translate(-100 -249.203)" fill="#16b8ac"/></g></g></svg>