<svg xmlns="http://www.w3.org/2000/svg" width="249" height="164.391" viewBox="0 0 249 164.391"><g transform="translate(-317.767 -311.664)"><path d="M471.406,540.583h3.879c.444-3.4,2.678-6.017,5.345-6.017h38.359c2.671,0,4.9,2.612,5.346,6.017h3.882c.846,0,1.531.995,1.531,2.223v3.079c0,1.225-.684,2.22-1.531,2.22h-56.81c-.846,0-1.53-1-1.53-2.22v-3.079C469.876,541.577,470.561,540.583,471.406,540.583Z" transform="translate(-83.364 -122.162)" fill="#21b7ac"/><path d="M584.229,394.682a1.58,1.58,0,0,0,2.183-.5l3.363-5.369a1.584,1.584,0,0,0-.5-2.183L571.3,375.366a1.583,1.583,0,0,0-2.183.5l-3.363,5.369a1.582,1.582,0,0,0,.5,2.183Z" transform="translate(-135.776 -34.78)" fill="#21b7ac"/><path d="M542.508,461.267a1.583,1.583,0,0,0,2.18-.5l3.367-5.371a1.587,1.587,0,0,0-.5-2.183l-17.977-11.263a1.586,1.586,0,0,0-2.186.5l-3.363,5.37a1.578,1.578,0,0,0,.5,2.182Z" transform="translate(-112.91 -71.271)" fill="#21b7ac"/><path d="M557.357,427.677a1.585,1.585,0,0,0,2.184-.5l10.022-16a1.585,1.585,0,0,0-.5-2.186l-11.037-6.914a1.584,1.584,0,0,0-2.183.5l-10.027,16a1.587,1.587,0,0,0,.5,2.185Z" transform="translate(-124.851 -49.42)" fill="#21b7ac"/><path d="M790.507,420.527a6.437,6.437,0,0,0-6.2-4.823H732.866a6.437,6.437,0,0,0-6.2,4.823h-.232v31.192l4.224,2.392V428.15a6.325,6.325,0,0,0,2.207.417h51.441a6.32,6.32,0,0,0,2.207-.417v82.287a7.623,7.623,0,0,0-3.493-.85H734.152a7.626,7.626,0,0,0-3.493.85V482.368l-4.224-2.872V517.3a7.74,7.74,0,0,0,7.718,7.717h48.869a7.74,7.74,0,0,0,7.717-7.717V420.527ZM766.3,519.072H750.878v-4.5H766.3Z" transform="translate(-223.972 -57.02)" fill="#21b7ac"/><path d="M590.557,443.028a2.453,2.453,0,0,0,.315.175l74.315,50.52a1.428,1.428,0,0,0,.153.09c.067.049.142.1.213.145a6.6,6.6,0,0,0,7.151-11.086c-.028-.016-.055-.029-.083-.046a.173.173,0,0,0-.042-.029l-.023-.015c-.134-.081-.268-.158-.4-.226l-78.15-44.24a1.647,1.647,0,0,0-.216-.1c-.027-.02-.058-.042-.09-.061a2.9,2.9,0,1,0-3.143,4.873Z" transform="translate(-148.777 -69.07)" fill="#21b7ac"/><path d="M532.008,661.608a4.04,4.04,0,0,1-4.028,4.028h-72.5a4.04,4.04,0,0,1-4.028-4.028h0a4.041,4.041,0,0,1,4.028-4.028h72.5a4.041,4.041,0,0,1,4.028,4.028Z" transform="translate(-73.266 -189.581)" fill="#21b7ac"/><path d="M492.392,460.282V437.739H329.63a10.065,10.065,0,0,0-1.794.181V321.733H509.091v26.881H519.16V321.733a10.1,10.1,0,0,0-10.069-10.069H327.836a10.1,10.1,0,0,0-10.069,10.069V452.639a10.1,10.1,0,0,0,10.069,10.07H492.581A17.737,17.737,0,0,1,492.392,460.282Z" transform="translate(0)" fill="#21b7ac"/></g></svg>