<svg xmlns="http://www.w3.org/2000/svg" width="196.852" height="204.81" viewBox="0 0 196.852 204.81"><g transform="translate(-353.223 -304.437)"><g transform="translate(411.004 370.157)"><g transform="translate(0 0)"><path d="M519.461,527.686a39.588,39.588,0,1,1,27.992-11.6A39.33,39.33,0,0,1,519.461,527.686Zm0-73.354a33.766,33.766,0,1,0,23.876,9.89A33.545,33.545,0,0,0,519.461,454.332Z" transform="translate(-479.892 -448.51)" fill="#21b7ac"/></g></g><g transform="translate(474.45 433.622)"><rect width="5.822" height="20.377" transform="translate(0 4.116) rotate(-45)" fill="#21b7ac"/></g><g transform="translate(484.74 443.918)"><path d="M690.57,675.538a16.142,16.142,0,0,1-11.916-5.267l-33.523-36.846a13.771,13.771,0,0,1,.45-19.028l.144-.144a13.787,13.787,0,0,1,19.031-.453L701.6,647.322a16.1,16.1,0,0,1,.55,23.3l-.2.2A16,16,0,0,1,690.57,675.538Zm-35.09-59.506a7.915,7.915,0,0,0-5.634,2.333l-.144.144a7.959,7.959,0,0,0-.263,11l33.522,36.846a10.285,10.285,0,0,0,14.879.352l.2-.2a10.284,10.284,0,0,0-.351-14.879l-36.847-33.523A7.947,7.947,0,0,0,655.48,616.032Z" transform="translate(-641.536 -610.21)" fill="#21b7ac"/></g><g transform="translate(353.223 349.452)"><g transform="translate(0 0)"><path d="M482.682,431.3a45.378,45.378,0,0,1,4.448,5.176V403.12H353.223V555.215H487.13V528.131l-3.1-3.412a19.77,19.77,0,0,1-2.719-3.819v28.493H359.045V408.942H481.308v21.047C481.774,430.414,482.234,430.856,482.682,431.3Z" transform="translate(-353.223 -403.12)" fill="#21b7ac"/></g></g><g transform="translate(359.045 326.943)"><path d="M488.249,370.462h-5.822V359.6H371.809v10.863h-5.822V353.777H488.249Z" transform="translate(-365.986 -353.777)" fill="#21b7ac"/></g><g transform="translate(364.867 304.436)"><g transform="translate(0)"><path d="M489.369,321.121h-5.822V310.259H384.572v10.863H378.75V304.436H489.369Z" transform="translate(-378.75 -304.436)" fill="#21b7ac"/></g></g><g transform="translate(377.676 374.044)"><g transform="translate(0 0)"><path d="M451.653,457.031a45.1,45.1,0,0,0-4.034,3.592c-.722.722-1.421,1.467-2.079,2.23H406.829v-5.822Z" transform="translate(-406.829 -457.031)" fill="#21b7ac"/></g></g><g transform="translate(377.676 395.586)"><g transform="translate(0 0)"><path d="M406.829,504.255h29.762a44.07,44.07,0,0,0-1.485,5.822H406.829Z" transform="translate(-406.829 -504.255)" fill="#21b7ac"/></g></g><g transform="translate(377.676 417.127)"><g transform="translate(0 0)"><path d="M434.938,551.479a44.884,44.884,0,0,0,1.351,5.822H406.829v-5.822Z" transform="translate(-406.829 -551.479)" fill="#21b7ac"/></g></g><g transform="translate(377.676 438.669)"><path d="M450.488,604.525H406.829V598.7h37.9a42.281,42.281,0,0,0,2.888,3.184Q449.007,603.276,450.488,604.525Z" transform="translate(-406.829 -598.703)" fill="#21b7ac"/></g><g transform="translate(377.676 460.21)"><rect width="85.002" height="5.822" fill="#21b7ac"/></g><g transform="translate(431.088 393.53)"><path d="M540.136,535.585l-16.217-23.16,4.769-3.339,11.448,16.349,17.986-25.686,4.769,3.339Z" transform="translate(-523.919 -499.748)" fill="#21b7ac"/></g></g></svg>