<svg xmlns="http://www.w3.org/2000/svg" xmlns:xlink="http://www.w3.org/1999/xlink" width="114.165" height="40.284" viewBox="0 0 114.165 40.284"><defs><linearGradient id="a" x1="0.5" y1="-0.017" x2="0.5" y2="0.962" gradientUnits="objectBoundingBox"><stop offset="0" stop-color="#aaa"/><stop offset="1" stop-color="#4d4d4d"/></linearGradient><linearGradient id="b" y1="0.5" x2="1" y2="0.5" gradientUnits="objectBoundingBox"><stop offset="0" stop-color="#9d9d9d"/><stop offset="0.109" stop-color="#b3b3b3"/><stop offset="0.242" stop-color="#c8c8c8"/><stop offset="0.373" stop-color="#d4d4d4"/><stop offset="0.5" stop-color="#d9d9d9"/><stop offset="0.627" stop-color="#d4d4d4"/><stop offset="0.758" stop-color="#c8c8c8"/><stop offset="0.891" stop-color="#b3b3b3"/><stop offset="1" stop-color="#9d9d9d"/></linearGradient><linearGradient id="c" y1="0.5" x2="1" y2="0.5" gradientUnits="objectBoundingBox"><stop offset="0" stop-color="#4d4d4d"/><stop offset="0.036" stop-color="#4a4a4a"/><stop offset="0.364" stop-color="#353535"/><stop offset="0.688" stop-color="#292929"/><stop offset="1" stop-color="#252525"/></linearGradient><linearGradient id="d" x1="-0.842" y1="0.5" x2="1.002" y2="0.5" gradientUnits="objectBoundingBox"><stop offset="0" stop-color="#393939"/><stop offset="0.26" stop-color="#343434"/><stop offset="0.53" stop-color="#282828"/><stop offset="0.803" stop-color="#131313"/><stop offset="1"/></linearGradient><linearGradient id="e" x1="0.02" y1="0.5" x2="3.01" y2="0.5" xlink:href="#d"/><linearGradient id="f" x1="0.5" y1="0.007" x2="0.5" y2="1.009" gradientUnits="objectBoundingBox"><stop offset="0" stop-color="#e6e6e6"/><stop offset="1" stop-color="#4d4d4d"/></linearGradient></defs><g transform="translate(-38.554 -404.543)"><path d="M133.186,408.2s-3.381-2.333-4.431-3.036a3.283,3.283,0,0,0-1.956-.572c-1.111-.1-24.5-.033-25.124.032-.7.074-.153,1.25.553,1.25.446,0,3.594-.074,3.594-.074v2.017h3.36v-2.082s15.69-.065,16.9,0a2.261,2.261,0,0,1,1.9.784c.915.784,1.863,1.6,1.863,1.6Z" transform="translate(-22.822)" fill="#4d4d4d"/><path d="M154.825,447.23s-2.351-3.886-9.959-3.659-9.994,3.831-9.994,3.831a138.04,138.04,0,0,0-28.2-4.434c-13.759-.453-26.7,4.213-26.7,4.213s-3.282-3.751-10.248-3.965-9.709,4.19-9.709,4.19-2.947-8.116,5.541-13.209c6.364-3.818,68.059-7.24,82.725-1.167C158.788,437.381,154.825,447.23,154.825,447.23Z" transform="translate(-7.623 -9.15)"/><path d="M169.4,419.9c-9.72-7.212-16.969-9.97-16.969-9.97s-5.206,7.711,1.867,13.052S169.4,419.9,169.4,419.9Z" transform="translate(-40.715 -1.958)"/><path d="M38.654,431.036c.342-.586,1.628-.6,1.628-.6a33.941,33.941,0,0,1-.69-4.292,45.886,45.886,0,0,1,.61-6.436c.12-.576.343-.7,1.033-.7,1.22,0,36.929.372,36.929.372s.4-8.406.616-9.572c.168-.927.477-1.22,1.485-1.325s10.765-.582,18.878-.477c7.587.1,12.846.4,13.244,1.034.313.5-.677,1.194-.677,1.194s3.46,1.79,7.026,4c3.549,2.2,7.133,4.852,8.246,5.117a2.919,2.919,0,0,0,1.7-.159s6.522.772,10.1,1.3c3.765.557,7.45,1.307,8.781,1.616a2.174,2.174,0,0,1,1.856,1.7c.407,1.349,1.327,5.091,1.327,5.091s1.326.4,1.644,1.061a16.067,16.067,0,0,1,.106,5.965,8.5,8.5,0,0,1-3,2.652,17.485,17.485,0,0,1-2.292.755s.561-6.352-3.256-9.637-10.748-3.072-13.836.093-2.861,9.716-2.861,9.716h-3.022s-.69,1.114-1.327,1.114H79.47c-.583,0-1.7-1.114-1.7-1.114l-5.416-.22s.254-6.266-3.175-9.635S58.53,426.406,55.2,429.7s-2.8,9.814-2.8,9.814a33.818,33.818,0,0,1-4.853-.747,5.367,5.367,0,0,1-2.121-1.272s-4.49-.2-5.913-1.22C38.9,435.836,38.313,431.622,38.654,431.036Z" transform="translate(0 -1.254)" fill="#4d4d4d"/><path d="M152.242,436.935a3.2,3.2,0,0,0-1.535-.8s-.9-4.42-1.731-5.192-5.773-1.572-13.026-2.388-13.291-1.061-13.291-1.061c.139,2.031-.16,2.293-1.477,2.307s-10.635-.618-21.46-1.073-19.475-.68-19.475-.68c-1.362-1.188-1.523-1.223-2.539-1.223s-34.8-.393-35.536-.393-.969.208-1.084.854a44.929,44.929,0,0,0-.416,5.457,39.747,39.747,0,0,0,.8,5.053s-1.42-.069-1.627.312a3.574,3.574,0,0,0,2.008,3.461c1.835.866,9.468,1.054,9.468,1.054s.09-5.169,3.87-8.114,11.626-2.788,14.907-.092a12.032,12.032,0,0,1,3.931,6.67s7.377-2.013,24.06-2.127a152.366,152.366,0,0,1,27.816,2.094,13.592,13.592,0,0,1,4.143-6.649c3.087-2.4,9.856-2.994,14.214-.035s4.619,8.841,4.619,8.841a5.2,5.2,0,0,0,2.91-1.307C152.749,440.8,152.6,437.461,152.242,436.935Z" transform="translate(-0.45 -7.954)" fill="url(#a)"/><path d="M47.409,429.367c-.022.92,30.639,5.266,48.641,5.723s33.673-2.118,33.383-2.837-20.932-1.768-39.472-2.45S47.431,428.447,47.409,429.367Z" transform="translate(-3.218 -8.859)" fill="url(#b)"/><path d="M103.192,452.066c-.011,1.4,12.641,1.839,22.89,1.929s19.137.549,19.15-.854-14.121-4.528-24.368-4.618S103.2,450.663,103.192,452.066Z" transform="translate(-23.492 -15.983)" fill="url(#c)"/><path d="M137.349,433.206c-.023.493,1.29.688,2.942.765s3.571.011,3.593-.482-1.85-.958-3.5-1.036S137.372,432.713,137.349,433.206Z" transform="translate(-35.906 -10.14)" fill="#828282"/><path d="M107.174,432.116c-.023.493,1.29.688,2.942.764s3.57.011,3.593-.481-1.85-.959-3.5-1.036S107.2,431.623,107.174,432.116Z" transform="translate(-24.939 -9.743)" fill="#828282"/><path d="M154.163,423.022c-1.4-.02-17.479-.844-18.621-.934-.91-.073-1.225-.294-1.352-1.153-.159-1.074-1.129-7.446-1.209-8.4-.063-.762.157-1.165.955-1.232,1.088-.092,6.575-.138,9.434.906,2.943,1.074,8.9,5.686,10.073,6.595a3.382,3.382,0,0,1,1.691,2.512C155.349,422.626,155.124,423.036,154.163,423.022Z" transform="translate(-34.315 -2.44)"/><path d="M154.05,425.36c-1.2-.017-16.436-.778-17.416-.856-.782-.062-1.052-.252-1.161-.99-.136-.922-.57-3.991-.57-3.991a39.4,39.4,0,0,1,9.867.7c4.625.957,8.718,2.909,9.671,3.833C155.161,424.749,154.876,425.372,154.05,425.36Z" transform="translate(-35.018 -5.421)" fill="url(#d)"/><path d="M119.581,412.37c.109.871.683,7.052.733,8.137.041.929-.3,1.225-1.35,1.249-1.193.026-10.075-.292-11.321-.4-1.043-.089-1.379-.318-1.436-1.375-.062-1.163.143-6.234.2-7.295.05-.989.386-1.374,1.327-1.459,1.193-.106,9.44-.211,10.552-.132C119.152,411.159,119.474,411.521,119.581,412.37Z" transform="translate(-24.584 -2.372)"/><path d="M120.054,419.779s.3,2.511.341,3.471c.038.822-.268,1.085-1.194,1.106-1.056.023-9.284-.278-10.387-.372-.923-.078-.871-.632-.327-1.133a15.474,15.474,0,0,1,5.62-2.309A41.887,41.887,0,0,1,120.054,419.779Z" transform="translate(-25.275 -5.537)" fill="url(#e)"/><path d="M159.312,427.125c.361.361,3.306.568,3.664.206.288-.292-.134-3.269-1.007-4.15a2.644,2.644,0,0,0-2.744-.619C158.713,422.951,158.932,426.743,159.312,427.125Z" transform="translate(-43.748 -6.483)" fill="#4d4d4d"/><g transform="translate(128.761 427.656)"><path d="M197.437,449.439a8.586,8.586,0,1,1-8.587-8.587A8.586,8.586,0,0,1,197.437,449.439Z" transform="translate(-180.265 -440.852)" fill="#252525"/><path d="M196.443,450.762a6.268,6.268,0,1,1-6.268-6.268A6.268,6.268,0,0,1,196.443,450.762Z" transform="translate(-181.589 -442.176)"/><path d="M183.491,450.61a6.532,6.532,0,1,0,6.532-6.532A6.533,6.533,0,0,0,183.491,450.61Zm4.914-2.038c-.447.335-2.454.26-3.838-.458a5.994,5.994,0,0,1,4.449-3.434C189.354,446.223,188.859,448.231,188.405,448.572Zm6.975-.67c-1.386.8-3.538.892-4,.542-.446-.335-.927-2.276-.624-3.8A6,6,0,0,1,195.381,447.9Zm-2.835,3.39c.163-.531,1.817-1.643,3.353-1.882a5.982,5.982,0,0,1-1.591,5.363C193.146,453.721,192.382,451.831,192.545,451.293Zm-5.136,4.687c.68-1.4,2.228-2.653,2.784-2.653.537,0,2,1.173,2.712,2.514a6,6,0,0,1-5.5.139Zm-3.377-5.392a6.025,6.025,0,0,1,.051-.777c1.5.154,3.129,1.054,3.334,1.549.214.523-.377,2.487-1.444,3.641A5.976,5.976,0,0,1,184.032,450.587Z" transform="translate(-181.437 -442.024)" fill="url(#f)"/><g transform="translate(7.009 7.01)"><path d="M191.276,453.441a1.577,1.577,0,1,0,1.575-1.577A1.576,1.576,0,0,0,191.276,453.441Z" transform="translate(-191.276 -451.864)" fill="#252525"/><path d="M192.147,453.758a1.022,1.022,0,1,0,1.022-1.023A1.02,1.02,0,0,0,192.147,453.758Z" transform="translate(-191.593 -452.181)" fill="#616161"/></g></g><g transform="translate(53.859 427.656)"><path d="M79.769,449.439a8.586,8.586,0,1,1-8.587-8.587A8.586,8.586,0,0,1,79.769,449.439Z" transform="translate(-62.597 -440.852)" fill="#252525"/><path d="M78.775,450.762a6.268,6.268,0,1,1-6.269-6.268A6.268,6.268,0,0,1,78.775,450.762Z" transform="translate(-63.921 -442.176)"/><path d="M65.824,450.61a6.532,6.532,0,1,0,6.531-6.532A6.533,6.533,0,0,0,65.824,450.61Zm4.914-2.038c-.447.335-2.453.26-3.838-.458a6,6,0,0,1,4.45-3.434C71.687,446.223,71.191,448.231,70.738,448.572Zm6.975-.67c-1.385.8-3.537.892-4,.542-.446-.335-.927-2.276-.624-3.8A6,6,0,0,1,77.713,447.9Zm-2.835,3.39c.164-.531,1.818-1.643,3.354-1.882a6.108,6.108,0,0,1,.117,1.176,5.974,5.974,0,0,1-1.709,4.187C75.479,453.721,74.714,451.831,74.878,451.293Zm-5.136,4.687c.68-1.4,2.228-2.653,2.784-2.653.536,0,2,1.173,2.712,2.514a6,6,0,0,1-5.5.139Zm-3.378-5.392a5.915,5.915,0,0,1,.052-.777c1.5.154,3.129,1.054,3.333,1.549.215.523-.377,2.487-1.444,3.641A5.976,5.976,0,0,1,66.364,450.587Z" transform="translate(-63.77 -442.024)" fill="url(#f)"/><g transform="translate(7.009 7.01)"><path d="M73.608,453.441a1.577,1.577,0,1,0,1.576-1.577A1.576,1.576,0,0,0,73.608,453.441Z" transform="translate(-73.608 -451.864)" fill="#252525"/><path d="M74.479,453.758a1.022,1.022,0,1,0,1.022-1.023A1.02,1.02,0,0,0,74.479,453.758Z" transform="translate(-73.925 -452.181)" fill="#616161"/></g></g></g></svg>