<svg xmlns="http://www.w3.org/2000/svg" width="59" height="59" viewBox="0 0 59 59"><g transform="translate(-152 -3425)"><path d="M26.225,22.99l-5.178-5.178a1.245,1.245,0,0,0-.883-.364h-.846a10.8,10.8,0,1,0-1.87,1.87v.846a1.245,1.245,0,0,0,.364.883l5.178,5.178a1.241,1.241,0,0,0,1.76,0l1.47-1.47a1.252,1.252,0,0,0,.005-1.766ZM10.8,17.449A6.647,6.647,0,1,1,17.449,10.8,6.643,6.643,0,0,1,10.8,17.449Z" transform="translate(168.334 3441.506)" fill="#fff"/><g transform="translate(152 3425)" fill="none" stroke="#fff" stroke-width="3"><circle cx="29.5" cy="29.5" r="29.5" stroke="none"/><circle cx="29.5" cy="29.5" r="28" fill="none"/></g></g></svg>