<svg xmlns="http://www.w3.org/2000/svg" xmlns:xlink="http://www.w3.org/1999/xlink" width="113.509" height="42.24" viewBox="0 0 113.509 42.24"><defs><linearGradient id="a" x1="-2.721" y1="0.093" x2="-2.721" y2="0.98" gradientUnits="objectBoundingBox"><stop offset="0" stop-color="#aaa"/><stop offset="1" stop-color="#4d4d4d"/></linearGradient><linearGradient id="b" y1="0.5" x2="1" y2="0.5" gradientUnits="objectBoundingBox"><stop offset="0" stop-color="#9d9d9d"/><stop offset="0.109" stop-color="#b3b3b3"/><stop offset="0.242" stop-color="#c8c8c8"/><stop offset="0.373" stop-color="#d4d4d4"/><stop offset="0.5" stop-color="#d9d9d9"/><stop offset="0.627" stop-color="#d4d4d4"/><stop offset="0.758" stop-color="#c8c8c8"/><stop offset="0.891" stop-color="#b3b3b3"/><stop offset="1" stop-color="#9d9d9d"/></linearGradient><linearGradient id="c" x1="0.118" y1="-38.099" x2="1.118" y2="-38.099" gradientUnits="objectBoundingBox"><stop offset="0" stop-color="#4d4d4d"/><stop offset="0.036" stop-color="#4a4a4a"/><stop offset="0.364" stop-color="#353535"/><stop offset="0.688" stop-color="#292929"/><stop offset="1" stop-color="#252525"/></linearGradient><linearGradient id="d" y1="0.5" x2="1" y2="0.5" gradientUnits="objectBoundingBox"><stop offset="0" stop-color="#393939"/><stop offset="0.26" stop-color="#343434"/><stop offset="0.53" stop-color="#282828"/><stop offset="0.803" stop-color="#131313"/><stop offset="1"/></linearGradient><linearGradient id="e" x1="0.5" y1="0.007" x2="0.5" y2="1.009" gradientUnits="objectBoundingBox"><stop offset="0" stop-color="#e6e6e6"/><stop offset="1" stop-color="#4d4d4d"/></linearGradient></defs><g transform="translate(-428.568 -487.352)"><path d="M494.227,489.266a87.652,87.652,0,0,1,26.38,10.229c10.659,6.2-16.206,4.85-16.206,4.85Z" transform="translate(-5.607 -0.163)"/><path d="M532.518,525.807s-2.807-3.882-10.042-3.972a15.393,15.393,0,0,0-11.114,4.14,111.173,111.173,0,0,0-28.128-3.46,113.534,113.534,0,0,0-25.508,2.925,19.5,19.5,0,0,0-10.649-4.226c-6.935-.754-10.928,2.175-10.928,2.175s-6.581-12.811,2.148-19.259c10.094-7.455,71.383-3.833,87.388,3.224C539.4,513.4,532.518,525.807,532.518,525.807Z" transform="translate(-0.444 -1.081)"/><path d="M428.954,509.1c.435-.592,2-1.079,2.346-1.951s.506-5.265,1.68-7.041c1.274-1.926,4.877-4.262,4.877-4.262s-1.366-2.848-1.08-3.255,8.457-1.294,8.457-1.294a120.131,120.131,0,0,1,24.412-3.807c13.578-.681,20.762,1.4,21.176,1.818.258.262-.057,1.1-.057,1.1a100.152,100.152,0,0,1,11.385,4.125c5.481,2.408,9.325,4.726,10.509,5.029a4.818,4.818,0,0,0,2.34-.232,96.408,96.408,0,0,1,12.5,3.038c5.735,1.873,10.227,4.12,11.487,5.4a7.9,7.9,0,0,1,1.58,2.64,4.307,4.307,0,0,1,1.156,1.393,8.893,8.893,0,0,1,.128,4.575c-.393,1.627-1.284,2.832-1.241,3.4s.941.958.927,1.626a4.005,4.005,0,0,1-2.426,2.6c-1.54.566-7.032.723-7.032.723s1.914-7-2.324-12.069-13.184-4.809-17.058.547-1.774,11.69-1.774,11.69-15.331-1.128-29.274-1.18c-13.094-.047-24.362.645-24.362.645s1.885-6.82-2.576-11.8a11.282,11.282,0,0,0-16.412-.1,11.626,11.626,0,0,0-2.589,9.85,15.725,15.725,0,0,1-3.914-2.148,10.312,10.312,0,0,1-2.952-5.1C428.4,513.154,428.541,509.66,428.954,509.1Z" fill="#4d4d4d"/><path d="M539.951,511.655a5.829,5.829,0,0,0-1.714-2.622c-1.3-1.108-6.4-2.595-15.764-3.919s-29.593-2.349-47.045-3.381-32.471-1.854-34.066-2.039-1.788-.316-3-2.255c0,0-3.373,2.07-4.5,3.986s-1.2,6.2-1.733,7.171-1.962,1.508-2.3,2.039a7.117,7.117,0,0,0,.7,5.521,6.449,6.449,0,0,0,3.829,2.536,12.887,12.887,0,0,1,4.078-7.459,13.271,13.271,0,0,1,13.925-1.542,12.379,12.379,0,0,1,6.266,7.36s5.768-2.188,21.384-1.89A160.878,160.878,0,0,1,509,518.491a13.832,13.832,0,0,1,4.973-7.907,13.488,13.488,0,0,1,15.019.149,12.705,12.705,0,0,1,5.023,8.553s4.059-.06,5.627-1.494a5.948,5.948,0,0,0,1.423-5A2.315,2.315,0,0,0,539.951,511.655Z" transform="translate(-0.084 -0.861)" fill="url(#a)"/><path d="M472.829,502.931c-18.487-1.038-26.052-1.087-25.96.2s8.108,4.838,26.458,5.869c18.744,1.053,42.83-1.944,42.67-2.561S490.914,503.946,472.829,502.931Z" transform="translate(-1.563 -1.264)" fill="url(#b)"/><path d="M465.447,504.519c-.046.639,3.208.937,5.3,1.091s3.832.111,3.879-.529-1.617-1.285-3.713-1.44S465.494,503.879,465.447,504.519Z" transform="translate(-3.149 -1.388)" fill="#828282"/><path d="M463.923,523.134c-.029,1.43,10.343,1.707,23.138,1.976s23.169.883,23.2-.547-14.941-5.613-27.737-5.883S463.953,521.705,463.923,523.134Z" transform="translate(-3.019 -2.674)" fill="url(#c)"/><path d="M512.232,502.245s-59.346-3.62-60.638-4.118-3.283-4.028-2.935-4.624,16.953-5.2,35.3-2.467S512.232,502.245,512.232,502.245Z" transform="translate(-1.712 -0.241)"/><path d="M480.18,494.169a163.9,163.9,0,0,1,30.139,7.63s-56.219-3.868-57.237-4.18-3.1-2.821-2.788-3.4S465.02,492.087,480.18,494.169Z" transform="translate(-1.853 -0.492)" fill="url(#d)"/><path d="M505.31,502.664c.481.457,4.659.734,5.145.284.391-.363.2-2.188-.755-3.1-.919-.872-3.685-1.47-4.366-1S504.8,502.181,505.31,502.664Z" transform="translate(-6.517 -0.968)" fill="#4d4d4d"/><g transform="translate(511.934 510.468)"><path d="M538.843,522.19a9.563,9.563,0,1,1-9.563-9.564A9.562,9.562,0,0,1,538.843,522.19Z" transform="translate(-519.718 -512.626)" fill="#252525"/><path d="M536.5,522.43a6.981,6.981,0,1,1-6.981-6.981A6.98,6.98,0,0,1,536.5,522.43Z" transform="translate(-519.959 -512.867)"/><path d="M522.219,522.4a7.275,7.275,0,1,0,7.274-7.275A7.276,7.276,0,0,0,522.219,522.4Zm5.472-2.269c-.5.372-2.732.29-4.275-.51a6.676,6.676,0,0,1,4.955-3.824C528.748,517.515,528.2,519.751,527.691,520.133Zm7.769-.746c-1.543.892-3.94.994-4.457.6-.5-.373-1.034-2.535-.7-4.236A6.68,6.68,0,0,1,535.461,519.386Zm-3.158,3.775c.182-.591,2.024-1.829,3.735-2.1a6.781,6.781,0,0,1,.131,1.311,6.652,6.652,0,0,1-1.9,4.663C532.972,525.867,532.12,523.762,532.3,523.162Zm-5.72,5.221c.757-1.558,2.481-2.955,3.1-2.955.6,0,2.23,1.306,3.021,2.8a6.686,6.686,0,0,1-6.121.155Zm-3.762-6.006a6.6,6.6,0,0,1,.058-.864c1.675.171,3.485,1.173,3.711,1.725.239.582-.42,2.769-1.608,4.055A6.657,6.657,0,0,1,522.821,522.376Z" transform="translate(-519.932 -512.84)" fill="url(#e)"/><g transform="translate(7.806 7.807)"><path d="M528.253,522.919a1.757,1.757,0,1,0,1.755-1.757A1.755,1.755,0,0,0,528.253,522.919Z" transform="translate(-528.253 -521.162)" fill="#252525"/><path d="M528.928,522.977a1.138,1.138,0,1,0,1.138-1.14A1.136,1.136,0,0,0,528.928,522.977Z" transform="translate(-528.311 -521.22)" fill="#616161"/></g></g><g transform="translate(436.94 510.468)"><path d="M456.847,522.19a9.563,9.563,0,1,1-9.564-9.564A9.563,9.563,0,0,1,456.847,522.19Z" transform="translate(-437.722 -512.626)" fill="#252525"/><path d="M454.506,522.43a6.981,6.981,0,1,1-6.981-6.981A6.981,6.981,0,0,1,454.506,522.43Z" transform="translate(-437.963 -512.867)"/><path d="M440.223,522.4a7.275,7.275,0,1,0,7.274-7.275A7.275,7.275,0,0,0,440.223,522.4Zm5.472-2.269c-.5.372-2.733.29-4.275-.51a6.677,6.677,0,0,1,4.955-3.824C446.752,517.515,446.2,519.751,445.7,520.133Zm7.769-.746c-1.543.892-3.939.994-4.456.6-.5-.373-1.034-2.535-.7-4.236A6.679,6.679,0,0,1,453.464,519.386Zm-3.157,3.775c.182-.591,2.024-1.829,3.735-2.1a6.781,6.781,0,0,1,.131,1.311,6.657,6.657,0,0,1-1.9,4.663C450.975,525.867,450.124,523.762,450.306,523.162Zm-5.721,5.221c.758-1.558,2.481-2.955,3.1-2.955.6,0,2.23,1.306,3.021,2.8a6.688,6.688,0,0,1-6.122.155Zm-3.761-6.006a6.761,6.761,0,0,1,.057-.864c1.676.171,3.486,1.173,3.712,1.725.239.582-.42,2.769-1.608,4.055A6.657,6.657,0,0,1,440.825,522.376Z" transform="translate(-437.936 -512.84)" fill="url(#e)"/><g transform="translate(7.806 7.807)"><path d="M446.257,522.919a1.756,1.756,0,1,0,1.754-1.757A1.755,1.755,0,0,0,446.257,522.919Z" transform="translate(-446.257 -521.162)" fill="#252525"/><path d="M446.932,522.977a1.138,1.138,0,1,0,1.138-1.14A1.136,1.136,0,0,0,446.932,522.977Z" transform="translate(-446.315 -521.22)" fill="#616161"/></g></g><path d="M468,489.373a76.226,76.226,0,0,0-6.587,10.091l5.279.187a38.765,38.765,0,0,1,5.793-10.277Z" transform="translate(-2.805 -0.173)" fill="#4d4d4d"/></g></svg>