<svg xmlns="http://www.w3.org/2000/svg" width="44.207" height="44.209" viewBox="0 0 44.207 44.209">
  <path id="Path_686" data-name="Path 686" d="M520.308,435.654a18.422,18.422,0,0,1,4.943,1.281l2.389-2.894,2.947,1.706L529.24,439.2a18.377,18.377,0,0,1,2.045,1.769,18.149,18.149,0,0,1,1.589,1.812l3.52-1.311,1.7,2.944-2.888,2.32a18.452,18.452,0,0,1,1.357,4.92l3.7.624v3.4l-3.667.559a18.409,18.409,0,0,1-1.278,4.942l2.89,2.393-1.7,2.944-3.455-1.347a17.6,17.6,0,0,1-1.769,2.048,17.184,17.184,0,0,1-1.809,1.59l1.312,3.524-2.948,1.7-2.316-2.887a18.31,18.31,0,0,1-4.921,1.354l-.624,3.7h-3.4l-.558-3.666a18.62,18.62,0,0,1-4.942-1.276l-2.393,2.886-2.948-1.7,1.347-3.459a18.381,18.381,0,0,1-2.044-1.769,18.988,18.988,0,0,1-1.591-1.805l-3.519,1.3-1.7-2.944,2.89-2.314a18.577,18.577,0,0,1-1.357-4.927l-3.7-.615V452.5l3.663-.558A18.554,18.554,0,0,1,501,447.005l-2.89-2.393,1.7-2.943,3.457,1.345a18.813,18.813,0,0,1,1.769-2.048,19.3,19.3,0,0,1,1.808-1.589l-1.311-3.517,2.948-1.7,2.316,2.894a18.594,18.594,0,0,1,4.921-1.361l.626-3.7h3.4l.562,3.667Zm4.925,11.365a10,10,0,1,0,2.93,7.076A9.956,9.956,0,0,0,525.233,447.02Z" transform="translate(-496.059 -431.987)" fill="#030504" fill-rule="evenodd"/>
</svg>
