<svg xmlns="http://www.w3.org/2000/svg" width="30.097" height="25.798" viewBox="0 0 30.097 25.798"><path d="M17.3,4.5A15.044,15.044,0,0,0,6.032,29.518c.074.081.141.161.215.235a1.692,1.692,0,0,0,2.492-.007,11.631,11.631,0,0,1,17.118,0,1.692,1.692,0,0,0,2.492.007l.215-.235A15.044,15.044,0,0,0,17.3,4.5Zm-.941,3.084a.941.941,0,0,1,1.881,0V10a.941.941,0,0,1-1.881,0Zm-8.6,12.9H5.34a.941.941,0,1,1,0-1.881H7.759a.941.941,0,0,1,0,1.881Zm3.46-7.02h0a.949.949,0,0,1-1.33,0L8.175,11.756a.949.949,0,0,1,0-1.33h0a.949.949,0,0,1,1.33,0l1.713,1.713A.941.941,0,0,1,11.219,13.462ZM22.008,15.78l-3.191,5.072a2.082,2.082,0,0,1-.47.47A2.023,2.023,0,1,1,16,18.03l5.072-3.191a.687.687,0,0,1,.786,0A.676.676,0,0,1,22.008,15.78Zm2.7-2.318a.949.949,0,0,1-1.33,0h0a.949.949,0,0,1,0-1.33l1.713-1.713a.949.949,0,0,1,1.33,0h0a.949.949,0,0,1,0,1.33Zm4.548,7.02H26.838a.941.941,0,1,1,0-1.881h2.419a.941.941,0,1,1,0,1.881Z" transform="translate(-2.25 -4.5)"/></svg>