<svg xmlns="http://www.w3.org/2000/svg" width="249.508" height="41.402" viewBox="0 0 249.508 41.402">
  <g id="Group_498" data-name="Group 498" transform="translate(-1114.746 -1285.098)">
    <path id="Icon_ionic-ios-star" data-name="Icon ionic-ios-star" d="M44.359,17.735H30.072L25.731,4.779a1.573,1.573,0,0,0-2.952,0L18.437,17.735H4.054A1.558,1.558,0,0,0,2.5,19.289a1.142,1.142,0,0,0,.029.262,1.493,1.493,0,0,0,.651,1.1l11.742,8.275-4.506,13.1a1.558,1.558,0,0,0,.534,1.748,1.5,1.5,0,0,0,.874.379,1.9,1.9,0,0,0,.971-.35l11.46-8.168L35.715,43.8a1.82,1.82,0,0,0,.971.35,1.4,1.4,0,0,0,.864-.379,1.539,1.539,0,0,0,.534-1.748l-4.506-13.1,11.645-8.352.282-.243a1.629,1.629,0,0,0,.505-1.039A1.645,1.645,0,0,0,44.359,17.735Z" transform="translate(1112.246 1281.348)" fill="#21b7ac"/>
    <path id="Icon_ionic-ios-star-2" data-name="Icon ionic-ios-star" d="M36.172,15H24.68L21.188,4.578a1.265,1.265,0,0,0-2.375,0L15.32,15H3.75A1.254,1.254,0,0,0,2.5,16.25a.919.919,0,0,0,.023.211,1.2,1.2,0,0,0,.523.883L12.492,24,8.867,34.539a1.254,1.254,0,0,0,.43,1.406,1.209,1.209,0,0,0,.7.3,1.532,1.532,0,0,0,.781-.281L20,29.4l9.219,6.57A1.464,1.464,0,0,0,30,36.25a1.122,1.122,0,0,0,.7-.3,1.238,1.238,0,0,0,.43-1.406L27.5,24l9.367-6.719.227-.2a1.311,1.311,0,0,0,.406-.836A1.323,1.323,0,0,0,36.172,15Z" transform="translate(1157.754 1289.25)" fill="#f9c816"/>
    <path id="Icon_ionic-ios-star-3" data-name="Icon ionic-ios-star" d="M36.172,15H24.68L21.188,4.578a1.265,1.265,0,0,0-2.375,0L15.32,15H3.75A1.254,1.254,0,0,0,2.5,16.25a.919.919,0,0,0,.023.211,1.2,1.2,0,0,0,.523.883L12.492,24,8.867,34.539a1.254,1.254,0,0,0,.43,1.406,1.209,1.209,0,0,0,.7.3,1.532,1.532,0,0,0,.781-.281L20,29.4l9.219,6.57A1.464,1.464,0,0,0,30,36.25a1.122,1.122,0,0,0,.7-.3,1.238,1.238,0,0,0,.43-1.406L27.5,24l9.367-6.719.227-.2a1.311,1.311,0,0,0,.406-.836A1.323,1.323,0,0,0,36.172,15Z" transform="translate(1199.754 1289.25)" fill="#f9c816"/>
    <path id="Icon_ionic-ios-star-4" data-name="Icon ionic-ios-star" d="M36.172,15H24.68L21.188,4.578a1.265,1.265,0,0,0-2.375,0L15.32,15H3.75A1.254,1.254,0,0,0,2.5,16.25a.919.919,0,0,0,.023.211,1.2,1.2,0,0,0,.523.883L12.492,24,8.867,34.539a1.254,1.254,0,0,0,.43,1.406,1.209,1.209,0,0,0,.7.3,1.532,1.532,0,0,0,.781-.281L20,29.4l9.219,6.57A1.464,1.464,0,0,0,30,36.25a1.122,1.122,0,0,0,.7-.3,1.238,1.238,0,0,0,.43-1.406L27.5,24l9.367-6.719.227-.2a1.311,1.311,0,0,0,.406-.836A1.323,1.323,0,0,0,36.172,15Z" transform="translate(1241.754 1289.25)" fill="#f9c816"/>
    <path id="Icon_ionic-ios-star-5" data-name="Icon ionic-ios-star" d="M36.172,15H24.68L21.188,4.578a1.265,1.265,0,0,0-2.375,0L15.32,15H3.75A1.254,1.254,0,0,0,2.5,16.25a.919.919,0,0,0,.023.211,1.2,1.2,0,0,0,.523.883L12.492,24,8.867,34.539a1.254,1.254,0,0,0,.43,1.406,1.209,1.209,0,0,0,.7.3,1.532,1.532,0,0,0,.781-.281L20,29.4l9.219,6.57A1.464,1.464,0,0,0,30,36.25a1.122,1.122,0,0,0,.7-.3,1.238,1.238,0,0,0,.43-1.406L27.5,24l9.367-6.719.227-.2a1.311,1.311,0,0,0,.406-.836A1.323,1.323,0,0,0,36.172,15Z" transform="translate(1283.754 1289.25)" fill="#f9c816"/>
    <path id="Icon_ionic-ios-star-6" data-name="Icon ionic-ios-star" d="M36.172,15H24.68L21.188,4.578a1.265,1.265,0,0,0-2.375,0L15.32,15H3.75A1.254,1.254,0,0,0,2.5,16.25a.919.919,0,0,0,.023.211,1.2,1.2,0,0,0,.523.883L12.492,24,8.867,34.539a1.254,1.254,0,0,0,.43,1.406,1.209,1.209,0,0,0,.7.3,1.532,1.532,0,0,0,.781-.281L20,29.4l9.219,6.57A1.464,1.464,0,0,0,30,36.25a1.122,1.122,0,0,0,.7-.3,1.238,1.238,0,0,0,.43-1.406L27.5,24l9.367-6.719.227-.2a1.311,1.311,0,0,0,.406-.836A1.323,1.323,0,0,0,36.172,15Z" transform="translate(1325.754 1289.25)" fill="none" stroke="#f9c816" stroke-width="2"/>
    <text id="B" transform="translate(1129.254 1316)" fill="#fff" font-size="22" font-family="Roboto-Bold, Roboto" font-weight="700" letter-spacing="0.02em"><tspan x="0" y="0">B</tspan></text>
  </g>
</svg>
