<svg xmlns="http://www.w3.org/2000/svg" xmlns:xlink="http://www.w3.org/1999/xlink" width="106.056" height="42.036" viewBox="0 0 106.056 42.036"><defs><linearGradient id="a" x1="8.129" y1="-29.999" x2="8.349" y2="-29.999" gradientUnits="objectBoundingBox"><stop offset="0" stop-color="#aaa"/><stop offset="1" stop-color="#4d4d4d"/></linearGradient><linearGradient id="b" y1="0.5" x2="1" y2="0.5" gradientUnits="objectBoundingBox"><stop offset="0" stop-color="#9d9d9d"/><stop offset="0.109" stop-color="#b3b3b3"/><stop offset="0.242" stop-color="#c8c8c8"/><stop offset="0.373" stop-color="#d4d4d4"/><stop offset="0.5" stop-color="#d9d9d9"/><stop offset="0.627" stop-color="#d4d4d4"/><stop offset="0.758" stop-color="#c8c8c8"/><stop offset="0.891" stop-color="#b3b3b3"/><stop offset="1" stop-color="#9d9d9d"/></linearGradient><linearGradient id="c" y1="0.5" x2="1" y2="0.5" gradientUnits="objectBoundingBox"><stop offset="0" stop-color="#4d4d4d"/><stop offset="0.036" stop-color="#4a4a4a"/><stop offset="0.364" stop-color="#353535"/><stop offset="0.688" stop-color="#292929"/><stop offset="1" stop-color="#252525"/></linearGradient><linearGradient id="d" y1="0.5" x2="1" y2="0.5" gradientUnits="objectBoundingBox"><stop offset="0" stop-color="#393939"/><stop offset="0.26" stop-color="#343434"/><stop offset="0.53" stop-color="#282828"/><stop offset="0.803" stop-color="#131313"/><stop offset="1"/></linearGradient><linearGradient id="e" x1="0.5" y1="0.007" x2="0.5" y2="1.009" gradientUnits="objectBoundingBox"><stop offset="0" stop-color="#e6e6e6"/><stop offset="1" stop-color="#4d4d4d"/></linearGradient></defs><g transform="translate(-420.404 -331.375)"><path d="M431.747,337.818c-3.42,2.638-6.791,8.379-6.791,8.379s5.281,2.638,9.155-1.448S431.747,337.818,431.747,337.818Z" transform="translate(-1.114 -1.577)"/><path d="M517.967,345.082a85.064,85.064,0,0,0-20.15-10.339,15.157,15.157,0,0,0,5.614,13.39C510.239,353.421,517.967,345.082,517.967,345.082Z" transform="translate(-18.931 -0.825)"/><path d="M518.981,373.745s-3.1-4.36-10.176-4.257-10.292,4.27-10.292,4.27a82.307,82.307,0,0,0-24.185-3.67,89.276,89.276,0,0,0-22.843,3.265,17.979,17.979,0,0,0-10.615-4.176c-6.474-.309-10.017,2.575-10.017,2.575s-4.993-10.561,2.341-16.279c8.481-6.611,67.011-4.817,80.458,1.442C525.172,362.277,518.981,373.745,518.981,373.745Z" transform="translate(-2.152 -4.876)"/><path d="M420.447,356.308c.2-.724,1.22-1.681,1.4-2.25.2-.648-.076-7.1.793-8.663.58-1.048,4.828-2.935,5.846-3.867a24.978,24.978,0,0,0,2.653-3.891,22.5,22.5,0,0,1-3.068-1.578c-.445-.372-.8-1.64-.6-1.837.252-.258,2.968-.155,4.879-.362,1.868-.2,9.046-1.439,15.139-1.966a128.192,128.192,0,0,1,21.829-.1c5.881.511,9.908,1.345,10.512,1.862s0,1.5,0,1.5,4.283,2.269,7.853,4.184c3.475,1.862,7.847,4.321,9.154,4.684a8.191,8.191,0,0,0,2.207.235s5.653.571,11.618,1.862c5.733,1.242,11.116,3.052,12.372,4.4s1.862,4.759,1.862,4.759a5.149,5.149,0,0,1,1.459,1.862,29.253,29.253,0,0,1-.353,7.189c-.3,1.035-2.821,3.182-4.325,3.777a22.58,22.58,0,0,1-4.84.767s1.9-7.032-1.993-11.66-12.492-4.467-16.156.251-2.319,11.422-2.319,11.422-14.235-.988-24.889-.988c-10.376,0-22.139.583-22.139.583s1.36-7.362-2.581-11.583-11.708-4.511-15.528-.377-2.357,10.3-2.524,10.36a26.475,26.475,0,0,1-3.5-1.026,9.746,9.746,0,0,1-3.81-3.453A18.061,18.061,0,0,1,420.447,356.308Z" fill="#4d4d4d"/><path d="M525.9,360.906c-.248-.7-1.4-1.451-1.4-1.451s-.438-3.654-2-4.845-11-3.86-22.585-4.681c-1.806.575-3.066,1.041-3.066,1.041s-12.112-.665-31.1-2.026-29.155-2.546-32.851-2.3-8.582,2.013-9.158,2.957-.367,7.631-.7,8.493-1.277,1.426-1.527,2.276.138,3.928,1.083,5,4.447,2.094,4.447,2.094a11.773,11.773,0,0,1,3.864-9.161,12.9,12.9,0,0,1,14.647-1.32,14.058,14.058,0,0,1,5.613,6.748s6.029-1.925,19.954-1.619a98.289,98.289,0,0,1,23.714,3.244s1.231-5.076,5.161-7.618c4.045-2.616,11.465-2.8,15.654,1.509,3.949,4.061,3.854,10.322,3.854,10.322a10.853,10.853,0,0,0,4.825-2.935A7.689,7.689,0,0,0,525.9,360.906Z" transform="translate(-0.255 -3.73)" fill="url(#a)"/><path d="M437.307,348.864c-.195,1.149,9.414,5.419,26.332,6.9s45.344-.76,45.16-1.581-27.01-2.977-44.709-4.353S437.5,347.716,437.307,348.864Z" transform="translate(-4.137 -4.143)" fill="url(#b)"/><path d="M462.505,373.685c-.014,1.551,9.214,1.711,20.6,1.834s21.261.647,21.278-.9-14.314-5.127-25.7-5.248S462.521,372.137,462.505,373.685Z" transform="translate(-10.306 -9.3)" fill="url(#c)"/><path d="M483.394,352.838c-.041.551,1.373.81,3.157.951s3.92.119,3.961-.43-2.028-1.122-3.811-1.263S483.436,352.288,483.394,352.838Z" transform="translate(-15.42 -5.065)" fill="#828282"/><path d="M452.13,350.588c-.041.551,1.373.811,3.157.951s3.919.119,3.961-.43-2.028-1.122-3.811-1.263S452.172,350.038,452.13,350.588Z" transform="translate(-7.766 -4.514)" fill="#828282"/><path d="M500.2,347.154s-16.134-.939-28.663-1.857-25.073-2-26.66-2.679-4.678-4.086-4.477-4.706,9.114-3,18.653-3.4c10.931-.464,17.786.5,24.638,3.285C490.627,340.609,500.2,347.154,500.2,347.154Z" transform="translate(-4.894 -0.741)"/><path d="M498.8,347.635s-15.441-1.085-27.43-2.026-23.385-1.966-24.926-2.559-4.25-3.156-4.057-3.75,15.763-.955,27.381.752C482.894,341.98,498.8,347.635,498.8,347.635Z" transform="translate(-5.379 -1.819)" fill="url(#d)"/><path d="M507.91,346.489c-.749-.816-2.908-1.081-3.415-.665s-.292,3.1.087,3.508c.359.387,3.975.611,4.331.222C509.2,349.24,508.78,347.437,507.91,346.489Z" transform="translate(-20.512 -3.49)" fill="#4d4d4d"/><g transform="translate(497.909 355.448)"><path d="M541,372.234a8.982,8.982,0,1,1-8.983-8.982A8.982,8.982,0,0,1,541,372.234Z" transform="translate(-523.033 -363.252)" fill="#252525"/><path d="M539.358,373.02a6.557,6.557,0,1,1-6.557-6.557A6.557,6.557,0,0,1,539.358,373.02Z" transform="translate(-523.819 -364.038)"/><path d="M525.878,372.929a6.833,6.833,0,1,0,6.832-6.832A6.834,6.834,0,0,0,525.878,372.929Zm5.14-2.131c-.467.35-2.566.272-4.015-.48a6.274,6.274,0,0,1,4.655-3.592C532.01,368.34,531.493,370.441,531.018,370.8Zm7.3-.7c-1.448.838-3.7.933-4.185.567-.467-.35-.971-2.381-.653-3.979A6.273,6.273,0,0,1,538.315,370.1Zm-2.966,3.546c.171-.555,1.9-1.718,3.509-1.969a6.342,6.342,0,0,1,.122,1.231,6.252,6.252,0,0,1-1.787,4.38C535.977,376.184,535.178,374.207,535.349,373.644Zm-5.372,4.9c.711-1.463,2.331-2.775,2.913-2.775.56,0,2.094,1.227,2.837,2.63a6.278,6.278,0,0,1-5.75.145Zm-3.533-5.641a6.3,6.3,0,0,1,.054-.813c1.573.162,3.273,1.1,3.487,1.621.224.547-.4,2.6-1.51,3.809A6.252,6.252,0,0,1,526.444,372.906Z" transform="translate(-523.729 -363.948)" fill="url(#e)"/><g transform="translate(7.332 7.333)"><path d="M532.742,374.612a1.649,1.649,0,1,0,1.648-1.65A1.648,1.648,0,0,0,532.742,374.612Z" transform="translate(-532.742 -372.962)" fill="#252525"/><path d="M533.51,374.8a1.069,1.069,0,1,0,1.069-1.07A1.066,1.066,0,0,0,533.51,374.8Z" transform="translate(-532.93 -373.15)" fill="#616161"/></g></g><g transform="translate(429.908 355.448)"><path d="M450.952,372.234a8.982,8.982,0,1,1-8.983-8.982A8.982,8.982,0,0,1,450.952,372.234Z" transform="translate(-432.988 -363.252)" fill="#252525"/><path d="M449.313,373.02a6.557,6.557,0,1,1-6.557-6.557A6.557,6.557,0,0,1,449.313,373.02Z" transform="translate(-433.774 -364.038)"/><path d="M435.833,372.929a6.833,6.833,0,1,0,6.832-6.832A6.834,6.834,0,0,0,435.833,372.929Zm5.14-2.131c-.467.35-2.566.272-4.015-.48a6.274,6.274,0,0,1,4.654-3.592C441.965,368.34,441.448,370.441,440.973,370.8Zm7.3-.7c-1.449.838-3.7.933-4.185.567-.467-.35-.97-2.381-.653-3.979A6.273,6.273,0,0,1,448.27,370.1Zm-2.966,3.546c.171-.555,1.9-1.718,3.509-1.969a6.349,6.349,0,0,1,.122,1.231,6.252,6.252,0,0,1-1.787,4.38C445.932,376.184,445.133,374.207,445.3,373.644Zm-5.372,4.9c.711-1.463,2.331-2.775,2.913-2.775.56,0,2.094,1.227,2.837,2.63a6.278,6.278,0,0,1-5.75.145Zm-3.533-5.641a6.157,6.157,0,0,1,.054-.813c1.573.162,3.273,1.1,3.487,1.621.224.547-.395,2.6-1.51,3.809A6.252,6.252,0,0,1,436.4,372.906Z" transform="translate(-433.684 -363.948)" fill="url(#e)"/><g transform="translate(7.332 7.333)"><path d="M442.7,374.612a1.649,1.649,0,1,0,1.648-1.65A1.648,1.648,0,0,0,442.7,374.612Z" transform="translate(-442.697 -372.962)" fill="#252525"/><path d="M443.464,374.8a1.069,1.069,0,1,0,1.069-1.07A1.067,1.067,0,0,0,443.464,374.8Z" transform="translate(-442.885 -373.15)" fill="#616161"/></g></g><path d="M468.6,333.463c-2.089,5.609-3.468,11.151-3.468,11.151l4.46.234c1.189-5.857,2.725-11.19,2.725-11.19Z" transform="translate(-10.949 -0.511)" fill="#4d4d4d"/></g></svg>