<svg xmlns="http://www.w3.org/2000/svg" width="166" height="145.26" viewBox="0 0 166 145.26">
  <g id="Group_813" data-name="Group 813" transform="translate(-111.835 -134.966)">
    <path id="Path_1561" data-name="Path 1561" d="M111.835,179.929H151.8v12.157H140.334V221.3H123.683V192.086H111.835V179.929" transform="translate(0 58.921)" fill="#1661ad" fill-rule="evenodd"/>
    <path id="Path_1562" data-name="Path 1562" d="M151.734,196.646,143.321,221.3H127.328l15.686-41.376h17.367l16.06,41.376H160.254l-8.52-24.659" transform="translate(20.303 58.921)" fill="#1661ad" fill-rule="evenodd"/>
    <path id="Path_1563" data-name="Path 1563" d="M146.933,179.929H186.9v12.157H175.434V221.3H158.78V192.086H146.933V179.929" transform="translate(45.994 58.921)" fill="#1661ad" fill-rule="evenodd"/>
    <path id="Path_1564" data-name="Path 1564" d="M186.831,196.646,178.419,221.3H162.427l15.683-41.376h17.367l16.06,41.376H195.353l-8.522-24.659" transform="translate(66.298 58.921)" fill="#1661ad" fill-rule="evenodd"/>
    <path id="Path_1565" data-name="Path 1565" d="M239.99,162.848a37.125,37.125,0,0,0-5.9-8.382c-5.492-5.926-13.246-10.859-22.421-14.262a91.5,91.5,0,0,0-61.026,0c-9.175,3.4-16.929,8.336-22.421,14.262a37.309,37.309,0,0,0-5.905,8.387c11.94-2.886,32.369-6.7,51.336-7.1a4.523,4.523,0,0,1,3.919,1.594c1.012,1.278.936,5.845.908,7.883l-.538,52.752c1.07.032,2.139.06,3.216.06s2.163-.023,3.232-.06l-.543-52.752c-.025-2.038-.1-6.606.908-7.883a4.523,4.523,0,0,1,3.919-1.594c18.96.4,39.377,4.21,51.32,7.093" transform="translate(13.732)" fill="#1661ad" fill-rule="evenodd"/>
    <path id="Path_1566" data-name="Path 1566" d="M202.842,153.054c-17.479-3.953-29.149-4.681-40.668-5.321-10.037-.555-10.164,3.029-9.163,9.877.062.416.146.943.243,1.546,3.366,19.934,7.555,37.092,8.278,40,24.475-5.591,42.124-21.1,42.124-39.312a29.119,29.119,0,0,0-.813-6.793" transform="translate(53.428 16.657)" fill="#1661ad" fill-rule="evenodd"/>
    <path id="Path_1567" data-name="Path 1567" d="M171.519,157.61c1.005-6.848.873-10.432-9.163-9.877-11.522.64-23.2,1.368-40.682,5.323a29.115,29.115,0,0,0-.813,6.79c0,7.874,3.2,15.492,9.265,22.035,5.492,5.931,13.246,10.861,22.421,14.262a80.116,80.116,0,0,0,10.441,3.047c.679-2.731,4.965-20.244,8.375-40.537.058-.39.116-.749.157-1.044" transform="translate(11.827 16.657)" fill="#1661ad" fill-rule="evenodd"/>
  </g>
</svg>
