<?xml version="1.0" encoding="utf-8"?>
<!-- Generator: Adobe Illustrator 25.2.1, SVG Export Plug-In . SVG Version: 6.00 Build 0)  -->
<svg version="1.1" id="Layer_1" xmlns="http://www.w3.org/2000/svg" xmlns:xlink="http://www.w3.org/1999/xlink" x="0px" y="0px"
	 viewBox="0 0 194 78" style="enable-background:new 0 0 194 78;" xml:space="preserve">
<style type="text/css">
	.st0{fill:#4D4D4D;}
	.st1{fill:url(#SVGID_1_);}
	.st2{fill:url(#SVGID_2_);}
	.st3{fill:url(#SVGID_3_);}
	.st4{fill:#828282;}
	.st5{fill:url(#SVGID_4_);}
	.st6{fill:url(#SVGID_5_);}
	.st7{fill:#252525;}
	.st8{fill:url(#SVGID_6_);}
	.st9{fill:#616161;}
	.st10{fill:url(#SVGID_7_);}
</style>
<g transform="translate(2588.446 -33.543)">
	<path class="st0" d="M-2467.6,47.3c0,0-5.3-3.7-7-4.8c-0.9-0.6-2-0.9-3.1-0.9c-1.7-0.2-38.5-0.1-39.5,0.1c-1.1,0.1-0.2,2,0.9,2
		c0.7,0,5.6-0.1,5.6-0.1v3.2h5.3v-3.3c0,0,24.6-0.1,26.5,0c1.1-0.1,2.2,0.4,3,1.2c1.4,1.2,2.9,2.5,2.9,2.5L-2467.6,47.3z"/>
	<path d="M-2409.8,94.2c0,0-3.7-6.1-15.6-5.7c-12,0.4-15.7,6-15.7,6s-22.4-6.2-44.3-7c-21.6-0.7-41.9,6.6-41.9,6.6
		s-5.2-5.9-16.1-6.2c-10.9-0.3-15.3,6.6-15.3,6.6s-4.6-12.8,8.7-20.8c10-6,106.9-11.4,130-1.8C-2403.5,78.8-2409.8,94.2-2409.8,94.2
		z"/>
	<path d="M-2438.9,62.6c-15.3-11.3-26.7-15.7-26.7-15.7s-8.2,12.1,2.9,20.5C-2451.5,75.8-2438.9,62.6-2438.9,62.6z"/>
	<path class="st0" d="M-2580.3,81.2c0.5-0.9,2.6-0.9,2.6-0.9c-0.5-2.2-0.9-4.5-1.1-6.7c0.1-3.4,0.4-6.8,1-10.1
		c0.2-0.9,0.5-1.1,1.6-1.1c1.9,0,58,0.6,58,0.6s0.6-13.2,1-15c0.3-1.5,0.8-1.9,2.3-2.1s16.9-0.9,29.7-0.8
		c11.9,0.2,20.2,0.6,20.8,1.6c0.5,0.8-1.1,1.9-1.1,1.9s5.4,2.8,11,6.3c5.6,3.5,11.2,7.6,13,8c0.9,0.2,1.8,0.1,2.7-0.2
		c0,0,10.2,1.2,15.9,2c5.9,0.9,11.7,2.1,13.8,2.5c1.4,0.2,2.6,1.2,2.9,2.7c0.6,2.1,2.1,8,2.1,8s2.1,0.6,2.6,1.7
		c0.7,1.4,0.7,8.1,0.2,9.4c-0.5,1.2-3.4,3.5-4.7,4.2c-1.2,0.5-2.4,0.9-3.6,1.2c0,0,0.9-10-5.1-15.1c-6-5.2-16.9-4.8-21.7,0.1
		s-4.5,15.3-4.5,15.3h-4.7c0,0-1.1,1.8-2.1,1.8h-68.2c-0.9,0-2.7-1.8-2.7-1.8l-8.5-0.3c0,0,0.4-9.8-5-15.1s-16.7-5.1-22,0.1
		c-5.2,5.2-4.4,15.4-4.4,15.4c-2.6-0.2-5.1-0.6-7.6-1.2c-1.3-0.4-2.4-1.1-3.3-2c0,0-7.1-0.3-9.3-1.9
		C-2579.9,88.7-2580.8,82.1-2580.3,81.2z"/>
	
		<linearGradient id="SVGID_1_" gradientUnits="userSpaceOnUse" x1="-3444.2649" y1="607.0814" x2="-3444.2649" y2="606.1024" gradientTransform="matrix(177.0909 0 0 -26.359 607457.4375 16065.0449)">
		<stop  offset="0" style="stop-color:#AAAAAA"/>
		<stop  offset="1" style="stop-color:#4D4D4D"/>
	</linearGradient>
	<path class="st1" d="M-2402.6,79.9c-0.7-0.6-1.5-1.1-2.4-1.3c0,0-1.4-6.9-2.7-8.2c-1.3-1.2-9.1-2.5-20.5-3.8s-20.9-1.7-20.9-1.7
		c0.2,3.2-0.3,3.6-2.3,3.6c-2.1,0-16.7-1-33.7-1.7c-17-0.7-30.6-1.1-30.6-1.1c-2.1-1.9-2.4-1.9-4-1.9s-54.7-0.6-55.8-0.6
		c-1.2,0-1.5,0.3-1.7,1.3c-0.4,2.8-0.6,5.7-0.7,8.6c0.2,2.7,0.7,5.3,1.3,7.9c0,0-2.2-0.1-2.6,0.5c-0.3,0.6,0.3,4.1,3.2,5.4
		c2.9,1.4,14.9,1.7,14.9,1.7s0.1-8.1,6.1-12.7s18.3-4.4,23.4-0.1c3.2,2.7,5.3,6.4,6.2,10.5c0,0,11.6-3.2,37.8-3.3
		c26.2-0.2,43.7,3.3,43.7,3.3s1.7-6.7,6.5-10.4c4.8-3.8,15.5-4.7,22.3-0.1c6.8,4.6,7.3,13.9,7.3,13.9s3.1-0.3,4.6-2.1
		S-2402,80.8-2402.6,79.9z"/>
	
		<linearGradient id="SVGID_2_" gradientUnits="userSpaceOnUse" x1="-3443.0127" y1="580.3265" x2="-3442.0127" y2="580.3265" gradientTransform="matrix(128.8613 0 0 -9.7803 441099.4375 5746.5786)">
		<stop  offset="0" style="stop-color:#9D9D9D"/>
		<stop  offset="0.109" style="stop-color:#B3B3B3"/>
		<stop  offset="0.242" style="stop-color:#C8C8C8"/>
		<stop  offset="0.373" style="stop-color:#D4D4D4"/>
		<stop  offset="0.5" style="stop-color:#D9D9D9"/>
		<stop  offset="0.627" style="stop-color:#D4D4D4"/>
		<stop  offset="0.758" style="stop-color:#C8C8C8"/>
		<stop  offset="0.891" style="stop-color:#B3B3B3"/>
		<stop  offset="1" style="stop-color:#9D9D9D"/>
	</linearGradient>
	<path class="st2" d="M-2571.6,66.6c0,1.4,48.1,8.3,76.4,9s52.9-3.3,52.4-4.5s-32.9-2.8-62-3.8S-2571.6,65.2-2571.6,66.6z"/>
	
		<linearGradient id="SVGID_3_" gradientUnits="userSpaceOnUse" x1="-3436.8936" y1="575.8205" x2="-3435.8936" y2="575.8205" gradientTransform="matrix(66.043 0 0 -8.8269 224467 5172.6284)">
		<stop  offset="0" style="stop-color:#4D4D4D"/>
		<stop  offset="3.600000e-02" style="stop-color:#4A4A4A"/>
		<stop  offset="0.364" style="stop-color:#353535"/>
		<stop  offset="0.688" style="stop-color:#292929"/>
		<stop  offset="1" style="stop-color:#252525"/>
	</linearGradient>
	<path class="st3" d="M-2515.8,91.1c0,2.2,19.9,2.9,36,3c16.1,0.1,30.1,0.9,30.1-1.3c0-2.2-22.2-7.1-38.3-7.3
		C-2504.1,85.4-2515.8,88.9-2515.8,91.1z"/>
	<path class="st4" d="M-2481.7,70.6c0,0.8,2,1.1,4.6,1.2s5.6,0,5.6-0.8s-2.9-1.5-5.5-1.6S-2481.6,69.9-2481.7,70.6z"/>
	<path class="st4" d="M-2511.8,69.6c0,0.8,2,1.1,4.6,1.2s5.6,0,5.6-0.8c0-0.8-2.9-1.5-5.5-1.6S-2511.8,68.8-2511.8,69.6z"/>
	<path d="M-2452.7,66.7c-2.2,0-27.5-1.3-29.3-1.5c-1.4-0.1-1.9-0.5-2.1-1.8c-0.2-1.7-1.8-11.7-1.9-13.2c-0.1-1.2,0.2-1.8,1.5-1.9
		c1.7-0.1,10.3-0.2,14.8,1.4c4.6,1.7,14,8.9,15.8,10.4s2.4,2.2,2.7,3.9C-2450.9,66.1-2451.2,66.8-2452.7,66.7z"/>
	
		<linearGradient id="SVGID_4_" gradientUnits="userSpaceOnUse" x1="-3423.8347" y1="578.0007" x2="-3421.9907" y2="578.0007" gradientTransform="matrix(31.3381 0 0 -9.2638 104786.1094 5415.5933)">
		<stop  offset="0" style="stop-color:#393939"/>
		<stop  offset="0.26" style="stop-color:#343434"/>
		<stop  offset="0.53" style="stop-color:#282828"/>
		<stop  offset="0.803" style="stop-color:#131313"/>
		<stop  offset="1" style="stop-color:#000000"/>
	</linearGradient>
	<path class="st5" d="M-2454,65.7c-1.9,0-25.8-1.2-27.4-1.3c-1.2-0.1-1.7-0.4-1.8-1.6c-0.2-1.4-0.9-6.3-0.9-6.3
		c5.2-0.3,10.4,0.1,15.5,1.1c7.3,1.5,13.7,4.6,15.2,6C-2452.3,64.8-2452.7,65.7-2454,65.7z"/>
	<path d="M-2491.8,50.1c0.2,1.4,1.1,11.1,1.2,12.8c0.1,1.5-0.5,1.9-2.1,2c-1.9,0-15.8-0.5-17.8-0.6c-1.6-0.1-2.2-0.5-2.3-2.2
		c-0.1-1.8,0.2-9.8,0.3-11.5c0.1-1.6,0.6-2.2,2.1-2.3c1.9-0.2,14.8-0.3,16.6-0.2C-2492.5,48.2-2491.9,48.8-2491.8,50.1z"/>
	
		<linearGradient id="SVGID_5_" gradientUnits="userSpaceOnUse" x1="-3406.5288" y1="565.3047" x2="-3403.5388" y2="565.3047" gradientTransform="matrix(19.3253 0 0 -7.1909 63321.6289 4125.4346)">
		<stop  offset="0" style="stop-color:#393939"/>
		<stop  offset="0.26" style="stop-color:#343434"/>
		<stop  offset="0.53" style="stop-color:#282828"/>
		<stop  offset="0.803" style="stop-color:#131313"/>
		<stop  offset="1" style="stop-color:#000000"/>
	</linearGradient>
	<path class="st6" d="M-2492.1,56.8c0,0,0.5,3.9,0.5,5.5c0.1,1.3-0.4,1.7-1.9,1.7c-1.7,0-14.6-0.4-16.3-0.6c-1.5-0.1-1.4-1-0.5-1.8
		c1.1-1,5-2.8,8.8-3.6C-2498.4,57.4-2495.3,57-2492.1,56.8z"/>
	<path class="st0" d="M-2459.5,66.8c0.6,0.6,5.2,0.9,5.8,0.3c0.5-0.5-0.2-5.1-1.6-6.5c-1.2-1.2-3.5-1.6-4.3-1
		S-2460.1,66.2-2459.5,66.8z"/>
	<path class="st7" d="M-2411.8,91.3c0,7.4-6,13.5-13.5,13.5s-13.5-6-13.5-13.5c0-7.4,6-13.5,13.5-13.5
		C-2417.8,77.9-2411.8,83.9-2411.8,91.3C-2411.8,91.3-2411.8,91.3-2411.8,91.3z"/>
	<path d="M-2415.4,91.3c0,5.4-4.4,9.8-9.8,9.8c-5.4,0-9.8-4.4-9.8-9.8s4.4-9.8,9.8-9.8l0,0C-2419.8,81.5-2415.4,85.9-2415.4,91.3
		C-2415.4,91.3-2415.4,91.3-2415.4,91.3z"/>
	
		<linearGradient id="SVGID_6_" gradientUnits="userSpaceOnUse" x1="-3408.5542" y1="602.6568" x2="-3408.5542" y2="601.6548" gradientTransform="matrix(20.524 0 0 -20.524 67531.9297 12450.1426)">
		<stop  offset="0" style="stop-color:#E6E6E6"/>
		<stop  offset="1" style="stop-color:#4D4D4D"/>
	</linearGradient>
	<path class="st8" d="M-2435.5,91.3c0,5.7,4.6,10.3,10.3,10.3c5.7,0,10.3-4.6,10.3-10.3c0-5.7-4.6-10.3-10.3-10.3c0,0,0,0,0,0
		C-2430.9,81.1-2435.5,85.7-2435.5,91.3z M-2427.8,88.1c-0.7,0.5-3.9,0.4-6-0.7c1.3-2.8,3.9-4.9,7-5.4
		C-2426.3,84.4-2427.1,87.6-2427.8,88.1L-2427.8,88.1z M-2416.8,87.1c-2.2,1.3-5.6,1.4-6.3,0.9c-0.7-0.5-1.5-3.6-1-6
		C-2421,82.3-2418.2,84.3-2416.8,87.1L-2416.8,87.1z M-2421.3,92.4c0.3-0.8,2.9-2.6,5.3-3c0.6,3-0.3,6.2-2.5,8.4
		C-2420.3,96.2-2421.5,93.3-2421.3,92.4L-2421.3,92.4z M-2429.4,99.8c1.1-2.2,3.5-4.2,4.4-4.2c0.8,0,3.1,1.8,4.3,4
		C-2423.4,101-2426.6,101.1-2429.4,99.8z M-2434.7,91.3c0-0.4,0-0.8,0.1-1.2c2.4,0.2,4.9,1.7,5.2,2.4c0.3,0.8-0.6,3.9-2.3,5.7
		C-2433.6,96.5-2434.7,93.9-2434.7,91.3L-2434.7,91.3z"/>
	<path class="st7" d="M-2427.7,91.3c0,1.4,1.1,2.5,2.5,2.5c1.4,0,2.5-1.1,2.5-2.5s-1.1-2.5-2.5-2.5c0,0,0,0,0,0
		C-2426.6,88.9-2427.7,90-2427.7,91.3C-2427.7,91.3-2427.7,91.3-2427.7,91.3z"/>
	<path class="st9" d="M-2426.9,91.3c0,0.9,0.7,1.6,1.6,1.6c0.9,0,1.6-0.7,1.6-1.6c0-0.9-0.7-1.6-1.6-1.6
		C-2426.1,89.7-2426.9,90.5-2426.9,91.3C-2426.9,91.3-2426.9,91.3-2426.9,91.3z"/>
	<path class="st7" d="M-2529.4,91.3c0,7.4-6,13.5-13.5,13.5s-13.5-6-13.5-13.5c0-7.4,6-13.5,13.5-13.5
		C-2535.5,77.9-2529.4,83.9-2529.4,91.3C-2529.4,91.3-2529.4,91.3-2529.4,91.3z"/>
	<path d="M-2533.1,91.3c0,5.4-4.4,9.8-9.8,9.8c-5.4,0-9.8-4.4-9.8-9.8c0-5.4,4.4-9.8,9.8-9.8C-2537.5,81.5-2533.1,85.9-2533.1,91.3
		C-2533.1,91.3-2533.1,91.3-2533.1,91.3z"/>
	
		<linearGradient id="SVGID_7_" gradientUnits="userSpaceOnUse" x1="-3408.5503" y1="602.6549" x2="-3408.5503" y2="601.6529" gradientTransform="matrix(20.522 0 0 -20.522 67407.3672 12448.9072)">
		<stop  offset="0" style="stop-color:#E6E6E6"/>
		<stop  offset="1" style="stop-color:#4D4D4D"/>
	</linearGradient>
	<path class="st10" d="M-2553.2,91.3c0,5.7,4.6,10.3,10.3,10.3s10.3-4.6,10.3-10.3s-4.6-10.3-10.3-10.3c0,0,0,0,0,0
		C-2548.6,81.1-2553.2,85.7-2553.2,91.3z M-2545.5,88.1c-0.7,0.5-3.9,0.4-6-0.7c1.3-2.8,3.9-4.9,7-5.4
		C-2544,84.4-2544.7,87.6-2545.5,88.1L-2545.5,88.1z M-2534.5,87.1c-2.2,1.3-5.6,1.4-6.3,0.9c-0.7-0.5-1.5-3.6-1-6
		C-2538.6,82.3-2535.9,84.3-2534.5,87.1z M-2539,92.4c0.3-0.8,2.9-2.6,5.3-3c0.1,0.6,0.2,1.2,0.2,1.8c0,2.5-1,4.8-2.7,6.6
		C-2538,96.2-2539.2,93.3-2539,92.4L-2539,92.4z M-2547,99.8c1.1-2.2,3.5-4.2,4.4-4.2c0.8,0,3.1,1.8,4.3,4
		C-2541.1,101-2544.3,101.1-2547,99.8z M-2552.3,91.3c0-0.4,0-0.8,0.1-1.2c2.4,0.2,4.9,1.7,5.2,2.4c0.3,0.8-0.6,3.9-2.3,5.7
		C-2551.2,96.5-2552.3,93.9-2552.3,91.3z"/>
	<path class="st7" d="M-2545.4,91.3c0,1.4,1.1,2.5,2.5,2.5c1.4,0,2.5-1.1,2.5-2.5s-1.1-2.5-2.5-2.5c0,0,0,0,0,0
		C-2544.3,88.9-2545.4,90-2545.4,91.3C-2545.4,91.3-2545.4,91.3-2545.4,91.3z"/>
	<path class="st9" d="M-2544.5,91.3c0,0.9,0.7,1.6,1.6,1.6s1.6-0.7,1.6-1.6c0-0.9-0.7-1.6-1.6-1.6l0,0
		C-2543.8,89.7-2544.5,90.4-2544.5,91.3C-2544.5,91.3-2544.5,91.3-2544.5,91.3z"/>
</g>
</svg>
