<svg xmlns="http://www.w3.org/2000/svg" width="29.64" height="24.073" viewBox="0 0 29.64 24.073"><path d="M26.593,9.38c.019.263.019.527.019.79,0,8.031-6.112,17.284-17.284,17.284A17.166,17.166,0,0,1,0,24.727a12.567,12.567,0,0,0,1.467.075,12.166,12.166,0,0,0,7.542-2.6,6.085,6.085,0,0,1-5.68-4.213,7.66,7.66,0,0,0,1.147.094,6.425,6.425,0,0,0,1.6-.207A6.075,6.075,0,0,1,1.2,11.919v-.075a6.118,6.118,0,0,0,2.746.771A6.084,6.084,0,0,1,2.069,4.49a17.267,17.267,0,0,0,12.525,6.357,6.858,6.858,0,0,1-.15-1.392A6.08,6.08,0,0,1,24.957,5.3a11.96,11.96,0,0,0,3.855-1.467A6.058,6.058,0,0,1,26.142,7.18a12.178,12.178,0,0,0,3.5-.94A13.058,13.058,0,0,1,26.593,9.38Z" transform="translate(0 -3.381)" fill="#fff"/></svg>