<svg xmlns="http://www.w3.org/2000/svg" width="31.616" height="22.23" viewBox="0 0 31.616 22.23"><path d="M32.005,7.978a3.973,3.973,0,0,0-2.8-2.813C26.745,4.5,16.858,4.5,16.858,4.5s-9.887,0-12.352.665a3.973,3.973,0,0,0-2.8,2.813,41.674,41.674,0,0,0-.661,7.659A41.674,41.674,0,0,0,1.711,23.3a3.913,3.913,0,0,0,2.8,2.768c2.466.665,12.352.665,12.352.665s9.887,0,12.352-.665a3.913,3.913,0,0,0,2.8-2.768,41.674,41.674,0,0,0,.661-7.659,41.674,41.674,0,0,0-.661-7.659ZM13.624,20.338v-9.4l8.263,4.7-8.263,4.7Z" transform="translate(-1.05 -4.5)" fill="#fff"/></svg>