<svg xmlns="http://www.w3.org/2000/svg" width="101" height="202" viewBox="0 0 101 202">
  <g id="Group_497" data-name="Group 497" transform="translate(-966 -533)">
    <path id="Subtraction_2" data-name="Subtraction 2" d="M0,0V202a100.368,100.368,0,0,0,39.314-7.937,101.009,101.009,0,0,0,17.156-9.312,101.722,101.722,0,0,0,14.948-12.333A101.72,101.72,0,0,0,83.751,157.47a101.009,101.009,0,0,0,9.312-17.156,101.334,101.334,0,0,0,0-78.628A101.011,101.011,0,0,0,83.751,44.53,101.722,101.722,0,0,0,71.418,29.582,101.721,101.721,0,0,0,56.47,17.249,101.007,101.007,0,0,0,39.314,7.937,100.37,100.37,0,0,0,0,0Z" transform="translate(1067 735) rotate(180)" fill="#707070" opacity="0.998"/>
    <path id="Icon_material-navigate-next" data-name="Icon material-navigate-next" d="M18.717,9l-5.832,5.832L31.83,33.818,12.885,52.8l5.832,5.832L43.535,33.818Z" transform="translate(990.115 600)" fill="#fff"/>
  </g>
</svg>
